<?xml version="1.0" standalone="no"?>
<!DOCTYPE svg PUBLIC "-//W3C//DTD SVG 1.1//EN" "http://www.w3.org/Graphics/SVG/1.1/DTD/svg11.dtd" >
<svg xmlns="http://www.w3.org/2000/svg" xmlns:xlink="http://www.w3.org/1999/xlink" version="1.1">
<metadata></metadata>
<defs>
<font id="respirablack" horiz-adv-x="585" >
<font-face units-per-em="1200" ascent="960" descent="-240" />
<missing-glyph horiz-adv-x="396" />
<glyph unicode="&#xfb01;" horiz-adv-x="768" d="M739 0h-235q14 8 15 56q5 267 5 686l-141 -128q-37 3 -104 5q0 -448 2 -468q4 -19 33 -35.5t57 -16.5q16 0 42 14q-5 -4 -42.5 -33.5t-75 -58.5t-54.5 -40q-13 -9 -26 -9q-6 0 -7 1q-44 11 -73 34q-37 30 -37 88q0 22 0.5 190t0.5 336q-17 0 -51.5 -0.5t-57.5 -0.5 q-17 0 -6 11l265 252q16 16 23 16t7 -9v-133q56 2 245 2q109 5 179 14q0 -377 6 -707q0 -37 6.5 -49.5t23.5 -16.5zM706 986q29 0 45.5 7.5t46.5 33.5q-124 -117 -170 -146t-89 -29q-29 0 -100.5 17.5t-150.5 49.5l153 135q199 -68 265 -68z" />
<glyph unicode="&#xfb02;" horiz-adv-x="773" d="M742 0h-235q14 8 15 56q0 69 1.5 345.5t1.5 349.5v6l-156 -143q-17 2 -90 4q0 -447 2 -467q4 -19 33 -35.5t57 -16.5q16 0 42 14q-5 -4 -42.5 -33.5t-75 -58.5t-54.5 -40q-13 -9 -26 -9q-6 0 -7 1q-44 11 -73 34q-37 30 -37 88q0 21 0.5 189t0.5 336h-109q-17 0 -6 11 l265 271q16 16 23 16t7 -9v-152q84 3 246 3q1 6 10 12l99 86q-34 -23 -74 -23q-32 0 -112 27.5t-160 75.5l148 137q230 -106 285 -106q23 0 38.5 8t44.5 35q-60 -60 -99 -96q1 -93 2.5 -393t4.5 -457q0 -37 6.5 -49.5t23.5 -16.5z" />
<glyph unicode="f&#xe3;" horiz-adv-x="1016" d="M281 151q4 -19 33 -35.5t57 -16.5q16 0 42 14q-5 -4 -42.5 -33.5t-75 -58.5t-54.5 -40q-13 -9 -26 -9q-6 0 -7 1q-44 11 -73 34q-37 30 -37 88q0 22 0.5 189t0.5 337q-69 0 -109 -1q-17 0 -6 11l265 252q16 16 23 16t7 -9v-133q97 3 286 3l-159 -146q-46 3 -127 5 q0 -449 2 -468zM1033 0h-234q-19 15 -23.5 50.5t-4.5 132.5q0 11 3.5 148t3.5 205q0 82 -93 113q-49 17 -90 17q-11 0 -25.5 -7.5t-25.5 -15.5t-33 -26l-33 -27q21 19 58.5 53t65 58t47.5 38q55 37 94 37q59 0 128 -40q46 -27 66 -52.5t20 -61.5q0 -69 -3.5 -236.5 t-3.5 -211.5q0 -43 5.5 -75t13.5 -49.5t20 -29t21.5 -15t22.5 -5.5zM1067 1031l-103 -104q-68 -70 -137 -70q-39 0 -105 26.5t-109 26.5q-30 0 -77.5 -24.5t-79.5 -24.5q-64 0 -168 58l153 135q129 -71 177 -71q21 0 59 20.5t65 20.5q25 0 110.5 -27.5t112.5 -27.5 q18 0 38.5 12t63.5 50zM723 127l-132 -142q-26 10 -76 40.5t-94 69.5l146 138q106 -84 156 -106z" />
<glyph unicode="fb" horiz-adv-x="1106" d="M890 773q76 0 127 -74t51 -200q0 -106 -50.5 -186.5t-146.5 -173.5q-96 -96 -182 -156q-64 4 -146.5 36.5t-151.5 77.5q-101 -85 -150 -116q-13 -9 -26 -9q-6 0 -7 1q-44 11 -73 34q-37 30 -37 88q0 22 0.5 189t0.5 337q-69 0 -109 -1q-17 0 -6 11l265 272q16 16 23 16 t7 -9v-152q79 3 229 3l117 105q-40 -31 -85 -31q-28 0 -105 27.5t-152 70.5l148 137q221 -101 270 -101q23 0 40 9t44 34q-95 -91 -108 -103v-90v-99.5v-78.5q74 68 112 97q46 35 101 35zM845 120q54 114 54 268q0 277 -177 277q-13 0 -45 -25q0 -252 6 -284l-147 -134 q60 -39 146 -71.5t138 -32.5q9 0 25 2zM281 151q5 -19 34.5 -35.5t59.5 -16.5q17 0 28 10l101 88v556l-150 -139q-15 2 -75 4q0 -448 2 -467z" />
<glyph unicode="fh" horiz-adv-x="1147" d="M288 938l148 137q230 -106 285 -106q23 0 38.5 8t44.5 35q-52 -52 -106 -102q0 -46 0.5 -141.5t0.5 -145.5q83 77 137 115q51 35 82 35q64 0 116 -54.5t52 -127.5q0 -47 -4.5 -208t-4.5 -209q0 -43 5.5 -75t13.5 -49.5t20 -29t21.5 -15t22.5 -5.5h-229q-19 15 -23.5 50.5 t-4.5 132.5q0 19 4.5 146t4.5 161q0 80 -26 115q-52 60 -116 60q-16 0 -71 -45q2 -288 6 -554q0 -37 6.5 -49.5t23.5 -16.5h-228q14 8 15 56q0 69 1.5 345.5t1.5 349.5v6l-156 -143q-17 2 -90 4q0 -447 2 -467q4 -19 33 -35.5t57 -16.5q16 0 42 14q-5 -4 -42.5 -33.5 t-75 -58.5t-54.5 -40q-13 -9 -26 -9q-6 0 -7 1q-44 11 -73 34q-37 30 -37 88q0 21 0.5 189t0.5 336h-109q-17 0 -6 11l265 271q16 16 23 16t7 -9v-152q84 3 246 3q1 6 10 12q23 19 52.5 46t35.5 32q-25 -15 -63 -15q-32 0 -112 27.5t-160 75.5z" />
<glyph unicode="f&#xec;" horiz-adv-x="767" d="M738 0h-235q14 8 15 56q5 243 5 609q-4 65 -20 81l-147 -134l-77 4q0 -446 2 -465q4 -19 33 -35.5t57 -16.5q16 0 42 14q-5 -4 -42.5 -33.5t-75 -58.5t-54.5 -40q-13 -9 -26 -9q-6 0 -7 1q-44 11 -73 34q-37 30 -37 88q0 22 0.5 190t0.5 336q-15 0 -51 -0.5t-58 -0.5 q-17 0 -6 11l265 252q16 16 23 16t7 -9v-133h198h31h7q139 7 187 16q0 -377 6 -707q0 -37 6.5 -49.5t23.5 -16.5zM288 919l153 135q61 -27 80 -30l11 -6q-3 -11 4 -41q-41 -36 -75 -59q-21 21 -24 48q-2 24 12.5 41t40.5 20q19 1 31 -3q5 -2 27 -2t37 7.5t45 33.5 q-63 -60 -94 -86q12 -46 37.5 -93t60.5 -73q-130 73 -164 99q-6 3 -9 8q-44 -30 -90 -30q-23 0 -36 5.5t-47 25.5z" />
<glyph unicode="fj" horiz-adv-x="768" d="M528 508q0 49 -2 132t-2 102l-141 -128q-37 3 -104 5q0 -448 2 -468q4 -19 33 -35.5t57 -16.5q16 0 42 14q-5 -4 -42.5 -33.5t-75 -58.5t-54.5 -40q-13 -9 -26 -9q-6 0 -7 1q-44 11 -73 34q-37 30 -37 88q0 22 0.5 190t0.5 336q-17 0 -51.5 -0.5t-57.5 -0.5q-17 0 -6 11 l265 252q16 16 23 16t7 -9v-133q56 2 249 2q109 5 175 14q0 -31 -0.5 -180t-0.5 -240q-1 -65 4 -157.5t5 -117.5q0 -27 -6.5 -52t-15.5 -45.5t-30 -45.5t-37.5 -43t-50.5 -47t-57.5 -48t-70 -56.5l-77.5 -62.5q96 84 131 160.5t35 190.5q0 55 -2 202t-2 277zM706 986 q29 0 45.5 7.5t46.5 33.5q-124 -117 -170 -146t-89 -29q-29 0 -100.5 17.5t-150.5 49.5l153 135q199 -68 265 -68z" />
<glyph unicode="fk" horiz-adv-x="1142" d="M735 0h-228q14 8 15 56q0 69 1.5 345.5t1.5 349.5v6l-156 -143q-17 2 -90 4q0 -447 2 -467q4 -19 33 -35.5t57 -16.5q16 0 42 14q-5 -4 -42.5 -33.5t-75 -58.5t-54.5 -40q-13 -9 -26 -9q-6 0 -7 1q-44 11 -73 34q-37 30 -37 88q0 21 0.5 189t0.5 336h-109q-17 0 -6 11 l265 271q16 16 23 16t7 -9v-152q84 3 246 3q1 6 10 12q23 19 52.5 46t35.5 32q-25 -15 -63 -15q-32 0 -112 27.5t-160 75.5l148 137q230 -106 285 -106q23 0 38.5 8t44.5 35q-52 -52 -106 -102q1 -93 2.5 -391.5t4.5 -452.5q0 -37 6.5 -49.5t23.5 -16.5zM747 331l135 113 q15 -23 48.5 -74.5t54.5 -83t45.5 -67t38.5 -52.5q42 -53 76 -53q22 0 51 22q-108 -108 -154 -139q-14 -10 -28 -10q-38 0 -92 74q-74 99 -175 270zM821 635l144 136q137 -108 165 -120l-145 -126q-74 32 -164 110z" />
<glyph horiz-adv-x="0" />
<glyph unicode="&#xd;" horiz-adv-x="396" />
<glyph horiz-adv-x="0" />
<glyph horiz-adv-x="0" />
<glyph unicode=" "  horiz-adv-x="396" />
<glyph unicode="&#x09;" horiz-adv-x="396" />
<glyph unicode="&#xa0;" horiz-adv-x="396" />
<glyph unicode="!" horiz-adv-x="438" d="M219 276l171 -138l-171 -160l-170 145zM353 1072l5 -8q-120 -449 -138 -778q-9 163 -40.5 294.5t-85.5 277.5z" />
<glyph unicode="&#x22;" horiz-adv-x="326" d="M82 960q18 0 30.5 -13.5t12.5 -31.5q0 -11 -9.5 -103.5t-21.5 -222t-15 -220.5q-3 90 -14 220t-20 222.5t-9 102.5q0 18 14.5 32t31.5 14zM247 960q18 0 30.5 -13.5t12.5 -31.5q0 -11 -9.5 -103.5t-21.5 -222t-15 -220.5q-3 90 -14 220t-20 222.5t-9 102.5q0 18 14.5 32 t31.5 14z" />
<glyph unicode="#" horiz-adv-x="971" d="M486 263q-71 0 -157 -2q0 -41 5 -244q-4 -3 -9 -7.5t-6.5 -5t-5 -0.5t-9.5 1q3 72 7 151.5t5 104.5q-48 -2 -234 -8q-3 4 -7.5 9t-5 6.5t-1 5t1.5 9.5q192 -10 246 -10q2 78 2 147q0 113 -1 154q-69 -3 -235 -8q-3 4 -7.5 9t-5 6.5t-1 5t1.5 9.5q145 -7 247 -11l-4 232 q11 8 16 9t17 -2q-12 -162 -15 -239q43 -1 154 -1h148q0 34 -2 106t-2 127q11 8 15.5 9t16.5 -2q-12 -162 -15 -239q114 0 242 5q8 -11 9 -15.5t-2 -16.5q-115 11 -249 15q-2 -27 -2 -152v-149l244 6q8 -11 9 -15.5t-2 -16.5q-115 11 -251 15q0 -41 5 -244q-3 -3 -7 -6.5 t-5.5 -4.5t-4 -2t-5.5 -0.5t-8 1.5q3 72 7.5 150.5t5.5 105.5q-86 2 -146 2zM486 575q-35 0 -85.5 -0.5t-69.5 -0.5q-2 -27 -2 -153v-148q44 -1 156 -1h147q2 78 2 148q0 35 -0.5 85.5t-0.5 67.5q-86 2 -147 2z" />
<glyph unicode="$" horiz-adv-x="804" d="M778 297q0 -98 -101 -192.5t-233 -127.5q2 -161 4 -194q-2 -3 -4 -7.5t-2.5 -4.5t-4 -1.5t-8.5 1.5l6 204q-49 -11 -87 -11h-3q0 -128 3 -181q-2 -3 -4 -7.5t-2.5 -4.5t-4 -1.5t-8.5 1.5q3 58 5 193q-130 2 -207 52.5t-137 168.5l181 101q69 -163 165 -229q1 37 4 361 q-60 23 -93 36.5t-81 39t-73 49t-44 59t-19 76.5q0 90 93.5 181.5t214.5 123.5q-2 134 -2 174q5 4 8 8q1 2 4 1q4 -1 7 -2q-4 -76 -6 -178q46 11 85 11h3q0 32 -0.5 86t-0.5 74q5 4 8 8q1 2 4 1q4 -1 7 -2q-4 -72 -6 -167q120 -2 189 -46.5t130 -152.5l-169 -94 q-49 148 -152 210q-1 -50 -1.5 -107t-1 -123t-0.5 -101q46 -18 70 -28t66 -29.5t64.5 -34t52 -37t44.5 -45t26 -51.5t11 -61zM630 158q0 74 -49.5 125t-137.5 92q0 -238 1 -361q22 -2 29 -2q82 0 119.5 36.5t37.5 109.5zM340 627l-2 323q-14 2 -22 2q-77 0 -113.5 -38 t-36.5 -97q0 -63 45.5 -107.5t128.5 -82.5zM343 416q0 -237 1 -364q42 -27 91 -36q3 112 5 360q-20 10 -97 40zM348 949q-1 -48 -4 -324q24 -12 96 -40l-2 334q-38 22 -90 30z" />
<glyph unicode="%" horiz-adv-x="1040" d="M524 485q47 51 239.5 265.5t216.5 244.5q6 0 8.5 -5t0.5 -12q-27 -24 -202.5 -214t-259.5 -282q-82 -89 -266 -292t-208 -233q-6 -2 -8.5 3.5t-0.5 13.5q25 25 228 241.5t252 269.5zM375 496q11 50 11 145q0 102 -27 147q-37 60 -109 60q-35 0 -62 -9q-12 -61 -12 -142 q0 -88 33 -146q38 -64 105 -64q34 0 61 9zM84 748q8 12 24 29t42 42l26 25q37 37 58 55.5t55.5 37t66.5 18.5q52 0 80.5 -16.5t56.5 -52.5q40 -54 40 -143q0 -79 -61 -162q-32 -43 -75 -80q-22 -19 -46 -49q-65 -72 -139 -72q-53 0 -81 15.5t-55 51.5q-45 61 -45 149 q0 79 53 152zM832 93q11 50 11 145q0 102 -27 147q-37 60 -109 60q-35 0 -62 -9q-12 -61 -12 -142q0 -88 33 -146q38 -64 105 -64q34 0 61 9zM541 345q8 12 24 29t42 42l26 25q37 37 58 55.5t55.5 37t66.5 18.5q52 0 80.5 -16.5t56.5 -52.5q40 -54 40 -143q0 -79 -61 -162 q-32 -43 -75 -80q-22 -19 -46 -49q-65 -72 -139 -72q-53 0 -81 15.5t-55 51.5q-45 62 -45 149q0 79 53 152z" />
<glyph unicode="&#x26;" horiz-adv-x="1200" d="M825 865l-150 -129q-79 77 -125 102.5t-98 25.5q-40 0 -69 -17q30 -87 113.5 -216t183 -246.5t205 -201.5t171.5 -84q38 0 62.5 19.5t92.5 98.5q-100 -127 -173 -185.5t-142 -58.5q-64 0 -158.5 74t-183.5 181t-163.5 215.5t-114.5 186.5q-15 28 -17 60q2 38 37 78 q30 35 83 81q107 96 147.5 121t68.5 25q55 0 106 -26.5t124 -103.5zM286 -27q-116 0 -177 73q-50 55 -50 138q0 59 67.5 131t224.5 183q-130 -110 -130 -188q0 -96 53 -156q46 -56 145 -56q41 0 75.5 22t70.5 65q-80 -101 -145.5 -156.5t-133.5 -55.5zM767 519l137 124 q57 -60 119.5 -95t95.5 -35q32 0 80 48q-119 -122 -156.5 -152t-66.5 -30q-81 0 -209 140z" />
<glyph unicode="'" horiz-adv-x="161" d="M82 960q18 0 30.5 -13.5t12.5 -31.5q0 -11 -9.5 -103.5t-21.5 -222t-15 -220.5q-3 90 -14 220t-20 222.5t-9 102.5q0 18 14.5 32t31.5 14z" />
<glyph unicode="(" horiz-adv-x="492" d="M288 448q0 -89 3 -158t15.5 -154.5t33.5 -147.5t60 -117t93 -84q-215 86 -310.5 239t-95.5 422q0 100 22.5 185.5t57.5 145t87.5 111t102.5 84t112 62.5q-181 -108 -181 -588z" />
<glyph unicode=")" horiz-adv-x="492" d="M204 448q0 480 -181 588q62 -30 112 -62.5t102.5 -84t87.5 -111t57.5 -145t22.5 -185.5q0 -269 -95 -421.5t-311 -239.5q54 29 93 84t60 117t33.5 147.5t15.5 154.5t3 158z" />
<glyph unicode="*" horiz-adv-x="588" d="M291 665q7 -31 21.5 -71.5t25 -68t10.5 -33.5q0 -40 -15.5 -60.5t-39.5 -20.5t-40.5 20.5t-16.5 60.5q0 6 10 33.5t24 68t21 71.5zM291 711q-8 31 -22 70t-23.5 64.5t-9.5 32.5q0 40 17.5 63t41.5 23q23 0 38 -22.5t15 -63.5q0 -7 -9.5 -32t-24 -64.5t-23.5 -70.5z M315 701q20 22 47.5 55t44.5 52.5t22 22.5q39 20 65.5 16.5t38.5 -24.5q13 -18 1 -43t-49 -46q-7 -3 -32 -7t-65 -11t-73 -15zM269 676q-21 -22 -48.5 -55t-45.5 -55t-24 -25q-38 -20 -61.5 -17t-35.5 24q-13 17 -3.5 43.5t44.5 46.5q5 3 31.5 8t68.5 13t74 17zM312 679 q30 -9 71.5 -17t69.5 -13.5t34 -8.5q36 -20 47 -48.5t-3 -45.5q-27 -44 -101 -2q-6 3 -23.5 24t-45 54.5t-49.5 56.5zM272 701q-31 8 -73 15.5t-69.5 12.5t-33.5 8q-35 20 -45 45t3 42q27 49 99 10q4 -3 22 -24.5t45.5 -53.5t51.5 -55z" />
<glyph unicode="+" horiz-adv-x="796" d="M201 616h119v107q0 89 -5 102h170q-5 -7 -5 -95v-114h109q87 0 102 5v-162q-5 4 -95 4h-116v-128q0 -70 9 -99h-177q8 24 8 89v138h-109q-70 0 -99 -9v170q24 -8 89 -8z" />
<glyph unicode="," horiz-adv-x="418" d="M209 276l170 -146q-121 -135 -369 -336q148 145 190 196l-161 133z" />
<glyph unicode="-" horiz-adv-x="731" d="M12 297l191 172q270 -8 514 13l-190 -180q-222 15 -515 -5z" />
<glyph unicode="." horiz-adv-x="418" d="M209 276l171 -138l-171 -160l-170 145z" />
<glyph unicode="/" horiz-adv-x="718" d="M358 489q11 26 84 192.5t136.5 313t72.5 169.5q14 6 16 -12q-20 -40 -147.5 -319t-157.5 -346q-9 -20 -86.5 -194.5t-143.5 -325.5t-75 -177q-11 -7 -16 12q18 33 151 322t166 365z" />
<glyph unicode="0" horiz-adv-x="894" d="M530 773q155 0 237.5 -83.5t82.5 -231.5q0 -201 -194 -314q30 61 30 178q0 315 -299 315q-74 0 -147 -38q50 82 118 128t172 46zM366 -15q-149 0 -237 82t-88 228q0 178 198 303q-30 -61 -30 -162q0 -167 80 -242t233 -75q88 0 133 24q-89 -158 -289 -158z" />
<glyph unicode="1" horiz-adv-x="353" d="M319 0h-281q20 6 28 14t13.5 37t6.5 90q5 262 5 453q-2 51 -6.5 75t-21.5 40.5t-43 21t-80 6.5q187 -1 331 22q-8 -338 -1 -588q1 -71 8 -108.5t15.5 -47.5t25.5 -15z" />
<glyph unicode="2" horiz-adv-x="814" d="M348 433q-81 -154 -187 -154q-56 0 -89.5 32t-33.5 84q0 59 47 115.5t130 101.5q-24 -43 -24 -90q0 -46 26 -80t65 -34q40 0 66 25zM279 191q153 131 206.5 189t53.5 112q0 70 -50.5 110t-139.5 40q-80 0 -133 -29q42 72 113 116t170 44q114 0 174.5 -50.5t60.5 -135.5 q0 -46 -28 -88.5t-79.5 -81.5t-104.5 -71.5t-124.5 -76t-118.5 -78.5zM55 3l199 170q20 10 117 10h259q72 0 118 14t68.5 33.5t53.5 60.5l6 -4q-72 -82 -192 -288h-626z" />
<glyph unicode="3" horiz-adv-x="849" d="M350 398q-33 -58 -80.5 -95.5t-103.5 -37.5q-67 0 -101 32t-34 90q0 123 176 216q-22 -45 -22 -105q0 -54 25 -88t74 -34q35 0 66 22zM493 327q24 26 37 43.5t25 48.5t12 66q0 71 -51.5 112.5t-147.5 41.5q-87 0 -159 -35q41 70 113 119.5t178 49.5q123 0 187 -53 t65 -150q0 -47 -23 -88t-61.5 -70.5t-82.5 -50.5t-92 -34zM623 -113q25 29 32 58t7 69q0 76 -91.5 122t-233.5 56l144 123q94 -8 167 -30t121 -63t48 -95q0 -70 -51 -132t-143 -108zM228 97q-21 -33 -21 -89q0 -64 65.5 -107.5t150.5 -43.5q125 0 197 28q-29 -39 -52 -64.5 t-61 -57t-87 -48t-106 -16.5q-119 0 -186 46.5t-67 116.5q0 66 39 122t128 113z" />
<glyph unicode="4" horiz-adv-x="934" d="M210 170h309q0 93 1 249.5t1 196.5l166 174l3 -620h46q55 0 87.5 4t58.5 20t40.5 31.5t43.5 54.5l6 -4q-83 -95 -184 -276h-97q0 -23 0.5 -70t1.5 -65q1 -71 8 -108.5t15.5 -47.5t25.5 -15h-274q20 6 28.5 14t14 37.5t5.5 89.5q0 16 0.5 71.5t0.5 93.5h-524l-3 6l137 155 q13 9 83 9zM155 191q132 163 134 313q1 67 -32 102.5t-98 35.5q-50 0 -85 -28q79 160 204 160q77 0 121.5 -42.5t44.5 -111.5q0 -54 -20.5 -106.5t-65 -108t-82 -94.5t-101.5 -101q-13 -13 -20 -19z" />
<glyph unicode="5" horiz-adv-x="823" d="M295 757h312q102 0 153.5 24t111.5 84l6 -4q-121 -108 -265 -287h-403l4 -349l-169 -156v401q0 16 52 68l90 91zM576 -111q46 60 46 197q0 95 -51.5 155t-159.5 60q-106 0 -186 -68q91 102 167 151t159 49q124 0 181.5 -67.5t57.5 -175.5q0 -93 -58.5 -172t-155.5 -129z M209 82q-21 -33 -21 -89q0 -62 53.5 -100.5t140.5 -38.5q122 0 192 33q-29 -41 -52 -67.5t-61.5 -58.5t-87 -48.5t-106.5 -16.5q-105 0 -165 42t-60 109q0 66 39 122t128 113z" />
<glyph unicode="6" horiz-adv-x="899" d="M672 181q26 56 26 177q0 125 -62.5 197.5t-184.5 72.5q-77 0 -123.5 -26.5t-97.5 -92.5q77 128 162 196t196 68q134 0 203.5 -79.5t69.5 -198.5q0 -94 -51.5 -175.5t-137.5 -138.5zM219 534q0 -402 285 -402q94 0 167 48q-27 -49 -49.5 -80.5t-56.5 -63t-78.5 -46.5 t-102.5 -15q-150 0 -246 113.5t-96 308.5q0 174 91.5 323t250 249.5t361.5 144.5q-124 -28 -225 -88.5t-166 -139t-100 -169.5t-35 -183z" />
<glyph unicode="7" horiz-adv-x="810" d="M713 528q-38 -124 -65.5 -210t-59 -174.5t-57 -146.5t-55.5 -113.5t-58.5 -88.5t-62.5 -59t-71 -36.5t-80 -10.5q-97 0 -151.5 45t-54.5 124q0 65 46 123t115 94q-14 -30 -14 -66q0 -57 36 -89t107 -32q108 0 206.5 148t218.5 492zM825 758l-92 -174q-13 -10 -110 -10 h-357q-72 0 -117.5 -14.5t-65.5 -33.5t-51 -60l-6 4q71 84 179 288h620z" />
<glyph unicode="8" horiz-adv-x="846" d="M535 621q23 25 35 41t24 46.5t12 64.5q0 68 -47.5 107.5t-138.5 39.5q-80 0 -143 -31q38 63 108.5 107.5t162.5 44.5q108 0 168.5 -50.5t61.5 -142.5q0 -85 -72 -143.5t-171 -83.5zM659 284q0 40 -32 67.5t-83.5 42t-114 26t-125 26t-114 35.5t-83.5 61.5t-32 97.5 q0 70 51 132t143 108q-25 -29 -32 -58t-7 -69q0 -47 32 -79t83.5 -47.5t114 -27t125 -24t114 -31t83.5 -56t32 -91.5q0 -136 -200 -235q45 52 45 122zM245 413q-54 -58 -54 -132q0 -69 62.5 -114.5t163.5 -45.5q119 0 194 39q-44 -79 -118 -135t-179 -56q-127 0 -206 52.5 t-79 147.5q0 66 51 123.5t165 120.5z" />
<glyph unicode="9" horiz-adv-x="899" d="M228 567q-26 -56 -26 -177q0 -125 62.5 -197.5t184.5 -72.5q77 0 123.5 26.5t97.5 92.5q-75 -127 -161.5 -195.5t-196.5 -68.5q-134 0 -203.5 79.5t-69.5 198.5q0 94 51.5 175.5t137.5 138.5zM681 214q0 402 -285 402q-94 0 -167 -48q52 100 115.5 152.5t171.5 52.5 q150 0 246 -113.5t96 -308.5q0 -271 -190.5 -474.5t-547.5 -331.5q143 55 252.5 132.5t176 165.5t99.5 181.5t33 189.5z" />
<glyph unicode=":" horiz-adv-x="418" d="M209 738l168 -136l-168 -158l-168 143zM209 272l168 -136l-168 -158l-168 143z" />
<glyph unicode=";" horiz-adv-x="418" d="M209 739l171 -138l-171 -160l-170 145zM209 276l170 -146q-121 -135 -369 -336q148 145 190 196l-161 133z" />
<glyph unicode="&#x3c;" horiz-adv-x="796" d="M173 585l378 163q81 34 88 44l59 -132q-7 4 -85 -34l-325 -136l325 -80q92 -19 95 -18l-38 -149q-4 5 -86 26l-387 101q-64 16 -92 16l23 88l-37 85q22 0 82 26z" />
<glyph unicode="=" horiz-adv-x="796" d="M201 744h388q87 0 102 5v-162q-5 4 -95 4h-385q-70 0 -99 -9v170q24 -8 89 -8zM201 489h388q87 0 102 5v-162q-5 4 -95 4h-385q-70 0 -99 -9v170q24 -8 89 -8z" />
<glyph unicode="&#x3e;" horiz-adv-x="796" d="M256 750l378 -163q60 -26 82 -26l-45 -94l22 -75q-20 0 -91 -19l-384 -115q-83 -27 -85 -29l-43 147q18 0 94 22l326 93l-323 135q-78 38 -85 34l66 134q7 -10 88 -44z" />
<glyph unicode="?" horiz-adv-x="571" d="M307 272l153 -137l-161 -153l-154 146zM369 634l23 -216q-7 -6 -91 -74q-13 -11 -27 -22.5t-25 -20.5t-20 -16.5t-13 -10.5l-5 -4q0 23 -1 35q-2 42 -2 78q-2 51 -3 112q92 74 127.5 108.5t52.5 71t17 91.5q0 88 -71 134t-179 46q-70 0 -127 -28l182 149q36 9 82 9 q116 0 189 -49t73 -144q0 -54 -46.5 -115t-135.5 -134z" />
<glyph unicode="@" horiz-adv-x="1399" d="M341 738q-146 -152 -146 -372q0 -242 126.5 -371.5t344.5 -129.5q148 0 242 42t207 153q-300 -321 -568 -321q-220 0 -347.5 127.5t-127.5 347.5q0 130 73.5 269t195.5 255zM1033 144q161 134 161 342q0 79 -27 148.5t-81.5 127t-146.5 91t-212 33.5q-211 0 -363 -127 q115 104 246 165.5t251 61.5q119 0 211 -30.5t149.5 -84t87 -123.5t30.5 -153q0 -115 -90 -242.5t-216 -208.5zM608 609q122 80 197 80q39 0 66.5 -19t77.5 -70q23 20 117 73q-59 -76 -139 -246t-74 -234q0 -15 25 -50.5t41 -40.5q32 0 77 24q-99 -62 -185 -62 q-37 0 -76 33.5t-41 83.5q-1 35 24.5 96t51 106t68.5 116q-107 124 -183 124q-17 0 -47 -14zM600 604q-35 -33 -65 -123q-22 -72 -12.5 -160.5t43.5 -118.5q44 29 171 168q-135 -159 -290 -299q-8 -6 -28 -6t-26 6q-27 19 -34 70.5t4 113t34 117.5q53 130 203 232z" />
<glyph unicode="A" horiz-adv-x="1065" d="M943 219q0 -69 9 -83q23 -36 61 -36q17 0 40 14q-4 -4 -61.5 -58.5t-78.5 -70.5q-13 -11 -31 -11q-39 0 -83 47q-36 40 -36 88v75q-136 -139 -181 -175t-83 -36q-56 0 -188.5 55.5t-178.5 55.5q-35 0 -64 -18.5t-112 -95.5l-2 -1l151 142l266 261q-166 42 -244 42 q-35 0 -62.5 -14t-71.5 -55q93 97 154 145q-56 69 -56 195q0 134 100.5 236.5t247.5 102.5q124 0 215.5 -51t171.5 -154l85 83l135 133l1 -1l-95 -97q0 -51 -4.5 -361t-4.5 -357zM292 560q53 0 220 -50l178 175q-79 103 -165.5 147t-200.5 44q-111 0 -166 -67t-55 -161 q0 -89 45 -157q89 69 144 69zM595 331q-57 0 -219 40l-295 -288q88 77 124 101t74 24q56 0 184 -54.5t173 -54.5q23 0 44.5 14.5t82.5 73.5l5 264q-75 -72 -112.5 -96t-60.5 -24zM752 455q9 0 16 3q5 208 5 302l-257 -251q184 -54 236 -54z" />
<glyph unicode="B" horiz-adv-x="988" d="M354 739l111 111q0 -279 5 -436l-176 -174q1 37 -1 145q-131 -4 -197.5 71t-66.5 209q0 66 30 132.5t83 120t133.5 87t172.5 33.5q160 0 280.5 -76.5t172.5 -198.5l-144 -130q-86 255 -395 255q-144 0 -231 -81.5t-87 -191.5q0 -98 63.5 -164.5t185.5 -64.5q-6 209 1 285 q11 19 60 68zM549 467l134 122q104 -22 177 -96t73 -163q0 -79 -44 -119q-15 -13 -54.5 -44.5t-60.5 -49.5q-81 -70 -120 -99q-25 -21 -44 -28.5t-46 -7.5q-65 0 -218.5 49t-221.5 49q-31 0 -65.5 -24t-85.5 -75q128 131 194 186t103 55q46 0 224.5 -54t243.5 -54 q18 0 42 11q8 42 8 79q0 92 -68.5 165t-170.5 98z" />
<glyph unicode="C" horiz-adv-x="958" d="M423 670l128 118l5 -410l-183 -176l-2 400q0 21 52 68zM330 884l147 136q334 -109 401 -109q35 0 62.5 14t71.5 55q-204 -204 -310 -204q-55 0 -161.5 32t-210.5 76zM947 363q-11 -51 -36 -105.5t-64.5 -107.5t-88 -95t-111.5 -68t-130 -26q-90 0 -163.5 22.5 t-123.5 60.5t-84.5 89.5t-50 109t-15.5 119.5q0 144 48.5 245.5t191.5 265.5q-16 -21 -29.5 -42t-23 -43t-16 -38.5t-11 -41.5t-7 -37t-3.5 -39t-1 -35.5v-38v-34.5q0 -204 104.5 -310.5t311.5 -106.5q110 0 194.5 77t107.5 179z" />
<glyph unicode="D" horiz-adv-x="1115" d="M791 112q1 1 7 10.5t9 14.5t9.5 17.5t10.5 22.5t10.5 26.5t10.5 31.5t8.5 36.5t7 43.5t4.5 49t2 56q0 229 -121 344.5t-332 115.5q-93 0 -163 -25t-108.5 -67.5t-56.5 -91.5t-18 -104q0 -100 65 -166.5t191 -62.5l-1 326q14 21 67 71l105 97l5 -469l-175 -158l-1 132 q-134 -6 -202.5 69.5t-68.5 210.5q0 69 26 133.5t77 120t139 89.5t201 34q262 0 398.5 -131t136.5 -344q0 -65 -11 -118t-34 -93.5t-36.5 -59t-39.5 -47.5q-50 -55 -122 -114zM785 107q-68 -62 -126 -107q-25 -21 -44 -28.5t-46 -7.5q-65 0 -204 57t-208 57q-62 0 -180 -118 q145 147 213.5 203.5t118.5 56.5q49 0 207 -62t216 -62q36 0 53 11zM684 541l130 -116l-148 -141l-131 111z" />
<glyph unicode="E" horiz-adv-x="955" d="M512 816l5 -461l-169 -154l-2 460q19 20 61 58zM332 894q33 31 147 129q114 -38 228.5 -66t166.5 -28q34 0 60.5 13t62.5 46q-113 -115 -176.5 -154.5t-122.5 -39.5q-58 0 -160 28t-206 72zM941 353q-14 -66 -49 -132.5t-88.5 -126t-132 -96.5t-166.5 -37q-135 0 -233 57 t-145 148.5t-47 203.5q0 144 48.5 245.5t191.5 265.5q-15 -19 -27 -39.5t-21.5 -36.5t-16.5 -38.5t-11.5 -35t-8 -37.5t-5 -33.5t-2.5 -36t-1 -31.5v-34v-31q0 -209 102.5 -315t301.5 -106q125 0 205 68t105 178zM662 597q131 -58 212 -58q17 0 34 11t48 41 q-109 -111 -160.5 -150t-85.5 -39q-76 0 -190 57q95 95 142 138z" />
<glyph unicode="F" horiz-adv-x="922" d="M358 -51q-117 0 -183.5 73t-66.5 169q0 132 126 190q-116 -56 -116 -172q0 -75 48.5 -111.5t122.5 -36.5q51 0 85.5 35.5t34.5 87.5q0 27 -7.5 57.5t-16.5 51.5t-25.5 56t-24.5 55q-129 0 -198.5 80t-69.5 213q0 136 104.5 236.5t264.5 100.5q76 0 249.5 -56t231.5 -56 q35 0 69.5 19.5t99.5 76.5q-146 -143 -218 -191t-124 -48q-60 0 -208 52.5t-224 52.5q-102 0 -166 -66.5t-64 -170.5q0 -98 66 -169t187 -73q-38 91 -39 165q-2 57 14 93q11 29 61 76l118 104q-42 -51 -42 -144q0 -70 15 -128.5t36.5 -100t43 -81t36.5 -90t15 -107.5 q0 -105 -65 -174t-170 -69zM518 477l142 140q72 -46 108.5 -59.5t71.5 -13.5q30 0 74 42q-111 -111 -152 -140.5t-73 -29.5q-86 0 -171 61z" />
<glyph unicode="G" horiz-adv-x="1071" d="M439 689l105 87l5 -393l-171 -159l-2 402q17 24 63 63zM352 883q62 64 147 129q117 -38 248 -71t181 -33q35 0 62.5 14t71.5 55q-204 -204 -310 -204q-59 0 -184 33.5t-216 76.5zM640 107q62 0 102 19.5t73 58.5q-162 -224 -351 -224q-180 0 -282 111.5t-102 278.5 q0 140 52.5 240.5t202.5 271.5q-36 -46 -57 -90t-28.5 -94t-9 -75t-1.5 -83q0 -209 99.5 -311.5t301.5 -102.5zM620 455l109 104l265 1v-442l-177 -172l3 455l-245 -1q-5 0 -5 4q0 5 50 51z" />
<glyph unicode="H" horiz-adv-x="1144" d="M483 652l173 137q-1 -9 -3 -153q-2 -62 4.5 -185t6.5 -160q0 -147 -89.5 -250.5t-233.5 -103.5q-83 0 -145.5 29t-96 74t-49.5 91.5t-16 90.5q0 48 27.5 78.5t65.5 41.5q-90 -33 -90 -120q0 -68 57.5 -113.5t153.5 -45.5q109 0 173.5 73t64.5 182q0 26 -2.5 98t-2.5 94 q0 19 1 77t1 65zM1060 112l-181 -161l9 437q0 97 -26 135t-117 38q-22 0 -72 -12l154 132q54 17 87 17q83 0 119 -47.5t36 -169.5q0 -72 -5 -210q0 -21 -1.5 -74.5t-2.5 -84.5zM658 801q-58 0 -237 41.5t-239 41.5q-54 0 -85.5 -15t-75.5 -59q127 133 185.5 175t121.5 42 t241.5 -42.5t242.5 -42.5q53 0 79 13.5t72 58.5q-136 -146 -182 -179.5t-123 -33.5zM371 296l-178 -168l-2 381q0 95 10 126q10 29 21.5 48.5t38.5 41.5q25 22 79 61t71 52q-42 -39 -42 -166z" />
<glyph unicode="I" horiz-adv-x="715" d="M515 806q-60 0 -183.5 29.5t-197.5 29.5q-35 0 -62.5 -14t-71.5 -55q120 126 178.5 169.5t100.5 43.5q63 0 186.5 -30t182.5 -30q14 0 25.5 1t19.5 2.5t17.5 6t14.5 6.5t15 10t14 12t17.5 16t19.5 18q-34 -34 -73 -74.5t-56.5 -58.5t-39.5 -38t-35.5 -27t-31.5 -12 t-40 -5zM463 -45q-59 0 -188.5 34.5t-203.5 34.5q-35 0 -62.5 -14t-71.5 -55q120 126 178.5 169.5t100.5 43.5q63 0 192 -30t188 -30q14 0 25.5 1t19.5 2.5t17.5 6t14.5 6.5t15 10t14 12t17.5 16t19.5 18q-17 -19 -44.5 -50t-39 -44.5t-32.5 -36t-30.5 -31t-25.5 -22.5 t-26 -19t-24 -11.5t-26.5 -8.5t-27.5 -2zM337 269q0 44 -18.5 90.5t-40.5 80.5t-40.5 79t-18.5 86q0 57 40.5 107.5t123.5 106.5q-30 -24 -30 -66q0 -34 20.5 -76.5t44.5 -76t44.5 -79.5t20.5 -87q0 -76 -49 -141t-144 -128q47 36 47 104z" />
<glyph unicode="J" horiz-adv-x="796" d="M575 797q-63 0 -213.5 39.5t-209.5 39.5q-57 0 -89.5 -16.5t-89.5 -76.5q137 146 199.5 191.5t118.5 45.5q52 0 220 -45.5t229 -45.5q29 0 54.5 14.5t69.5 54.5q-119 -124 -176.5 -162.5t-112.5 -38.5zM512 140q13 20 19.5 36.5t11.5 48t3.5 80.5t-9.5 122q-6 60 -8 98 t6.5 76t19.5 60.5t42 56.5t62 60.5t92 74.5q-18 -18 -29.5 -36.5t-17 -47t-8 -47.5t1 -63.5t6 -67t9.5 -84.5q5 -47 6 -85t-5 -68.5t-12.5 -53.5t-23.5 -44t-30 -34.5t-39 -29.5t-44.5 -25.5t-52.5 -26.5zM306 -25q-47 0 -130 31.5t-119 31.5q-33 0 -56 -12.5t-63 -57.5 q111 132 161.5 173t96.5 41q51 0 129.5 -30t118.5 -30q34 0 64 15q-52 -79 -99.5 -120.5t-102.5 -41.5zM291 538l142 -125l-161 -154l-143 121zM326 770l107 -97l-141 -135l-112 103z" />
<glyph unicode="K" horiz-adv-x="978" d="M412 275l148 128q32 8 50 8q49 0 85 -33.5t57.5 -81.5t41.5 -96.5t49 -82t68 -33.5q35 0 54.5 23t27.5 82q-4 -77 -70 -155.5t-125 -78.5q-51 0 -85.5 34t-53 82t-37.5 96t-54 82t-88 34q-7 0 -68 -8zM480 808q-61 0 -168 34t-174 34q-43 0 -74 -14.5t-75 -54.5 q121 127 180 168.5t112 41.5q55 0 168.5 -34.5t174.5 -34.5q36 0 62.5 10t40 20.5t52.5 45.5q-139 -139 -173 -166q-57 -47 -113 -50h-13zM283 -49q-46 0 -121 36.5t-109 36.5q-35 0 -62.5 -14t-71.5 -55q120 126 178.5 169.5t100.5 43.5q46 0 112.5 -32t105.5 -32 q14 0 25.5 1t19.5 2.5t17.5 6t14.5 6.5t15 10t14 12t17.5 16t19.5 18q-17 -19 -44.5 -50t-39 -44.5t-32.5 -36t-30.5 -31t-25.5 -22.5t-26 -19t-24 -11.5t-26.5 -8.5t-27.5 -2zM158 463q-46 80 -45.5 145.5t43.5 121.5t133 116q-34 -26 -37.5 -65.5t15.5 -88t66 -132.5 q33 -58 37.5 -111.5t-18.5 -101t-64 -88.5t-104 -82q26 19 35.5 53t-4.5 94.5t-57 138.5zM366 514q43 53 63 77.5t54 63t54 56t48 37t52.5 27t50.5 7.5q67 0 110 -41t43 -99q0 -33 -26.5 -68t-70 -65t-81 -50.5t-78.5 -39.5q84 62 84 133q0 39 -32.5 70.5t-74.5 31.5 q-38 0 -80 -29t-116 -111z" />
<glyph unicode="L" horiz-adv-x="943" d="M156 465q-35 61 -43.5 111t11 98.5t56 92.5t101.5 104q-28 -43 -31.5 -86t15 -94t63.5 -131q30 -53 37 -97.5t-2 -78.5t-42 -70.5t-68 -63t-96 -67.5q38 29 52 61t2.5 86.5t-55.5 134.5zM552 1036q82 0 132.5 -47.5t50.5 -123.5q0 -157 -271 -330q78 55 104 95t26 100 q0 81 -52 130t-138 49q-80 0 -117 -33q35 37 57 57.5t58 48.5t73.5 41t76.5 13zM487 -75q-52 0 -107.5 20t-97 44t-96.5 44t-106 20q-46 0 -76 -17t-91 -80q120 141 186.5 188t114.5 47q65 0 145 -30.5t154.5 -61t127.5 -30.5t86 31q-62 -97 -119 -136t-121 -39zM733 105 q14 26 14 63q0 85 -82 173l169 152q24 -34 34 -51t19.5 -44t9.5 -55q0 -54 -41 -110t-123 -128z" />
<glyph unicode="M" horiz-adv-x="1273" d="M724 236q0 -64 12 -87q28 -43 65 -43q45 0 97 38q-7 -6 -40.5 -38.5t-64.5 -61t-46 -40.5q-37 -29 -76 -29q-32 0 -76 47q-39 44 -39 97l4 237l-104 89l107 105l3 166q0 88 -35 125t-119 37q-72 0 -154 -61q99 99 165.5 148.5t122.5 49.5q188 0 188 -214q0 -93 -4 -234 l93 -82l-96 -92q0 -19 -0.5 -58t-1.5 -54q-1 -17 -1 -45zM1151 226q0 -70 9 -83q23 -36 61 -36q17 0 40 14q-6 -5 -39 -36.5t-63 -59.5t-46 -40q-13 -11 -31 -11q-36 0 -80 47q-33 37 -33 88l10 602q0 97 -26 131t-99 34q-64 0 -111 -45q103 106 139 134q62 48 117 48 q82 0 122 -48.5t40 -168.5q0 -89 -5 -311q-4 -153 -5 -259zM207 272q0 38 -17.5 80t-39 73t-39 73t-17.5 81q0 52 37 107.5t120 124.5q-31 -34 -31 -68q0 -36 20 -79t44.5 -77t44.5 -78.5t20 -82.5q0 -60 -46 -119t-154 -134q58 45 58 99zM278 -18q-41 0 -115 28t-108 28 q-33 0 -53.5 -10.5t-50.5 -38.5q95 109 144.5 147t99.5 38q33 0 106 -26t107 -26q31 0 52 6t30 12.5t36 27.5q-5 -6 -15 -17q-50 -57 -72 -80.5t-52 -48.5t-54 -32.5t-55 -7.5z" />
<glyph unicode="N" horiz-adv-x="915" d="M803 781q0 -85 -5 -303q-4 -146 -5 -252q0 -70 9 -83q23 -36 61 -36q17 0 40 14q-6 -5 -39 -36.5t-63 -59.5t-46 -40q-13 -11 -31 -11q-36 0 -80 47q-33 37 -33 88l10 587q0 88 -42 135.5t-123 47.5q-40 0 -75 -20.5t-97 -74.5q4 -14 24 -76.5t27.5 -89t16 -71.5t8.5 -79 q0 -139 -210 -286q61 46 61 114q0 77 -29.5 174t-59 186.5t-29.5 147.5q0 66 40.5 115.5t143.5 125.5q-30 -27 -30 -82t37 -179q14 13 40 38q63 60 91.5 86t67.5 56t67.5 40.5t58.5 10.5q86 0 140 -63t54 -171zM284 -18q-38 0 -113 28.5t-109 28.5q-33 0 -55 -13t-69 -56 q119 131 168.5 172t99.5 41q38 0 107.5 -26t114.5 -26q9 0 16 0.5t13 1t12 2.5t10 2.5t10 4t8 4.5t9 6.5t9 7t10.5 8.5t11.5 9q-103 -117 -129 -141q-63 -53 -124 -54z" />
<glyph unicode="O" horiz-adv-x="1147" d="M226 529q0 -211 100 -316.5t308 -105.5q127 0 205 76q80 121 80 269q0 206 -92 313t-285 112l145 139q185 -12 282.5 -122.5t97.5 -277.5q0 -140 -57.5 -244t-172.5 -192q-22 -33 -49 -64t-70 -69.5t-99 -62t-116 -23.5q-89 0 -161.5 22.5t-120.5 60.5t-80.5 91 t-46.5 111.5t-14 124.5q0 82 21.5 155t65.5 139.5t90 118.5t115 118q-146 -155 -146 -373zM531 867l5 -488l-175 -158l-2 478q20 29 67 71zM721 539l134 -119l-153 -146l-135 115z" />
<glyph unicode="P" horiz-adv-x="1114" d="M822 163q-47 -57 -117 -125q-23 -23 -39.5 -29.5t-47.5 -6.5h-115l1 -215l-172 -155l-1 370h-246q108 104 153 143q23 20 53 20h39v191l-1 356q20 29 64 68l105 97l4 -713q79 0 197 -0.5t123 -0.5zM822 163q61 112 61 277q0 228 -126.5 344t-339.5 116 q-93 0 -164.5 -27.5t-112 -73t-60.5 -97t-20 -106.5q0 -46 17 -89t49 -78t84.5 -55t117.5 -18q-134 -6 -208.5 74.5t-74.5 215.5q0 68 27.5 135.5t80 126t143 95t203.5 36.5q262 0 398.5 -131t136.5 -344q0 -107 -56 -202.5t-156 -198.5zM684 541l130 -116l-148 -141 l-131 111z" />
<glyph unicode="Q" horiz-adv-x="1147" d="M226 529q0 -211 100 -316.5t308 -105.5q127 0 205 76q80 121 80 269q0 206 -92 313t-285 112l145 139q185 -12 282.5 -122.5t97.5 -277.5q0 -140 -57.5 -244t-172.5 -192q-22 -33 -49 -64t-70 -69.5t-99 -62t-116 -23.5q-89 0 -161.5 22.5t-120.5 60.5t-80.5 91 t-46.5 111.5t-14 124.5q0 82 21.5 155t65.5 139.5t90 118.5t115 118q-146 -155 -146 -373zM808 -367q-52 0 -148.5 32.5t-197 64.5t-160.5 32q-35 0 -62.5 -14t-71.5 -55q120 126 178.5 169.5t100.5 43.5q63 0 249 -55t245 -55q14 0 25.5 1t19.5 2.5t17.5 6t14.5 6.5t15 10 t14 12t17.5 16t19.5 18q-23 -26 -55 -63.5t-47.5 -55t-38 -41.5t-36 -34.5t-31 -21.5t-33.5 -15t-35 -4zM531 867l5 -488l-175 -158l-2 478q20 29 67 71zM721 539l134 -119l-153 -146l-135 115z" />
<glyph unicode="R" horiz-adv-x="1066" d="M456 351l140 124l45 2q50 4 97 -36q48 48 48 151q0 135 -101.5 212.5t-292.5 77.5q-154 0 -246 -77.5t-92 -189.5q0 -90 55 -151t163 -67l2 252q20 29 67 71l105 97l-1 -472l-175 -158l2 209q-116 5 -174.5 75t-58.5 194q0 66 33.5 131t91.5 117t146.5 84.5t190.5 32.5 q108 0 194.5 -28t140 -74.5t81.5 -104t28 -119.5q0 -69 -54 -138t-152 -126q34 -31 69.5 -96.5t60.5 -120t67 -97t92 -42.5q45 0 70 23.5t33 81.5q-4 -81 -77 -157.5t-158 -76.5q-56 0 -98 41.5t-69 100.5t-54 117.5t-68 99t-97 39.5zM404 -48q-41 0 -79.5 15.5t-65 34 t-70 34t-94.5 15.5q-35 0 -62.5 -14t-71.5 -55q115 120 178.5 161t110.5 41q49 0 157.5 -51.5t158.5 -51.5q17 0 33.5 12.5t65.5 59.5q-125 -129 -171 -165t-90 -36z" />
<glyph unicode="S" horiz-adv-x="1031" d="M762 148q-97 -193 -266 -193q-61 0 -150.5 33.5t-164 67t-99.5 33.5q-31 0 -60 -21t-111 -96l-2 -1l162 158l209 192q-86 25 -134.5 60t-48.5 92q0 27 9 49t33.5 45.5t43 37.5t62.5 45q-30 -37 -30 -77q0 -46 52.5 -73t151.5 -51l114 104q-157 43 -198 60 q-113 51 -116 126q0 30 21.5 58t70.5 74q97 90 125 112q32 24 47 30q18 8 50 8q43 0 182 -44.5t181 -44.5q32 0 51.5 8t43.5 30l-312 -287q67 -20 112.5 -38.5t92.5 -48t70.5 -70t23.5 -92.5t-33.5 -105t-72.5 -88t-95 -74q35 35 51.5 70.5t16.5 87.5q0 39 -18 72t-45 55 t-71 42t-82 32t-92 26l-113 -104q14 -4 46 -11.5t47 -11.5t43 -12t43 -14t36 -15t32.5 -18t23 -20.5t16.5 -25t5 -28.5q0 -91 -144 -186q21 16 30 31.5t9 41.5q0 23 -18 41.5t-56 32.5t-72 23t-91.5 22.5t-88.5 21.5l-199 -184q80 74 138 74q32 0 109.5 -32t163.5 -63.5 t138 -31.5q46 0 74 14.5t53 50.5zM337 852q0 -20 9.5 -36.5t29.5 -30t41.5 -24t56 -21t61.5 -18t70 -19t70 -19.5l276 254q-77 -70 -125 -94.5t-93 -24.5q-39 0 -168 45t-171 45q-28 0 -49 -8q-8 -17 -8 -49z" />
<glyph unicode="T" horiz-adv-x="894" d="M891 353q-14 -67 -47 -133t-84 -125.5t-126.5 -96.5t-162.5 -37q-186 0 -288 105t-102 275q0 82 19.5 153t59.5 132t82.5 107.5t105.5 104.5q-63 -65 -90.5 -147.5t-27.5 -214.5q0 -369 369 -369q112 0 190.5 71t101.5 175zM702 791q-60 0 -267.5 41t-281.5 41 q-35 0 -62.5 -14t-71.5 -55q118 124 178.5 167t104.5 43q63 0 272 -40.5t267 -40.5q32 0 54.5 7t33.5 15t28 25q-109 -124 -151.5 -156.5t-103.5 -32.5zM553 800l5 -468l-175 -158l-2 458q14 21 67 71z" />
<glyph unicode="U" horiz-adv-x="963" d="M993 1013q-123 -129 -171.5 -165t-96.5 -36q-36 0 -100 33.5t-90 33.5q-47 0 -117 -66q124 128 166 163t82 35q33 0 100.5 -33.5t102.5 -33.5q29 0 54.5 14.5t69.5 54.5zM12 43q110 111 153.5 146t79.5 35q41 0 100 -36t117 -72t95 -36q42 0 104 64q-102 -112 -149 -147 t-92 -35q-36 0 -78.5 22t-76 48.5t-77 48.5t-79.5 22q-6 0 -11 -0.5t-10.5 -2.5t-9.5 -3.5t-10 -6t-9 -6.5t-10.5 -8.5t-11 -9.5t-12.5 -11t-13 -12zM55 104q94 112 129.5 228.5t35.5 272.5q0 108 -38 189t-105 81q-22 0 -75 -45q21 18 94.5 86.5t94.5 83.5q14 12 37 12 q71 0 116 -81.5t45 -195.5q0 -73 -21 -148.5t-52.5 -137t-79 -129t-88 -114t-93.5 -102.5zM663 675l184 184q-5 -134 -5 -638q0 -69 9 -83q23 -36 61 -36q22 0 47 20q-5 -5 -39 -37t-63 -59t-45 -39q-13 -11 -31 -11q-39 0 -83 47q-36 41 -36 88zM502 260l-139 115l149 145 l137 -121z" />
<glyph unicode="V" horiz-adv-x="919" d="M645 1018q36 0 74.5 -20.5t82.5 -41t95 -20.5q29 0 54.5 14.5t69.5 54.5q-119 -124 -176.5 -162.5t-112.5 -38.5q-50 0 -118 43t-110 43q-40 0 -114 -73q119 123 169 162t86 39zM601 165q39 36 55.5 81.5t16 102.5t-1.5 137q-2 66 6 108.5t39 86.5t71 80t121 99 q-35 -35 -48.5 -66.5t-14.5 -78t2 -121.5q3 -84 -1.5 -139.5t-18 -103.5t-42.5 -80t-73 -58t-111 -48zM376 -31q-51 0 -124.5 28t-110.5 28q-30 0 -51 -13t-52 -44q108 122 159.5 161.5t99.5 39.5q36 0 107.5 -26.5t108.5 -26.5q31 0 50 11.5t36 35.5q-45 -81 -104.5 -137.5 t-118.5 -56.5zM466 331q-18 -27 -79 -95l-60 -68q-33 131 -168 579q-29 87 -42 104q-24 31 -62 31q-20 0 -47 -20q2 2 57 63t74 77q17 15 48 15q41 0 74 -42q29 -36 51 -109q5 -17 36.5 -121t65 -218.5t52.5 -195.5z" />
<glyph unicode="W" horiz-adv-x="1350" d="M623 213l3 164l-96 81l99 104l3 173q2 84 -23 109q-31 31 -76 31q-47 0 -95 -39q111 111 155 144q35 29 73 29q52 0 97 -48q38 -43 38 -106l-6 -262l95 -81l-98 -102l-2 -112q0 -103 38 -147.5t132 -44.5q40 0 71 17t70 51q-29 -27 -69.5 -67.5t-60.5 -59t-47.5 -40.5 t-50 -30t-47.5 -8q-90 0 -146.5 63.5t-56.5 180.5zM436 350q-32 -40 -85 -95q-9 -9 -30.5 -32t-33.5 -36q-11 60 -31.5 154.5t-37 168t-35 151t-19.5 83.5q-22 83 -35 104q-21 31 -61 31q-21 0 -48 -20q1 1 34 35.5t62 62.5t44 40q25 17 51 17q37 0 67 -40q28 -33 46 -111 q78 -295 112 -513zM1224 545q57 -93 31 -184t-144 -179q18 16 22 40.5t-6 58.5t-26.5 68.5t-44.5 84.5q-58 103 -26 185t172 183q-53 -40 -48.5 -91.5t70.5 -165.5zM424 -49q-51 0 -136.5 47t-137.5 47q-32 0 -52.5 -10.5t-58.5 -46.5q111 121 159.5 156t105.5 35 q41 0 91.5 -26t100.5 -52t92 -26q27 0 50 21q-80 -84 -128.5 -114.5t-85.5 -30.5zM1078 1002q45 0 113.5 -28.5t108.5 -28.5q33 0 55 13t69 56q-119 -131 -168.5 -172t-99.5 -41q-38 0 -103 26t-110 26q-31 0 -52 -6t-30 -12.5t-36 -27.5q103 117 129 141q63 53 124 54z" />
<glyph unicode="X" horiz-adv-x="936" d="M344 867l41 -62q127 131 171 165.5t83 34.5q41 0 82 -23.5t78 -47t69 -23.5q36 0 56 14t90 84l4 -2l-137 -128l-332 -321l231 -348q34 -50 73 -87q25 -22 59 -22q12 0 33.5 15t86.5 73q-37 -33 -93.5 -84.5t-91 -82t-49.5 -42.5q-13 -11 -31 -11q-22 0 -63 46 q-50 54 -112 150l-1 1q-125 -127 -167 -160t-80 -33q-36 0 -73.5 18.5t-64 40.5t-61 40.5t-65.5 18.5q-38 0 -64.5 -18.5t-109.5 -106.5q-2 0 -4 2q-1 1 -1 2l144 140l357 340l-214 324q-32 50 -64 82q-23 23 -60 23q-14 0 -33.5 -16.5t-71.5 -74.5q53 63 110 121.5t83 77.5 q20 17 50 17q36 0 70 -37q27 -29 72 -100zM481 97q25 0 44 12t65 58l-185 279l-340 -329q55 50 85.5 68.5t69.5 18.5q35 0 72 -16.5t63.5 -37t60.5 -37t65 -16.5zM504 880q-25 0 -46.5 -13.5t-72.5 -62.5l160 -241l335 324q-45 -39 -61 -52t-40 -25t-50 -12t-61 20.5 t-77.5 41t-86.5 20.5z" />
<glyph unicode="Y" horiz-adv-x="924" d="M751 213q0 47 -23.5 96t-51.5 84t-51.5 84t-23.5 95q0 63 47 126t153 163q-65 -70 -65 -128q0 -49 22.5 -99.5t49.5 -87t49.5 -88t22.5 -101.5q0 -57 -38.5 -108t-122.5 -116q-74 -83 -130.5 -121.5t-109.5 -38.5q-54 0 -118.5 27.5t-130.5 55.5t-123 28q-62 0 -180 -118 q145 148 216.5 204t136.5 56q52 0 118.5 -30t131.5 -60.5t112 -30.5q46 0 78 29l-1 -1q32 37 32 80zM118 775q0 69 -9 83q-23 36 -61 36q-15 0 -40 -15q5 5 62.5 60t77.5 70q13 11 31 11q39 0 83 -47q36 -41 36 -88q0 -34 -3 -118.5t-3 -132.5q0 -81 37.5 -116.5 t121.5 -35.5q94 0 141 16l-156 -134q-39 -16 -118 -16q-205 0 -205 237q0 43 2.5 109t2.5 81zM605 1021q46 0 114 -30t106 -30q29 0 54.5 14.5t69.5 54.5q-127 -134 -173 -169t-96 -35q-47 0 -114 29t-96 29q-51 0 -124 -73q107 125 163.5 167.5t95.5 42.5z" />
<glyph unicode="Z" horiz-adv-x="928" d="M571 398q-66 0 -168 34l-354 -354q59 56 110 86.5t114 30.5q77 0 222.5 -39t193.5 -39q50 0 79.5 31t29.5 77q0 41 -28 70.5t-75 29.5q-78 0 -107 -71q31 78 116 78q72 0 118 -39t46 -115q0 -89 -70 -155t-183 -66q-94 0 -268 50t-237 50q-59 0 -103.5 -26t-124.5 -107 l-2 -1l146 142l371 370q-129 39 -195 39q-33 0 -59 -14.5t-68 -54.5q114 126 169 169.5t96 43.5q60 0 196 -44l335 334q-65 -63 -120.5 -95t-121.5 -32q-75 0 -223.5 39.5t-197.5 39.5q-58 0 -95 -24.5t-120 -120.5l1 1q149 184 196 228q60 57 120 64l26 1q59 0 225.5 -43 t245.5 -43q46 0 81.5 23t114.5 102l2 1l-128 -142l-334 -335q101 -31 154 -31q15 0 26.5 1t22.5 4.5t17 6t16.5 11t14.5 12.5t18 17t21 20q-31 -33 -69 -75t-53.5 -58.5t-37.5 -37.5t-35 -27.5t-29.5 -11.5t-37.5 -5z" />
<glyph unicode="[" horiz-adv-x="493" d="M96 -121v1110q0 19 5 23.5t31 4.5h318q3 0 4.5 -2.5t0 -4.5t-4.5 -2h-177v-1153h177q3 0 4.5 -2t0 -4t-4.5 -2h-311q-31 0 -37 5t-6 27z" />
<glyph unicode="\" horiz-adv-x="718" d="M360 489q38 -86 168.5 -370.5t148.5 -316.5q-5 -19 -16 -12q-9 26 -75 177t-143.5 325.5t-86.5 194.5q-30 67 -157.5 346t-147.5 319q2 18 16 12q22 -56 143.5 -337.5t149.5 -337.5z" />
<glyph unicode="]" horiz-adv-x="493" d="M397 989v-1110q0 -22 -6 -27t-37 -5h-311q-3 0 -4.5 2t0 4t4.5 2h177v1153h-177q-3 0 -4.5 2t0 4.5t4.5 2.5h318q26 0 31 -4.5t5 -23.5z" />
<glyph unicode="^" horiz-adv-x="971" d="M637 352l-165 167l-132 -167h-4q-5 0 -6.5 4t2.5 11l207 237q12 17 26 5l179 -165q2 -8 -38 -50t-49 -42h-20z" />
<glyph unicode="_" horiz-adv-x="814" d="M404 -24q188 0 326 7q6 -5 6 -15t-6 -14q-115 9 -324 9q-207 0 -324 -9q-7 4 -7 14t7 15q138 -7 322 -7z" />
<glyph unicode="`" horiz-adv-x="971" d="M407 743q-26 28 -26 60q0 22 16.5 38t42.5 16q25 0 41 -14q-9 -28 16 -118t74 -136q-107 93 -164 154z" />
<glyph unicode="a" d="M602 0h-234q-19 15 -23.5 50.5t-4.5 132.5q0 11 3.5 148t3.5 205q0 82 -93 113q-49 17 -90 17q-11 0 -25.5 -7.5t-25.5 -15.5t-33 -26l-33 -27q21 19 58.5 53t65 58t47.5 38q55 37 94 37q59 0 128 -40q46 -27 66 -52.5t20 -61.5q0 -69 -3.5 -236.5t-3.5 -211.5 q0 -43 5.5 -75t13.5 -49.5t20 -29t21.5 -15t22.5 -5.5zM292 127l-132 -142q-26 10 -76 40.5t-94 69.5l146 138q106 -84 156 -106z" />
<glyph unicode="b" horiz-adv-x="690" d="M261 934v-293q39 39 112 97q46 35 101 35q76 0 127 -74t51 -200q0 -106 -50.5 -186.5t-146.5 -173.5q-96 -96 -182 -156q-63 4 -147 36.5t-152 76.5l114 100v581q-2 50 -6 74.5t-17.5 41t-33 21t-58.5 6.5q140 0 288 14zM483 388q0 277 -177 277q-14 0 -45 -26 q0 -251 6 -283l-148 -134q60 -40 146.5 -72t138.5 -32q9 0 25 2q54 114 54 268z" />
<glyph unicode="c" horiz-adv-x="588" d="M299 -12q-84 0 -149 45q-66 47 -89.5 112t-23.5 188q0 84 11.5 120.5t44.5 74.5q30 38 112 120q3 3 19 19.5t21 20.5t19.5 18.5t21.5 19.5t20 16t21.5 15t20 10t21.5 8t20 2q42 0 99 -30.5t104 -79.5l-153 -136q-60 54 -108 83.5t-100 29.5q-15 0 -23 -3q-8 -47 -6 -193 q0 -143 22.5 -202.5t86.5 -95.5q55 -31 126 -31q30 0 55 12.5t79 62t150 153.5q-151 -168 -214 -234t-96 -89q-55 -36 -112 -36z" />
<glyph unicode="d" horiz-adv-x="667" d="M607 948q-3 -12 -4.5 -79t-1.5 -168.5v-196t0.5 -196.5t0.5 -134q0 -43 5.5 -75t13.5 -49.5t20 -29t21.5 -15t22.5 -5.5h-228q-24 20 -28 105q-52 -52 -112 -97q-46 -35 -101 -35q-76 0 -127 74t-51 200q0 97 21 165t60 117t111 107q75 60 198 127v9q0 95 -13.5 125.5 t-53.5 34.5q112 0 246 16zM429 183v459h-77q-80 0 -110 -8q-35 -118 -35 -276q0 -277 177 -277q14 0 45 26v76z" />
<glyph unicode="e" horiz-adv-x="586" d="M35 337q0 83 10.5 117.5t46.5 80.5q40 50 113 123q119 119 168 119t108.5 -30.5t107.5 -76.5l-381 -332q9 -87 38.5 -125.5t99.5 -70.5q50 -23 105 -23q30 0 55 12.5t79 62t150 153.5q-151 -168 -214 -234t-96 -89q-55 -36 -112 -36q-89 0 -161 45q-63 37 -90 107.5 t-27 196.5zM202 489q0 -102 6 -150l222 204q-103 101 -197 101q-20 0 -23 -1q-8 -41 -8 -154z" />
<glyph unicode="f" horiz-adv-x="455" d="M215 -28q-6 0 -7 1q-44 11 -73 34q-37 30 -37 88q0 22 0.5 190t0.5 336q-17 0 -51.5 -0.5t-57.5 -0.5q-17 0 -6 11l265 252q16 16 23 16t7 -9v-133q97 3 286 3l-159 -146q-46 3 -127 5q0 -448 2 -468q4 -19 33 -35.5t57 -16.5q16 0 42 14q-5 -4 -42.5 -33.5t-75 -58.5 t-54.5 -40q-13 -9 -26 -9zM453 870q-68 0 -165 49l153 135q136 -50 189 -50q22 0 37 7.5t45 33.5q-124 -117 -170 -146t-89 -29z" />
<glyph unicode="g" horiz-adv-x="671" d="M450 -188q0 48 -6.5 158t-8.5 151q-91 -79 -126.5 -100.5t-65.5 -21.5q-84 0 -144.5 63.5t-60.5 184.5q0 133 39 215t136 172q39 36 123 102q31 24 60 26q50 3 124 3q91 0 148 -4l-63 -62v-312q0 -152 7 -297l8 -145q0 -20 -6 -34t-28 -31q-86 -72 -283 -218 q-11 -8 -19 -8q-57 0 -152 59q-108 67 -108 107q0 4 2 14q51 35 134 90.5t113 75.5q-20 -14 -66 -51q-23 -18 -29 -32q6 -37 97 -90q98 -57 153 -57q8 0 10 2q12 7 12 40zM385 107q28 0 50 16q-3 71 -3 146v207q0 46 4 73l76 71q-89 7 -172 7q-67 0 -99 -4q-34 -70 -34 -265 q0 -76 14.5 -128t41 -77.5t55.5 -35.5t67 -10z" />
<glyph unicode="h" horiz-adv-x="701" d="M714 0h-229q-19 15 -23.5 50.5t-4.5 132.5q0 19 4.5 146t4.5 161q0 80 -26 115q-50 60 -116 60q-15 0 -78 -51q0 -260 5 -548q0 -37 6.5 -49.5t23.5 -16.5h-229q14 8 15 56q5 243 5 721q-2 51 -6.5 75t-21.5 40.5t-43 21t-80 6.5q180 -1 324 22q0 -214 1 -327 q55 58 144 123q51 35 82 35q64 0 116 -54.5t52 -127.5q0 -47 -4.5 -208t-4.5 -209q0 -43 5.5 -75t13.5 -49.5t20 -29t21.5 -15t22.5 -5.5z" />
<glyph unicode="i" horiz-adv-x="313" d="M67 994q0 22 25 22q34 0 84 -14q6 33 57 216q-2 -9 -14.5 -63t-16.5 -73t-14 -68.5t-14.5 -81.5t-10.5 -78.5t-9 -91.5q58 5 94 11q0 -377 6 -707q0 -37 6.5 -49.5t23.5 -16.5h-235q14 8 15 56q5 243 5 609q-4 54 -12 70.5t-34 21.5q36 -1 130 5q-3 56 -25 105 t-41.5 80.5t-19.5 46.5z" />
<glyph unicode="j" horiz-adv-x="313" d="M59 994q0 22 25 22q34 0 84 -14q6 33 57 216q-2 -10 -12.5 -54t-14 -61t-12.5 -58t-13 -67.5t-10 -64.5t-10 -75t-7 -75q64 4 104 10q0 -153 -3 -420q-1 -65 4 -157.5t5 -117.5q0 -27 -6.5 -52t-15.5 -45.5t-30 -45.5t-37.5 -43t-50.5 -47t-57.5 -48t-70 -56.5 l-77.5 -62.5q96 84 131 160.5t35 190.5q0 55 -2 202t-2 277q0 116 -5 162.5t-19.5 64.5t-51.5 22q62 -1 148 6q-3 55 -25 103.5t-41.5 80.5t-19.5 47z" />
<glyph unicode="k" horiz-adv-x="690" d="M295 331l135 113q15 -23 48.5 -74.5t54.5 -83t45.5 -67t38.5 -52.5q42 -53 76 -53q22 0 51 22q-108 -108 -154 -139q-14 -10 -28 -10q-38 0 -92 74q-74 99 -175 270zM369 635l144 136q137 -108 165 -120l-145 -126q-74 32 -164 110zM281 0h-229q14 8 15 56q5 242 5 713 q0 52 -4.5 78.5t-22.5 43.5t-44.5 22t-79.5 7q180 -1 324 22q1 -106 2 -414t4 -462q0 -37 6.5 -49.5t23.5 -16.5z" />
<glyph unicode="l" horiz-adv-x="318" d="M287 0h-235q14 8 15 56q5 243 5 721q-2 51 -6.5 75t-21.5 40.5t-43 21t-80 6.5q186 -1 330 22q1 -106 2 -414t4 -462q0 -37 6.5 -49.5t23.5 -16.5z" />
<glyph unicode="m" horiz-adv-x="1082" d="M670 0h-206q-9 15 -11.5 51.5t-2.5 131.5q0 19 4.5 146t4.5 161q0 80 -26 115q-50 60 -111 60q-16 0 -73 -49q0 -316 6 -550q0 -37 6.5 -49.5t23.5 -16.5h-235q14 8 15 56q5 242 5 541q0 95 -13.5 125.5t-53.5 34.5q112 0 246 16v-155q64 67 139 120q51 35 82 35 q57 0 106 -44t59 -108q76 76 136 117q51 35 82 35q64 0 116 -54.5t52 -127.5q0 -47 -4.5 -208t-4.5 -209q0 -43 5.5 -75t13.5 -49.5t20 -29t21.5 -15t22.5 -5.5h-234q-19 15 -23.5 50.5t-4.5 132.5q0 19 4.5 146t4.5 161q0 80 -26 115q-50 60 -111 60q-16 0 -70 -46 q3 -13 3 -28q0 -47 -4.5 -208t-4.5 -209q0 -145 41 -174z" />
<glyph unicode="n" horiz-adv-x="704" d="M717 0h-234q-19 15 -23.5 50.5t-4.5 132.5q0 19 4.5 146t4.5 161q0 80 -26 115q-50 60 -114 60q-18 0 -75 -49q0 -316 6 -550q0 -37 6.5 -49.5t23.5 -16.5h-235q14 8 15 56q5 242 5 541q0 95 -13.5 125.5t-53.5 34.5q112 0 246 16v-155q78 78 141 120q51 35 82 35 q65 0 118 -54.5t53 -127.5q0 -47 -4.5 -208t-4.5 -209q0 -43 5.5 -75t13.5 -49.5t20 -29t21.5 -15t22.5 -5.5z" />
<glyph unicode="o" horiz-adv-x="758" d="M521 130q24 107 24 215q0 166 -41 235q-24 39 -64 56t-106 17q-57 0 -99 -14q-26 -116 -26 -203q0 -148 52 -235q52 -85 161 -85q57 0 99 14zM107 530q30 39 109 118q46 46 71 67t71 39.5t103 18.5q73 0 119.5 -23t80.5 -70q57 -76 57 -205q0 -84 -12.5 -138.5 t-50.5 -105.5q-21 -30 -99 -94q-21 -18 -45.5 -45.5t-29.5 -32.5q-68 -71 -175 -71q-136 0 -206 97q-61 81 -61 200q0 82 14.5 137.5t53.5 107.5z" />
<glyph unicode="p" horiz-adv-x="688" d="M265 -322h-184q5 32 5 358q-47 18 -85 41l85 79v458q-3 63 -10.5 92t-21 38.5t-44.5 12.5q79 0 249 16v-132q74 68 112 97q46 35 101 35q76 0 127 -74t51 -200q0 -127 -43 -206t-146 -163q-119 -97 -202 -132q0 -302 6 -320zM481 388q0 277 -177 277q-13 0 -45 -25v-500 q80 -31 147 -31q10 0 26 2q18 39 33.5 112.5t15.5 164.5z" />
<glyph unicode="q" horiz-adv-x="669" d="M609 -322h-184q5 38 5 428q-46 -46 -113 -98q-46 -35 -101 -35q-76 0 -127 74t-51 200q0 130 42.5 217.5t142.5 168.5q96 79 162 129l268 -1l-50 -51q0 -57 -0.5 -209.5t-0.5 -270.5t0.5 -249.5t2 -211t4.5 -91.5zM430 107v447q0 9 12 24t61 62l-165 1h-56q-16 0 -32 -2 q-17 -35 -30 -111t-13 -170q0 -277 177 -277q14 0 46 26z" />
<glyph unicode="r" horiz-adv-x="538" d="M378 114q-4 -3 -40 -31.5t-71.5 -55t-52.5 -37.5q-14 -9 -26 -9t-38 10.5t-42 24.5q-41 32 -41 88v559q0 54 -13.5 72t-53.5 22q169 0 246 16q0 -577 4 -621q6 -17 35 -34.5t51 -17.5q16 0 42 14zM267 638l131 135q72 -46 108.5 -59.5t71.5 -13.5q32 0 80 48 q-113 -115 -159 -149t-78 -34q-28 0 -59.5 16t-94.5 57z" />
<glyph unicode="s" horiz-adv-x="738" d="M553 110q9 47 9 78q0 99 -55 159.5t-169 60.5q-21 0 -37 -6l121 126q22 5 70 5q97 0 158 -62t61 -151q0 -79 -44 -119q-15 -13 -54 -46t-60 -51q-40 -34 -108 -93q-27 -22 -40 -27.5t-43 -5.5q-90 0 -187.5 36t-162.5 89l135 140q51 -55 161 -94.5t225 -39.5q11 0 20 1z M570 600q-53 0 -176.5 31t-162.5 31q-34 0 -52 -8q-9 -21 -9 -54q0 -38 35 -99t86 -108l-135 -140q-57 49 -79.5 93t-22.5 100q0 98 88 180q64 59 132 118q23 22 47 32q24 11 47 11q46 0 174.5 -24.5t170.5 -24.5q26 0 50.5 13.5t68.5 53.5q-125 -127 -176 -166t-86 -39z " />
<glyph unicode="t" horiz-adv-x="433" d="M-6 619q-18 0 -6 12l256 225q8 6 12 5t4 -12v-91q230 3 278 2l-166 -143q-78 3 -112 4q0 -272 2 -356.5t9 -95.5q10 -14 53 -38t68 -24q12 0 36 19t103 94q-81 -83 -158 -153t-103 -84q-13 -7 -27 -7t-54 22t-67 47q-41 36 -41 88l4 487q-13 0 -43.5 -0.5t-47.5 -0.5z " />
<glyph unicode="u" horiz-adv-x="696" d="M630 174q0 -43 5.5 -75t13.5 -49.5t20 -29t21.5 -15t22.5 -5.5h-234q-17 14 -22 42.5t-6 95.5q-81 -77 -141 -119q-51 -35 -82 -35q-65 0 -118 54.5t-53 127.5q0 48 4.5 209t4.5 208q0 75 -6 110.5t-19.5 48t-41.5 15.5q112 0 246 16q0 -107 -4.5 -298.5t-4.5 -207.5 q0 -85 26 -115q50 -60 114 -60q17 0 75 48v43q0 78 0.5 238t0.5 176q0 95 -13.5 125.5t-53.5 34.5q112 0 246 16q0 -68 -0.5 -293t-0.5 -306z" />
<glyph unicode="v" horiz-adv-x="657" d="M406 130q-98 -114 -139 -144q-14 -10 -29 -10q-43 0 -130 117q-50 67 -50 109l1 399q0 79 -16 114.5t-73 41.5q134 0 268 16l-4 -461q0 -64 8 -78q28 -52 60 -87t57 -35q26 0 47 18zM416 138q14 21 20 73t6 171l-1 236q0 65 -18.5 99t-75.5 40q131 0 265 16q0 4 0 -72.5 t-0.5 -169.5t-0.5 -130q0 -33 -15 -66.5t-47 -69.5t-59 -61.5t-74 -65.5z" />
<glyph unicode="w" horiz-adv-x="1010" d="M417 130q-98 -114 -139 -144q-14 -10 -29 -10q-43 0 -138 128q-29 39 -40.5 61.5t-11.5 46.5l1 389q0 79 -16 114.5t-73 41.5q129 0 267 16l-4 -451q0 -64 8 -78q24 -50 63.5 -91t64.5 -41q26 0 47 18zM762 130q-83 -108 -132 -144q-14 -10 -29 -10q-22 0 -49.5 21.5 t-74.5 85.5q-29 39 -40.5 61.5t-11.5 46.5l1 410q0 79 -16 114.5t-73 41.5q129 0 267 16l-4 -472q0 -64 8 -78q25 -50 56.5 -80.5t57.5 -30.5q22 0 40 18zM766 136q17 23 24 76t7 170l-1 236q0 65 -18.5 99t-75.5 40q125 0 263 16q0 4 -0.5 -72.5t-0.5 -169.5v-130 q0 -34 -14.5 -66.5t-49 -70.5t-58.5 -60.5t-76 -67.5z" />
<glyph unicode="x" horiz-adv-x="740" d="M332 624l220 -353q7 -11 19 -31t17.5 -28t15 -22.5t14.5 -20t13.5 -15t15 -13t15 -7.5t17.5 -5.5t20 -1.5q24 0 63 41q-31 -40 -82.5 -96t-80.5 -78q-15 -11 -33 -11q-25 0 -68 46q-6 6 -13 15t-13 17t-15.5 23.5t-16.5 27t-22.5 36.5t-26.5 43l-207 339q-33 54 -58.5 80 t-51.5 26q-27 0 -61 -36q56 64 73 81q31 32 43 43.5t34 24t45 12.5q38 0 114 -122q2 -3 3.5 -5t3 -5t3.5 -5zM333 130l-130 -136q-73 47 -106 60t-66 13q-32 0 -80 -48q118 120 159.5 153.5t71.5 33.5q19 0 43 -10.5t40 -21t68 -44.5zM428 633l120 129q76 -47 101 -59.5 t50 -12.5q30 0 66 35q-107 -113 -138.5 -139t-58.5 -26q-29 0 -57.5 15t-82.5 58zM770 731l-4 -4l-1 -2l1 2z" />
<glyph unicode="y" horiz-adv-x="693" d="M628 773v-386q0 -152 4.5 -296.5t4.5 -145.5q0 -20 -6.5 -33.5t-28.5 -31.5q-126 -106 -283 -222q-11 -8 -19 -8q-51 0 -146 59q-114 71 -114 111q0 4 2 14q13 9 253 170q-20 -14 -66 -51q-29 -23 -35 -37q2 -15 30 -41.5t73 -52.5q98 -57 147 -57q8 0 13 4q9 6 9 43 q0 52 -5 175t-6 156q-60 -63 -145 -124q-51 -35 -82 -35q-65 0 -118 54.5t-53 127.5q0 48 4.5 209t4.5 208q0 75 -6 110.5t-19.5 48t-41.5 15.5q112 0 246 16q0 -107 -4.5 -298.5t-4.5 -207.5q0 -85 26 -115q50 -60 114 -60q19 0 79 52q-1 41 -1 125v328q0 95 -13.5 125.5 t-53.5 34.5q107 0 241 16z" />
<glyph unicode="z" horiz-adv-x="624" d="M147 348l123 123q62 -21 116 -30l135 142l2 -2l-133 -141q68 -12 115 -12q34 0 85 46q-96 -108 -140 -139.5t-90 -31.5q-35 0 -81 7l-164 -173q63 49 137 49q57 0 153 -26t148 -26q43 0 68.5 8t49.5 30l-148 -134q-33 -29 -56 -39t-58 -10q-37 0 -130.5 26t-161.5 26 q-92 0 -148 -49l305 318q-68 12 -127 38zM-14 545q114 138 170 190q23 23 44 32q14 8 39 8q41 0 179 -28t176 -28q40 0 78 41q-93 -107 -135 -143t-73 -36q-50 0 -184 22.5t-165 22.5q-33 0 -62 -19t-67 -62z" />
<glyph unicode="{" horiz-adv-x="529" d="M144 617q0 66 -13 168t-13 135q0 90 76 90h271q16 0 16 -3.5t-16 -3.5h-119q-29 0 -41 -18t-12 -61q0 -38 9.5 -142t9.5 -174q0 -92 -46.5 -132t-164.5 -46q120 -6 167 -45.5t47 -136.5q0 -70 -9 -179.5t-9 -147.5q0 -43 12.5 -60t40.5 -17h118q15 0 15 -3.5t-15 -3.5 h-283q-68 0 -68 87q0 33 16.5 141t16.5 173q0 111 -27.5 150t-121.5 39h-36q-6 0 -6 3t6 3h36q40 0 66 7t41.5 19t23 37t10 50.5t2.5 70.5z" />
<glyph unicode="|" horiz-adv-x="369" d="M132 1017h105q26 0 31 -4.5t5 -23.5v-1110q0 -22 -6 -27t-37 -5h-91q-31 0 -37 5t-6 27v1110q0 19 5 23.5t31 4.5z" />
<glyph unicode="}" horiz-adv-x="529" d="M386 617q0 -45 2.5 -70.5t10 -50.5t23 -37t41.5 -19t66 -7h36q6 0 6 -3t-6 -3h-36q-94 0 -121.5 -39t-27.5 -150q0 -65 16.5 -173t16.5 -141q0 -87 -68 -87h-283q-15 0 -15 3.5t15 3.5h118q28 0 40.5 17t12.5 60q0 38 -9 147.5t-9 179.5q0 97 46.5 136.5t166.5 45.5 q-117 6 -163.5 46t-46.5 132q0 70 9.5 174t9.5 142q0 43 -12 61t-41 18h-119q-16 0 -16 3.5t16 3.5h271q76 0 76 -90q0 -33 -13 -135t-13 -168z" />
<glyph unicode="~" horiz-adv-x="1000" d="M271 378q91 121 127.5 157.5t69.5 36.5q27 0 118.5 -35.5t111.5 -35.5q30 0 68 45q-79 -100 -113 -132t-67 -32q-24 0 -113.5 37t-112.5 37q-17 0 -32 -14t-57 -64zM792 578q-6 -7 -14.5 -17.5t-11.5 -14.5q1 1 10 13t16 19z" />
<glyph unicode="&#xa1;" horiz-adv-x="438" d="M219 483l-171 138l171 160l170 -145zM85 -313l-5 8q120 449 138 778q8 -164 40 -298.5t86 -273.5z" />
<glyph unicode="&#xa2;" horiz-adv-x="776" d="M414 369q-1 -75 -1 -226q51 -15 110 -15q88 0 142 25t113 93q-40 -53 -73 -90.5t-79.5 -78t-100 -63t-111.5 -25.5q2 -172 4 -206q-2 -3 -4 -7.5t-2.5 -4.5t-4 -1.5t-8.5 1.5q2 36 4 108.5t3 108.5h-6q-151 0 -251 89.5t-100 246.5q0 75 32 149.5t83.5 131.5t115.5 98 t128 57q-2 136 -2 190q5 4 8 8q1 2 4 1q4 -1 7 -2q-6 -120 -7 -195q37 8 62 8q170 0 265 -114l-154 -136q-77 136 -175 170q-2 -72 -2 -321zM196 491q0 -138 57 -226.5t155 -119.5q2 158 2 223q0 217 -1 325q-33 10 -70 10q-143 0 -143 -212z" />
<glyph unicode="&#xa3;" horiz-adv-x="936" d="M397 883q-15 -26 -18.5 -57t-3.5 -159l-1 -306v-11q247 0 325 7q14 -11 0 -19q-183 9 -325 9q0 -118 -17 -160q292 -20 386 -20q55 0 89 10.5t68 48.5q44 48 104 126q-30 -43 -107 -147t-121 -160q-27 -34 -54.5 -46.5t-68.5 -11.5q-28 0 -69.5 29t-77 64.5t-78.5 68 t-72 37.5v-2q-73 -205 -214 -205q-41 0 -70.5 23t-29.5 62q0 54 46.5 91.5t126.5 37.5q29 0 141 -6q3 11 3 22q0 70 -46 138q-99 0 -267 -9q-11 6 0 14q34 -2 265 -2q-17 25 -58 72t-62 82.5t-21 72.5q0 89 227 306zM667 1048q82 0 132.5 -47.5t50.5 -123.5 q0 -157 -271 -330q78 55 104 95t26 100q0 81 -52 130t-138 49q-80 0 -117 -33q35 37 57 57.5t58 48.5t73.5 41t76.5 13z" />
<glyph unicode="&#xa5;" horiz-adv-x="812" d="M323 258q0 29 -0.5 84t-0.5 80q-171 -2 -250 -9q-5 12 4 23q78 -4 246 -10v102l-181 235q-42 54 -68 80q-23 23 -60 23q-23 0 -66 -48q32 39 81 88.5t73 67.5q20 17 50 17q32 0 65 -38q21 -25 75 -99l197 -269l311 383l8 -8l-317 -380q0 -104 1 -155q152 2 260 10 q4 -13 -7 -21q-119 5 -253 7q0 -54 2 -164q151 2 258 10q4 -13 -7 -21q-120 5 -251 7l7 -359q0 -37 6.5 -49.5t23.5 -16.5h-225q14 8 15 56q3 121 3 370q-170 -2 -251 -9q-5 12 4 23q76 -4 247 -10z" />
<glyph unicode="&#xa6;" horiz-adv-x="369" d="M132 273h105q26 0 31 -4.5t5 -23.5v-366q0 -22 -6 -27t-37 -5h-91q-31 0 -37 5t-6 27v366q0 19 5 23.5t31 4.5zM132 1017h105q26 0 31 -4.5t5 -23.5v-368q0 -22 -6 -27t-37 -5h-91q-31 0 -37 5t-6 27v368q0 19 5 23.5t31 4.5z" />
<glyph unicode="&#xa7;" horiz-adv-x="1066" d="M655 -90q23 27 32 45.5t9 45.5q0 44 -66.5 88.5t-161 84t-189 83t-161 104t-66.5 128.5q0 44 35.5 98.5t70.5 88.5t73 65q-34 -31 -49 -58.5t-15 -64.5q0 -57 65.5 -110t158.5 -95t186.5 -84t159 -93t65.5 -106q0 -34 -13 -66t-40 -62.5t-44.5 -47t-49.5 -44.5zM397 933 q-1 -1 -7 -8t-7.5 -9t-6 -8.5t-6 -10.5t-4 -10.5t-3.5 -13.5t-1 -15q0 -33 36 -66t93 -61.5t126 -58t138.5 -63t126.5 -69t93 -82.5t36 -98q0 -99 -189 -267q38 44 55 77t17 70q0 43 -35.5 82.5t-92.5 71.5t-126 63t-138.5 62t-126.5 63t-92.5 71t-35.5 80q0 84 150 200z M403 936l128 112q238 -127 313 -127q32 0 57 14t65 54q-97 -102 -154.5 -141t-110.5 -39q-54 0 -125 32.5t-173 94.5zM652 -92l-128 -121q-261 145 -338 145q-32 0 -57 -14.5t-67 -54.5q96 103 158 142.5t123 39.5q78 0 309 -137z" />
<glyph unicode="&#xa8;" horiz-adv-x="971" d="M339 662l-104 115l147 122l104 -110l142 119l105 -112l-138 -119l-109 110z" />
<glyph unicode="&#xa9;" horiz-adv-x="1355" d="M384 332q0 70 35.5 139.5t89 118t115.5 79t115 30.5q79 0 127 -21.5t84 -70.5l-143 -129q-43 85 -87 125.5t-98 40.5q-51 0 -73 -31t-22 -106q0 -152 78.5 -235.5t203.5 -83.5q70 0 114 28.5t94 108.5q-156 -270 -344 -270q-123 0 -206 74t-83 203zM301 722 q-60 -66 -94 -165.5t-34 -207.5q0 -227 139 -358t362 -131q255 0 396 172q-35 -47 -84 -94t-114.5 -94t-147 -76t-161.5 -29q-228 0 -370 136t-142 352q0 66 25.5 141.5t65.5 142t80 119t79 92.5zM1087 54q109 166 109 315q0 241 -134 374t-357 133q-242 0 -393 -141 q38 41 85 80t111.5 80t144 66t159.5 25q228 0 362.5 -125.5t134.5 -340.5q0 -45 -9.5 -90.5t-32.5 -94t-39 -80t-51.5 -81t-45.5 -63t-44 -57.5z" />
<glyph unicode="&#xaa;" horiz-adv-x="476" d="M489 340h-186q-15 13 -18.5 41.5t-3.5 104.5q0 9 2.5 117.5t2.5 163.5q0 58 -77 87q-39 16 -77 16q-12 0 -27 -6.5t-23 -11.5t-28.5 -21.5t-26.5 -20.5q77 77 137 118q43 30 74 30q56 0 112 -32q40 -23 59.5 -43.5t19.5 -47.5q0 -56 -3 -188.5t-3 -167.5q0 -132 66 -139z M242 441l-105 -113q-83 40 -145 88l111 109q65 -45 139 -84z" />
<glyph unicode="&#xab;" horiz-adv-x="659" d="M622 624l-228 -163l245 -200v-20q0 -8 -47.5 -46t-55.5 -36l-237 209q-17 13 4 30l300 233q7 5 13 3t6 -6v-4zM347 624l-228 -163l245 -200v-20q0 -8 -47.5 -46t-55.5 -36l-237 209q-17 13 4 30l300 233q7 5 13 3t6 -6v-4z" />
<glyph unicode="&#xad;" horiz-adv-x="663" d="M12 297l191 172q197 -6 447 13l-190 -180q-178 12 -448 -5z" />
<glyph unicode="&#xae;" horiz-adv-x="1355" d="M301 722q-60 -66 -94 -165.5t-34 -207.5q0 -227 139 -358t362 -131q138 0 211 34.5t155 124.5q-37 -45 -69 -79.5t-79.5 -74.5t-94.5 -65.5t-108 -43t-126 -17.5q-228 0 -370 136t-142 352q0 66 25.5 141.5t65.5 142t80 119t79 92.5zM1155 225q41 67 41 174 q0 226 -134.5 351.5t-356.5 125.5q-242 0 -393 -141q38 41 85 80t111.5 80t144 66t159.5 25q228 0 362.5 -117.5t134.5 -318.5q0 -53 -15 -103t-44.5 -96t-47 -68.5t-47.5 -57.5zM603 554v-393l-162 -153l3 401q11 17 47 50zM523 708h214q137 0 192.5 -34t55.5 -101 q0 -49 -36.5 -93.5t-101.5 -93.5q20 23 20 65q0 68 -52.5 91t-192.5 23h-265zM614 279l128 123h30q36 0 64.5 -13t46.5 -34t33 -46.5t28.5 -51t28.5 -46.5t37.5 -34t51.5 -13q27 0 44 11t44 44q-37 -61 -97.5 -120t-111.5 -59q-36 0 -63 17.5t-41.5 44.5t-31.5 57.5 t-33 57.5t-46.5 44.5t-71.5 17.5h-40z" />
<glyph unicode="&#xaf;" horiz-adv-x="971" d="M552 892q69 0 108 1q42 3 42 -1q0 -11 -121 -132q-2 0 -36 0.5t-58 0.5q-37 0 -77 -1t-66.5 -2t-29.5 -1q-10 0 -10 4q0 5 47.5 56.5t73.5 75.5q1 0 51 -0.5t76 -0.5z" />
<glyph unicode="&#xb1;" horiz-adv-x="796" d="M201 743h119v107q0 89 -5 102h170q-5 -7 -5 -95v-114h109q87 0 102 5v-162q-5 4 -95 4h-116v-128q0 -70 9 -99h-177q8 24 8 89v138h-109q-70 0 -99 -9v170q24 -8 89 -8zM201 260h388q87 0 102 5v-162q-5 4 -95 4h-385q-70 0 -99 -9v170q24 -8 89 -8z" />
<glyph unicode="&#xb2;" horiz-adv-x="557" d="M198 486q114 95 149.5 145t35.5 104q0 113 -141 113q-54 0 -94 -24q-12 -32 -12 -67q0 -38 18 -63t52 -25q23 0 40 17q-22 -53 -57 -84.5t-78 -31.5t-68.5 25t-25.5 67q0 45 39 90t92 74q23 56 74.5 96t124.5 40q85 0 134 -40.5t50 -116.5q0 -25 -7 -48t-16 -41t-30 -39 t-36.5 -35t-49.5 -36.5t-55.5 -35.5t-67 -40.5t-71.5 -43.5zM34 348l142 124q14 6 70 6h206q43 0 70 9t38.5 19.5t31.5 36.5l4 -3q-25 -29 -70 -93.5t-68 -106.5h-421z" />
<glyph unicode="&#xb3;" horiz-adv-x="530" d="M319 708q24 30 24 65q0 38 -32.5 60t-88.5 22q-45 0 -79 -14q63 121 192 121q68 0 106 -27.5t38 -77.5q0 -82 -160 -149zM403 492q0 46 -51 74t-162 28l122 108q100 -2 147 -32.5t47 -79.5q0 -40 -30 -74.5t-77 -57.5q4 13 4 34zM151 582q-15 -18 -15 -47q0 -42 38 -70 t110 -28q78 0 114 20q-19 -63 -72.5 -102t-134.5 -39q-76 0 -118.5 27t-42.5 77q0 41 29 78.5t92 83.5zM224 749q-20 -59 -57 -92t-77 -33q-38 0 -57.5 18t-19.5 50q0 86 130 149q-9 -18 -9 -50q0 -27 13 -43t37 -16q23 0 40 17z" />
<glyph unicode="&#xb4;" horiz-adv-x="983" d="M643 829q-26 -30 -82.5 -78.5t-127.5 -95.5q104 86 144 274q16 14 39 14q25 0 38 -15t13 -37q0 -32 -24 -62z" />
<glyph unicode="&#xb6;" horiz-adv-x="1178" d="M47 600q0 -108 65.5 -167.5t157.5 -59.5q68 0 109.5 27t78.5 87q-36 -61 -79 -89.5t-112 -28.5q-120 0 -182 70t-62 204q0 162 146 276t384 114h629l-149 -220q14 26 14 38q0 14 -17 19.5t-65 5.5h-24q0 -490 10 -982q0 -37 6.5 -49.5t23.5 -16.5h-221q14 8 15 56 q2 105 2 991h-147q0 -486 10 -981q0 -37 6.5 -49.5t23.5 -16.5h-221q14 8 15 56q2 106 2 991h-29q-178 0 -284 -69.5t-106 -205.5z" />
<glyph unicode="&#xb7;" horiz-adv-x="418" d="M209 521l171 -138l-171 -160l-170 145z" />
<glyph unicode="&#xb8;" horiz-adv-x="970" d="M573 -296q15 23 15 43q0 36 -55.5 59.5t-161.5 28.5q-11 0 -2 10l211 184l-98 -94q-3 -3 5 -3q92 -4 143 -30.5t51 -63.5t-108 -134zM398 -404q-34 0 -117 52l105 93q75 -53 123 -53h14h12.5t9.5 0.5t10.5 2.5t10.5 6q-74 -69 -104 -85t-64 -16z" />
<glyph unicode="&#xb9;" horiz-adv-x="251" d="M228 340h-205q12 5 16.5 9t8.5 22t4 54q0 51 1.5 217.5t1.5 213.5q0 52 -14.5 67t-70.5 19q146 0 229 13q-1 -73 -1 -174t0.5 -206.5t0.5 -131.5q0 -42 4.5 -65t9.5 -29t15 -9z" />
<glyph unicode="&#xba;" horiz-adv-x="603" d="M415 443q19 92 19 172q0 72 -7 114t-26 73q-35 58 -135 58q-42 0 -79 -11q-21 -101 -21 -162q0 -120 42 -187q41 -68 128 -68q42 0 79 11zM85 762q21 28 87 94q37 37 57 53.5t56.5 31t81.5 14.5q104 0 159 -74q46 -59 46 -163q0 -66 -10.5 -109.5t-40.5 -84.5 q-25 -33 -78 -75q-20 -17 -60 -62q-53 -57 -139 -57q-106 0 -164 78q-49 63 -49 159q0 66 11.5 109t42.5 86z" />
<glyph unicode="&#xbb;" horiz-adv-x="659" d="M37 172l227 162l-244 201v20q0 8 47.5 46t55.5 36l237 -209q17 -13 -4 -30l-300 -233q-7 -5 -13 -3t-6 6v4zM312 172l227 162l-244 201v20q0 8 47.5 46t55.5 36l237 -209q17 -13 -4 -30l-300 -233q-7 -5 -13 -3t-6 6v4z" />
<glyph unicode="&#xbc;" horiz-adv-x="1290" d="M660 165l95 110q7 6 21 6h231v212l130 140q0 -47 0.5 -170t0.5 -182h43q42 0 64 7t33 17t42 46l4 -2q-44 -53 -121 -188h-64q0 -43 1 -58q2 -62 9 -81.5t25 -21.5h-206q22 4 29 23t9 81q0 7 0.5 26t0.5 31h-346zM365 410h-205q12 5 16.5 9t8.5 22t4 54q0 51 1.5 217.5 t1.5 213.5q0 52 -14.5 67t-70.5 19q146 0 229 13v-512q0 -42 4.5 -65t9.5 -29t15 -9zM767 287q57 87 57 160q0 35 -17 53t-47 18q-33 0 -52 -28q43 132 139 132q48 0 75 -26t27 -69q0 -53 -42.5 -104t-139.5 -136zM539 486q49 45 272 260.5t258 250.5q7 0 9.5 -5t0.5 -12 q-76 -63 -537 -497q-78 -72 -300 -283.5t-250 -242.5q-7 -2 -9.5 3t-0.5 14q28 23 254.5 232t302.5 280z" />
<glyph unicode="&#xbd;" horiz-adv-x="1203" d="M778 146q114 95 149.5 145t35.5 104q0 113 -141 113q-54 0 -94 -24q-12 -32 -12 -67q0 -38 18 -63t52 -25q23 0 40 17q-22 -53 -57 -84.5t-78 -31.5t-68.5 25t-25.5 67q0 45 39 90t92 74q23 56 74.5 96t124.5 40q85 0 134 -40.5t50 -116.5q0 -25 -7 -48t-16 -41t-30 -39 t-36.5 -35t-49.5 -36.5t-55.5 -35.5t-67 -40.5t-71.5 -43.5zM365 410h-205q12 5 16.5 9t8.5 22t4 54q0 51 1.5 217.5t1.5 213.5q0 52 -14.5 67t-70.5 19q146 0 229 13v-512q0 -42 4.5 -65t9.5 -29t15 -9zM614 8l142 124q14 6 70 6h206q43 0 70 9t38.5 19.5t31.5 36.5l4 -3 q-25 -29 -70 -93.5t-68 -106.5h-421zM539 486q49 45 272 260.5t258 250.5q7 0 9.5 -5t0.5 -12q-76 -63 -537 -497q-78 -72 -300 -283.5t-250 -242.5q-7 -2 -9.5 3t-0.5 14q28 23 254.5 232t302.5 280z" />
<glyph unicode="&#xbe;" horiz-adv-x="1365" d="M735 165l95 110q8 6 21 6h231v212l130 140q0 -47 0.5 -170t0.5 -182h43q42 0 64 7t33 17t42 46l4 -2q-44 -53 -121 -188h-64q0 -43 1 -58q2 -62 9 -81.5t25 -21.5h-206q22 4 29 23t9 81q0 7 0.5 26t0.5 31h-346zM210 647q-15 -18 -15 -47q0 -42 38 -70t110 -28 q78 0 114 20q-19 -63 -72.5 -102t-134.5 -39q-76 0 -118.5 27t-42.5 77q0 41 29 78.5t92 83.5zM378 773q24 30 24 65q0 38 -32.5 60t-88.5 22q-45 0 -79 -14q63 121 192 121q68 0 106 -27.5t38 -77.5q0 -82 -160 -149zM462 557q0 46 -51 74t-162 28l122 108 q100 -2 147 -32.5t47 -79.5q0 -40 -30 -74.5t-77 -57.5q4 13 4 34zM842 287q57 87 57 160q0 35 -17 53t-47 18q-33 0 -52 -28q43 132 139 132q48 0 75 -26t27 -69q0 -53 -42.5 -104t-139.5 -136zM283 814q-20 -59 -57 -92t-77 -33q-38 0 -57.5 18t-19.5 50q0 86 130 149 q-9 -18 -9 -50q0 -27 13 -43t37 -16q23 0 40 17zM614 486q49 45 272 260.5t258 250.5q7 0 9.5 -5t0.5 -12q-76 -63 -537 -497q-78 -72 -300 -283.5t-250 -242.5q-7 -2 -9.5 3t-0.5 14q28 23 254.5 232t302.5 280z" />
<glyph unicode="&#xbf;" horiz-adv-x="571" d="M288 495l-155 139l168 146l150 -142zM224 126l-23 219l90 74q5 4 28.5 23t33.5 28q20 16 29 23q1 -58 3 -113q2 -51 3 -112q-68 -58 -99.5 -86.5t-59.5 -63.5t-36 -63.5t-8 -68.5q0 -86 72.5 -127.5t183.5 -41.5q70 0 127 28l-182 -149q-36 -9 -82 -9q-116 0 -189 49 t-73 144q0 53 46 112t136 134z" />
<glyph unicode="&#xc0;" horiz-adv-x="1065" d="M943 219q0 -69 9 -83q23 -36 61 -36q17 0 40 14q-4 -4 -61.5 -58.5t-78.5 -70.5q-13 -11 -31 -11q-39 0 -83 47q-36 40 -36 88v75q-136 -139 -181 -175t-83 -36q-56 0 -188.5 55.5t-178.5 55.5q-35 0 -64 -18.5t-112 -95.5l-2 -1l151 142l266 261q-166 42 -244 42 q-35 0 -62.5 -14t-71.5 -55q93 97 154 145q-56 69 -56 195q0 134 100.5 236.5t247.5 102.5q124 0 215.5 -51t171.5 -154l85 83l135 133l1 -1l-95 -97q0 -51 -4.5 -361t-4.5 -357zM292 560q53 0 220 -50l178 175q-79 103 -165.5 147t-200.5 44q-111 0 -166 -67t-55 -161 q0 -89 45 -157q89 69 144 69zM595 331q-57 0 -219 40l-295 -288q88 77 124 101t74 24q56 0 184 -54.5t173 -54.5q23 0 44.5 14.5t82.5 73.5l5 264q-75 -72 -112.5 -96t-60.5 -24zM752 455q9 0 16 3q5 208 5 302l-257 -251q184 -54 236 -54zM687 1115q-26 28 -26 60 q0 22 16.5 38t42.5 16q25 0 41 -14q-9 -28 16 -118t74 -136q-107 93 -164 154z" />
<glyph unicode="&#xc1;" horiz-adv-x="1065" d="M943 219q0 -69 9 -83q23 -36 61 -36q17 0 40 14q-4 -4 -61.5 -58.5t-78.5 -70.5q-13 -11 -31 -11q-39 0 -83 47q-36 40 -36 88v75q-136 -139 -181 -175t-83 -36q-56 0 -188.5 55.5t-178.5 55.5q-35 0 -64 -18.5t-112 -95.5l-2 -1l151 142l266 261q-166 42 -244 42 q-35 0 -62.5 -14t-71.5 -55q93 97 154 145q-56 69 -56 195q0 134 100.5 236.5t247.5 102.5q124 0 215.5 -51t171.5 -154l85 83l135 133l1 -1l-95 -97q0 -51 -4.5 -361t-4.5 -357zM292 560q53 0 220 -50l178 175q-79 103 -165.5 147t-200.5 44q-111 0 -166 -67t-55 -161 q0 -89 45 -157q89 69 144 69zM595 331q-57 0 -219 40l-295 -288q88 77 124 101t74 24q56 0 184 -54.5t173 -54.5q23 0 44.5 14.5t82.5 73.5l5 264q-75 -72 -112.5 -96t-60.5 -24zM752 455q9 0 16 3q5 208 5 302l-257 -251q184 -54 236 -54zM971 1156q-26 -30 -82.5 -78.5 t-127.5 -95.5q104 86 144 274q16 14 39 14q25 0 38 -15t13 -37q0 -32 -24 -62z" />
<glyph unicode="&#xc2;" horiz-adv-x="1065" d="M943 219q0 -69 9 -83q23 -36 61 -36q17 0 40 14q-4 -4 -61.5 -58.5t-78.5 -70.5q-13 -11 -31 -11q-39 0 -83 47q-36 40 -36 88v75q-136 -139 -181 -175t-83 -36q-56 0 -188.5 55.5t-178.5 55.5q-35 0 -64 -18.5t-112 -95.5l-2 -1l151 142l266 261q-166 42 -244 42 q-35 0 -62.5 -14t-71.5 -55q93 97 154 145q-56 69 -56 195q0 134 100.5 236.5t247.5 102.5q124 0 215.5 -51t171.5 -154l85 83l135 133l1 -1l-95 -97q0 -51 -4.5 -361t-4.5 -357zM292 560q53 0 220 -50l178 175q-79 103 -165.5 147t-200.5 44q-111 0 -166 -67t-55 -161 q0 -89 45 -157q89 69 144 69zM595 331q-57 0 -219 40l-295 -288q88 77 124 101t74 24q56 0 184 -54.5t173 -54.5q23 0 44.5 14.5t82.5 73.5l5 264q-75 -72 -112.5 -96t-60.5 -24zM752 455q9 0 16 3q5 208 5 302l-257 -251q184 -54 236 -54zM649 1030h-4q-5 0 -7.5 6t1.5 13 l207 238q5 5 14 6.5t12 -2.5l171 -165q2 -8 -37 -52t-47 -44h-11l-168 171z" />
<glyph unicode="&#xc3;" horiz-adv-x="1065" d="M943 219q0 -69 9 -83q23 -36 61 -36q17 0 40 14q-4 -4 -61.5 -58.5t-78.5 -70.5q-13 -11 -31 -11q-39 0 -83 47q-36 40 -36 88v75q-136 -139 -181 -175t-83 -36q-56 0 -188.5 55.5t-178.5 55.5q-35 0 -64 -18.5t-112 -95.5l-2 -1l151 142l266 261q-166 42 -244 42 q-35 0 -62.5 -14t-71.5 -55q93 97 154 145q-56 69 -56 195q0 134 100.5 236.5t247.5 102.5q124 0 215.5 -51t171.5 -154l85 83l135 133l1 -1l-95 -97q0 -51 -4.5 -361t-4.5 -357zM292 560q53 0 220 -50l178 175q-79 103 -165.5 147t-200.5 44q-111 0 -166 -67t-55 -161 q0 -89 45 -157q89 69 144 69zM595 331q-57 0 -219 40l-295 -288q88 77 124 101t74 24q56 0 184 -54.5t173 -54.5q23 0 44.5 14.5t82.5 73.5l5 264q-75 -72 -112.5 -96t-60.5 -24zM563 1020q92 111 139 149t88 38q25 0 110.5 -27.5t112.5 -27.5q18 0 39 14t63 58 q-93 -112 -141.5 -149t-91.5 -37q-30 0 -110 28.5t-109 28.5q-16 0 -35.5 -15t-64.5 -60zM752 455q9 0 16 3q5 208 5 302l-257 -251q184 -54 236 -54z" />
<glyph unicode="&#xc4;" horiz-adv-x="1065" d="M943 219q0 -69 9 -83q23 -36 61 -36q17 0 40 14q-4 -4 -61.5 -58.5t-78.5 -70.5q-13 -11 -31 -11q-39 0 -83 47q-36 40 -36 88v75q-136 -139 -181 -175t-83 -36q-56 0 -188.5 55.5t-178.5 55.5q-35 0 -64 -18.5t-112 -95.5l-2 -1l151 142l266 261q-166 42 -244 42 q-35 0 -62.5 -14t-71.5 -55q93 97 154 145q-56 69 -56 195q0 134 100.5 236.5t247.5 102.5q124 0 215.5 -51t171.5 -154l85 83l135 133l1 -1l-95 -97q0 -51 -4.5 -361t-4.5 -357zM292 560q53 0 220 -50l178 175q-79 103 -165.5 147t-200.5 44q-111 0 -166 -67t-55 -161 q0 -89 45 -157q89 69 144 69zM595 331q-57 0 -219 40l-295 -288q88 77 124 101t74 24q56 0 184 -54.5t173 -54.5q23 0 44.5 14.5t82.5 73.5l5 264q-75 -72 -112.5 -96t-60.5 -24zM678 1023l-104 115l147 122l104 -110l142 119l105 -112l-138 -119l-109 110zM752 455 q9 0 16 3q5 208 5 302l-257 -251q184 -54 236 -54z" />
<glyph unicode="&#xc5;" horiz-adv-x="1065" d="M943 219q0 -69 9 -83q23 -36 61 -36q17 0 40 14q-4 -4 -61.5 -58.5t-78.5 -70.5q-13 -11 -31 -11q-39 0 -83 47q-36 40 -36 88v75q-136 -139 -181 -175t-83 -36q-56 0 -188.5 55.5t-178.5 55.5q-35 0 -64 -18.5t-112 -95.5l-2 -1l151 142l266 261q-166 42 -244 42 q-35 0 -62.5 -14t-71.5 -55q93 97 154 145q-56 69 -56 195q0 134 100.5 236.5t247.5 102.5q124 0 215.5 -51t171.5 -154l85 83l135 133l1 -1l-95 -97q0 -51 -4.5 -361t-4.5 -357zM292 560q53 0 220 -50l178 175q-79 103 -165.5 147t-200.5 44q-111 0 -166 -67t-55 -161 q0 -89 45 -157q89 69 144 69zM595 331q-57 0 -219 40l-295 -288q88 77 124 101t74 24q56 0 184 -54.5t173 -54.5q23 0 44.5 14.5t82.5 73.5l5 264q-75 -72 -112.5 -96t-60.5 -24zM715 1072q0 46 33.5 79t80.5 33t80 -33t33 -79q0 -47 -33 -81t-80 -34t-80.5 34t-33.5 81z M752 455q9 0 16 3q5 208 5 302l-257 -251q184 -54 236 -54zM719 1072q0 -45 32.5 -78t77.5 -33t77 33t32 78q0 44 -32 76t-77 32q-46 0 -78 -32t-32 -76z" />
<glyph unicode="&#xc6;" horiz-adv-x="1561" d="M1256 776q-108 0 -304 74q-6 -222 -6 -372q0 -201 70.5 -293.5t238.5 -92.5q107 0 176 74.5t96 186.5q-14 -68 -45 -134t-78.5 -127t-119.5 -99t-155 -38q-280 0 -344 250q-150 -154 -198 -193t-87 -39q-56 0 -187 55.5t-177 55.5q-38 0 -65.5 -18t-113.5 -96l-2 -1 l150 142l267 261q-168 42 -244 42q-35 0 -62.5 -14t-71.5 -55q93 97 154 145q-56 69 -56 195q0 134 100.5 236.5t247.5 102.5q124 0 215.5 -51t171.5 -154l85 83l135 133l1 -1l-24 -24q117 -39 237 -69t171 -30q35 0 62.5 14t71.5 55q-204 -204 -310 -204zM293 560 q14 0 31.5 -2.5t43 -8.5t42 -10.5t52.5 -14.5t50 -14l179 175q-79 103 -165.5 147t-200.5 44q-111 0 -166 -67t-55 -161q0 -89 45 -157q89 69 144 69zM596 331q-65 0 -219 40l-256 -251q54 49 88 68.5t77 19.5q53 0 179 -54.5t172 -54.5q25 0 48.5 17t99.5 91 q-17 64 -17 155q0 53 1 88q-126 -119 -173 -119zM962 469l142 140q127 -71 206 -71q30 0 74 42q-112 -112 -160 -147.5t-80 -35.5q-70 0 -182 72zM769 458q0 49 2.5 155t2.5 147l-256 -251q182 -54 235 -54q9 0 16 3z" />
<glyph unicode="&#xc7;" horiz-adv-x="958" d="M590 -325q15 23 15 43q0 36 -55.5 59.5t-161.5 28.5q-11 0 -2 10l168 147q-24 -2 -37 -2q-90 0 -163.5 22.5t-123.5 60.5t-84.5 89.5t-50 109t-15.5 119.5q0 144 48.5 245.5t191.5 265.5q-16 -21 -29.5 -42t-23 -43t-16 -38.5t-11 -41.5t-7 -37t-3.5 -39t-1 -35.5v-38 v-34.5q0 -204 104.5 -310.5t311.5 -106.5q110 0 194.5 77t107.5 179q-14 -60 -47 -124t-81 -123.5t-116.5 -101t-143.5 -50.5l-60 -58q-3 -3 5 -3q92 -4 143 -30.5t51 -63.5t-108 -134zM330 884l147 136q334 -109 401 -109q35 0 62.5 14t71.5 55q-204 -204 -310 -204 q-55 0 -161.5 32t-210.5 76zM423 670l128 118l5 -410l-183 -176l-2 400q0 21 52 68zM415 -433q-34 0 -117 52l105 93q75 -53 123 -53h14h12.5t9.5 0.5t10.5 2.5t10.5 6q-74 -69 -104 -85t-64 -16z" />
<glyph unicode="&#xc8;" horiz-adv-x="955" d="M512 816l5 -461l-169 -154l-2 460q19 20 61 58zM332 894q33 31 147 129q114 -38 228.5 -66t166.5 -28q34 0 60.5 13t62.5 46q-113 -115 -176.5 -154.5t-122.5 -39.5q-58 0 -160 28t-206 72zM941 353q-14 -66 -49 -132.5t-88.5 -126t-132 -96.5t-166.5 -37q-135 0 -233 57 t-145 148.5t-47 203.5q0 144 48.5 245.5t191.5 265.5q-15 -19 -27 -39.5t-21.5 -36.5t-16.5 -38.5t-11.5 -35t-8 -37.5t-5 -33.5t-2.5 -36t-1 -31.5v-34v-31q0 -209 102.5 -315t301.5 -106q125 0 205 68t105 178zM662 597q131 -58 212 -58q17 0 34 11t48 41 q-109 -111 -160.5 -150t-85.5 -39q-76 0 -190 57q95 95 142 138zM442 1194q-26 28 -26 60q0 22 16.5 38t42.5 16q25 0 41 -14q-9 -28 16 -118t74 -136q-107 93 -164 154z" />
<glyph unicode="&#xc9;" horiz-adv-x="955" d="M512 816l5 -461l-169 -154l-2 460q19 20 61 58zM332 894q33 31 147 129q114 -38 228.5 -66t166.5 -28q34 0 60.5 13t62.5 46q-113 -115 -176.5 -154.5t-122.5 -39.5q-58 0 -160 28t-206 72zM941 353q-14 -66 -49 -132.5t-88.5 -126t-132 -96.5t-166.5 -37q-135 0 -233 57 t-145 148.5t-47 203.5q0 144 48.5 245.5t191.5 265.5q-15 -19 -27 -39.5t-21.5 -36.5t-16.5 -38.5t-11.5 -35t-8 -37.5t-5 -33.5t-2.5 -36t-1 -31.5v-34v-31q0 -209 102.5 -315t301.5 -106q125 0 205 68t105 178zM662 597q131 -58 212 -58q17 0 34 11t48 41 q-109 -111 -160.5 -150t-85.5 -39q-76 0 -190 57q95 95 142 138zM774 1199q-26 -30 -82.5 -78.5t-127.5 -95.5q104 86 144 274q16 14 39 14q25 0 38 -15t13 -37q0 -32 -24 -62z" />
<glyph unicode="&#xca;" horiz-adv-x="955" d="M941 353q-14 -66 -49 -132.5t-88.5 -126t-132 -96.5t-166.5 -37q-135 0 -233 57t-145 148.5t-47 203.5q0 144 48.5 245.5t191.5 265.5q-15 -19 -27 -39.5t-21.5 -36.5t-16.5 -38.5t-11.5 -35t-8 -37.5t-5 -33.5t-2.5 -36t-1 -31.5v-34v-31q0 -209 102.5 -315t301.5 -106 q125 0 205 68t105 178zM512 816l5 -461l-169 -154l-2 460q19 20 61 58zM332 894q33 31 147 129q114 -38 228.5 -66t166.5 -28q34 0 60.5 13t62.5 46q-113 -115 -176.5 -154.5t-122.5 -39.5q-58 0 -160 28t-206 72zM662 597q131 -58 212 -58q17 0 34 11t48 41 q-109 -111 -160.5 -150t-85.5 -39q-76 0 -190 57q95 95 142 138zM370 1046h-4q-5 0 -7.5 6t1.5 13l207 238q5 5 14 6.5t12 -2.5l171 -165q2 -8 -37 -52t-47 -44h-11l-168 171z" />
<glyph unicode="&#xcb;" horiz-adv-x="955" d="M941 353q-14 -66 -49 -132.5t-88.5 -126t-132 -96.5t-166.5 -37q-135 0 -233 57t-145 148.5t-47 203.5q0 144 48.5 245.5t191.5 265.5q-15 -19 -27 -39.5t-21.5 -36.5t-16.5 -38.5t-11.5 -35t-8 -37.5t-5 -33.5t-2.5 -36t-1 -31.5v-34v-31q0 -209 102.5 -315t301.5 -106 q125 0 205 68t105 178zM512 816l5 -461l-169 -154l-2 460q19 20 61 58zM332 894q33 31 147 129q114 -38 228.5 -66t166.5 -28q34 0 60.5 13t62.5 46q-113 -115 -176.5 -154.5t-122.5 -39.5q-58 0 -160 28t-206 72zM395 1038l-104 115l147 122l104 -110l142 119l105 -112 l-138 -119l-109 110zM662 597q131 -58 212 -58q17 0 34 11t48 41q-109 -111 -160.5 -150t-85.5 -39q-76 0 -190 57q95 95 142 138z" />
<glyph unicode="&#xcc;" horiz-adv-x="715" d="M515 806q-60 0 -183.5 29.5t-197.5 29.5q-35 0 -62.5 -14t-71.5 -55q120 126 178.5 169.5t100.5 43.5q63 0 186.5 -30t182.5 -30q14 0 25.5 1t19.5 2.5t17.5 6t14.5 6.5t15 10t14 12t17.5 16t19.5 18q-34 -34 -73 -74.5t-56.5 -58.5t-39.5 -38t-35.5 -27t-31.5 -12 t-40 -5zM463 -45q-59 0 -188.5 34.5t-203.5 34.5q-35 0 -62.5 -14t-71.5 -55q120 126 178.5 169.5t100.5 43.5q63 0 192 -30t188 -30q14 0 25.5 1t19.5 2.5t17.5 6t14.5 6.5t15 10t14 12t17.5 16t19.5 18q-17 -19 -44.5 -50t-39 -44.5t-32.5 -36t-30.5 -31t-25.5 -22.5 t-26 -19t-24 -11.5t-26.5 -8.5t-27.5 -2zM337 269q0 44 -18.5 90.5t-40.5 80.5t-40.5 79t-18.5 86q0 57 40.5 107.5t123.5 106.5q-30 -24 -30 -66q0 -34 20.5 -76.5t44.5 -76t44.5 -79.5t20.5 -87q0 -76 -49 -141t-144 -128q47 36 47 104zM287 1177q-26 28 -26 60 q0 22 16.5 38t42.5 16q25 0 41 -14q-9 -28 16 -118t74 -136q-107 93 -164 154z" />
<glyph unicode="&#xcd;" horiz-adv-x="715" d="M515 806q-60 0 -183.5 29.5t-197.5 29.5q-35 0 -62.5 -14t-71.5 -55q120 126 178.5 169.5t100.5 43.5q63 0 186.5 -30t182.5 -30q14 0 25.5 1t19.5 2.5t17.5 6t14.5 6.5t15 10t14 12t17.5 16t19.5 18q-34 -34 -73 -74.5t-56.5 -58.5t-39.5 -38t-35.5 -27t-31.5 -12 t-40 -5zM463 -45q-59 0 -188.5 34.5t-203.5 34.5q-35 0 -62.5 -14t-71.5 -55q120 126 178.5 169.5t100.5 43.5q63 0 192 -30t188 -30q14 0 25.5 1t19.5 2.5t17.5 6t14.5 6.5t15 10t14 12t17.5 16t19.5 18q-17 -19 -44.5 -50t-39 -44.5t-32.5 -36t-30.5 -31t-25.5 -22.5 t-26 -19t-24 -11.5t-26.5 -8.5t-27.5 -2zM337 269q0 44 -18.5 90.5t-40.5 80.5t-40.5 79t-18.5 86q0 57 40.5 107.5t123.5 106.5q-30 -24 -30 -66q0 -34 20.5 -76.5t44.5 -76t44.5 -79.5t20.5 -87q0 -76 -49 -141t-144 -128q47 36 47 104zM593 1196q-26 -30 -82.5 -78.5 t-127.5 -95.5q104 86 144 274q16 14 39 14q25 0 38 -15t13 -37q0 -32 -24 -62z" />
<glyph unicode="&#xce;" horiz-adv-x="715" d="M463 -45q-59 0 -188.5 34.5t-203.5 34.5q-35 0 -62.5 -14t-71.5 -55q120 126 178.5 169.5t100.5 43.5q63 0 192 -30t188 -30q14 0 25.5 1t19.5 2.5t17.5 6t14.5 6.5t15 10t14 12t17.5 16t19.5 18q-17 -19 -44.5 -50t-39 -44.5t-32.5 -36t-30.5 -31t-25.5 -22.5t-26 -19 t-24 -11.5t-26.5 -8.5t-27.5 -2zM337 269q0 44 -18.5 90.5t-40.5 80.5t-40.5 79t-18.5 86q0 57 40.5 107.5t123.5 106.5q-30 -24 -30 -66q0 -34 20.5 -76.5t44.5 -76t44.5 -79.5t20.5 -87q0 -76 -49 -141t-144 -128q47 36 47 104zM515 806q-60 0 -183.5 29.5t-197.5 29.5 q-35 0 -62.5 -14t-71.5 -55q120 126 178.5 169.5t100.5 43.5q63 0 186.5 -30t182.5 -30q14 0 25.5 1t19.5 2.5t17.5 6t14.5 6.5t15 10t14 12t17.5 16t19.5 18q-34 -34 -73 -74.5t-56.5 -58.5t-39.5 -38t-35.5 -27t-31.5 -12t-40 -5zM202 1043h-4q-5 0 -7.5 6t1.5 13l207 238 q5 5 14 6.5t12 -2.5l171 -165q2 -8 -37 -52t-47 -44h-11l-168 171z" />
<glyph unicode="&#xcf;" horiz-adv-x="715" d="M463 -45q-59 0 -188.5 34.5t-203.5 34.5q-35 0 -62.5 -14t-71.5 -55q120 126 178.5 169.5t100.5 43.5q63 0 192 -30t188 -30q14 0 25.5 1t19.5 2.5t17.5 6t14.5 6.5t15 10t14 12t17.5 16t19.5 18q-17 -19 -44.5 -50t-39 -44.5t-32.5 -36t-30.5 -31t-25.5 -22.5t-26 -19 t-24 -11.5t-26.5 -8.5t-27.5 -2zM337 269q0 44 -18.5 90.5t-40.5 80.5t-40.5 79t-18.5 86q0 57 40.5 107.5t123.5 106.5q-30 -24 -30 -66q0 -34 20.5 -76.5t44.5 -76t44.5 -79.5t20.5 -87q0 -76 -49 -141t-144 -128q47 36 47 104zM515 806q-60 0 -183.5 29.5t-197.5 29.5 q-35 0 -62.5 -14t-71.5 -55q120 126 178.5 169.5t100.5 43.5q63 0 186.5 -30t182.5 -30q14 0 25.5 1t19.5 2.5t17.5 6t14.5 6.5t15 10t14 12t17.5 16t19.5 18q-34 -34 -73 -74.5t-56.5 -58.5t-39.5 -38t-35.5 -27t-31.5 -12t-40 -5zM260 1045l-104 115l147 122l104 -110 l142 119l105 -112l-138 -119l-109 110z" />
<glyph unicode="&#xd0;" horiz-adv-x="1115" d="M143 420q-87 68 -87 222q0 69 26 133.5t77 120t139 89.5t201 34q262 0 398.5 -131t136.5 -344q0 -65 -11 -118t-34 -93.5t-36.5 -59t-39.5 -47.5q-50 -55 -122 -114q1 1 7 10.5t9 14.5t9.5 17.5t10.5 22.5t10.5 26.5t10.5 31.5t8.5 36.5t7 43.5t4.5 49t2 56 q0 229 -121 344.5t-332 115.5q-93 0 -163 -25t-108.5 -67.5t-56.5 -91.5t-18 -104q0 -109 72 -172zM501 529h2q18 0 123 0.5t125 0.5q42 3 42 -1t-27.5 -30.5t-66.5 -63.5t-51 -49h-25t-57.5 0.5t-63.5 0.5l-174 -157l-1 156q-34 0 -73 -1t-65 -1.5t-28 -0.5q-10 0 -10 4 q0 5 54 57.5t91 85.5h30v159q14 21 67 71l105 97zM785 107q-68 -62 -126 -107q-25 -21 -44 -28.5t-46 -7.5q-65 0 -204 57t-208 57q-62 0 -180 -118q145 147 213.5 203.5t118.5 56.5q49 0 207 -62t216 -62q36 0 53 11z" />
<glyph unicode="&#xd1;" horiz-adv-x="915" d="M803 781q0 -85 -5 -303q-4 -146 -5 -252q0 -70 9 -83q23 -36 61 -36q17 0 40 14q-6 -5 -39 -36.5t-63 -59.5t-46 -40q-13 -11 -31 -11q-36 0 -80 47q-33 37 -33 88l10 587q0 88 -42 135.5t-123 47.5q-40 0 -75 -20.5t-97 -74.5q4 -14 24 -76.5t27.5 -89t16 -71.5t8.5 -79 q0 -139 -210 -286q61 46 61 114q0 77 -29.5 174t-59 186.5t-29.5 147.5q0 66 40.5 115.5t143.5 125.5q-30 -27 -30 -82t37 -179q14 13 40 38q63 60 91.5 86t67.5 56t67.5 40.5t58.5 10.5q86 0 140 -63t54 -171zM284 -18q-38 0 -113 28.5t-109 28.5q-33 0 -55 -13t-69 -56 q119 131 168.5 172t99.5 41q38 0 107.5 -26t114.5 -26q9 0 16 0.5t13 1t12 2.5t10 2.5t10 4t8 4.5t9 6.5t9 7t10.5 8.5t11.5 9q-103 -117 -129 -141q-63 -53 -124 -54zM228 1082q92 111 139 149t88 38q25 0 110.5 -27.5t112.5 -27.5q18 0 39 14t63 58q-93 -112 -141.5 -149 t-91.5 -37q-30 0 -110 28.5t-109 28.5q-16 0 -35.5 -15t-64.5 -60z" />
<glyph unicode="&#xd2;" horiz-adv-x="1147" d="M226 529q0 -211 100 -316.5t308 -105.5q127 0 205 76q80 121 80 269q0 206 -92 313t-285 112l145 139q185 -12 282.5 -122.5t97.5 -277.5q0 -140 -57.5 -244t-172.5 -192q-22 -33 -49 -64t-70 -69.5t-99 -62t-116 -23.5q-89 0 -161.5 22.5t-120.5 60.5t-80.5 91 t-46.5 111.5t-14 124.5q0 82 21.5 155t65.5 139.5t90 118.5t115 118q-146 -155 -146 -373zM531 867l5 -488l-175 -158l-2 478q20 29 67 71zM721 539l134 -119l-153 -146l-135 115zM414 1143q-26 28 -26 60q0 22 16.5 38t42.5 16q25 0 41 -14q-9 -28 16 -118t74 -136 q-107 93 -164 154z" />
<glyph unicode="&#xd3;" horiz-adv-x="1147" d="M226 529q0 -211 100 -316.5t308 -105.5q127 0 205 76q80 121 80 269q0 206 -92 313t-285 112l145 139q185 -12 282.5 -122.5t97.5 -277.5q0 -140 -57.5 -244t-172.5 -192q-22 -33 -49 -64t-70 -69.5t-99 -62t-116 -23.5q-89 0 -161.5 22.5t-120.5 60.5t-80.5 91 t-46.5 111.5t-14 124.5q0 82 21.5 155t65.5 139.5t90 118.5t115 118q-146 -155 -146 -373zM531 867l5 -488l-175 -158l-2 478q20 29 67 71zM302 1060q92 111 139 149t88 38q25 0 110.5 -27.5t112.5 -27.5q18 0 39 14t63 58q-93 -112 -141.5 -149t-91.5 -37q-30 0 -110 28.5 t-109 28.5q-16 0 -35.5 -15t-64.5 -60zM721 539l134 -119l-153 -146l-135 115z" />
<glyph unicode="&#xd4;" horiz-adv-x="1147" d="M226 529q0 -211 100 -316.5t308 -105.5q127 0 205 76q80 121 80 269q0 206 -92 313t-285 112l145 139q185 -12 282.5 -122.5t97.5 -277.5q0 -140 -57.5 -244t-172.5 -192q-22 -33 -49 -64t-70 -69.5t-99 -62t-116 -23.5q-89 0 -161.5 22.5t-120.5 60.5t-80.5 91 t-46.5 111.5t-14 124.5q0 82 21.5 155t65.5 139.5t90 118.5t115 118q-146 -155 -146 -373zM531 867l5 -488l-175 -158l-2 478q20 29 67 71zM721 539l134 -119l-153 -146l-135 115zM391 1058h-4q-5 0 -7.5 6t1.5 13l207 238q5 5 14 6.5t12 -2.5l171 -165q2 -8 -37 -52 t-47 -44h-11l-168 171z" />
<glyph unicode="&#xd5;" horiz-adv-x="1147" d="M226 529q0 -211 100 -316.5t308 -105.5q127 0 205 76q80 121 80 269q0 206 -92 313t-285 112l145 139q185 -12 282.5 -122.5t97.5 -277.5q0 -140 -57.5 -244t-172.5 -192q-22 -33 -49 -64t-70 -69.5t-99 -62t-116 -23.5q-89 0 -161.5 22.5t-120.5 60.5t-80.5 91 t-46.5 111.5t-14 124.5q0 82 21.5 155t65.5 139.5t90 118.5t115 118q-146 -155 -146 -373zM531 867l5 -488l-175 -158l-2 478q20 29 67 71zM328 1075q92 111 139 149t88 38q25 0 110.5 -27.5t112.5 -27.5q18 0 39 14t63 58q-93 -112 -141.5 -149t-91.5 -37q-30 0 -110 28.5 t-109 28.5q-16 0 -35.5 -15t-64.5 -60zM721 539l134 -119l-153 -146l-135 115z" />
<glyph unicode="&#xd6;" horiz-adv-x="1147" d="M226 529q0 -211 100 -316.5t308 -105.5q127 0 205 76q80 121 80 269q0 206 -92 313t-285 112l145 139q185 -12 282.5 -122.5t97.5 -277.5q0 -140 -57.5 -244t-172.5 -192q-22 -33 -49 -64t-70 -69.5t-99 -62t-116 -23.5q-89 0 -161.5 22.5t-120.5 60.5t-80.5 91 t-46.5 111.5t-14 124.5q0 82 21.5 155t65.5 139.5t90 118.5t115 118q-146 -155 -146 -373zM531 867l5 -488l-175 -158l-2 478q20 29 67 71zM437 1040l-104 115l147 122l104 -110l142 119l105 -112l-138 -119l-109 110zM721 539l134 -119l-153 -146l-135 115z" />
<glyph unicode="&#xd7;" horiz-adv-x="796" d="M193 430l107 103l-85 87q-43 43 -72 61l111 111q8 -17 54 -65l94 -96l88 84q65 65 67 73l104 -104q-11 -2 -67 -62l-94 -90l90 -91q63 -63 73 -66l-107 -106q-2 8 -61 67l-97 98l-100 -95q-42 -42 -61 -73l-110 110q25 11 66 54z" />
<glyph unicode="&#xd8;" horiz-adv-x="1139" d="M418 778l105 97l5 -483q16 14 47.5 41.5t43.5 38.5l248 221q-86 185 -333 192l148 143q117 -8 200.5 -63t127.5 -142l171 156q7 1 12.5 -3.5t3.5 -8.5q-95 -76 -183 -153q43 -90 45 -209q0 -139 -56.5 -237t-172.5 -184q81 97 81 268q0 139 -42 235l-175 -154l129 -114 l-153 -146l-138 118l-210 -184q97 -106 304 -106q124 0 200 80q-141 -226 -326 -226q-218 0 -323 123q-135 -120 -178 -160q-8 -3 -11.5 -3t-8.5 9q126 105 192 161q-88 105 -88 277q0 159 72 285t209 256q-135 -144 -135 -383q0 -208 90 -309l34 29l-2 467q20 29 67 71z " />
<glyph unicode="&#xd9;" horiz-adv-x="963" d="M993 1013q-123 -129 -171.5 -165t-96.5 -36q-36 0 -100 33.5t-90 33.5q-47 0 -117 -66q124 128 166 163t82 35q33 0 100.5 -33.5t102.5 -33.5q29 0 54.5 14.5t69.5 54.5zM12 43q110 111 153.5 146t79.5 35q41 0 100 -36t117 -72t95 -36q42 0 104 64q-102 -112 -149 -147 t-92 -35q-36 0 -78.5 22t-76 48.5t-77 48.5t-79.5 22q-6 0 -11 -0.5t-10.5 -2.5t-9.5 -3.5t-10 -6t-9 -6.5t-10.5 -8.5t-11 -9.5t-12.5 -11t-13 -12zM55 104q94 112 129.5 228.5t35.5 272.5q0 108 -38 189t-105 81q-22 0 -75 -45q21 18 94.5 86.5t94.5 83.5q14 12 37 12 q71 0 116 -81.5t45 -195.5q0 -73 -21 -148.5t-52.5 -137t-79 -129t-88 -114t-93.5 -102.5zM663 675l184 184q-5 -134 -5 -638q0 -69 9 -83q23 -36 61 -36q22 0 47 20q-5 -5 -39 -37t-63 -59t-45 -39q-13 -11 -31 -11q-39 0 -83 47q-36 41 -36 88zM502 260l-139 115l149 145 l137 -121zM390 1111q-26 28 -26 60q0 22 16.5 38t42.5 16q25 0 41 -14q-9 -28 16 -118t74 -136q-107 93 -164 154z" />
<glyph unicode="&#xda;" horiz-adv-x="963" d="M993 1013q-123 -129 -171.5 -165t-96.5 -36q-36 0 -100 33.5t-90 33.5q-47 0 -117 -66q124 128 166 163t82 35q33 0 100.5 -33.5t102.5 -33.5q29 0 54.5 14.5t69.5 54.5zM12 43q110 111 153.5 146t79.5 35q41 0 100 -36t117 -72t95 -36q42 0 104 64q-102 -112 -149 -147 t-92 -35q-36 0 -78.5 22t-76 48.5t-77 48.5t-79.5 22q-6 0 -11 -0.5t-10.5 -2.5t-9.5 -3.5t-10 -6t-9 -6.5t-10.5 -8.5t-11 -9.5t-12.5 -11t-13 -12zM55 104q94 112 129.5 228.5t35.5 272.5q0 108 -38 189t-105 81q-22 0 -75 -45q21 18 94.5 86.5t94.5 83.5q14 12 37 12 q71 0 116 -81.5t45 -195.5q0 -73 -21 -148.5t-52.5 -137t-79 -129t-88 -114t-93.5 -102.5zM663 675l184 184q-5 -134 -5 -638q0 -69 9 -83q23 -36 61 -36q22 0 47 20q-5 -5 -39 -37t-63 -59t-45 -39q-13 -11 -31 -11q-39 0 -83 47q-36 41 -36 88zM502 260l-139 115l149 145 l137 -121zM613 1136q-26 -30 -82.5 -78.5t-127.5 -95.5q104 86 144 274q16 14 39 14q25 0 38 -15t13 -37q0 -32 -24 -62z" />
<glyph unicode="&#xdb;" horiz-adv-x="963" d="M663 675l184 184q-5 -134 -5 -638q0 -69 9 -83q23 -36 61 -36q22 0 47 20q-5 -5 -39 -37t-63 -59t-45 -39q-13 -11 -31 -11q-39 0 -83 47q-36 41 -36 88zM55 104q94 112 129.5 228.5t35.5 272.5q0 108 -38 189t-105 81q-22 0 -75 -45q21 18 94.5 86.5t94.5 83.5 q14 12 37 12q71 0 116 -81.5t45 -195.5q0 -73 -21 -148.5t-52.5 -137t-79 -129t-88 -114t-93.5 -102.5zM12 43q110 111 153.5 146t79.5 35q41 0 100 -36t117 -72t95 -36q42 0 104 64q-102 -112 -149 -147t-92 -35q-36 0 -78.5 22t-76 48.5t-77 48.5t-79.5 22q-6 0 -11 -0.5 t-10.5 -2.5t-9.5 -3.5t-10 -6t-9 -6.5t-10.5 -8.5t-11 -9.5t-12.5 -11t-13 -12zM993 1013q-123 -129 -171.5 -165t-96.5 -36q-36 0 -100 33.5t-90 33.5q-47 0 -117 -66q124 128 166 163t82 35q33 0 100.5 -33.5t102.5 -33.5q29 0 54.5 14.5t69.5 54.5zM502 260l-139 115 l149 145l137 -121zM387 1048h-4q-5 0 -7.5 6t1.5 13l207 238q5 5 14 6.5t12 -2.5l171 -165q2 -8 -37 -52t-47 -44h-11l-168 171z" />
<glyph unicode="&#xdc;" horiz-adv-x="963" d="M663 675l184 184q-5 -134 -5 -638q0 -69 9 -83q23 -36 61 -36q22 0 47 20q-5 -5 -39 -37t-63 -59t-45 -39q-13 -11 -31 -11q-39 0 -83 47q-36 41 -36 88zM55 104q94 112 129.5 228.5t35.5 272.5q0 108 -38 189t-105 81q-22 0 -75 -45q21 18 94.5 86.5t94.5 83.5 q14 12 37 12q71 0 116 -81.5t45 -195.5q0 -73 -21 -148.5t-52.5 -137t-79 -129t-88 -114t-93.5 -102.5zM12 43q110 111 153.5 146t79.5 35q41 0 100 -36t117 -72t95 -36q42 0 104 64q-102 -112 -149 -147t-92 -35q-36 0 -78.5 22t-76 48.5t-77 48.5t-79.5 22q-6 0 -11 -0.5 t-10.5 -2.5t-9.5 -3.5t-10 -6t-9 -6.5t-10.5 -8.5t-11 -9.5t-12.5 -11t-13 -12zM397 1023l-104 115l147 122l104 -110l142 119l105 -112l-138 -119l-109 110zM993 1013q-123 -129 -171.5 -165t-96.5 -36q-36 0 -100 33.5t-90 33.5q-47 0 -117 -66q124 128 166 163t82 35 q33 0 100.5 -33.5t102.5 -33.5q29 0 54.5 14.5t69.5 54.5zM502 260l-139 115l149 145l137 -121z" />
<glyph unicode="&#xdd;" horiz-adv-x="924" d="M751 213q0 47 -23.5 96t-51.5 84t-51.5 84t-23.5 95q0 63 47 126t153 163q-65 -70 -65 -128q0 -49 22.5 -99.5t49.5 -87t49.5 -88t22.5 -101.5q0 -57 -38.5 -108t-122.5 -116q-74 -83 -130.5 -121.5t-109.5 -38.5q-54 0 -118.5 27.5t-130.5 55.5t-123 28q-62 0 -180 -118 q145 148 216.5 204t136.5 56q52 0 118.5 -30t131.5 -60.5t112 -30.5q46 0 78 29q31 38 31 79zM118 775q0 69 -9 83q-23 36 -61 36q-15 0 -40 -15q5 5 62.5 60t77.5 70q13 11 31 11q39 0 83 -47q36 -41 36 -88q0 -34 -3 -118.5t-3 -132.5q0 -81 37.5 -116.5t121.5 -35.5 q94 0 141 16l-156 -134q-39 -16 -118 -16q-205 0 -205 237q0 43 2.5 109t2.5 81zM605 1021q46 0 114 -30t106 -30q29 0 54.5 14.5t69.5 54.5q-127 -134 -173 -169t-96 -35q-47 0 -114 29t-96 29q-51 0 -124 -73q107 125 163.5 167.5t95.5 42.5zM676 1188 q-26 -30 -82.5 -78.5t-127.5 -95.5q104 86 144 274q16 14 39 14q25 0 38 -15t13 -37q0 -32 -24 -62z" />
<glyph unicode="&#xde;" horiz-adv-x="942" d="M715 484q0 69 -44 115t-100 46q-38 0 -74 -23t-98 -92q97 119 161 172.5t131 53.5q75 0 135.5 -60t60.5 -165q0 -130 -67 -209t-176 -79q-90 0 -138 44.5t-48 104.5q0 58 48 73q-46 -17 -46 -73q0 -42 28.5 -68t83.5 -26q66 0 104.5 55t38.5 131zM529 -47 q-61 0 -194 36.5t-200 36.5q-43 0 -74 -14.5t-75 -54.5q121 127 180 168.5t112 41.5q55 0 194.5 -37t200.5 -37q36 0 62.5 10t40 20.5t52.5 45.5q-139 -139 -173 -166q-57 -47 -113 -50h-13zM203 460q-47 81 -48 144.5t40 118t131 114.5q-26 -20 -34.5 -43t3.5 -62t28 -72 t55 -103q119 -210 -154 -389q98 75 -21 292zM514 810q-62 0 -182.5 33t-187.5 33q-43 0 -74 -14.5t-75 -54.5q121 127 180 168.5t112 41.5q54 0 182 -33.5t189 -33.5q36 0 62.5 10t40 20.5t52.5 45.5q-139 -139 -173 -166q-57 -47 -113 -50h-13z" />
<glyph unicode="&#xdf;" horiz-adv-x="787" d="M244 876l144 137q179 -83 236 -83q32 0 80 48q-113 -115 -159 -149t-80 -34q-69 0 -221 81zM512 696q0 -41 27.5 -81.5t67 -75t79 -68t67 -73t27.5 -78.5q0 -68 -54 -119q-99 -89 -107 -97q-19 -17 -53 -49t-47 -44q-34 -33 -94 -33q-86 0 -186 54l143 135 q121 -58 216 -58q11 0 20 1q22 31 22 78q0 42 -27 84t-66 76.5t-78 68.5t-66 72.5t-27 75.5q0 47 49.5 108t191.5 199q-64 -64 -84.5 -98t-20.5 -78zM61 -37l-1 744l175 162q7 4 7 -3v-728z" />
<glyph unicode="&#xe0;" d="M602 0h-234q-19 15 -23.5 50.5t-4.5 132.5q0 11 3.5 148t3.5 205q0 82 -93 113q-49 17 -90 17q-11 0 -25.5 -7.5t-25.5 -15.5t-33 -26l-33 -27q21 19 58.5 53t65 58t47.5 38q55 37 94 37q59 0 128 -40q46 -27 66 -52.5t20 -61.5q0 -69 -3.5 -236.5t-3.5 -211.5 q0 -43 5.5 -75t13.5 -49.5t20 -29t21.5 -15t22.5 -5.5zM292 127l-132 -142q-26 10 -76 40.5t-94 69.5l146 138q106 -84 156 -106zM201 959q-26 28 -26 60q0 22 16.5 38t42.5 16q25 0 41 -14q-9 -28 16 -118t74 -136q-107 93 -164 154z" />
<glyph unicode="&#xe1;" d="M602 0h-234q-19 15 -23.5 50.5t-4.5 132.5q0 11 3.5 148t3.5 205q0 82 -93 113q-49 17 -90 17q-11 0 -25.5 -7.5t-25.5 -15.5t-33 -26l-33 -27q21 19 58.5 53t65 58t47.5 38q55 37 94 37q59 0 128 -40q46 -27 66 -52.5t20 -61.5q0 -69 -3.5 -236.5t-3.5 -211.5 q0 -43 5.5 -75t13.5 -49.5t20 -29t21.5 -15t22.5 -5.5zM292 127l-132 -142q-26 10 -76 40.5t-94 69.5l146 138q106 -84 156 -106zM490 969q-26 -30 -82.5 -78.5t-127.5 -95.5q104 86 144 274q16 14 39 14q25 0 38 -15t13 -37q0 -32 -24 -62z" />
<glyph unicode="&#xe2;" d="M602 0h-234q-19 15 -23.5 50.5t-4.5 132.5q0 11 3.5 148t3.5 205q0 82 -93 113q-49 17 -90 17q-11 0 -25.5 -7.5t-25.5 -15.5t-33 -26l-33 -27q21 19 58.5 53t65 58t47.5 38q55 37 94 37q59 0 128 -40q46 -27 66 -52.5t20 -61.5q0 -69 -3.5 -236.5t-3.5 -211.5 q0 -43 5.5 -75t13.5 -49.5t20 -29t21.5 -15t22.5 -5.5zM292 127l-132 -142q-26 10 -76 40.5t-94 69.5l146 138q106 -84 156 -106zM149 825h-4q-5 0 -7.5 6t1.5 13l207 238q5 5 14 6.5t12 -2.5l171 -165q2 -8 -37 -52t-47 -44h-11l-168 171z" />
<glyph unicode="&#xe3;" d="M602 0h-234q-19 15 -23.5 50.5t-4.5 132.5q0 11 3.5 148t3.5 205q0 82 -93 113q-49 17 -90 17q-11 0 -25.5 -7.5t-25.5 -15.5t-33 -26l-33 -27q21 19 58.5 53t65 58t47.5 38q55 37 94 37q59 0 128 -40q46 -27 66 -52.5t20 -61.5q0 -69 -3.5 -236.5t-3.5 -211.5 q0 -43 5.5 -75t13.5 -49.5t20 -29t21.5 -15t22.5 -5.5zM84 837q92 111 139 149t88 38q25 0 110.5 -27.5t112.5 -27.5q18 0 39 14t63 58q-93 -112 -141.5 -149t-91.5 -37q-30 0 -110 28.5t-109 28.5q-16 0 -35.5 -15t-64.5 -60zM292 127l-132 -142q-26 10 -76 40.5t-94 69.5 l146 138q106 -84 156 -106z" />
<glyph unicode="&#xe4;" d="M602 0h-234q-19 15 -23.5 50.5t-4.5 132.5q0 11 3.5 148t3.5 205q0 82 -93 113q-49 17 -90 17q-11 0 -25.5 -7.5t-25.5 -15.5t-33 -26l-33 -27q21 19 58.5 53t65 58t47.5 38q55 37 94 37q59 0 128 -40q46 -27 66 -52.5t20 -61.5q0 -69 -3.5 -236.5t-3.5 -211.5 q0 -43 5.5 -75t13.5 -49.5t20 -29t21.5 -15t22.5 -5.5zM179 813l-104 115l147 122l104 -110l142 119l105 -112l-138 -119l-109 110zM292 127l-132 -142q-26 10 -76 40.5t-94 69.5l146 138q106 -84 156 -106z" />
<glyph unicode="&#xe5;" d="M602 0h-234q-19 15 -23.5 50.5t-4.5 132.5q0 11 3.5 148t3.5 205q0 82 -93 113q-49 17 -90 17q-11 0 -25.5 -7.5t-25.5 -15.5t-33 -26l-33 -27q21 19 58.5 53t65 58t47.5 38q55 37 94 37q59 0 128 -40q46 -27 66 -52.5t20 -61.5q0 -69 -3.5 -236.5t-3.5 -211.5 q0 -43 5.5 -75t13.5 -49.5t20 -29t21.5 -15t22.5 -5.5zM215 952q0 46 33.5 79t80.5 33t80 -33t33 -79q0 -47 -33 -81t-80 -34t-80.5 34t-33.5 81zM292 127l-132 -142q-26 10 -76 40.5t-94 69.5l146 138q106 -84 156 -106zM219 952q0 -45 32.5 -78t77.5 -33t77 33t32 78 q0 44 -32 76t-77 32q-46 0 -78 -32t-32 -76z" />
<glyph unicode="&#xe6;" horiz-adv-x="908" d="M343 261q0 41 3 144t3 131q0 82 -93 113q-49 17 -90 17q-11 0 -25.5 -7.5t-25.5 -15.5t-33 -26l-33 -27q21 19 58.5 53t65 58t47.5 38q55 37 94 37q59 0 128 -40q70 -40 82 -86l24.5 24.5t27 26.5t23.5 22.5t26 22.5t23 15t25 12.5t22 3.5q50 0 110.5 -30t107.5 -75 l-389 -369q6 -57 36 -93t99 -68q50 -23 96 -23q30 0 55 12.5t79 62t150 153.5q-151 -168 -214 -234t-96 -89q-55 -36 -112 -36q-83 0 -155 45q-125 77 -119 228zM523 337q0 -23 1 -34l240 238q-124 113 -239 107q3 -12 3 -26q0 -27 -2.5 -130t-2.5 -155zM-10 95l342 326 q0 -1 -94 -97l-95 -96q58 -49 149 -101l-132 -142q-26 10 -76 40.5t-94 69.5z" />
<glyph unicode="&#xe7;" horiz-adv-x="588" d="M403 -290q15 23 15 43q0 36 -55.5 59.5t-161.5 28.5q-11 0 -2 10l175 153q-35 -16 -75 -16q-84 0 -149 45q-66 47 -89.5 112t-23.5 188q0 84 11.5 120.5t44.5 74.5q30 38 112 120q3 3 19 19.5t21 20.5t19.5 18.5t21.5 19.5t20 16t21.5 15t20 10t21.5 8t20 2 q42 0 99 -30.5t104 -79.5l-153 -136q-60 54 -108 83.5t-100 29.5q-15 0 -23 -3q-8 -47 -6 -193q0 -143 22.5 -202.5t86.5 -95.5q55 -31 126 -31q30 0 55 12.5t79 62t150 153.5q-151 -168 -214 -234t-96 -89q-18 -12 -31 -18l-68 -65q-3 -3 5 -3q92 -4 143 -30.5t51 -63.5 t-108 -134zM228 -398q-34 0 -117 52l105 93q75 -53 123 -53h14h12.5t9.5 0.5t10.5 2.5t10.5 6q-74 -69 -104 -85t-64 -16z" />
<glyph unicode="&#xe8;" horiz-adv-x="586" d="M35 337q0 83 10.5 117.5t46.5 80.5q40 50 113 123q119 119 168 119t108.5 -30.5t107.5 -76.5l-381 -332q9 -87 38.5 -125.5t99.5 -70.5q50 -23 105 -23q30 0 55 12.5t79 62t150 153.5q-151 -168 -214 -234t-96 -89q-55 -36 -112 -36q-89 0 -161 45q-63 37 -90 107.5 t-27 196.5zM202 489q0 -102 6 -150l222 204q-103 101 -197 101q-20 0 -23 -1q-8 -41 -8 -154zM224 958q-26 28 -26 60q0 22 16.5 38t42.5 16q25 0 41 -14q-9 -28 16 -118t74 -136q-107 93 -164 154z" />
<glyph unicode="&#xe9;" horiz-adv-x="586" d="M35 337q0 83 10.5 117.5t46.5 80.5q40 50 113 123q119 119 168 119t108.5 -30.5t107.5 -76.5l-381 -332q9 -87 38.5 -125.5t99.5 -70.5q50 -23 105 -23q30 0 55 12.5t79 62t150 153.5q-151 -168 -214 -234t-96 -89q-55 -36 -112 -36q-89 0 -161 45q-63 37 -90 107.5 t-27 196.5zM202 489q0 -102 6 -150l222 204q-103 101 -197 101q-20 0 -23 -1q-8 -41 -8 -154zM551 979q-26 -30 -82.5 -78.5t-127.5 -95.5q104 86 144 274q16 14 39 14q25 0 38 -15t13 -37q0 -32 -24 -62z" />
<glyph unicode="&#xea;" horiz-adv-x="586" d="M35 337q0 83 10.5 117.5t46.5 80.5q40 50 113 123q119 119 168 119t108.5 -30.5t107.5 -76.5l-381 -332q9 -87 38.5 -125.5t99.5 -70.5q50 -23 105 -23q30 0 55 12.5t79 62t150 153.5q-151 -168 -214 -234t-96 -89q-55 -36 -112 -36q-89 0 -161 45q-63 37 -90 107.5 t-27 196.5zM202 489q0 -102 6 -150l222 204q-103 101 -197 101q-20 0 -23 -1q-8 -41 -8 -154zM174 825h-4q-5 0 -7.5 6t1.5 13l207 238q5 5 14 6.5t12 -2.5l171 -165q2 -8 -37 -52t-47 -44h-11l-168 171z" />
<glyph unicode="&#xeb;" horiz-adv-x="586" d="M35 337q0 83 10.5 117.5t46.5 80.5q40 50 113 123q119 119 168 119t108.5 -30.5t107.5 -76.5l-381 -332q9 -87 38.5 -125.5t99.5 -70.5q50 -23 105 -23q30 0 55 12.5t79 62t150 153.5q-151 -168 -214 -234t-96 -89q-55 -36 -112 -36q-89 0 -161 45q-63 37 -90 107.5 t-27 196.5zM202 799l-104 115l147 122l104 -110l142 119l105 -112l-138 -119l-109 110zM202 489q0 -102 6 -150l222 204q-103 101 -197 101q-20 0 -23 -1q-8 -41 -8 -154z" />
<glyph unicode="&#xec;" horiz-adv-x="312" d="M283 0h-235q14 8 15 56q5 243 5 609q-4 54 -12 70.5t-34 21.5q123 0 225 16q0 -377 6 -707q0 -37 6.5 -49.5t23.5 -16.5zM15 965q-26 28 -26 60q0 22 16.5 38t42.5 16q25 0 41 -14q-9 -28 16 -118t74 -136q-107 93 -164 154z" />
<glyph unicode="&#xed;" horiz-adv-x="312" d="M283 0h-235q14 8 15 56q5 243 5 609q-4 54 -12 70.5t-34 21.5q123 0 225 16q0 -377 6 -707q0 -37 6.5 -49.5t23.5 -16.5zM310 961q-26 -30 -82.5 -78.5t-127.5 -95.5q104 86 144 274q16 14 39 14q25 0 38 -15t13 -37q0 -32 -24 -62z" />
<glyph unicode="&#xee;" horiz-adv-x="312" d="M283 0h-235q14 8 15 56q5 243 5 609q-4 54 -12 70.5t-34 21.5q123 0 225 16q0 -377 6 -707q0 -37 6.5 -49.5t23.5 -16.5zM-20 831h-4q-5 0 -7.5 6t1.5 13l207 238q5 5 14 6.5t12 -2.5l171 -165q2 -8 -37 -52t-47 -44h-11l-168 171z" />
<glyph unicode="&#xef;" horiz-adv-x="312" d="M283 0h-235q14 8 15 56q5 243 5 609q-4 54 -12 70.5t-34 21.5q123 0 225 16q0 -377 6 -707q0 -37 6.5 -49.5t23.5 -16.5zM23 813l-104 115l147 122l104 -110l142 119l105 -112l-138 -119l-109 110z" />
<glyph unicode="&#xf0;" horiz-adv-x="718" d="M156 747q67 40 191 130q-59 34 -141 34q-66 0 -109 -18t-98 -64q95 92 173 134t165 42q81 0 144 -31q37 27 134 102q8 1 10.5 -3.5t-0.5 -11.5q-36 -21 -139 -89q94 -48 143 -156.5t49 -266.5q0 -186 -62 -288q-5 -5 -24.5 -29t-46 -52t-63.5 -60q-49 -55 -105.5 -93.5 t-107.5 -38.5q-64 0 -104.5 24t-76.5 73q-49 67 -49 186q0 113 44 192.5t145 162.5q85 70 220 147q-40 71 -99 103q-103 -75 -185 -141q-7 0 -8.5 2t0.5 10zM208 383q0 -114 41 -182q26 -43 56.5 -64t82.5 -21q38 0 78 14q18 47 30 150t12 199q0 89 -15 163l-210 1 q-16 0 -32 -2q-16 -34 -29.5 -107.5t-13.5 -150.5z" />
<glyph unicode="&#xf1;" horiz-adv-x="704" d="M717 0h-234q-19 15 -23.5 50.5t-4.5 132.5q0 19 4.5 146t4.5 161q0 80 -26 115q-50 60 -114 60q-18 0 -75 -49q0 -316 6 -550q0 -37 6.5 -49.5t23.5 -16.5h-235q14 8 15 56q5 242 5 541q0 95 -13.5 125.5t-53.5 34.5q112 0 246 16v-155q78 78 141 120q51 35 82 35 q65 0 118 -54.5t53 -127.5q0 -47 -4.5 -208t-4.5 -209q0 -43 5.5 -75t13.5 -49.5t20 -29t21.5 -15t22.5 -5.5zM124 818q92 111 139 149t88 38q25 0 110.5 -27.5t112.5 -27.5q18 0 39 14t63 58q-93 -112 -141.5 -149t-91.5 -37q-30 0 -110 28.5t-109 28.5q-16 0 -35.5 -15 t-64.5 -60z" />
<glyph unicode="&#xf2;" horiz-adv-x="758" d="M521 130q24 107 24 215q0 166 -41 235q-24 39 -64 56t-106 17q-57 0 -99 -14q-26 -116 -26 -203q0 -148 52 -235q52 -85 161 -85q57 0 99 14zM107 530q30 39 109 118q46 46 71 67t71 39.5t103 18.5q73 0 119.5 -23t80.5 -70q57 -76 57 -205q0 -84 -12.5 -138.5 t-50.5 -105.5q-21 -30 -99 -94q-21 -18 -45.5 -45.5t-29.5 -32.5q-68 -71 -175 -71q-136 0 -206 97q-61 81 -61 200q0 82 14.5 137.5t53.5 107.5zM276 964q-26 28 -26 60q0 22 16.5 38t42.5 16q25 0 41 -14q-9 -28 16 -118t74 -136q-107 93 -164 154z" />
<glyph unicode="&#xf3;" horiz-adv-x="758" d="M521 130q24 107 24 215q0 166 -41 235q-24 39 -64 56t-106 17q-57 0 -99 -14q-26 -116 -26 -203q0 -148 52 -235q52 -85 161 -85q57 0 99 14zM107 530q30 39 109 118q46 46 71 67t71 39.5t103 18.5q73 0 119.5 -23t80.5 -70q57 -76 57 -205q0 -84 -12.5 -138.5 t-50.5 -105.5q-21 -30 -99 -94q-21 -18 -45.5 -45.5t-29.5 -32.5q-68 -71 -175 -71q-136 0 -206 97q-61 81 -61 200q0 82 14.5 137.5t53.5 107.5zM614 977q-26 -30 -82.5 -78.5t-127.5 -95.5q104 86 144 274q16 14 39 14q25 0 38 -15t13 -37q0 -32 -24 -62z" />
<glyph unicode="&#xf4;" horiz-adv-x="758" d="M107 530q30 39 109 118q46 46 71 67t71 39.5t103 18.5q73 0 119.5 -23t80.5 -70q57 -76 57 -205q0 -84 -12.5 -138.5t-50.5 -105.5q-21 -30 -99 -94q-21 -18 -45.5 -45.5t-29.5 -32.5q-68 -71 -175 -71q-136 0 -206 97q-61 81 -61 200q0 82 14.5 137.5t53.5 107.5z M521 130q24 107 24 215q0 166 -41 235q-24 39 -64 56t-106 17q-57 0 -99 -14q-26 -116 -26 -203q0 -148 52 -235q52 -85 161 -85q57 0 99 14zM234 831h-4q-5 0 -7.5 6t1.5 13l207 238q5 5 14 6.5t12 -2.5l171 -165q2 -8 -37 -52t-47 -44h-11l-168 171z" />
<glyph unicode="&#xf5;" horiz-adv-x="758" d="M521 130q24 107 24 215q0 166 -41 235q-24 39 -64 56t-106 17q-57 0 -99 -14q-26 -116 -26 -203q0 -148 52 -235q52 -85 161 -85q57 0 99 14zM107 530q30 39 109 118q46 46 71 67t71 39.5t103 18.5q73 0 119.5 -23t80.5 -70q57 -76 57 -205q0 -84 -12.5 -138.5 t-50.5 -105.5q-21 -30 -99 -94q-21 -18 -45.5 -45.5t-29.5 -32.5q-68 -71 -175 -71q-136 0 -206 97q-61 81 -61 200q0 82 14.5 137.5t53.5 107.5zM159 813q92 111 139 149t88 38q25 0 110.5 -27.5t112.5 -27.5q18 0 39 14t63 58q-93 -112 -141.5 -149t-91.5 -37 q-30 0 -110 28.5t-109 28.5q-16 0 -35.5 -15t-64.5 -60z" />
<glyph unicode="&#xf6;" horiz-adv-x="758" d="M107 530q30 39 109 118q46 46 71 67t71 39.5t103 18.5q73 0 119.5 -23t80.5 -70q57 -76 57 -205q0 -84 -12.5 -138.5t-50.5 -105.5q-21 -30 -99 -94q-21 -18 -45.5 -45.5t-29.5 -32.5q-68 -71 -175 -71q-136 0 -206 97q-61 81 -61 200q0 82 14.5 137.5t53.5 107.5z M521 130q24 107 24 215q0 166 -41 235q-24 39 -64 56t-106 17q-57 0 -99 -14q-26 -116 -26 -203q0 -148 52 -235q52 -85 161 -85q57 0 99 14zM270 811l-104 115l147 122l104 -110l142 119l105 -112l-138 -119l-109 110z" />
<glyph unicode="&#xf7;" horiz-adv-x="796" d="M201 616h388q87 0 102 5v-162q-5 4 -95 4h-385q-70 0 -99 -9v170q24 -8 89 -8zM405 890l133 -108l-133 -125l-133 114zM406 415l134 -108l-134 -125l-133 114z" />
<glyph unicode="&#xf8;" horiz-adv-x="758" d="M-37 -69l138 152q0 1 -0.5 1t-0.5 1q-61 81 -61 200q0 82 14.5 137.5t53.5 107.5q30 39 109 118q46 46 71 67t71 39.5t103 18.5q69 0 113.5 -20.5t78.5 -62.5l94 104l25 19l-115 -127q1 -3 4 -6q57 -76 57 -205q0 -84 -12.5 -138.5t-50.5 -105.5q-21 -30 -99 -94 q-21 -18 -45.5 -45.5t-29.5 -32.5q-68 -71 -175 -71q-132 0 -201 90l-117 -129zM209 436q0 -123 33 -198l279 307q-8 21 -17 35q-24 39 -64 56t-106 17q-57 0 -99 -14q-26 -116 -26 -203zM521 130q24 107 24 215q0 132 -22 194l-279 -308q5 -12 17 -30q52 -85 161 -85 q57 0 99 14z" />
<glyph unicode="&#xf9;" horiz-adv-x="696" d="M630 174q0 -43 5.5 -75t13.5 -49.5t20 -29t21.5 -15t22.5 -5.5h-234q-17 14 -22 42.5t-6 95.5q-81 -77 -141 -119q-51 -35 -82 -35q-65 0 -118 54.5t-53 127.5q0 48 4.5 209t4.5 208q0 75 -6 110.5t-19.5 48t-41.5 15.5q112 0 246 16q0 -107 -4.5 -298.5t-4.5 -207.5 q0 -85 26 -115q50 -60 114 -60q17 0 75 48v43q0 78 0.5 238t0.5 176q0 95 -13.5 125.5t-53.5 34.5q112 0 246 16q0 -68 -0.5 -293t-0.5 -306zM209 913q-26 28 -26 60q0 22 16.5 38t42.5 16q25 0 41 -14q-9 -28 16 -118t74 -136q-107 93 -164 154z" />
<glyph unicode="&#xfa;" horiz-adv-x="696" d="M630 174q0 -43 5.5 -75t13.5 -49.5t20 -29t21.5 -15t22.5 -5.5h-234q-17 14 -22 42.5t-6 95.5q-81 -77 -141 -119q-51 -35 -82 -35q-65 0 -118 54.5t-53 127.5q0 48 4.5 209t4.5 208q0 75 -6 110.5t-19.5 48t-41.5 15.5q112 0 246 16q0 -107 -4.5 -298.5t-4.5 -207.5 q0 -85 26 -115q50 -60 114 -60q17 0 75 48v43q0 78 0.5 238t0.5 176q0 95 -13.5 125.5t-53.5 34.5q112 0 246 16q0 -68 -0.5 -293t-0.5 -306zM512 942q-26 -30 -82.5 -78.5t-127.5 -95.5q104 86 144 274q16 14 39 14q25 0 38 -15t13 -37q0 -32 -24 -62z" />
<glyph unicode="&#xfb;" horiz-adv-x="696" d="M630 174q0 -43 5.5 -75t13.5 -49.5t20 -29t21.5 -15t22.5 -5.5h-234q-17 14 -22 42.5t-6 95.5q-81 -77 -141 -119q-51 -35 -82 -35q-65 0 -118 54.5t-53 127.5q0 48 4.5 209t4.5 208q0 75 -6 110.5t-19.5 48t-41.5 15.5q112 0 246 16q0 -107 -4.5 -298.5t-4.5 -207.5 q0 -85 26 -115q50 -60 114 -60q17 0 75 48v43q0 78 0.5 238t0.5 176q0 95 -13.5 125.5t-53.5 34.5q112 0 246 16q0 -68 -0.5 -293t-0.5 -306zM166 814h-4q-5 0 -7.5 6t1.5 13l207 238q5 5 14 6.5t12 -2.5l171 -165q2 -8 -37 -52t-47 -44h-11l-168 171z" />
<glyph unicode="&#xfc;" horiz-adv-x="696" d="M630 174q0 -43 5.5 -75t13.5 -49.5t20 -29t21.5 -15t22.5 -5.5h-234q-17 14 -22 42.5t-6 95.5q-81 -77 -141 -119q-51 -35 -82 -35q-65 0 -118 54.5t-53 127.5q0 48 4.5 209t4.5 208q0 75 -6 110.5t-19.5 48t-41.5 15.5q112 0 246 16q0 -107 -4.5 -298.5t-4.5 -207.5 q0 -85 26 -115q50 -60 114 -60q17 0 75 48v43q0 78 0.5 238t0.5 176q0 95 -13.5 125.5t-53.5 34.5q112 0 246 16q0 -68 -0.5 -293t-0.5 -306zM214 804l-104 115l147 122l104 -110l142 119l105 -112l-138 -119l-109 110z" />
<glyph unicode="&#xfd;" horiz-adv-x="693" d="M628 773v-386q0 -152 4.5 -296.5t4.5 -145.5q0 -20 -6.5 -33.5t-28.5 -31.5q-126 -106 -283 -222q-11 -8 -19 -8q-51 0 -146 59q-114 71 -114 111q0 4 2 14q13 9 253 170q-20 -14 -66 -51q-29 -23 -35 -37q2 -15 30 -41.5t73 -52.5q98 -57 147 -57q8 0 13 4q9 6 9 43 q0 52 -5 175t-6 156q-60 -63 -145 -124q-51 -35 -82 -35q-65 0 -118 54.5t-53 127.5q0 48 4.5 209t4.5 208q0 75 -6 110.5t-19.5 48t-41.5 15.5q112 0 246 16q0 -107 -4.5 -298.5t-4.5 -207.5q0 -85 26 -115q50 -60 114 -60q19 0 79 52q-1 41 -1 125v328q0 95 -13.5 125.5 t-53.5 34.5q107 0 241 16zM505 942q-26 -30 -82.5 -78.5t-127.5 -95.5q104 86 144 274q16 14 39 14q25 0 38 -15t13 -37q0 -32 -24 -62z" />
<glyph unicode="&#xfe;" horiz-adv-x="688" d="M264 -322h-184q5 27 5 358q-47 18 -85 41l85 79v619q-3 64 -11 92t-25.5 38.5t-58.5 13.5q112 0 268 15v-293q74 68 112 97q46 35 101 35q76 0 127 -74t51 -200q0 -127 -43 -206t-146 -163q-119 -97 -202 -132q0 -302 6 -320zM480 388q0 277 -177 277q-13 0 -45 -25v-500 q80 -31 147 -31q10 0 26 2q18 39 33.5 112.5t15.5 164.5z" />
<glyph unicode="&#xff;" horiz-adv-x="693" d="M628 773v-386q0 -152 4.5 -296.5t4.5 -145.5q0 -20 -6.5 -33.5t-28.5 -31.5q-126 -106 -283 -222q-11 -8 -19 -8q-51 0 -146 59q-114 71 -114 111q0 4 2 14q13 9 253 170q-20 -14 -66 -51q-29 -23 -35 -37q2 -15 30 -41.5t73 -52.5q98 -57 147 -57q8 0 13 4q9 6 9 43 q0 52 -5 175t-6 156q-60 -63 -145 -124q-51 -35 -82 -35q-65 0 -118 54.5t-53 127.5q0 48 4.5 209t4.5 208q0 75 -6 110.5t-19.5 48t-41.5 15.5q112 0 246 16q0 -107 -4.5 -298.5t-4.5 -207.5q0 -85 26 -115q50 -60 114 -60q19 0 79 52q-1 41 -1 125v328q0 95 -13.5 125.5 t-53.5 34.5q107 0 241 16zM213 801l-104 115l147 122l104 -110l142 119l105 -112l-138 -119l-109 110z" />
<glyph unicode="&#x152;" horiz-adv-x="1537" d="M772 362l1 131q0 103 -13.5 176.5t-45 131t-89 86t-141.5 28.5q-109 0 -189 -84q15 25 42 54t67 60t94.5 51t110.5 20q176 0 259 -99.5t83 -307.5l-1 -131q0 -201 70.5 -293.5t238.5 -92.5q109 0 182.5 71t99.5 180q-14 -66 -46.5 -132t-82 -124.5t-122.5 -95t-157 -36.5 q-177 0 -269 101.5t-92 305.5zM226 520q0 -216 83.5 -317.5t285.5 -101.5q124 0 200 80q-141 -226 -326 -226q-389 0 -389 411q0 271 211 459q-22 -41 -43.5 -126.5t-21.5 -178.5zM520 891l5 -553l-175 -158l-2 543q20 29 67 71zM904 887q19 20 42.5 43.5t51.5 51t40 39.5 q14 -5 48.5 -16.5t52 -17t49.5 -16.5t51 -16.5t47 -14t46 -13t38.5 -9t36 -6.5t27.5 -2q35 0 63.5 15t72.5 55q-204 -204 -310 -204q-94 0 -356 111zM966 469l142 140q70 -40 136 -56.5t107 -16.5q30 0 74 42q-112 -112 -160 -147.5t-80 -35.5q-36 0 -101 19.5t-118 54.5z " />
<glyph unicode="&#x153;" horiz-adv-x="1072" d="M694 648q103 129 173 129q48 0 105 -29.5t105 -75.5l-381 -331q10 -85 39.5 -129t89.5 -70q50 -23 96 -23q30 0 55 12.5t79 62t150 153.5q-151 -168 -214 -234t-96 -89q-55 -36 -112 -36q-83 0 -155 45q-65 39 -92 111.5t-27 219.5v207q-72 91 -178 91q-52 0 -94 -14 q-30 -90 -30 -212q0 -148 52 -235q52 -85 161 -85q56 0 117 22q-13 -14 -34.5 -40.5t-33.5 -38.5q-37 -38 -73.5 -54.5t-91.5 -16.5q-136 0 -206 97q-59 78 -59 201q0 87 11 141t48 103q20 26 89 89q28 25 84 83q36 37 78.5 54t105.5 17q147 0 235 -128v-148q0 -92 6 -155 l224 205q-120 110 -226 101z" />
<glyph unicode="&#x178;" horiz-adv-x="924" d="M751 213q0 47 -23.5 96t-51.5 84t-51.5 84t-23.5 95q0 63 47 126t153 163q-65 -70 -65 -128q0 -49 22.5 -99.5t49.5 -87t49.5 -88t22.5 -101.5q0 -57 -38.5 -108t-122.5 -116q-74 -83 -130.5 -121.5t-109.5 -38.5q-54 0 -118.5 27.5t-130.5 55.5t-123 28q-62 0 -180 -118 q145 148 216.5 204t136.5 56q52 0 118.5 -30t131.5 -60.5t112 -30.5q46 0 78 29l-1 -1l1 1l1 1l-1 -1q31 38 31 79zM118 775q0 69 -9 83q-23 36 -61 36q-15 0 -40 -15q5 5 62.5 60t77.5 70q13 11 31 11q39 0 83 -47q36 -41 36 -88q0 -34 -3 -118.5t-3 -132.5 q0 -81 37.5 -116.5t121.5 -35.5q94 0 141 16l-156 -134q-39 -16 -118 -16q-205 0 -205 237q0 43 2.5 109t2.5 81zM350 1042l-104 115l147 122l104 -110l142 119l105 -112l-138 -119l-109 110zM605 1021q46 0 114 -30t106 -30q29 0 54.5 14.5t69.5 54.5q-127 -134 -173 -169 t-96 -35q-47 0 -114 29t-96 29q-51 0 -124 -73q107 125 163.5 167.5t95.5 42.5z" />
<glyph unicode="&#x2c6;" horiz-adv-x="971" d="M310 592h-4q-5 0 -7.5 6t1.5 13l207 238q5 5 14 6.5t12 -2.5l171 -165q2 -8 -37 -52t-47 -44h-11l-168 171z" />
<glyph unicode="&#x2dc;" horiz-adv-x="971" d="M248 712q92 111 139 149t88 38q25 0 110.5 -27.5t112.5 -27.5q18 0 39 14t63 58q-93 -112 -141.5 -149t-91.5 -37q-30 0 -110 28.5t-109 28.5q-16 0 -35.5 -15t-64.5 -60z" />
<glyph unicode="&#x2000;" horiz-adv-x="660" />
<glyph unicode="&#x2001;" horiz-adv-x="1321" />
<glyph unicode="&#x2002;" horiz-adv-x="660" />
<glyph unicode="&#x2003;" horiz-adv-x="1321" />
<glyph unicode="&#x2004;" horiz-adv-x="440" />
<glyph unicode="&#x2005;" horiz-adv-x="330" />
<glyph unicode="&#x2006;" horiz-adv-x="220" />
<glyph unicode="&#x2007;" horiz-adv-x="220" />
<glyph unicode="&#x2008;" horiz-adv-x="165" />
<glyph unicode="&#x2009;" horiz-adv-x="264" />
<glyph unicode="&#x200a;" horiz-adv-x="73" />
<glyph unicode="&#x2010;" horiz-adv-x="731" d="M12 297l191 172q270 -8 514 13l-190 -180q-222 15 -515 -5z" />
<glyph unicode="&#x2011;" horiz-adv-x="731" d="M12 297l191 172q270 -8 514 13l-190 -180q-222 15 -515 -5z" />
<glyph unicode="&#x2012;" horiz-adv-x="731" d="M12 297l191 172q270 -8 514 13l-190 -180q-222 15 -515 -5z" />
<glyph unicode="&#x2013;" horiz-adv-x="855" d="M12 297l191 172q124 -4 317 -0.5t320 13.5l-190 -180q-133 8 -314.5 6t-323.5 -11z" />
<glyph unicode="&#x2014;" horiz-adv-x="961" d="M12 297l191 172q115 -4 371.5 -1t374.5 14l-190 -180q-128 9 -369 6.5t-378 -11.5z" />
<glyph unicode="&#x2018;" horiz-adv-x="379" d="M338 1076q-81 -75 -104 -111.5t-23 -71.5q0 -34 19 -57t85 -78l-171 -175q-66 54 -88 86.5t-22 73.5q0 20 6.5 39t27 45t37.5 45t62 58.5t74 64t97 81.5z" />
<glyph unicode="&#x2019;" horiz-adv-x="379" d="M27 565q80 72 104 109.5t24 74.5q0 34 -20 59.5t-86 82.5l169 150q63 -47 85.5 -77.5t22.5 -70.5q0 -54 -57.5 -114.5t-230.5 -204.5q-3 -2 -4 -3l-3 -3t-4 -3z" />
<glyph unicode="&#x201a;" horiz-adv-x="379" d="M27 -226q80 72 104 109.5t24 74.5q0 34 -20 59.5t-86 82.5l169 150q63 -47 85.5 -77.5t22.5 -70.5q0 -54 -57.5 -114.5t-230.5 -204.5q-7 -6 -11 -9z" />
<glyph unicode="&#x201c;" horiz-adv-x="670" d="M338 1076q-81 -75 -104 -111.5t-23 -71.5q0 -34 19 -57t85 -78l-171 -175q-66 54 -88 86.5t-22 73.5q0 20 6.5 39t27 45t37.5 45t62 58.5t74 64t97 81.5zM629 1076q-81 -75 -104 -111.5t-23 -71.5q0 -34 19 -57t85 -78l-171 -175q-66 54 -88 86.5t-22 73.5q0 20 6.5 39 t27 45t37.5 45t62 58.5t74 64t97 81.5z" />
<glyph unicode="&#x201d;" horiz-adv-x="670" d="M27 565q80 72 104 109.5t24 74.5q0 34 -20 59.5t-86 82.5l169 150q63 -47 85.5 -77.5t22.5 -70.5q0 -54 -57.5 -114.5t-230.5 -204.5q-3 -2 -4 -3l-3 -3t-4 -3zM318 565q80 72 104 109.5t24 74.5q0 34 -20 59.5t-86 82.5l169 150q63 -47 85.5 -77.5t22.5 -70.5 q0 -54 -57.5 -114.5t-230.5 -204.5q-3 -2 -4 -3l-3 -3t-4 -3z" />
<glyph unicode="&#x201e;" horiz-adv-x="670" d="M27 -226q80 72 104 109.5t24 74.5q0 34 -20 59.5t-86 82.5l169 150q63 -47 85.5 -77.5t22.5 -70.5q0 -54 -57.5 -114.5t-230.5 -204.5q-7 -6 -11 -9zM318 -226q80 72 104 109.5t24 74.5q0 34 -20 59.5t-86 82.5l169 150q63 -47 85.5 -77.5t22.5 -70.5q0 -54 -57.5 -114.5 t-230.5 -204.5q-7 -6 -11 -9z" />
<glyph unicode="&#x2022;" horiz-adv-x="518" d="M259 521l171 -138l-171 -160l-170 145z" />
<glyph unicode="&#x2026;" horiz-adv-x="1143" d="M205 269l167 -135l-167 -156l-166 142zM571 269l167 -135l-167 -156l-166 142zM938 269l167 -135l-167 -156l-166 142z" />
<glyph unicode="&#x202f;" horiz-adv-x="264" />
<glyph unicode="&#x2030;" horiz-adv-x="1584" d="M524 485q47 51 239.5 265.5t216.5 244.5q6 0 8.5 -5t0.5 -12q-27 -24 -202.5 -214t-259.5 -282q-82 -89 -266 -292t-208 -233q-6 -2 -8.5 3.5t-0.5 13.5q25 25 228 241.5t252 269.5zM375 496q11 50 11 145q0 102 -27 147q-37 60 -109 60q-35 0 -62 -9q-12 -61 -12 -142 q0 -88 33 -146q38 -64 105 -64q34 0 61 9zM84 748q8 12 24 29t42 42l26 25q37 37 58 55.5t55.5 37t66.5 18.5q52 0 80.5 -16.5t56.5 -52.5q40 -54 40 -143q0 -79 -61 -162q-32 -43 -75 -80q-22 -19 -46 -49q-65 -72 -139 -72q-53 0 -81 15.5t-55 51.5q-45 61 -45 149 q0 79 53 152zM832 93q11 50 11 145q0 102 -27 147q-37 60 -109 60q-35 0 -62 -9q-12 -61 -12 -142q0 -88 33 -146q38 -64 105 -64q34 0 61 9zM541 345q8 12 24 29t42 42l26 25q37 37 58 55.5t55.5 37t66.5 18.5q52 0 80.5 -16.5t56.5 -52.5q40 -54 40 -143q0 -79 -61 -162 q-32 -43 -75 -80q-22 -19 -46 -49q-65 -72 -139 -72q-53 0 -81 15.5t-55 51.5q-45 62 -45 149q0 79 53 152zM1376 93q11 50 11 145q0 102 -27 147q-37 60 -109 60q-35 0 -62 -9q-12 -62 -12 -142q0 -88 33 -146q38 -64 105 -64q34 0 61 9zM1085 345q8 12 24 29t42 42l26 25 q37 37 58 55.5t55.5 37t66.5 18.5q52 0 80.5 -16.5t56.5 -52.5q40 -54 40 -143q0 -79 -61 -162q-32 -43 -75 -80q-22 -19 -46 -49q-65 -72 -139 -72q-53 0 -81 15.5t-55 51.5q-45 62 -45 149q0 79 53 152z" />
<glyph unicode="&#x2039;" horiz-adv-x="397" d="M338 629l-220 -166l247 -200v-20q0 -8 -47.5 -46t-55.5 -36l-237 207q-17 13 4 30l290 238q7 5 13 3t6 -6v-4z" />
<glyph unicode="&#x203a;" horiz-adv-x="397" d="M61 173l219 165l-246 201v20q0 8 47.5 46t55.5 36l237 -207q17 -13 -4 -30l-290 -238q-7 -5 -13 -3t-6 6v4z" />
<glyph unicode="&#x205f;" horiz-adv-x="330" />
<glyph unicode="&#x2070;" horiz-adv-x="642" d="M486 633q0 106 -55 157.5t-155 51.5q-52 0 -98 -22q77 143 212 143q108 0 170 -59t63 -163q0 -98 -42 -161t-115 -108q0 2 2 4q-32 -60 -60 -88q-62 -63 -153 -63q-110 0 -175.5 67t-65.5 172q0 97 43.5 155.5t120.5 100.5q-25 -60 -25 -159q0 -106 56 -159t149 -53 q84 0 110 28v-1q18 52 18 157z" />
<glyph unicode="&#x2074;" horiz-adv-x="619" d="M-13 505l95 110q8 6 21 6h231v212l130 140q0 -47 0.5 -170t0.5 -182h43q42 0 64 7t33 17t42 46l4 -2q-44 -53 -121 -188h-64q0 -43 1 -58q2 -62 9 -81.5t25 -21.5h-206q22 4 29 23t9 81q0 7 0.5 26t0.5 31h-346zM94 627q57 87 57 160q0 35 -17 53t-47 18q-33 0 -52 -28 q43 132 139 132q48 0 75 -26t27 -69q0 -53 -42.5 -104t-139.5 -136z" />
<glyph unicode="&#x2075;" horiz-adv-x="518" d="M166 942h269q51 0 84 39l4 -2q-34 -34 -136 -161h-211v-168l-125 -113l-5 3v268q0 9 33 40zM370 461q18 37 18 94q0 54 -35.5 86.5t-101.5 32.5q-40 0 -66 -17q88 107 191 107q62 0 98.5 -31t36.5 -89q0 -54 -39 -104.5t-102 -78.5zM165 561q-15 -20 -15 -52t31 -49.5 t80 -17.5q67 0 108 18q-71 -139 -193 -139q-63 0 -96.5 22.5t-33.5 64.5q0 75 119 153z" />
<glyph unicode="&#x2076;" horiz-adv-x="557" d="M411 451q15 42 15 75q0 61 -37 100t-109 39q-67 0 -109 -44q103 160 219 160q70 0 109.5 -41t39.5 -109q0 -107 -128 -180zM163 668q0 -127 45 -182t135 -55q37 0 66 18q-30 -60 -67.5 -92t-99.5 -32q-93 0 -150.5 62.5t-57.5 174.5q0 74 28.5 143t83 130t117 112 t146.5 105q-114 -80 -180 -183.5t-66 -200.5z" />
<glyph unicode="&#x2077;" horiz-adv-x="508" d="M457 804q-36 -125 -63 -204t-53 -138t-53.5 -88t-57.5 -42.5t-71 -13.5q-64 0 -101.5 29.5t-37.5 80.5q0 83 99 131q-11 -17 -11 -36q0 -28 20.5 -45.5t62.5 -17.5q41 0 77.5 25t86 104t102.5 215zM528 939l-67 -128q-7 -4 -55 -4h-248q-43 0 -70 -9t-38.5 -19.5 t-31.5 -35.5l-4 2q24 28 119 197h393z" />
<glyph unicode="&#x2078;" horiz-adv-x="515" d="M322 702q40 37 40 87q0 79 -116 79q-50 0 -88 -16q26 45 72.5 77.5t100.5 32.5q65 0 101 -29t37 -80q0 -86 -147 -151zM394 503q0 32 -36.5 48.5t-89 23.5t-105 16t-89 35t-36.5 72q0 92 117 152q-20 -29 -20 -57q0 -37 37 -57t89.5 -27.5t105.5 -16t90 -33t37 -68.5 q0 -90 -119 -150q19 33 19 62zM168 587q-34 -28 -34 -74q0 -43 37 -64.5t97 -21.5q69 0 105 13q-28 -49 -78 -84t-117 -35q-161 0 -161 111q0 47 43 88t108 67z" />
<glyph unicode="&#x2079;" horiz-adv-x="557" d="M160 841q-15 -30 -15 -76q0 -62 37 -100.5t110 -38.5q67 0 109 44q-97 -149 -215 -149q-72 0 -112.5 36.5t-40.5 102.5q0 110 127 181zM93 198q171 115 243.5 221.5t72.5 220.5q0 110 -49 165t-131 55q-35 0 -67 -17q61 119 178 119q94 0 146 -61t52 -163 q0 -158 -104.5 -281.5t-340.5 -258.5z" />
<glyph unicode="&#x207a;" horiz-adv-x="478" d="M111 730h61v54q0 56 -3 61h142q-3 -3 -3 -57v-58h55q57 0 62 3v-138q-3 3 -57 3h-60v-67q0 -44 5 -59h-146q5 12 5 53v73h-55q-38 0 -60 -6v142q9 -4 54 -4z" />
<glyph unicode="&#x207c;" horiz-adv-x="478" d="M121 821h232q47 0 62 3v-137q-9 3 -57 3h-231q-38 0 -60 -6v142q12 -5 54 -5zM121 638h232q47 0 62 3v-137q-9 3 -57 3h-231q-38 0 -60 -6v142q12 -5 54 -5z" />
<glyph unicode="&#x207d;" horiz-adv-x="307" d="M185 604q0 -69 4 -120t15.5 -109t37.5 -99.5t66 -63.5q-137 55 -205.5 145.5t-68.5 246.5q0 60 17 112t41.5 88t62 68t68 51t70.5 39q-108 -65 -108 -358z" />
<glyph unicode="&#x207e;" horiz-adv-x="307" d="M122 607q0 290 -108 355q51 -25 89 -50.5t80.5 -67.5t66 -102.5t23.5 -134.5q0 -156 -69 -248t-205 -147q40 22 66 64t37.5 101t15.5 110t4 120z" />
<glyph unicode="&#x2080;" horiz-adv-x="642" d="M486 293q0 106 -55 157.5t-155 51.5q-52 0 -98 -22q77 143 212 143q108 0 170 -59t63 -163q0 -98 -42 -161t-115 -108q0 2 2 4q-32 -60 -60 -88q-62 -63 -153 -63q-110 0 -175.5 67t-65.5 172q0 97 43.5 155.5t120.5 100.5q-25 -60 -25 -159q0 -106 56 -159t149 -53 q84 0 110 28v-1q18 52 18 157z" />
<glyph unicode="&#x2081;" horiz-adv-x="251" d="M228 0h-205q12 5 16.5 9t8.5 22t4 54q0 51 1.5 217.5t1.5 213.5q0 52 -14.5 67t-70.5 19q146 0 229 13q-1 -73 -1 -174t0.5 -206.5t0.5 -131.5q0 -42 4.5 -65t9.5 -29t15 -9z" />
<glyph unicode="&#x2082;" horiz-adv-x="557" d="M198 146q114 95 149.5 145t35.5 104q0 113 -141 113q-54 0 -94 -24q-12 -32 -12 -67q0 -38 18 -63t52 -25q23 0 40 17q-22 -53 -57 -84.5t-78 -31.5t-68.5 25t-25.5 67q0 45 39 90t92 74q23 56 74.5 96t124.5 40q85 0 134 -40.5t50 -116.5q0 -25 -7 -48t-16 -41t-30 -39 t-36.5 -35t-49.5 -36.5t-55.5 -35.5t-67 -40.5t-71.5 -43.5zM34 8l142 124q14 6 70 6h206q43 0 70 9t38.5 19.5t31.5 36.5l4 -3q-25 -29 -70 -93.5t-68 -106.5h-421z" />
<glyph unicode="&#x2083;" horiz-adv-x="530" d="M319 368q24 30 24 65q0 38 -32.5 60t-88.5 22q-45 0 -79 -14q63 121 192 121q68 0 106 -27.5t38 -77.5q0 -82 -160 -149zM403 152q0 46 -51 74t-162 28l122 108q100 -2 147 -32.5t47 -79.5q0 -40 -30 -74.5t-77 -57.5q4 13 4 34zM151 242q-15 -18 -15 -47q0 -42 38 -70 t110 -28q78 0 114 20q-19 -63 -72.5 -102t-134.5 -39q-76 0 -118.5 27t-42.5 77q0 41 29 78.5t92 83.5zM224 409q-20 -59 -57 -92t-77 -33q-38 0 -57.5 18t-19.5 50q0 86 130 149q-9 -18 -9 -50q0 -27 13 -43t37 -16q23 0 40 17z" />
<glyph unicode="&#x2084;" horiz-adv-x="619" d="M-13 165l95 110q8 6 21 6h231v212l130 140q0 -47 0.5 -170t0.5 -182h43q42 0 64 7t33 17t42 46l4 -2q-44 -53 -121 -188h-64q0 -43 1 -58q2 -62 9 -81.5t25 -21.5h-206q22 4 29 23t9 81q0 7 0.5 26t0.5 31h-346zM94 287q57 87 57 160q0 35 -17 53t-47 18q-33 0 -52 -28 q43 132 139 132q48 0 75 -26t27 -69q0 -53 -42.5 -104t-139.5 -136z" />
<glyph unicode="&#x2085;" horiz-adv-x="518" d="M166 602h269q51 0 84 39l4 -2q-34 -34 -136 -161h-211v-168l-125 -113l-5 3v268q0 9 33 40zM370 121q18 37 18 94q0 54 -35.5 86.5t-101.5 32.5q-40 0 -66 -17q88 107 191 107q62 0 98.5 -31t36.5 -89q0 -54 -39 -104.5t-102 -78.5zM165 221q-15 -20 -15 -52t31 -49.5 t80 -17.5q67 0 108 18q-71 -139 -193 -139q-63 0 -96.5 22.5t-33.5 64.5q0 75 119 153z" />
<glyph unicode="&#x2086;" horiz-adv-x="557" d="M411 111q15 42 15 75q0 61 -37 100t-109 39q-67 0 -109 -44q103 160 219 160q70 0 109.5 -41t39.5 -109q0 -107 -128 -180zM163 328q0 -127 45 -182t135 -55q37 0 66 18q-30 -60 -67.5 -92t-99.5 -32q-93 0 -150.5 62.5t-57.5 174.5q0 74 28.5 143t83 130t117 112 t146.5 105q-114 -80 -180 -183.5t-66 -200.5z" />
<glyph unicode="&#x2087;" horiz-adv-x="508" d="M457 464q-36 -125 -63 -204t-53 -138t-53.5 -88t-57.5 -42.5t-71 -13.5q-64 0 -101.5 29.5t-37.5 80.5q0 83 99 131q-11 -17 -11 -36q0 -28 20.5 -45.5t62.5 -17.5q41 0 77.5 25t86 104t102.5 215zM528 599l-67 -128q-7 -4 -55 -4h-248q-43 0 -70 -9t-38.5 -19.5 t-31.5 -35.5l-4 2q24 28 119 197h393z" />
<glyph unicode="&#x2088;" horiz-adv-x="515" d="M322 362q40 37 40 87q0 79 -116 79q-50 0 -88 -16q26 45 72.5 77.5t100.5 32.5q65 0 101 -29t37 -80q0 -86 -147 -151zM394 163q0 32 -36.5 48.5t-89 23.5t-105 16t-89 35t-36.5 72q0 92 117 152q-20 -29 -20 -57q0 -37 37 -57t89.5 -27.5t105.5 -16t90 -33t37 -68.5 q0 -90 -119 -150q19 33 19 62zM168 247q-34 -28 -34 -74q0 -43 37 -64.5t97 -21.5q69 0 105 13q-28 -49 -78 -84t-117 -35q-161 0 -161 111q0 47 43 88t108 67z" />
<glyph unicode="&#x2089;" horiz-adv-x="557" d="M160 501q-15 -30 -15 -76q0 -62 37 -100.5t110 -38.5q67 0 109 44q-97 -149 -215 -149q-72 0 -112.5 36.5t-40.5 102.5q0 110 127 181zM93 -142q171 115 243.5 221.5t72.5 220.5q0 110 -49 165t-131 55q-35 0 -67 -17q61 119 178 119q94 0 146 -61t52 -163 q0 -158 -104.5 -281.5t-340.5 -258.5z" />
<glyph unicode="&#x208a;" horiz-adv-x="478" d="M111 390h61v54q0 56 -3 61h142q-3 -3 -3 -57v-58h55q57 0 62 3v-138q-3 3 -57 3h-60v-67q0 -44 5 -59h-146q5 12 5 53v73h-55q-38 0 -60 -6v142q9 -4 54 -4z" />
<glyph unicode="&#x208c;" horiz-adv-x="478" d="M121 481h232q47 0 62 3v-137q-9 3 -57 3h-231q-38 0 -60 -6v142q12 -5 54 -5zM121 298h232q47 0 62 3v-137q-9 3 -57 3h-231q-38 0 -60 -6v142q12 -5 54 -5z" />
<glyph unicode="&#x208d;" horiz-adv-x="307" d="M185 264q0 -69 4 -120t15.5 -109t37.5 -99.5t66 -63.5q-137 55 -205.5 145.5t-68.5 246.5q0 60 17 112t41.5 88t62 68t68 51t70.5 39q-108 -65 -108 -358z" />
<glyph unicode="&#x208e;" horiz-adv-x="307" d="M122 267q0 290 -108 355q51 -25 89 -50.5t80.5 -67.5t66 -102.5t23.5 -134.5q0 -156 -69 -248t-205 -147q40 22 66 64t37.5 101t15.5 110t4 120z" />
<glyph unicode="&#x20ac;" horiz-adv-x="1187" d="M178 426q0 75 25 152q-99 -4 -177 -11q-4 13 4 24q45 -3 176 -5q41 121 134.5 225t207 162t215.5 58q126 0 210.5 -40.5t159.5 -128.5l-173 -146q-76 114 -168.5 169t-214.5 55q-110 0 -175 -80.5t-65 -220.5q0 -36 1 -53h101q262 0 408 10q8 -8 -7 -21q-304 8 -402 8 q-14 0 -47 -0.5t-52 -0.5q6 -96 36 -177q151 0 305 10q7 -7 -10 -21q-180 7 -294 8q51 -137 163 -208t262 -71q117 0 198.5 47t168.5 150q-52 -71 -101 -126t-114 -110t-141 -85t-157 -30q-130 0 -235 49t-171 148.5t-71 234.5q-75 -1 -163 -8q-5 12 4 23q28 -2 82 -4.5 t77 -3.5v18z" />
<glyph unicode="&#x2122;" horiz-adv-x="1139" d="M806 610l-105 134q0 -216 5 -256l-139 -155q7 70 7 487l118 129l196 -236l195 242q0 -381 12 -454l-150 -175q8 89 8 462zM-11 817l133 132h472l-116 -132h-127q0 -234 6 -311l-152 -163q7 123 7 474h-223z" />
<glyph unicode="&#x2153;" horiz-adv-x="1203" d="M365 410h-205q12 5 16.5 9t8.5 22t4 54q0 51 1.5 217.5t1.5 213.5q0 52 -14.5 67t-70.5 19q146 0 229 13v-512q0 -42 4.5 -65t9.5 -29t15 -9zM745 242q-15 -18 -15 -47q0 -42 38 -70t110 -28q78 0 114 20q-19 -63 -72.5 -102t-134.5 -39q-76 0 -118.5 27t-42.5 77 q0 41 29 78.5t92 83.5zM913 368q24 30 24 65q0 38 -32.5 60t-88.5 22q-45 0 -79 -14q63 121 192 121q68 0 106 -27.5t38 -77.5q0 -82 -160 -149zM997 152q0 46 -51 74t-162 28l122 108q100 -2 147 -32.5t47 -79.5q0 -40 -30 -74.5t-77 -57.5q4 13 4 34zM818 409 q-20 -59 -57 -92t-77 -33q-38 0 -57.5 18t-19.5 50q0 86 130 149q-9 -18 -9 -50q0 -27 13 -43t37 -16q23 0 40 17zM539 486q49 45 272 260.5t258 250.5q7 0 9.5 -5t0.5 -12q-76 -63 -537 -497q-78 -72 -300 -283.5t-250 -242.5q-7 -2 -9.5 3t-0.5 14q28 23 254.5 232 t302.5 280z" />
<glyph unicode="&#x2154;" horiz-adv-x="1317" d="M231 553q114 95 149.5 145t35.5 104q0 113 -141 113q-54 0 -94 -24q-12 -32 -12 -67q0 -38 18 -63t52 -25q23 0 40 17q-22 -53 -57 -84.5t-78 -31.5t-68.5 25t-25.5 67q0 45 39 90t92 74q23 56 74.5 96t124.5 40q85 0 134 -40.5t50 -116.5q0 -25 -7 -48t-16 -41t-30 -39 t-36.5 -35t-49.5 -36.5t-55.5 -35.5t-67 -40.5t-71.5 -43.5zM67 415l142 124q14 6 70 6h206q43 0 70 9t38.5 19.5t31.5 36.5l4 -3q-25 -29 -70 -93.5t-68 -106.5h-421zM891 242q-15 -18 -15 -47q0 -42 38 -70t110 -28q78 0 114 20q-19 -63 -72.5 -102t-134.5 -39 q-76 0 -118.5 27t-42.5 77q0 41 29 78.5t92 83.5zM1059 368q24 30 24 65q0 38 -32.5 60t-88.5 22q-45 0 -79 -14q63 121 192 121q68 0 106 -27.5t38 -77.5q0 -82 -160 -149zM1143 152q0 46 -51 74t-162 28l122 108q100 -2 147 -32.5t47 -79.5q0 -40 -30 -74.5t-77 -57.5 q4 13 4 34zM964 409q-20 -59 -57 -92t-77 -33q-38 0 -57.5 18t-19.5 50q0 86 130 149q-9 -18 -9 -50q0 -27 13 -43t37 -16q23 0 40 17zM683 486q49 45 272 260.5t258 250.5q7 0 9.5 -5t0.5 -12q-76 -63 -537 -497q-78 -72 -300 -283.5t-250 -242.5q-7 -2 -9.5 3t-0.5 14 q43 38 279 254t278 258z" />
<glyph unicode="&#x2155;" horiz-adv-x="1202" d="M365 410h-205q12 5 16.5 9t8.5 22t4 54q0 51 1.5 217.5t1.5 213.5q0 52 -14.5 67t-70.5 19q146 0 229 13v-512q0 -42 4.5 -65t9.5 -29t15 -9zM826 602h269q51 0 84 39l4 -2q-34 -34 -136 -161h-211v-168l-125 -113l-5 3v268q0 9 33 40zM1030 121q18 37 18 94 q0 54 -35.5 86.5t-101.5 32.5q-40 0 -66 -17q88 107 191 107q62 0 98.5 -31t36.5 -89q0 -54 -39 -104.5t-102 -78.5zM825 221q-15 -20 -15 -52t31 -49.5t80 -17.5q67 0 108 18q-71 -139 -193 -139q-63 0 -96.5 22.5t-33.5 64.5q0 75 119 153zM539 486q49 45 272 260.5 t258 250.5q7 0 9.5 -5t0.5 -12q-76 -63 -537 -497q-78 -72 -300 -283.5t-250 -242.5q-7 -2 -9.5 3t-0.5 14q28 23 254.5 232t302.5 280z" />
<glyph unicode="&#x2156;" horiz-adv-x="1346" d="M231 553q114 95 149.5 145t35.5 104q0 113 -141 113q-54 0 -94 -24q-12 -32 -12 -67q0 -38 18 -63t52 -25q23 0 40 17q-22 -53 -57 -84.5t-78 -31.5t-68.5 25t-25.5 67q0 45 39 90t92 74q23 56 74.5 96t124.5 40q85 0 134 -40.5t50 -116.5q0 -25 -7 -48t-16 -41t-30 -39 t-36.5 -35t-49.5 -36.5t-55.5 -35.5t-67 -40.5t-71.5 -43.5zM970 602h269q51 0 84 39l4 -2q-34 -34 -136 -161h-211v-168l-125 -113l-5 3v268q0 9 33 40zM67 415l142 124q14 6 70 6h206q43 0 70 9t38.5 19.5t31.5 36.5l4 -3q-25 -29 -70 -93.5t-68 -106.5h-421zM1174 121 q18 37 18 94q0 54 -35.5 86.5t-101.5 32.5q-40 0 -66 -17q88 107 191 107q62 0 98.5 -31t36.5 -89q0 -54 -39 -104.5t-102 -78.5zM969 221q-15 -20 -15 -52t31 -49.5t80 -17.5q67 0 108 18q-71 -139 -193 -139q-63 0 -96.5 22.5t-33.5 64.5q0 75 119 153zM683 486 q49 45 272 260.5t258 250.5q7 0 9.5 -5t0.5 -12q-76 -63 -537 -497q-78 -72 -300 -283.5t-250 -242.5q-7 -2 -9.5 3t-0.5 14q43 38 279 254t278 258z" />
<glyph unicode="&#x2158;" horiz-adv-x="1375" d="M20 550l95 110q7 6 21 6h231v212l130 140q0 -48 0.5 -170t0.5 -182h43q42 0 64 7t33 17t42 46l4 -2q-44 -53 -121 -188h-64q0 -43 1 -58q2 -62 9 -81.5t25 -21.5h-206q22 4 29 23t9 81q0 7 0.5 26t0.5 31h-346zM999 602h269q51 0 84 39l4 -2q-34 -34 -136 -161h-211v-168 l-125 -113l-5 3v268q0 9 33 40zM1203 121q18 37 18 94q0 54 -35.5 86.5t-101.5 32.5q-40 0 -66 -17q88 107 191 107q62 0 98.5 -31t36.5 -89q0 -54 -39 -104.5t-102 -78.5zM998 221q-15 -20 -15 -52t31 -49.5t80 -17.5q67 0 108 18q-71 -139 -193 -139q-63 0 -96.5 22.5 t-33.5 64.5q0 75 119 153zM127 672q57 87 57 160q0 35 -17 53t-47 18q-33 0 -52 -28q43 132 139 132q48 0 75 -26t27 -69q0 -53 -42.5 -104t-139.5 -136zM712 486q49 45 272 260.5t258 250.5q7 0 9.5 -5t0.5 -12q-76 -63 -537 -497q-78 -72 -300 -283.5t-250 -242.5 q-7 -2 -9.5 3t-0.5 14q43 38 279 254t278 258z" />
<glyph unicode="&#x2159;" horiz-adv-x="1186" d="M365 410h-205q12 5 16.5 9t8.5 22t4 54q0 51 1.5 217.5t1.5 213.5q0 52 -14.5 67t-70.5 19q146 0 229 13v-512q0 -42 4.5 -65t9.5 -29t15 -9zM773 328q0 -127 45 -182t135 -55q37 0 66 18q-30 -60 -67.5 -92t-99.5 -32q-93 0 -150.5 62.5t-57.5 174.5q0 74 28.5 143 t83 130t117 112t146.5 105q-114 -80 -180 -183.5t-66 -200.5zM1021 111q15 42 15 75q0 61 -37 100t-109 39q-67 0 -109 -44q103 160 219 160q70 0 109.5 -41t39.5 -109q0 -107 -128 -180zM539 486q49 45 272 260.5t258 250.5q7 0 9.5 -5t0.5 -12q-76 -63 -537 -497 q-78 -72 -300 -283.5t-250 -242.5q-7 -2 -9.5 3t-0.5 14q28 23 254.5 232t302.5 280z" />
<glyph unicode="&#x215a;" horiz-adv-x="1233" d="M820 328q0 -127 45 -182t135 -55q38 0 66 18q-30 -60 -67.5 -92t-99.5 -32q-93 0 -150.5 62.5t-57.5 174.5q0 74 28.5 143t83 130t117 112t146.5 105q-114 -80 -180 -183.5t-66 -200.5zM211 1012h269q51 0 84 39l4 -2q-34 -34 -136 -161h-211v-168l-125 -113l-5 3v268 q0 9 33 40zM1068 111q15 42 15 75q0 61 -37 100t-109 39q-67 0 -109 -44q103 160 219 160q70 0 109.5 -41t39.5 -109q0 -107 -128 -180zM415 531q18 37 18 94q0 54 -35.5 86.5t-101.5 32.5q-40 0 -66 -17q88 107 191 107q62 0 98.5 -31t36.5 -89q0 -54 -39 -104.5 t-102 -78.5zM210 631q-15 -20 -15 -52t31 -49.5t80 -17.5q67 0 108 18q-71 -139 -193 -139q-63 0 -96.5 22.5t-33.5 64.5q0 75 119 153zM586 486q49 45 272 260.5t258 250.5q7 0 9.5 -5t0.5 -12q-76 -63 -537 -497q-78 -72 -300 -283.5t-250 -242.5q-7 -2 -9.5 3t-0.5 14 q43 38 279 254t278 258z" />
<glyph unicode="&#x215b;" horiz-adv-x="1136" d="M365 410h-205q12 5 16.5 9t8.5 22t4 54q0 51 1.5 217.5t1.5 213.5q0 52 -14.5 67t-70.5 19q146 0 229 13v-512q0 -42 4.5 -65t9.5 -29t15 -9zM994 163q0 32 -36.5 48.5t-89 23.5t-105 16t-89 35t-36.5 72q0 92 117 152q-20 -29 -20 -57q0 -37 37 -57t90 -27.5t105.5 -16 t89.5 -33t37 -68.5q0 -90 -119 -150q19 33 19 62zM768 247q-34 -28 -34 -74q0 -43 37 -64.5t97 -21.5q69 0 105 13q-28 -49 -78 -84t-117 -35q-161 0 -161 111q0 47 43 88t108 67zM922 362q40 37 40 87q0 79 -116 79q-50 0 -88 -16q26 45 72.5 77.5t100.5 32.5q65 0 101 -29 t37 -80q0 -86 -147 -151zM539 486q49 45 272 260.5t258 250.5q7 0 9.5 -5t0.5 -12q-76 -63 -537 -497q-78 -72 -300 -283.5t-250 -242.5q-7 -2 -9.5 3t-0.5 14q28 23 254.5 232t302.5 280z" />
<glyph unicode="&#x215c;" horiz-adv-x="1211" d="M997 362q40 37 40 87q0 79 -116 79q-50 0 -88 -16q26 45 72.5 77.5t100.5 32.5q65 0 101 -29t37 -80q0 -86 -147 -151zM1069 163q0 32 -36.5 48.5t-89 23.5t-105 16t-89 35t-36.5 72q0 92 117 152q-20 -29 -20 -57q0 -37 37 -57t90 -27.5t105.5 -16t89.5 -33t37 -68.5 q0 -90 -119 -150q19 33 19 62zM843 247q-34 -28 -34 -74q0 -43 37 -64.5t97 -21.5q69 0 105 13q-28 -49 -78 -84t-117 -35q-161 0 -161 111q0 47 43 88t108 67zM378 753q24 30 24 65q0 38 -32.5 60t-88.5 22q-45 0 -79 -14q63 121 192 121q68 0 106 -27.5t38 -77.5 q0 -82 -160 -149zM462 537q0 46 -51 74t-162 28l122 108q100 -2 147 -32.5t47 -79.5q0 -40 -30 -74.5t-77 -57.5q4 13 4 34zM210 627q-15 -18 -15 -47q0 -42 38 -70t110 -28q78 0 114 20q-19 -63 -72.5 -102t-134.5 -39q-76 0 -118.5 27t-42.5 77q0 41 29 78.5t92 83.5z M283 794q-20 -59 -57 -92t-77 -33q-38 0 -57.5 18t-19.5 50q0 86 130 149q-9 -18 -9 -50q0 -27 13 -43t37 -16q23 0 40 17zM614 486q49 45 272 260.5t258 250.5q7 0 9.5 -5t0.5 -12q-76 -63 -537 -497q-78 -72 -300 -283.5t-250 -242.5q-7 -2 -9.5 3t-0.5 14 q28 23 254.5 232t302.5 280z" />
<glyph unicode="&#x215d;" horiz-adv-x="1183" d="M1041 163q0 32 -36.5 48.5t-89 23.5t-105 16t-89 35t-36.5 72q0 92 117 152q-20 -29 -20 -57q0 -37 37 -57t90 -27.5t105.5 -16t89.5 -33t37 -68.5q0 -90 -119 -150q19 33 19 62zM211 1012h269q51 0 84 39l4 -2q-34 -34 -136 -161h-211v-168l-125 -113l-5 3v268 q0 9 33 40zM815 247q-34 -28 -34 -74q0 -43 37 -64.5t97 -21.5q69 0 105 13q-28 -49 -78 -84t-117 -35q-161 0 -161 111q0 47 43 88t108 67zM415 531q18 37 18 94q0 54 -35.5 86.5t-101.5 32.5q-40 0 -66 -17q88 107 191 107q62 0 98.5 -31t36.5 -89q0 -54 -39 -104.5 t-102 -78.5zM210 631q-15 -20 -15 -52t31 -49.5t80 -17.5q67 0 108 18q-71 -139 -193 -139q-63 0 -96.5 22.5t-33.5 64.5q0 75 119 153zM969 362q40 37 40 87q0 79 -116 79q-50 0 -88 -16q26 45 72.5 77.5t100.5 32.5q65 0 101 -29t37 -80q0 -86 -147 -151zM586 486 q49 45 272 260.5t258 250.5q7 0 9.5 -5t0.5 -12q-76 -63 -537 -497q-78 -72 -300 -283.5t-250 -242.5q-7 -2 -9.5 3t-0.5 14q43 38 279 254t278 258z" />
<glyph unicode="&#x215e;" horiz-adv-x="1183" d="M969 362q40 37 40 87q0 79 -116 79q-50 0 -88 -16q26 45 72.5 77.5t100.5 32.5q65 0 101 -29t37 -80q0 -86 -147 -151zM1041 163q0 32 -36.5 48.5t-89 23.5t-105 16t-89 35t-36.5 72q0 92 117 152q-20 -29 -20 -57q0 -37 37 -57t90 -27.5t105.5 -16t89.5 -33t37 -68.5 q0 -90 -119 -150q19 33 19 62zM815 247q-34 -28 -34 -74q0 -43 37 -64.5t97 -21.5q69 0 105 13q-28 -49 -78 -84t-117 -35q-161 0 -161 111q0 47 43 88t108 67zM586 486q49 45 272 260.5t258 250.5q7 0 9.5 -5t0.5 -12q-76 -63 -537 -497q-78 -72 -300 -283.5t-250 -242.5 q-7 -2 -9.5 3t-0.5 14q43 38 279 254t278 258zM542 874q-36 -125 -63 -204t-53 -138t-53.5 -88t-57.5 -42.5t-71 -13.5q-64 0 -101.5 29.5t-37.5 80.5q0 83 99 131q-11 -17 -11 -36q0 -28 20.5 -45.5t62.5 -17.5q41 0 77.5 25t86 104t102.5 215zM613 1009l-67 -128 q-7 -4 -55 -4h-248q-43 0 -70 -9t-38.5 -19.5t-31.5 -35.5l-4 2q24 28 119 197h393z" />
<glyph unicode="&#x25fc;" horiz-adv-x="760" d="M0 760h760v-760h-760v760z" />
<glyph horiz-adv-x="433" d="M-6 619q-18 0 -6 12l256 225q8 6 12 5t4 -12v-91q75 1 238 -1l-166 -139q-41 0 -72 1q0 -270 2 -354.5t9 -95.5q10 -14 53 -38t68 -24q12 0 36 19t103 94q-81 -83 -158 -153t-103 -84q-13 -7 -27 -7t-54 22t-67 47q-41 36 -41 88l4 486h-91z" />
<glyph horiz-adv-x="624" d="M147 348l123 123q58 -19 114 -30l129 145l2 -2l-127 -143q60 -13 117 -13q34 0 85 46q-96 -108 -140 -139.5t-90 -31.5q-48 0 -83 7l-163 -173q66 49 138 49q57 0 153 -26t148 -26q43 0 68.5 8t49.5 30l-148 -134q-33 -29 -56 -39t-58 -10q-37 0 -130.5 26t-161.5 26 q-92 0 -148 -49l303 319q-74 13 -125 37zM-14 545q114 138 170 190q23 23 44 32q14 8 39 8q42 0 174.5 -30t170.5 -30q24 0 37 5.5t31 23.5q-81 -93 -124.5 -128t-73.5 -35q-50 0 -179 22.5t-160 22.5q-33 0 -62 -19t-67 -62z" />
<glyph horiz-adv-x="313" d="M134 986q-1 13 10.5 21t32.5 6q34 -3 79 -22q18 29 41 58.5t51 62t31 36.5q-6 -8 -38.5 -52.5t-43.5 -60t-40 -57t-46 -69t-40.5 -68.5t-44.5 -81q77 5 122 13q0 -377 6 -707q0 -37 6.5 -49.5t23.5 -16.5h-235q14 8 15 56q5 243 5 609q-4 54 -12 70.5t-34 21.5 q45 -2 102 3q12 41 16 82t2.5 62t-5.5 50.5t-4 31.5z" />
<glyph horiz-adv-x="313" d="M134 986q-1 13 10.5 21t32.5 6q34 -3 79 -22q18 29 41 58.5t51 62t31 36.5q-9 -12 -38.5 -52.5t-43 -59t-40.5 -58t-45 -68t-41.5 -69t-44.5 -80.5q95 7 124 12q0 -153 -3 -420q-1 -65 4 -157.5t5 -117.5q0 -27 -6.5 -52t-15.5 -45.5t-30 -45.5t-37.5 -43t-50.5 -47 t-57.5 -48t-70 -56.5l-77.5 -62.5q96 84 131 160.5t35 190.5q0 55 -2 202t-2 277q0 116 -5 162.5t-19.5 64.5t-51.5 22q52 -1 128 4q12 42 16 82t3 61.5t-5.5 50t-4.5 31.5z" />
<glyph horiz-adv-x="433" d="M271 169q10 -14 53 -38t68 -24q12 0 36 19t103 94q-81 -83 -158 -153t-103 -84q-13 -7 -27 -7t-54 22t-67 47q-41 36 -41 88l6 585l8 7l149 131q8 6 12 5t4 -12v-91q230 3 278 2l-166 -143q-78 3 -112 4q0 -283 2 -362t9 -90z" />
<glyph horiz-adv-x="740" d="M566 -17q-25 0 -68 46q-6 6 -13 15t-13 17t-15.5 23.5t-16.5 27t-22.5 36.5t-26.5 43l-207 340q-32 51 -60 79q-36 36 -73 36q-4 0 -7.5 -0.5t-8 -3t-8 -4.5t-10 -7.5t-11 -9t-15 -12t-17.5 -14.5q3 3 47.5 45.5t74 68.5t46.5 35q26 17 53 17q18 0 31 -7.5t33 -30.5 q45 -54 73 -99l220 -353q7 -11 19 -31t17.5 -28t15 -22.5t14.5 -20t13.5 -15t15 -13t15 -7.5t17.5 -5.5t20 -1.5q24 0 63 41q-34 -43 -84 -98t-79 -76q-15 -11 -33 -11zM333 130l-130 -136q-73 47 -106 60t-66 13q-32 0 -80 -48q118 120 159.5 153.5t71.5 33.5 q19 0 43 -10.5t40 -21t68 -44.5zM568 560q-29 0 -57.5 15t-82.5 58l120 129q76 -47 101 -59.5t50 -12.5q30 0 66 35q-107 -113 -138.5 -139t-58.5 -26z" />
<glyph horiz-adv-x="740" d="M699 127q24 0 63 41q-31 -40 -82.5 -96t-80.5 -78q-15 -11 -33 -11q-25 0 -68 46q-6 6 -13 15t-13 17t-15.5 23.5t-16.5 27t-22.5 36.5t-26.5 43l-207 339q-33 54 -58.5 80t-51.5 26q-27 0 -61 -36q56 64 73 81q31 32 43 43.5t34 24t45 12.5q38 0 114 -122q2 -3 3.5 -5 t3 -5t3.5 -5l220 -353q7 -11 19 -31t17.5 -28t15 -22.5t14.5 -20t13.5 -15t15 -13t15 -7.5t17.5 -5.5t20 -1.5zM43 115q62 62 90.5 84t48.5 22q11 0 22 -3.5t26.5 -13.5t26 -18t34.5 -27t40 -31l-128 -134q-91 74 -115.5 91t-44.5 17q-24 0 -62 -38l23 34q22 0 39 17z M699 690q30 0 66 35q-107 -113 -138.5 -139t-58.5 -26q-29 0 -57.5 15t-82.5 58l120 129q76 -47 101 -59.5t50 -12.5z" />
<glyph horiz-adv-x="740" d="M390 193l-201 353q-67 118 -108 118q-15 0 -35 -14.5t-67 -60.5l35 59q19 0 31.5 8t39.5 35q32 32 45.5 44.5t37 26.5t43.5 14t42.5 -20.5t38 -43.5t44.5 -71l215 -368q56 -95 77 -117q29 -29 71 -29q24 0 63 41q-34 -43 -84 -98t-79 -76q-15 -11 -33 -11q-25 0 -68 46 q-35 35 -108 164zM-104 9q145 140 187 174.5t70 34.5q12 0 22.5 -2.5t28.5 -11.5t29.5 -15.5t44.5 -26.5t55 -32l-130 -136q-94 55 -129.5 70t-59.5 15t-46 -12.5t-72 -57.5zM699 690q30 0 66 35q-107 -113 -138.5 -139t-58.5 -26q-29 0 -57.5 15t-82.5 58l120 129 q76 -47 101 -59.5t50 -12.5z" />
<glyph horiz-adv-x="740" d="M699 127q24 0 63 41q-31 -40 -82.5 -96t-80.5 -78q-15 -11 -33 -11q-25 0 -68 46q-6 6 -13 15t-13 17t-15.5 23.5t-16.5 27t-22.5 36.5t-26.5 43l-207 339q-33 54 -58.5 80t-51.5 26q-27 0 -61 -36q56 64 73 81q31 32 43 43.5t34 24t45 12.5q38 0 114 -122q2 -3 3.5 -5 t3 -5t3.5 -5l220 -353q7 -11 19 -31t17.5 -28t15 -22.5t14.5 -20t13.5 -15t15 -13t15 -7.5t17.5 -5.5t20 -1.5zM29 148q53 49 77 64.5t46 15.5q7 0 13 -1t13.5 -3.5t13.5 -5t16 -8t17 -10t21.5 -13.5t24 -15.5t29 -19.5t33.5 -22l-130 -136q-96 64 -133 81.5t-68 17.5 q-7 0 -12.5 -1t-9.5 -2t-9 -4.5t-6.5 -4.5t-8 -6.5t-8.5 -7.5l11 26q9 0 19.5 7.5t27 24.5t23.5 23zM699 690q30 0 66 35q-107 -113 -138.5 -139t-58.5 -26q-29 0 -57.5 15t-82.5 58l120 129q76 -47 101 -59.5t50 -12.5z" />
<glyph horiz-adv-x="710" d="M699 127q24 0 63 41q-34 -43 -84 -98t-79 -76q-15 -11 -33 -11q-25 0 -68 46q-6 6 -13 15t-13 17t-15.5 23.5t-16.5 27t-22.5 36.5t-26.5 43l-207 339q-33 54 -58.5 80t-51.5 26q-27 0 -61 -36q56 64 73 81q31 32 43 43.5t34 24t45 12.5q38 0 114 -122q2 -3 3.5 -5t3 -5 t3.5 -5l220 -353q7 -11 19 -31t17.5 -28t15 -22.5t14.5 -20t13.5 -15t15 -13t15 -7.5t17.5 -5.5t20 -1.5zM166 231q28 0 58.5 -19.5t108.5 -81.5l-130 -136q-91 77 -119.5 96.5t-49.5 19.5q-33 0 -71 -38l6 29q17 0 31 8t40 31q12 11 30.5 28.5t27.5 26t22 18.5t24 14t22 4z M699 690q30 0 66 35q-107 -113 -138.5 -139t-58.5 -26q-29 0 -57.5 15t-82.5 58l120 129q76 -47 101 -59.5t50 -12.5z" />
<glyph horiz-adv-x="642" d="M147 348l123 123q62 -21 116 -30l135 142l2 -2l-133 -141q68 -12 115 -12q34 0 85 46q-96 -108 -140 -139.5t-90 -31.5q-48 0 -83 7l-169 -173q63 49 134 49q57 0 153 -26t148 -26q43 0 68.5 8t49.5 30l-148 -134q-33 -29 -56 -39t-58 -10q-38 0 -132 26t-162 26 q-92 0 -148 -49l315 319q-74 13 -125 37zM604 719q39 0 76 39q-88 -103 -132 -140t-74 -37q-50 0 -172 49.5t-153 49.5q-24 0 -47 -27l-28 2q24 0 49 27q17 19 81 83q40 40 83 40q42 0 160 -43t157 -43z" />
<glyph horiz-adv-x="690" d="M261 934v-293q39 39 112 97q46 35 101 35q76 0 127 -74t51 -200q0 -106 -50.5 -186.5t-146.5 -173.5q-96 -96 -182 -156q-62 4 -144.5 40t-149.5 83l-136 -110l70 89q31 0 69.5 25t105.5 86v581q-2 50 -6 74.5t-17.5 41t-33 21t-58.5 6.5q140 0 288 14zM267 356 l-141 -128q63 -42 145 -76t133 -34q9 0 25 2q54 114 54 268q0 277 -177 277q-14 0 -45 -26q0 -251 6 -283z" />
<glyph horiz-adv-x="894" d="M862 258q-21 -55 -53.5 -104.5t-79.5 -94.5t-114 -71.5t-144 -26.5q-186 0 -288 105t-102 275q0 82 19.5 153t59.5 132t82.5 107.5t105.5 104.5q-63 -65 -90.5 -147.5t-27.5 -214.5q0 -369 369 -369q94 0 161 41t102 110zM702 791q-60 0 -267.5 41t-281.5 41 q-35 0 -62.5 -14t-71.5 -55q118 124 178.5 167t104.5 43q63 0 272 -40.5t267 -40.5q32 0 54.5 7t33.5 15t28 25q-109 -124 -151.5 -156.5t-103.5 -32.5zM553 800l5 -468l-175 -158l-2 458q14 21 67 71z" />
<glyph horiz-adv-x="835" d="M347 364q0 25 1 89.5t1 82.5q0 82 -93 113q-49 17 -90 17q-11 0 -25.5 -7.5t-25.5 -15.5t-33 -26l-33 -27q21 19 58.5 53t65 58t47.5 38q55 37 94 37q59 0 128 -40q70 -40 82 -87l15 15q37 37 57.5 56t50 38t50.5 19q46 0 111.5 -44t124.5 -100l-393 -339 q12 -60 41 -93.5t82 -58.5q50 -23 96 -23q48 0 77 18q17 10 61 46t76 68l23 -259l-166 140q-15 -14 -43 -40t-38 -34.5t-29 -25t-28 -21.5t-24 -12t-27.5 -9t-27.5 -2q-75 0 -147 45q-66 39 -94.5 112.5t-24.5 218.5zM540 294l236 214q-87 79 -133 105q-65 37 -118 33 q3 -10 3 -24q0 -12 -1.5 -57t-1.5 -68q0 -136 15 -203zM-10 95l342 326q0 -1 -94 -97l-95 -96q58 -49 149 -101l-132 -142q-26 10 -76 40.5t-94 69.5z" />
<glyph horiz-adv-x="840" d="M343 271q0 34 3 135t3 130q0 82 -93 113q-49 17 -90 17q-11 0 -25.5 -7.5t-25.5 -15.5t-33 -26l-33 -27q21 19 58.5 53t65 58t47.5 38q55 37 94 37q59 0 128 -40q70 -40 82 -86l24.5 24.5t27 26.5t23.5 22.5t26 22.5t23 15t25 12.5t22 3.5q50 0 110.5 -30t107.5 -75 l-385 -366q6 -70 26.5 -104.5t74.5 -66.5q68 -42 160 -42q32 0 50.5 8.5t48.5 38.5q-56 -67 -159 -135q-55 -36 -103 -36q-78 0 -156 47q-75 45 -101 96.5t-26 158.5zM528 307l236 234q-124 113 -239 107q3 -12 3 -26q0 -12 -1.5 -60t-1.5 -73q0 -149 3 -182zM-10 95 l342 326q0 -1 -94 -97l-95 -96q58 -49 149 -101l-132 -142q-26 10 -76 40.5t-94 69.5z" />
<glyph horiz-adv-x="524" d="M203 496q2 -189 23.5 -252.5t105.5 -102.5q48 -22 117 -22q48 0 77 18q17 10 61 46t76 68l-26 -115l-117 -4q-15 -14 -43 -40t-38 -34.5t-29 -25t-28 -21.5t-24 -12t-27.5 -9t-27.5 -2q-75 0 -147 45q-75 47 -99 122.5t-20 238.5q0 40 10 67t38 59q18 20 63.5 64t65.5 64 l24.5 24.5l27 27t24 23t27 23t23.5 15.5t25 12.5t22 3.5q111 0 241 -133l-154 -135q-134 145 -263 131q-8 -43 -8 -144z" />
<glyph horiz-adv-x="553" d="M464 82q21 0 42 9t62 43q-108 -96 -154 -125q-62 -41 -115 -41q-71 0 -150 53q-65 46 -88.5 116.5t-23.5 195.5q0 84 11.5 120.5t44.5 74.5q30 38 112 120q3 3 19 19.5t21 20.5t19.5 18.5t21.5 19.5t20 16t21.5 15t20 10t21.5 8t20 2q42 0 99 -30.5t104 -79.5l-153 -136 q-60 54 -108 83.5t-100 29.5q-15 0 -23 -3q-8 -47 -6 -193q0 -146 23 -214.5t86 -103.5q86 -48 153 -48z" />
<glyph horiz-adv-x="587" d="M37 364v53q0 50 48 103q18 20 63.5 64t65.5 64q69 69 110 99t80 30q111 0 242 -106l-158 -139q-153 132 -270 109v-144q0 -173 35.5 -255.5t118.5 -119.5q52 -24 121 -24q57 0 103 33l2 -2q-93 -85 -147.5 -121t-104.5 -36q-109 0 -182 45q-67 39 -99 121t-28 226z" />
<glyph horiz-adv-x="558" d="M299 -12q-84 0 -149 45q-66 47 -89.5 112t-23.5 188q0 84 11.5 120.5t44.5 74.5q30 38 112 120q3 3 19 19.5t21 20.5t19.5 18.5t21.5 19.5t20 16t21.5 15t20 10t21.5 8t20 2q45 0 102.5 -35t99.5 -95l-153 -136q-102 133 -207 133q-15 0 -23 -3q-8 -47 -6 -193 q0 -143 22.5 -202.5t86.5 -95.5q55 -31 126 -31q30 0 55 12.5t79 62t150 153.5q-162 -180 -220.5 -241.5t-89.5 -81.5q-55 -36 -112 -36z" />
<glyph horiz-adv-x="524" d="M403 -290q15 23 15 43q0 36 -55.5 59.5t-161.5 28.5q-11 0 -2 10l191 167q-41 -30 -87 -30q-75 0 -147 45q-75 47 -99 122.5t-20 238.5q0 40 10 67t38 59q18 20 63.5 64t65.5 64l24.5 24.5l27 27t24 23t27 23t23.5 15.5t25 12.5t22 3.5q111 0 241 -133l-154 -135 q-134 145 -263 131q-8 -43 -8 -144q2 -189 23.5 -252.5t105.5 -102.5q48 -22 117 -22q48 0 77 18q17 10 61 46t76 68l-26 -115l-117 -4q-104 -94 -122 -108l-86 -83q-3 -3 5 -3q92 -4 143 -30.5t51 -63.5t-108 -134zM228 -398q-34 0 -117 52l105 93q75 -53 123 -53h14h12.5 t9.5 0.5t10.5 2.5t10.5 6q-74 -69 -104 -85t-64 -16z" />
<glyph horiz-adv-x="553" d="M403 -290q15 23 15 43q0 36 -55.5 59.5t-161.5 28.5q-11 0 -2 10l140 123q-19 -6 -40 -6q-71 0 -150 53q-65 46 -88.5 116.5t-23.5 195.5q0 84 11.5 120.5t44.5 74.5q30 38 112 120q3 3 19 19.5t21 20.5t19.5 18.5t21.5 19.5t20 16t21.5 15t20 10t21.5 8t20 2 q42 0 99 -30.5t104 -79.5l-153 -136q-60 54 -108 83.5t-100 29.5q-15 0 -23 -3q-8 -47 -6 -193q0 -146 23 -214.5t86 -103.5q86 -48 153 -48q21 0 42 9t62 43q-108 -96 -154 -125q-35 -21 -65 -32l-37 -36q-3 -3 5 -3q92 -4 143 -30.5t51 -63.5t-108 -134zM228 -398 q-34 0 -117 52l105 93q75 -53 123 -53h14h12.5t9.5 0.5t10.5 2.5t10.5 6q-74 -69 -104 -85t-64 -16z" />
<glyph horiz-adv-x="587" d="M403 -290q15 23 15 43q0 36 -55.5 59.5t-161.5 28.5q-11 0 -2 10l139 121q-108 5 -174 45q-67 39 -99 121t-28 226v53q0 50 48 103q18 20 63.5 64t65.5 64q69 69 110 99t80 30q111 0 242 -106l-158 -139q-153 132 -270 109v-144q0 -173 35.5 -255.5t118.5 -119.5 q52 -24 121 -24q57 0 103 33l2 -2q-93 -85 -147.5 -121t-104.5 -36h-2l-32 -31q-3 -3 5 -3q92 -4 143 -30.5t51 -63.5t-108 -134zM228 -398q-34 0 -117 52l105 93q75 -53 123 -53h14h12.5t9.5 0.5t10.5 2.5t10.5 6q-74 -69 -104 -85t-64 -16z" />
<glyph horiz-adv-x="558" d="M403 -290q15 23 15 43q0 36 -55.5 59.5t-161.5 28.5q-11 0 -2 10l175 153q-35 -16 -75 -16q-84 0 -149 45q-66 47 -89.5 112t-23.5 188q0 84 11.5 120.5t44.5 74.5q30 38 112 120q3 3 19 19.5t21 20.5t19.5 18.5t21.5 19.5t20 16t21.5 15t20 10t21.5 8t20 2 q45 0 102.5 -35t99.5 -95l-153 -136q-102 133 -207 133q-15 0 -23 -3q-8 -47 -6 -193q0 -143 22.5 -202.5t86.5 -95.5q55 -31 126 -31q30 0 55 12.5t79 62t150 153.5q-162 -180 -220.5 -241.5t-89.5 -81.5q-18 -12 -31 -18l-68 -65q-3 -3 5 -3q92 -4 143 -30.5t51 -63.5 t-108 -134zM228 -398q-34 0 -117 52l105 93q75 -53 123 -53h14h12.5t9.5 0.5t10.5 2.5t10.5 6q-74 -69 -104 -85t-64 -16z" />
<glyph horiz-adv-x="523" d="M684 -8l-166 140q-15 -14 -43 -40t-38 -34.5t-29 -25t-28 -21.5t-24 -12t-27.5 -9t-27.5 -2q-75 0 -147 45q-66 39 -94.5 112.5t-24.5 218.5l1 53q0 51 47 103q18 20 63.5 64t65.5 64l24.5 24.5l27 27t24 23t27 23t23.5 15.5t25 12.5t22 3.5q46 0 111.5 -44t124.5 -100 l-391 -338q12 -61 40 -95t81 -58q50 -23 96 -23q48 0 77 18q17 10 61 46t76 68zM216 644v-147q0 -139 14 -201l234 212q-36 33 -54.5 48.5t-56 42.5t-71.5 38t-66 7z" />
<glyph horiz-adv-x="566" d="M677 98l-121 17q-95 -87 -147 -119q-47 -31 -109 -31t-146 53q-63 37 -88.5 116t-25.5 230q0 43 1 60q2 27 11 46t36 50q18 20 63.5 64t65.5 64l24.5 24.5l27 27t24 23t27 23t23.5 15.5t25 12.5t22 3.5q49 0 108.5 -30.5t107.5 -76.5l-381 -331q9 -96 34 -145t83 -75 q73 -34 137 -34q34 0 76 30t133 112zM221 641v-144q0 -98 4 -157l222 203q-103 101 -201 101q-14 0 -25 -3z" />
<glyph horiz-adv-x="522" d="M35 330q0 82 13 119t51 86q40 50 113 123q119 119 168 119t112 -33.5t112 -79.5l-393 -346q4 -76 24 -112t77 -70q70 -43 160 -43q32 0 50 8.5t48 38.5q-26 -31 -73 -70.5t-85 -63.5q-55 -36 -103 -36q-87 0 -156 45q-75 50 -96.5 114t-21.5 201zM209 489q0 -140 2 -169 l234 217q-109 107 -205 107q-20 0 -23 -1q-8 -41 -8 -154z" />
<glyph horiz-adv-x="523" d="M684 -8l-166 140q-15 -14 -43 -40t-38 -34.5t-29 -25t-28 -21.5t-24 -12t-27.5 -9t-27.5 -2q-75 0 -147 45q-66 39 -94.5 112.5t-24.5 218.5l1 53q0 51 47 103q18 20 63.5 64t65.5 64l24.5 24.5l27 27t24 23t27 23t23.5 15.5t25 12.5t22 3.5q46 0 111.5 -44t124.5 -100 l-391 -338q12 -61 40 -95t81 -58q50 -23 96 -23q48 0 77 18q17 10 61 46t76 68zM216 644v-147q0 -139 14 -201l234 212q-36 33 -54.5 48.5t-56 42.5t-71.5 38t-66 7zM551 979q-26 -30 -82.5 -78.5t-127.5 -95.5q104 86 144 274q16 14 39 14q25 0 38 -15t13 -37 q0 -32 -24 -62z" />
<glyph horiz-adv-x="566" d="M677 98l-121 17q-95 -87 -147 -119q-47 -31 -109 -31t-146 53q-63 37 -88.5 116t-25.5 230q0 43 1 60q2 27 11 46t36 50q18 20 63.5 64t65.5 64l24.5 24.5l27 27t24 23t27 23t23.5 15.5t25 12.5t22 3.5q49 0 108.5 -30.5t107.5 -76.5l-381 -331q9 -96 34 -145t83 -75 q73 -34 137 -34q34 0 76 30t133 112zM221 641v-144q0 -98 4 -157l222 203q-103 101 -201 101q-14 0 -25 -3zM551 979q-26 -30 -82.5 -78.5t-127.5 -95.5q104 86 144 274q16 14 39 14q25 0 38 -15t13 -37q0 -32 -24 -62z" />
<glyph horiz-adv-x="522" d="M35 330q0 82 13 119t51 86q40 50 113 123q119 119 168 119t112 -33.5t112 -79.5l-393 -346q4 -76 24 -112t77 -70q70 -43 160 -43q32 0 50 8.5t48 38.5q-26 -31 -73 -70.5t-85 -63.5q-55 -36 -103 -36q-87 0 -156 45q-75 50 -96.5 114t-21.5 201zM209 489q0 -140 2 -169 l234 217q-109 107 -205 107q-20 0 -23 -1q-8 -41 -8 -154zM551 979q-26 -30 -82.5 -78.5t-127.5 -95.5q104 86 144 274q16 14 39 14q25 0 38 -15t13 -37q0 -32 -24 -62z" />
<glyph horiz-adv-x="523" d="M684 -8l-166 140q-15 -14 -43 -40t-38 -34.5t-29 -25t-28 -21.5t-24 -12t-27.5 -9t-27.5 -2q-75 0 -147 45q-66 39 -94.5 112.5t-24.5 218.5l1 53q0 51 47 103q18 20 63.5 64t65.5 64l24.5 24.5l27 27t24 23t27 23t23.5 15.5t25 12.5t22 3.5q46 0 111.5 -44t124.5 -100 l-391 -338q12 -61 40 -95t81 -58q50 -23 96 -23q48 0 77 18q17 10 61 46t76 68zM216 644v-147q0 -139 14 -201l234 212q-36 33 -54.5 48.5t-56 42.5t-71.5 38t-66 7zM174 825h-4q-5 0 -7.5 6t1.5 13l207 238q5 5 14 6.5t12 -2.5l171 -165q2 -8 -37 -52t-47 -44h-11l-168 171 z" />
<glyph horiz-adv-x="566" d="M677 98l-121 17q-95 -87 -147 -119q-47 -31 -109 -31t-146 53q-63 37 -88.5 116t-25.5 230q0 43 1 60q2 27 11 46t36 50q18 20 63.5 64t65.5 64l24.5 24.5l27 27t24 23t27 23t23.5 15.5t25 12.5t22 3.5q49 0 108.5 -30.5t107.5 -76.5l-381 -331q9 -96 34 -145t83 -75 q73 -34 137 -34q34 0 76 30t133 112zM221 641v-144q0 -98 4 -157l222 203q-103 101 -201 101q-14 0 -25 -3zM174 825h-4q-5 0 -7.5 6t1.5 13l207 238q5 5 14 6.5t12 -2.5l171 -165q2 -8 -37 -52t-47 -44h-11l-168 171z" />
<glyph horiz-adv-x="522" d="M35 330q0 82 13 119t51 86q40 50 113 123q119 119 168 119t112 -33.5t112 -79.5l-393 -346q4 -76 24 -112t77 -70q70 -43 160 -43q32 0 50 8.5t48 38.5q-26 -31 -73 -70.5t-85 -63.5q-55 -36 -103 -36q-87 0 -156 45q-75 50 -96.5 114t-21.5 201zM209 489q0 -140 2 -169 l234 217q-109 107 -205 107q-20 0 -23 -1q-8 -41 -8 -154zM174 825h-4q-5 0 -7.5 6t1.5 13l207 238q5 5 14 6.5t12 -2.5l171 -165q2 -8 -37 -52t-47 -44h-11l-168 171z" />
<glyph horiz-adv-x="523" d="M684 -8l-166 140q-15 -14 -43 -40t-38 -34.5t-29 -25t-28 -21.5t-24 -12t-27.5 -9t-27.5 -2q-75 0 -147 45q-66 39 -94.5 112.5t-24.5 218.5l1 53q0 51 47 103q18 20 63.5 64t65.5 64l24.5 24.5l27 27t24 23t27 23t23.5 15.5t25 12.5t22 3.5q46 0 111.5 -44t124.5 -100 l-391 -338q12 -61 40 -95t81 -58q50 -23 96 -23q48 0 77 18q17 10 61 46t76 68zM202 799l-104 115l147 122l104 -110l142 119l105 -112l-138 -119l-109 110zM216 644v-147q0 -139 14 -201l234 212q-36 33 -54.5 48.5t-56 42.5t-71.5 38t-66 7z" />
<glyph horiz-adv-x="566" d="M677 98l-121 17q-95 -87 -147 -119q-47 -31 -109 -31t-146 53q-63 37 -88.5 116t-25.5 230q0 43 1 60q2 27 11 46t36 50q18 20 63.5 64t65.5 64l24.5 24.5l27 27t24 23t27 23t23.5 15.5t25 12.5t22 3.5q49 0 108.5 -30.5t107.5 -76.5l-381 -331q9 -96 34 -145t83 -75 q73 -34 137 -34q34 0 76 30t133 112zM202 799l-104 115l147 122l104 -110l142 119l105 -112l-138 -119l-109 110zM221 641v-144q0 -98 4 -157l222 203q-103 101 -201 101q-14 0 -25 -3z" />
<glyph horiz-adv-x="522" d="M35 330q0 82 13 119t51 86q40 50 113 123q119 119 168 119t112 -33.5t112 -79.5l-393 -346q4 -76 24 -112t77 -70q70 -43 160 -43q32 0 50 8.5t48 38.5q-26 -31 -73 -70.5t-85 -63.5q-55 -36 -103 -36q-87 0 -156 45q-75 50 -96.5 114t-21.5 201zM202 799l-104 115 l147 122l104 -110l142 119l105 -112l-138 -119l-109 110zM209 489q0 -140 2 -169l234 217q-109 107 -205 107q-20 0 -23 -1q-8 -41 -8 -154z" />
<glyph horiz-adv-x="523" d="M684 -8l-166 140q-15 -14 -43 -40t-38 -34.5t-29 -25t-28 -21.5t-24 -12t-27.5 -9t-27.5 -2q-75 0 -147 45q-66 39 -94.5 112.5t-24.5 218.5l1 53q0 51 47 103q18 20 63.5 64t65.5 64l24.5 24.5l27 27t24 23t27 23t23.5 15.5t25 12.5t22 3.5q46 0 111.5 -44t124.5 -100 l-391 -338q12 -61 40 -95t81 -58q50 -23 96 -23q48 0 77 18q17 10 61 46t76 68zM216 644v-147q0 -139 14 -201l234 212q-36 33 -54.5 48.5t-56 42.5t-71.5 38t-66 7zM224 958q-26 28 -26 60q0 22 16.5 38t42.5 16q25 0 41 -14q-9 -28 16 -118t74 -136q-107 93 -164 154z" />
<glyph horiz-adv-x="566" d="M677 98l-121 17q-95 -87 -147 -119q-47 -31 -109 -31t-146 53q-63 37 -88.5 116t-25.5 230q0 43 1 60q2 27 11 46t36 50q18 20 63.5 64t65.5 64l24.5 24.5l27 27t24 23t27 23t23.5 15.5t25 12.5t22 3.5q49 0 108.5 -30.5t107.5 -76.5l-381 -331q9 -96 34 -145t83 -75 q73 -34 137 -34q34 0 76 30t133 112zM221 641v-144q0 -98 4 -157l222 203q-103 101 -201 101q-14 0 -25 -3zM224 958q-26 28 -26 60q0 22 16.5 38t42.5 16q25 0 41 -14q-9 -28 16 -118t74 -136q-107 93 -164 154z" />
<glyph horiz-adv-x="522" d="M35 330q0 82 13 119t51 86q40 50 113 123q119 119 168 119t112 -33.5t112 -79.5l-393 -346q4 -76 24 -112t77 -70q70 -43 160 -43q32 0 50 8.5t48 38.5q-26 -31 -73 -70.5t-85 -63.5q-55 -36 -103 -36q-87 0 -156 45q-75 50 -96.5 114t-21.5 201zM209 489q0 -140 2 -169 l234 217q-109 107 -205 107q-20 0 -23 -1q-8 -41 -8 -154zM224 958q-26 28 -26 60q0 22 16.5 38t42.5 16q25 0 41 -14q-9 -28 16 -118t74 -136q-107 93 -164 154z" />
<glyph horiz-adv-x="455" d="M98 95q0 22 0.5 190t0.5 336q-17 0 -51.5 -0.5t-57.5 -0.5q-17 0 -6 11l265 252q16 16 23 16t7 -9v-133q97 3 286 3l-159 -146q-46 3 -127 5q0 -448 2 -468q4 -19 33 -35.5t57 -16.5q16 0 42 14q-5 -4 -42.5 -33.5t-75 -58.5t-54.5 -40q-13 -9 -26 -9q-6 0 -7 1 q-44 11 -73 34q-37 30 -37 88zM288 919l153 135q61 -61 120 -61q20 0 50 13q-64 -67 -106.5 -99.5t-58.5 -37.5t-40 -5q-32 0 -58 12.5t-60 42.5z" />
<glyph horiz-adv-x="455" d="M215 -28q-6 0 -7 1q-44 11 -73 34q-37 30 -37 88q0 22 0.5 190t0.5 336q-17 0 -51.5 -0.5t-57.5 -0.5q-17 0 -6 11l265 252q16 16 23 16t7 -9v-133q97 3 286 3l-159 -146q-46 3 -127 5q0 -448 2 -468q4 -19 33 -35.5t57 -16.5q16 0 42 14q-5 -4 -42.5 -33.5t-75 -58.5 t-54.5 -40q-13 -9 -26 -9zM393 876q-37 0 -105 43l153 135q7 -3 24.5 -11t23 -10.5t18 -8t18.5 -7t16 -4.5t18 -3.5t18 -0.5q26 0 68 34q-126 -110 -169.5 -138.5t-82.5 -28.5z" />
<glyph horiz-adv-x="455" d="M215 -28q-6 0 -7 1q-44 11 -73 34q-37 30 -37 88q0 22 0.5 190t0.5 336q-17 0 -51.5 -0.5t-57.5 -0.5q-17 0 -6 11l265 252q16 16 23 16t7 -9v-133q97 3 286 3l-159 -146q-46 3 -127 5q0 -448 2 -468q4 -19 33 -35.5t57 -16.5q16 0 42 14q-5 -4 -42.5 -33.5t-75 -58.5 t-54.5 -40q-13 -9 -26 -9zM401 870q-46 0 -113 49l153 135q55 -29 83.5 -39.5t58.5 -10.5q18 0 29 5t33 23q-124 -108 -166.5 -135t-77.5 -27z" />
<glyph horiz-adv-x="418" d="M98 95q0 21 0.5 189t0.5 336h-109q-17 0 -6 11l265 252q16 16 23 16t7 -9v-134q37 1 109.5 2.5t130 3t95.5 3.5l-206 -145h-129q0 -449 2 -469q4 -19 33 -35.5t57 -16.5q20 0 70 35q-176 -136 -200 -153q-13 -9 -26 -9q-6 0 -7 1q-44 11 -73 34q-37 30 -37 88zM288 919 l153 135q136 -50 189 -50q22 0 37 7.5t45 33.5q-124 -117 -170 -146t-89 -29q-68 0 -165 49z" />
<glyph horiz-adv-x="455" d="M98 95q0 22 0.5 190t0.5 336h-6q-64 0 -103 -1q-10 0 -10 4q0 3 4 7l265 252q16 16 23 16t7 -9v-133q27 1 78 1q28 0 80.5 -0.5t77.5 -0.5l-159 -145q-48 2 -77 5v-94q0 -354 2 -372q4 -19 33 -35.5t57 -16.5q16 0 42 14q-5 -4 -42.5 -33.5t-75 -58.5t-54.5 -40 q-13 -9 -26 -9q-6 0 -7 1q-44 11 -73 34q-37 30 -37 88zM288 919l153 135q10 -4 25 -11t21.5 -9.5t16.5 -6t19 -4.5t21 -1q15 0 27.5 7.5t36.5 30.5l-111 -128q-23 -27 -44.5 -36.5t-57.5 -8.5q-35 0 -107 32z" />
<glyph horiz-adv-x="418" d="M98 95q0 21 0.5 189t0.5 336h-109q-17 0 -6 11l265 252q16 16 23 16t7 -9v-134q37 1 109.5 2.5t130 3t95.5 3.5l-202 -146q-68 0 -133 1q0 -449 2 -469q4 -19 33 -35.5t57 -16.5q20 0 70 35q-176 -136 -200 -153q-13 -9 -26 -9q-6 0 -7 1q-44 11 -73 34q-37 30 -37 88z M288 919l153 135q136 -50 189 -50q22 0 37 7.5t45 33.5q-124 -117 -170 -146t-89 -29q-68 0 -165 49z" />
<glyph horiz-adv-x="680" d="M251 66q0 -37 6.5 -49.5t23.5 -16.5h-229q14 8 15 56q5 243 5 721q-2 51 -6.5 75t-21.5 40.5t-43 21t-80 6.5q180 -1 324 22q1 -106 2 -414t4 -462zM678 651l-145 -126q-74 32 -164 110l144 136q137 -108 165 -120zM722 133l102 100l-111 -131l133 -112q-67 27 -160 106 q-62 -58 -110 -95q-13 -10 -28 -10q-44 0 -98 74q-65 93 -155 266l135 113q18 -30 56 -98.5t65 -114t45 -66.5q27 -34 43.5 -46.5t35.5 -12.5q20 0 47 27z" />
<glyph horiz-adv-x="696" d="M281 0h-229q14 8 15 56q5 243 5 721q-2 51 -6.5 75t-21.5 40.5t-43 21t-80 6.5q180 -1 324 22q1 -106 2 -414t4 -462q0 -37 6.5 -49.5t23.5 -16.5zM295 331l135 113q14 -21 49 -75t56 -86t46.5 -69t39.5 -54q29 -37 43.5 -48.5t28.5 -11.5q9 0 26 14q-93 -101 -125 -124 q-14 -10 -28 -10q-21 0 -41.5 17t-50.5 57q-83 111 -179 277zM369 635l144 136q137 -108 165 -120l-145 -126q-74 32 -164 110zM719 114l14 14q-2 -3 -4.5 -5.5t-5.5 -5t-4 -3.5z" />
<glyph horiz-adv-x="690" d="M251 66q0 -37 6.5 -49.5t23.5 -16.5h-229q14 8 15 56q5 243 5 721q-2 51 -6.5 75t-21.5 40.5t-43 21t-80 6.5q180 -1 324 22q1 -106 2 -414t4 -462zM678 651l-145 -126q-74 32 -164 110l144 136q137 -108 165 -120zM733 115v-13q-24 0 -62 -38q-50 -48 -71 -65 q-11 -10 -31 -10q-23 0 -42.5 12t-47.5 49q-88 117 -184 281l135 113q22 -33 65 -102t75.5 -119t50.5 -71q26 -32 41 -43t32 -11q22 0 39 17z" />
<glyph horiz-adv-x="995" d="M773 -12q-73 0 -145 45q-65 39 -92 111.5t-27 219.5v207q-72 91 -178 91q-52 0 -94 -14q-30 -90 -30 -212q0 -148 52 -235q52 -85 161 -85q56 0 117 22q-13 -14 -34.5 -40.5t-33.5 -38.5q-37 -38 -73.5 -54.5t-91.5 -16.5q-136 0 -206 97q-59 78 -59 201q0 87 11 141 t48 103q20 26 89 89q28 25 84 83q36 37 78.5 54t105.5 17q143 0 233 -126q58 64 100.5 97t78.5 33q75 0 226 -144l-390 -337q12 -61 39.5 -95t80.5 -59q50 -23 96 -23q48 0 77 18q17 10 61 46t76 68l23 -259l-166 140q-15 -14 -43 -40t-38 -34.5t-29 -25t-28 -21.5t-24 -12 t-27.5 -9t-27.5 -2zM703 297l233 211q-1 1 -26.5 23.5t-33 28t-31.5 24.5t-38 25.5t-35.5 17t-41.5 13.5t-40 1v-144q0 -142 13 -200z" />
<glyph horiz-adv-x="994" d="M694 648q103 129 173 129q48 0 105 -29.5t105 -75.5l-387 -337q2 -86 20 -125t74 -74q70 -43 160 -43q32 0 50 8.5t48 38.5q-26 -31 -73 -70.5t-85 -63.5q-55 -36 -103 -36q-87 0 -156 45q-66 43 -92 119q-12 -13 -32.5 -37.5t-31.5 -37.5q-37 -38 -73.5 -54.5 t-91.5 -16.5q-136 0 -206 97q-59 78 -59 201q0 87 11 141t48 103q20 26 89 89q28 25 84 83q36 37 78.5 54t105.5 17q147 0 235 -128v-148v-161l230 211q-120 110 -226 101zM509 364v207q-72 91 -178 91q-52 0 -94 -14q-30 -90 -30 -212q0 -148 52 -235q52 -85 161 -85 q65 0 112 20q-23 69 -23 228z" />
<glyph horiz-adv-x="450" d="M670 739l-50 -69q-29 0 -62 -30q-12 -11 -27 -25t-23.5 -21.5t-19.5 -17.5t-17 -15t-14.5 -11.5t-13.5 -9l-11 -5.5t-11 -4t-11 -1q-43 0 -143 108l131 135q37 -44 82 -80t75 -36q16 0 34.5 13t44.5 37t36 32zM250 152q6 -17 35 -34.5t51 -17.5q16 0 42 14 q-4 -3 -40 -31.5t-71.5 -55t-52.5 -37.5q-14 -9 -26 -9t-38 10.5t-42 24.5q-41 32 -41 88v559q0 54 -13.5 72t-53.5 22q169 0 246 16q0 -577 4 -621z" />
<glyph horiz-adv-x="516" d="M250 152q6 -17 35 -34.5t51 -17.5q16 0 42 14q-4 -3 -40 -31.5t-71.5 -55t-52.5 -37.5q-14 -9 -26 -9t-38 10.5t-42 24.5q-41 32 -41 88v559q0 54 -13.5 72t-53.5 22q169 0 246 16q0 -577 4 -621zM262 633l136 140q89 -67 144 -67q23 0 40.5 10t53.5 44l-13 -19 q-175 -175 -230 -175q-18 0 -42.5 11.5t-39 21t-49.5 34.5z" />
<glyph horiz-adv-x="538" d="M378 114q-4 -3 -40 -31.5t-71.5 -55t-52.5 -37.5q-14 -9 -26 -9t-38 10.5t-42 24.5q-41 32 -41 88v559q0 54 -13.5 72t-53.5 22q169 0 246 16q0 -577 4 -621q6 -17 35 -34.5t51 -17.5q16 0 42 14zM262 631l130 133q75 -53 108.5 -72t57.5 -19q14 0 22 4t33 23 q-94 -93 -133 -120t-66 -27t-55 15t-80 51q-11 8 -17 12z" />
<glyph horiz-adv-x="508" d="M250 152q6 -17 35 -34.5t51 -17.5q16 0 42 14q-4 -3 -40 -31.5t-71.5 -55t-52.5 -37.5q-14 -9 -26 -9t-38 10.5t-42 24.5q-41 32 -41 88v559q0 54 -13.5 72t-53.5 22q169 0 246 16q0 -577 4 -621zM262 633l136 140q96 -74 142 -74q23 0 40.5 9.5t49.5 40.5l-20 -23 q-110 -104 -149.5 -133.5t-65.5 -29.5q-45 0 -133 70z" />
<glyph horiz-adv-x="538" d="M250 152q6 -17 35 -34.5t51 -17.5q16 0 42 14q-4 -3 -40 -31.5t-71.5 -55t-52.5 -37.5q-14 -9 -26 -9t-37 10.5t-43 24.5q-41 32 -41 88v559q0 54 -13.5 72t-53.5 22q169 0 246 16q0 -577 4 -621zM623 691l-4 -27q-15 0 -35 -14.5t-67 -60.5q-64 -61 -99 -61 q-59 0 -151 110l131 135q106 -125 154 -125q19 0 31.5 8t39.5 35z" />
<glyph horiz-adv-x="482" d="M605 682l26 -2q-24 0 -47 -27q-64 -72 -99 -99t-63 -27q-56 0 -155 111l127 133q66 -66 101.5 -91t60.5 -25q24 0 49 27zM250 152q6 -17 35 -34.5t51 -17.5q16 0 42 14q-4 -3 -40 -31.5t-71.5 -55t-52.5 -37.5q-14 -9 -26 -9t-38 10.5t-42 24.5q-41 32 -41 88v559 q0 54 -13.5 72t-53.5 22q169 0 246 16q0 -577 4 -621z" />
<glyph horiz-adv-x="431" d="M-6 619q-18 0 -6 12l257 225q16 13 16 -7v-92h286l-153 -135q-22 0 -66 0.5t-67 0.5q0 -435 11 -454q9 -15 53.5 -39t70.5 -24q10 0 24.5 12t76.5 72q34 33 56 54l-91 -133l116 -130q-43 15 -169 126q-100 -105 -138 -124q-13 -7 -27 -7t-54 22t-67 47q-41 36 -41 88 l4 488q-62 -2 -92 -2z" />
<glyph horiz-adv-x="433" d="M551 223l155 -240q-62 4 -145.5 36.5t-150.5 77.5q-114 -105 -137 -116q-13 -7 -27 -7t-55 23t-69 48q-41 36 -41 88l4 487q-13 0 -43.5 -0.5t-47.5 -0.5q-18 0 -6 12l256 225q8 6 12 5t4 -12v-91q230 3 278 2l-166 -143q-78 3 -112 4q0 -272 2 -356.5t9 -95.5 q10 -15 55.5 -43.5t70.5 -28.5q22 0 154 126z" />
<glyph horiz-adv-x="394" d="M-6 619q-18 0 -6 12l256 225q8 6 12 5t4 -12v-91q230 3 278 2l-154 -140q-10 0 -124 -2q0 -430 11 -449q10 -14 53 -38t68 -24q12 0 36 19t103 94q-81 -83 -158 -153t-103 -84q-13 -7 -27 -7t-54 22t-67 47q-41 36 -41 88l4 485q-54 0 -91 1z" />
<glyph horiz-adv-x="432" d="M546 216l-127 -125q-105 -98 -134 -112q-13 -7 -27 -7q-15 0 -62 24t-74 49q-41 36 -41 88l4 487q-56 0 -91 -1q-18 0 -6 12l256 225q8 6 12 5t4 -12v-91q75 1 238 -1l-166 -143l-72 4q0 -430 11 -449q10 -15 60.5 -45t75.5 -30q11 0 30 17t109 105z" />
<glyph horiz-adv-x="404" d="M242 -24q-14 0 -54 22t-67 47q-41 36 -41 88l4 486h-91q-18 0 -6 12l256 225q16 13 16 -7v-91q153 0 300 5l-148 -146q-6 0 -60.5 1t-91.5 1q0 -270 2 -354.5t9 -95.5q10 -14 53 -38t68 -24q12 0 40.5 24t121.5 114l-96 -128l309 -139q-90 0 -189 38.5t-164 95.5 q-102 -106 -144 -129q-13 -7 -27 -7z" />
<glyph horiz-adv-x="393" d="M-6 619q-18 0 -6 12l256 225q8 6 12 5t4 -12v-91q230 3 278 2l-151 -141h-127q0 -270 2 -354.5t9 -95.5q10 -14 53 -38t68 -24q12 0 36 19t103 94q-81 -83 -158 -153t-103 -84q-13 -7 -27 -7t-54 22t-67 47q-41 36 -41 88l4 486h-91z" />
<glyph horiz-adv-x="433" d="M462 148l-27 -55q-7 0 -12.5 -1t-9.5 -2t-9 -4.5t-6.5 -4.5t-8 -6.5t-8.5 -7.5q-98 -86 -111 -93t-27 -7t-54 22t-67 47q-41 36 -41 97l5 488l-92 -2q-18 0 -6 12l256 225q8 6 12 5t4 -12v-91q230 3 278 2l-166 -143q-78 3 -112 4q0 -290 2 -370t9 -91q10 -15 53 -41 t68 -26q9 0 19.5 7.5t27 24.5t23.5 23z" />
<glyph horiz-adv-x="740" d="M748 136l-16 -22q-17 -17 -44 -46t-48 -50.5t-34 -32.5q-15 -11 -33 -11q-24 0 -66 46q-28 28 -116 171l-207 339q-33 54 -58.5 80t-51.5 26q-27 0 -61 -36q56 64 73 81q31 32 43 43.5t34 24t45 12.5q38 0 114 -122q2 -3 3.5 -5t3 -5t3.5 -5l220 -353q61 -96 77 -114 q35 -39 79 -39q21 0 40 18zM-49 19q118 120 159.5 153.5t71.5 33.5q19 0 43 -10.5t40 -21t68 -44.5l-130 -136q-73 47 -106 60t-66 13q-32 0 -80 -48zM699 690q30 0 66 35q-107 -113 -138.5 -139t-58.5 -26q-29 0 -57.5 15t-82.5 58l120 129q76 -47 101 -59.5t50 -12.5z" />
<glyph horiz-adv-x="740" d="M780 140l-6 -30q-33 0 -71 -38q-67 -67 -90 -84q-15 -11 -33 -11q-30 0 -67 40q-48 53 -122 174l-207 339q-33 54 -58.5 80t-51.5 26q-27 0 -61 -36q56 64 73 81q31 32 43 43.5t34 24t45 12.5q38 0 114 -122q2 -3 3.5 -5t3 -5t3.5 -5l220 -353q68 -108 90 -133 q34 -36 67 -37q17 0 31 8t40 31zM-49 19q118 120 159.5 153.5t71.5 33.5q19 0 43 -10.5t40 -21t68 -44.5l-130 -136q-73 47 -106 60t-66 13q-32 0 -80 -48zM699 690q30 0 66 35q-107 -113 -138.5 -139t-58.5 -26q-29 0 -57.5 15t-82.5 58l120 129q76 -47 101 -59.5t50 -12.5 z" />
<glyph horiz-adv-x="595" d="M568 117q31 0 63 27l-31 -29l-85 -79q-32 -30 -54.5 -41t-56.5 -11q-38 0 -129 28.5t-158 28.5q-92 0 -148 -49l306 319q-73 13 -128 37l123 123q58 -18 116 -30l135 142l2 -2l-133 -141q68 -12 115 -12q34 0 85 46q-96 -108 -140 -139.5t-90 -31.5q-32 0 -81 7 l-164 -173q63 49 137 49q55 0 157 -34.5t159 -34.5zM115 626q-33 0 -62 -19t-67 -62q114 138 170 190q23 23 44 32q14 8 39 8q41 0 179 -28t176 -28q39 0 76 39q-88 -103 -132 -140t-74 -37q-50 0 -184 22.5t-165 22.5z" />
<glyph horiz-adv-x="584" d="M637 114l309 -136q-86 0 -176 41.5t-161 100.5l-80 -80q-54 -54 -121 -54q-38 0 -130.5 27.5t-160.5 27.5q-92 0 -148 -49l306 319q-73 13 -128 37l123 123q58 -18 116 -30l135 142l2 -2l-133 -141q68 -12 115 -12q34 0 85 46q-96 -108 -140 -139.5t-90 -31.5 q-32 0 -81 7l-164 -173q63 49 137 49q55 0 158.5 -32.5t160.5 -32.5q24 0 40 7.5t37 28.5l91 95zM115 626q-33 0 -62 -19t-67 -62q114 138 170 190q23 23 44 32q14 8 39 8q41 0 179 -28t176 -28q39 0 76 39q-88 -103 -132 -140t-74 -37q-50 0 -184 22.5t-165 22.5z" />
<glyph d="M519 174q0 -43 5.5 -75t13.5 -49.5t20 -29t21.5 -15t22.5 -5.5h-234q-19 15 -23.5 50.5t-4.5 132.5q0 11 3.5 148t3.5 205q0 82 -93 113q-49 17 -90 17q-11 0 -25.5 -7.5t-25.5 -15.5t-33 -26l-33 -27q21 19 58.5 53t65 58t47.5 38q55 37 94 37q59 0 128 -40 q46 -27 66 -52.5t20 -61.5q0 -69 -3.5 -236.5t-3.5 -211.5zM46 153l97 91q94 -88 149 -117l-132 -142q-22 11 -67 48t-88 82zM84 837q92 111 139 149t88 38q25 0 110.5 -27.5t112.5 -27.5q18 0 39 14t63 58q-93 -112 -141.5 -149t-91.5 -37q-30 0 -110 28.5t-109 28.5 q-16 0 -35.5 -15t-64.5 -60z" />
<glyph d="M8 136l120 113q109 -92 164 -122l-132 -142q-23 11 -73 48.5t-95 80.5l-24 4q21 0 40 18zM519 174q0 -43 5.5 -75t13.5 -49.5t20 -29t21.5 -15t22.5 -5.5h-234q-19 15 -23.5 50.5t-4.5 132.5q0 12 3.5 143.5t3.5 199.5q0 45 -16 66t-74 48q-59 26 -113 26 q-11 0 -25.5 -7.5t-25.5 -15.5t-33 -26l-33 -27q21 19 58.5 53t65 58t47.5 38q55 37 94 37q24 0 69 -15.5t79 -34.5q46 -27 66 -52.5t20 -61.5q0 -69 -3.5 -231.5t-3.5 -206.5zM84 837q92 111 139 149t88 38q25 0 110.5 -27.5t112.5 -27.5q18 0 39 14t63 58 q-93 -112 -141.5 -149t-91.5 -37q-30 0 -110 28.5t-109 28.5q-16 0 -35.5 -15t-64.5 -60z" />
<glyph horiz-adv-x="583" d="M600 0h-234q-19 15 -23.5 50.5t-4.5 132.5q0 11 4.5 148t4.5 205q0 82 -93 113q-49 17 -90 17q-11 0 -25.5 -7.5t-25.5 -15.5t-33 -26l-33 -27q21 19 58.5 53t65 58t47.5 38q55 37 94 37q59 0 128 -40q46 -27 66 -52.5t20 -61.5q0 -69 -4.5 -236.5t-4.5 -211.5 q0 -43 5.5 -75t13.5 -49.5t20 -29t21.5 -15t22.5 -5.5zM122 244q104 -88 166 -118l-141 -145q-43 15 -169 126q-100 -105 -138 -124l84 101l-73 75q19 -17 55.5 -35t58.5 -18q10 0 24.5 12t76.5 72q34 33 56 54zM84 837q92 111 139 149t88 38q25 0 110.5 -27.5t112.5 -27.5 q18 0 39 14t63 58q-93 -112 -141.5 -149t-91.5 -37q-30 0 -110 28.5t-109 28.5q-16 0 -35.5 -15t-64.5 -60z" />
<glyph horiz-adv-x="583" d="M517 174q0 -43 5.5 -75t13.5 -49.5t20 -29t21.5 -15t22.5 -5.5h-234q-19 15 -23.5 50.5t-4.5 132.5q0 11 4.5 148t4.5 205q0 82 -93 113q-60 21 -86 21q-29 0 -62 -30l-3 17q16 0 34.5 13t44.5 37t36 32q48 37 94 37q59 0 128 -40q46 -27 66 -52.5t20 -61.5 q0 -69 -4.5 -236.5t-4.5 -211.5zM-12 95l146 138q106 -84 156 -106l-132 -142q-26 10 -76 40.5t-94 69.5zM84 837q92 111 139 149t88 38q25 0 110.5 -27.5t112.5 -27.5q18 0 39 14t63 58q-93 -112 -141.5 -149t-91.5 -37q-30 0 -110 28.5t-109 28.5q-16 0 -35.5 -15 t-64.5 -60z" />
<glyph d="M519 174q0 -43 5.5 -75t13.5 -49.5t20 -29t21.5 -15t22.5 -5.5h-234q-19 15 -23.5 50.5t-4.5 132.5q0 11 3.5 148t3.5 205q0 82 -93 113q-49 17 -90 17q-11 0 -25.5 -7.5t-25.5 -15.5t-33 -26l-33 -27q21 19 58.5 53t65 58t47.5 38q55 37 94 37q59 0 128 -40 q46 -27 66 -52.5t20 -61.5q0 -69 -3.5 -236.5t-3.5 -211.5zM42 133l102 100q113 -86 151 -103l-129 -140q-67 27 -160 106l-11 10q20 0 47 27zM84 837q92 111 139 149t88 38q25 0 110.5 -27.5t112.5 -27.5q18 0 39 14t63 58q-93 -112 -141.5 -149t-91.5 -37q-30 0 -110 28.5 t-109 28.5q-16 0 -35.5 -15t-64.5 -60z" />
<glyph d="M602 0h-234q-19 15 -23.5 50.5t-4.5 132.5q0 11 4.5 148t4.5 205q0 82 -93 113q-49 17 -88 17q-19 0 -47.5 -20.5t-85.5 -70.5q149 139 184 164q55 37 95 37q59 0 128 -40q46 -27 66 -52.5t20 -61.5q0 -69 -4.5 -236.5t-4.5 -211.5q0 -43 5.5 -75t13.5 -49.5t20 -29 t21.5 -15t22.5 -5.5zM-44 115l142 136q52 -41 111 -79.5t82 -47.5l-128 -140q-27 10 -94.5 50.5t-112.5 80.5zM84 837q92 111 139 149t88 38q25 0 110.5 -27.5t112.5 -27.5q18 0 39 14t63 58q-93 -112 -141.5 -149t-91.5 -37q-30 0 -110 28.5t-109 28.5q-16 0 -35.5 -15 t-64.5 -60z" />
<glyph horiz-adv-x="583" d="M98 633q107 94 124 106q51 38 90 38q57 0 128 -41q46 -27 66 -52.5t20 -61.5q0 -69 -4.5 -236.5t-4.5 -211.5q0 -43 5.5 -75t13.5 -49.5t20 -29t21.5 -15t22.5 -5.5h-234q-19 15 -23.5 50.5t-4.5 132.5q0 11 4.5 148t4.5 205q0 36 -23.5 60t-76.5 45q-54 20 -89 20 q-24 0 -60 -28zM84 837q92 111 139 149t88 38q25 0 110.5 -27.5t112.5 -27.5q18 0 39 14t63 58q-93 -112 -141.5 -149t-91.5 -37q-30 0 -110 28.5t-109 28.5q-16 0 -35.5 -15t-64.5 -60zM-5 132l6 5q17 10 61 46t76 68l163 -128l-140 -131z" />
<glyph horiz-adv-x="584" d="M601 0h-234q-19 15 -23.5 50.5t-4.5 132.5q0 11 4.5 148t4.5 205q0 82 -93 113q-49 17 -90 17q-27 0 -54 -20q81 74 108 93q55 37 94 37q59 0 128 -40q46 -27 66 -52.5t20 -61.5q0 -69 -4.5 -236.5t-4.5 -211.5q0 -43 5.5 -75t13.5 -49.5t20 -29t21.5 -15t22.5 -5.5z M-4 132l6 5q17 10 61 46t76 68l163 -128l-140 -131zM84 837q92 111 139 149t88 38q25 0 110.5 -27.5t112.5 -27.5q18 0 39 14t63 58q-93 -112 -141.5 -149t-91.5 -37q-30 0 -110 28.5t-109 28.5q-16 0 -35.5 -15t-64.5 -60z" />
<glyph horiz-adv-x="1070" d="M66 374q0 81 14.5 147t44.5 119t59 89t75 82q125 228 355 228q130 0 221 -53t133 -140t42 -200q0 -80 -14 -146.5t-46 -125t-56 -92t-72 -92.5q-128 -215 -341 -215q-192 0 -303.5 113t-111.5 286zM859 488q0 204 -96.5 303.5t-268.5 99.5q-61 0 -113 -16.5t-72.5 -30.5 t-47.5 -36q-18 -45 -26 -70t-14.5 -75.5t-6.5 -122.5q0 -203 108.5 -307t285.5 -104q152 0 211 59q40 99 40 300z" />
<glyph horiz-adv-x="353" d="M319 0h-281q20 6 28.5 14t14 37.5t5.5 89.5q0 86 2.5 368t2.5 360q-2 51 -6.5 75t-21.5 40.5t-43 21t-80 6.5q180 -1 324 22q0 -610 6 -863q1 -71 8 -108.5t15.5 -47.5t25.5 -15z" />
<glyph horiz-adv-x="905" d="M263 196q220 180 303 288.5t83 199.5q0 112 -58.5 167t-178.5 55q-85 0 -147 -41q-28 -53 -28 -117q0 -63 29 -107t80 -44q36 0 71 15q-10 -18 -40.5 -49t-47.5 -43q-53 -39 -111 -39q-77 0 -113 46q-33 44 -33 105q0 72 67 143q58 58 123 89q36 69 113 121t176 52 q132 0 211 -73t79 -200q0 -53 -20.5 -101t-49.5 -84.5t-90 -86t-110.5 -84t-145.5 -100t-162 -112.5zM40 13l187 160q20 10 117 10h342q72 0 117 14t66 33.5t51 60.5l6 -4q-75 -89 -179 -287h-702z" />
<glyph horiz-adv-x="857" d="M512 595q24 26 37 43t25 48.5t12 68.5q0 71 -51.5 112.5t-147.5 41.5q-90 0 -159 -37q-24 -49 -24 -104q0 -54 25 -88t74 -34q35 0 66 22q-75 -133 -182 -133q-67 0 -103.5 33t-36.5 90q0 69 60 131q50 50 120 84q102 170 276 170q128 0 197.5 -53t70.5 -150 q0 -89 -77.5 -153t-181.5 -92zM247 367q-21 -33 -21 -89q0 -64 65.5 -107.5t150.5 -43.5q125 0 197 28q-29 -39 -52 -64.5t-61 -57t-87 -48t-106 -16.5q-119 0 -186 46.5t-67 116.5q0 66 39 122t128 113zM642 157q25 29 32 58t7 69q0 76 -91.5 122t-233.5 56l144 123 q94 -8 167 -30t121 -63t48 -95q0 -70 -51 -132t-143 -108z" />
<glyph horiz-adv-x="985" d="M31 312l123 135q14 10 83 10h320q0 85 1 230.5t1 187.5l166 158l3 -576h39q54 0 89.5 6.5t58 22.5t34 32t26.5 47l7 -4q-61 -100 -106 -255h-147q0 -23 0.5 -70t1.5 -65q1 -71 8 -108.5t15.5 -47.5t25.5 -15h-274q20 6 28.5 14t14 37.5t5.5 89.5q0 29 2 165h-522z M174 473q109 163 109 273q1 63 -36 100t-101 37q-49 0 -78 -23q33 70 79.5 113t124.5 43q74 0 120 -43.5t46 -110.5q0 -43 -17 -86t-55.5 -93t-75 -89.5t-101.5 -105.5z" />
<glyph horiz-adv-x="864" d="M602 157q49 56 49 205q0 93 -55 153.5t-168 60.5q-98 0 -181 -72q94 98 170.5 143.5t153.5 45.5q124 0 182.5 -64.5t58.5 -171.5q0 -98 -54 -176.5t-156 -123.5zM235 355q-21 -33 -21 -89q0 -61 54 -100t134 -39q125 0 197 28q-29 -39 -52 -64.5t-61 -57t-87 -48 t-106 -16.5q-105 0 -165 42t-60 109q0 66 39 122t128 113zM234 878l-1 -384l-168 -152l4 364q0 21 52 68zM593 841q-60 0 -211 25.5t-225 25.5q-35 0 -62.5 -14t-71.5 -55q118 124 175.5 164.5t102.5 40.5q63 0 214.5 -22t210.5 -22q14 0 25.5 1t19.5 2.5t17.5 6t14.5 6.5 t15 10t14 12t17.5 16t19.5 18q-34 -34 -73 -74.5t-56.5 -58.5t-39.5 -38t-35.5 -27t-31.5 -12t-40 -5z" />
<glyph horiz-adv-x="928" d="M679 172q40 75 40 189q0 93 -60 158.5t-172 65.5q-115 0 -209 -102q157 236 357 236q118 0 183.5 -75t65.5 -183q0 -95 -54 -169.5t-151 -119.5zM243 555q0 -202 80 -316t197 -114q90 0 155 44q-25 -49 -56.5 -89t-83.5 -72.5t-108 -32.5q-156 0 -258.5 113t-102.5 306 q0 151 80.5 295t230.5 255.5t342 160.5q-241 -79 -358.5 -221t-117.5 -329z" />
<glyph horiz-adv-x="846" d="M760 794q-56 -208 -102.5 -348.5t-91 -237.5t-91.5 -149.5t-96.5 -74t-114.5 -21.5q-113 0 -172 48t-59 135q0 117 170 214q-20 -34 -20 -80q0 -60 37 -95.5t115 -35.5q44 0 82 21t74.5 63t78 122t85.5 181.5t105 257.5zM853 999l-74 -160q-13 -10 -110 -10h-395 q-72 0 -117.5 -14.5t-65.5 -33.5t-51 -60l-6 4q75 89 179 287h626z" />
<glyph horiz-adv-x="891" d="M548 621q23 25 35 41t24 46.5t12 64.5q0 68 -47.5 107.5t-138.5 39.5q-80 0 -143 -31q38 63 108.5 107.5t162.5 44.5q108 0 168.5 -50.5t61.5 -142.5q0 -85 -72 -143.5t-171 -83.5zM681 284q0 40 -32.5 67.5t-85 42t-115.5 26t-126.5 26t-116 35.5t-85 61.5t-32.5 97.5 q0 70 51 132t143 108q-25 -29 -32 -58t-7 -69q0 -47 32.5 -79t85 -47.5t115.5 -27t126.5 -24t116 -31t85 -56t32.5 -91.5q0 -136 -200 -235q45 52 45 122zM267 413q-54 -58 -54 -132q0 -69 62.5 -114.5t163.5 -45.5q119 0 194 39q-44 -79 -118 -135t-179 -56 q-127 0 -206 52.5t-79 147.5q0 66 51 123.5t165 120.5z" />
<glyph horiz-adv-x="928" d="M315 295q-121 0 -194.5 78.5t-73.5 193.5q0 95 54 169.5t151 119.5q-40 -75 -40 -189q0 -104 68.5 -171t182.5 -67q115 0 209 102q-157 -236 -357 -236zM408 889q-83 0 -152 -30q113 180 283 180q157 0 253.5 -118.5t96.5 -308.5q0 -594 -739 -748q144 41 253.5 110 t174.5 154t97 177t32 190q0 192 -71 293t-228 101z" />
<glyph d="M8 136l120 113q109 -92 164 -122l-132 -142q-23 11 -73 48.5t-95 80.5l-24 4q21 0 40 18zM519 174q0 -43 5.5 -75t13.5 -49.5t20 -29t21.5 -15t22.5 -5.5h-234q-19 15 -23.5 50.5t-4.5 132.5q0 12 3.5 143.5t3.5 199.5q0 45 -16 66t-74 48q-59 26 -113 26 q-11 0 -25.5 -7.5t-25.5 -15.5t-33 -26l-33 -27q21 19 58.5 53t65 58t47.5 38q55 37 94 37q24 0 69 -15.5t79 -34.5q46 -27 66 -52.5t20 -61.5q0 -69 -3.5 -231.5t-3.5 -206.5zM219 952q0 -45 32.5 -78t77.5 -33t77 33t32 78q0 44 -32 76t-77 32q-46 0 -78 -32t-32 -76z M215 952q0 46 33.5 79t80.5 33t80 -33t33 -79q0 -47 -33 -81t-80 -34t-80.5 34t-33.5 81z" />
<glyph horiz-adv-x="583" d="M600 0h-234q-19 15 -23.5 50.5t-4.5 132.5q0 11 4.5 148t4.5 205q0 82 -93 113q-49 17 -90 17q-11 0 -25.5 -7.5t-25.5 -15.5t-33 -26l-33 -27q21 19 58.5 53t65 58t47.5 38q55 37 94 37q59 0 128 -40q46 -27 66 -52.5t20 -61.5q0 -69 -4.5 -236.5t-4.5 -211.5 q0 -43 5.5 -75t13.5 -49.5t20 -29t21.5 -15t22.5 -5.5zM215 952q0 46 33.5 79t80.5 33t80 -33t33 -79q0 -47 -33 -81t-80 -34t-80.5 34t-33.5 81zM219 952q0 -45 32.5 -78t77.5 -33t77 33t32 78q0 44 -32 76t-77 32q-46 0 -78 -32t-32 -76zM122 244q104 -88 166 -118 l-141 -145q-43 15 -169 126q-100 -105 -138 -124l84 101l-73 75q19 -17 55.5 -35t58.5 -18q10 0 24.5 12t76.5 72q34 33 56 54z" />
<glyph horiz-adv-x="583" d="M517 174q0 -43 5.5 -75t13.5 -49.5t20 -29t21.5 -15t22.5 -5.5h-234q-19 15 -23.5 50.5t-4.5 132.5q0 11 4.5 148t4.5 205q0 82 -93 113q-60 21 -86 21q-29 0 -62 -30l-3 17q16 0 34.5 13t44.5 37t36 32q48 37 94 37q59 0 128 -40q46 -27 66 -52.5t20 -61.5 q0 -69 -4.5 -236.5t-4.5 -211.5zM-12 95l146 138q106 -84 156 -106l-132 -142q-26 10 -76 40.5t-94 69.5zM219 952q0 -45 32.5 -78t77.5 -33t77 33t32 78q0 44 -32 76t-77 32q-46 0 -78 -32t-32 -76zM215 952q0 46 33.5 79t80.5 33t80 -33t33 -79q0 -47 -33 -81t-80 -34 t-80.5 34t-33.5 81z" />
<glyph d="M519 174q0 -43 5.5 -75t13.5 -49.5t20 -29t21.5 -15t22.5 -5.5h-234q-19 15 -23.5 50.5t-4.5 132.5q0 11 3.5 148t3.5 205q0 82 -93 113q-49 17 -90 17q-11 0 -25.5 -7.5t-25.5 -15.5t-33 -26l-33 -27q21 19 58.5 53t65 58t47.5 38q55 37 94 37q59 0 128 -40 q46 -27 66 -52.5t20 -61.5q0 -69 -3.5 -236.5t-3.5 -211.5zM42 133l102 100q113 -86 151 -103l-129 -140q-67 27 -160 106l-11 10q20 0 47 27zM219 952q0 -45 32.5 -78t77.5 -33t77 33t32 78q0 44 -32 76t-77 32q-46 0 -78 -32t-32 -76zM215 952q0 46 33.5 79t80.5 33 t80 -33t33 -79q0 -47 -33 -81t-80 -34t-80.5 34t-33.5 81z" />
<glyph d="M602 0h-234q-19 15 -23.5 50.5t-4.5 132.5q0 11 4.5 148t4.5 205q0 82 -93 113q-49 17 -88 17q-19 0 -47.5 -20.5t-85.5 -70.5q149 139 184 164q55 37 95 37q59 0 128 -40q46 -27 66 -52.5t20 -61.5q0 -69 -4.5 -236.5t-4.5 -211.5q0 -43 5.5 -75t13.5 -49.5t20 -29 t21.5 -15t22.5 -5.5zM-44 115l142 136q52 -41 111 -79.5t82 -47.5l-128 -140q-27 10 -94.5 50.5t-112.5 80.5zM215 952q0 46 33.5 79t80.5 33t80 -33t33 -79q0 -47 -33 -81t-80 -34t-80.5 34t-33.5 81zM219 952q0 -45 32.5 -78t77.5 -33t77 33t32 78q0 44 -32 76t-77 32 q-46 0 -78 -32t-32 -76z" />
<glyph horiz-adv-x="583" d="M98 633q107 94 124 106q51 38 90 38q57 0 128 -41q46 -27 66 -52.5t20 -61.5q0 -69 -4.5 -236.5t-4.5 -211.5q0 -43 5.5 -75t13.5 -49.5t20 -29t21.5 -15t22.5 -5.5h-234q-19 15 -23.5 50.5t-4.5 132.5q0 11 4.5 148t4.5 205q0 36 -23.5 60t-76.5 45q-54 20 -89 20 q-24 0 -60 -28zM215 952q0 46 33.5 79t80.5 33t80 -33t33 -79q0 -47 -33 -81t-80 -34t-80.5 34t-33.5 81zM-5 132l6 5q17 10 61 46t76 68l163 -128l-140 -131zM219 952q0 -45 32.5 -78t77.5 -33t77 33t32 78q0 44 -32 76t-77 32q-46 0 -78 -32t-32 -76z" />
<glyph horiz-adv-x="584" d="M601 0h-234q-19 15 -23.5 50.5t-4.5 132.5q0 11 4.5 148t4.5 205q0 82 -93 113q-49 17 -90 17q-27 0 -54 -20q81 74 108 93q55 37 94 37q59 0 128 -40q46 -27 66 -52.5t20 -61.5q0 -69 -4.5 -236.5t-4.5 -211.5q0 -43 5.5 -75t13.5 -49.5t20 -29t21.5 -15t22.5 -5.5z M-4 132l6 5q17 10 61 46t76 68l163 -128l-140 -131zM219 952q0 -45 32.5 -78t77.5 -33t77 33t32 78q0 44 -32 76t-77 32q-46 0 -78 -32t-32 -76zM215 952q0 46 33.5 79t80.5 33t80 -33t33 -79q0 -47 -33 -81t-80 -34t-80.5 34t-33.5 81z" />
<glyph horiz-adv-x="710" d="M259 200q-58 0 -96 17.5t-74 53.5q-52 53 -52 143q0 51 19 87t56 72q42 42 82 71q5 4 33 24.5t51 38.5q86 64 176 64q104 0 167 -69q57 -66 57 -133q0 -101 -82 -173q-64 -58 -99 -80q-10 -7 -34.5 -26.5t-37.5 -29.5q-65 -52 -142 -59q-18 -21 -18 -48q0 -23 45 -34.5 t109.5 -18t129 -16.5t109.5 -38t45 -75q0 -61 -36.5 -109t-110.5 -108q-72 -74 -149.5 -115t-177.5 -41q-110 0 -170.5 39.5t-60.5 106.5q0 50 37 101.5t140 133.5q-31 -38 -41 -58.5t-10 -48.5q1 -62 70.5 -96.5t211.5 -34.5q112 0 148 15q12 33 12 81q0 40 -42.5 60.5 t-103 27l-121 13t-103 29.5t-42.5 67q0 39 28.5 76.5t99.5 90.5q-7 -1 -23 -1zM400 309q46 0 96 12q12 74 12 139q0 90 -47 151q-47 58 -151 58q-43 0 -86 -7q-16 -86 -16 -155q0 -85 47 -140q47 -58 145 -58zM430 794q34 24 92 95t90 135q64 -44 64 -93q0 -56 -59 -83 q-28 -13 -99 -30.5t-88 -23.5z" />
<glyph d="M519 174q0 -43 5.5 -75t13.5 -49.5t20 -29t21.5 -15t22.5 -5.5h-234q-19 15 -23.5 50.5t-4.5 132.5q0 11 3.5 148t3.5 205q0 82 -93 113q-49 17 -90 17q-11 0 -25.5 -7.5t-25.5 -15.5t-33 -26l-33 -27q21 19 58.5 53t65 58t47.5 38q55 37 94 37q59 0 128 -40 q46 -27 66 -52.5t20 -61.5q0 -69 -3.5 -236.5t-3.5 -211.5zM46 153l97 91q94 -88 149 -117l-132 -142q-22 11 -67 48t-88 82zM201 959q-26 28 -26 60q0 22 16.5 38t42.5 16q25 0 41 -14q-9 -28 16 -118t74 -136q-107 93 -164 154z" />
<glyph d="M8 136l120 113q109 -92 164 -122l-132 -142q-23 11 -73 48.5t-95 80.5l-24 4q21 0 40 18zM519 174q0 -43 5.5 -75t13.5 -49.5t20 -29t21.5 -15t22.5 -5.5h-234q-19 15 -23.5 50.5t-4.5 132.5q0 12 3.5 143.5t3.5 199.5q0 45 -16 66t-74 48q-59 26 -113 26 q-11 0 -25.5 -7.5t-25.5 -15.5t-33 -26l-33 -27q21 19 58.5 53t65 58t47.5 38q55 37 94 37q24 0 69 -15.5t79 -34.5q46 -27 66 -52.5t20 -61.5q0 -69 -3.5 -231.5t-3.5 -206.5zM201 959q-26 28 -26 60q0 22 16.5 38t42.5 16q25 0 41 -14q-9 -28 16 -118t74 -136 q-107 93 -164 154z" />
<glyph horiz-adv-x="583" d="M600 0h-234q-19 15 -23.5 50.5t-4.5 132.5q0 11 4.5 148t4.5 205q0 82 -93 113q-49 17 -90 17q-11 0 -25.5 -7.5t-25.5 -15.5t-33 -26l-33 -27q21 19 58.5 53t65 58t47.5 38q55 37 94 37q59 0 128 -40q46 -27 66 -52.5t20 -61.5q0 -69 -4.5 -236.5t-4.5 -211.5 q0 -43 5.5 -75t13.5 -49.5t20 -29t21.5 -15t22.5 -5.5zM201 959q-26 28 -26 60q0 22 16.5 38t42.5 16q25 0 41 -14q-9 -28 16 -118t74 -136q-107 93 -164 154zM122 244q104 -88 166 -118l-141 -145q-43 15 -169 126q-100 -105 -138 -124l84 101l-73 75q19 -17 55.5 -35 t58.5 -18q10 0 24.5 12t76.5 72q34 33 56 54z" />
<glyph horiz-adv-x="583" d="M517 174q0 -43 5.5 -75t13.5 -49.5t20 -29t21.5 -15t22.5 -5.5h-234q-19 15 -23.5 50.5t-4.5 132.5q0 11 4.5 148t4.5 205q0 82 -93 113q-60 21 -86 21q-29 0 -62 -30l-3 17q16 0 34.5 13t44.5 37t36 32q48 37 94 37q59 0 128 -40q46 -27 66 -52.5t20 -61.5 q0 -69 -4.5 -236.5t-4.5 -211.5zM-12 95l146 138q106 -84 156 -106l-132 -142q-26 10 -76 40.5t-94 69.5zM201 959q-26 28 -26 60q0 22 16.5 38t42.5 16q25 0 41 -14q-9 -28 16 -118t74 -136q-107 93 -164 154z" />
<glyph d="M519 174q0 -43 5.5 -75t13.5 -49.5t20 -29t21.5 -15t22.5 -5.5h-234q-19 15 -23.5 50.5t-4.5 132.5q0 11 3.5 148t3.5 205q0 82 -93 113q-49 17 -90 17q-11 0 -25.5 -7.5t-25.5 -15.5t-33 -26l-33 -27q21 19 58.5 53t65 58t47.5 38q55 37 94 37q59 0 128 -40 q46 -27 66 -52.5t20 -61.5q0 -69 -3.5 -236.5t-3.5 -211.5zM42 133l102 100q113 -86 151 -103l-129 -140q-67 27 -160 106l-11 10q20 0 47 27zM201 959q-26 28 -26 60q0 22 16.5 38t42.5 16q25 0 41 -14q-9 -28 16 -118t74 -136q-107 93 -164 154z" />
<glyph d="M602 0h-234q-19 15 -23.5 50.5t-4.5 132.5q0 11 4.5 148t4.5 205q0 82 -93 113q-49 17 -88 17q-19 0 -47.5 -20.5t-85.5 -70.5q149 139 184 164q55 37 95 37q59 0 128 -40q46 -27 66 -52.5t20 -61.5q0 -69 -4.5 -236.5t-4.5 -211.5q0 -43 5.5 -75t13.5 -49.5t20 -29 t21.5 -15t22.5 -5.5zM-44 115l142 136q52 -41 111 -79.5t82 -47.5l-128 -140q-27 10 -94.5 50.5t-112.5 80.5zM201 959q-26 28 -26 60q0 22 16.5 38t42.5 16q25 0 41 -14q-9 -28 16 -118t74 -136q-107 93 -164 154z" />
<glyph horiz-adv-x="583" d="M98 633q107 94 124 106q51 38 90 38q57 0 128 -41q46 -27 66 -52.5t20 -61.5q0 -69 -4.5 -236.5t-4.5 -211.5q0 -43 5.5 -75t13.5 -49.5t20 -29t21.5 -15t22.5 -5.5h-234q-19 15 -23.5 50.5t-4.5 132.5q0 11 4.5 148t4.5 205q0 36 -23.5 60t-76.5 45q-54 20 -89 20 q-24 0 -60 -28zM-5 132l6 5q17 10 61 46t76 68l163 -128l-140 -131zM201 959q-26 28 -26 60q0 22 16.5 38t42.5 16q25 0 41 -14q-9 -28 16 -118t74 -136q-107 93 -164 154z" />
<glyph horiz-adv-x="584" d="M601 0h-234q-19 15 -23.5 50.5t-4.5 132.5q0 11 4.5 148t4.5 205q0 82 -93 113q-49 17 -90 17q-27 0 -54 -20q81 74 108 93q55 37 94 37q59 0 128 -40q46 -27 66 -52.5t20 -61.5q0 -69 -4.5 -236.5t-4.5 -211.5q0 -43 5.5 -75t13.5 -49.5t20 -29t21.5 -15t22.5 -5.5z M-4 132l6 5q17 10 61 46t76 68l163 -128l-140 -131zM201 959q-26 28 -26 60q0 22 16.5 38t42.5 16q25 0 41 -14q-9 -28 16 -118t74 -136q-107 93 -164 154z" />
<glyph d="M519 174q0 -43 5.5 -75t13.5 -49.5t20 -29t21.5 -15t22.5 -5.5h-234q-19 15 -23.5 50.5t-4.5 132.5q0 11 3.5 148t3.5 205q0 82 -93 113q-49 17 -90 17q-11 0 -25.5 -7.5t-25.5 -15.5t-33 -26l-33 -27q21 19 58.5 53t65 58t47.5 38q55 37 94 37q59 0 128 -40 q46 -27 66 -52.5t20 -61.5q0 -69 -3.5 -236.5t-3.5 -211.5zM179 813l-104 115l147 122l104 -110l142 119l105 -112l-138 -119l-109 110zM46 153l97 91q94 -88 149 -117l-132 -142q-22 11 -67 48t-88 82z" />
<glyph d="M519 174q0 -43 5.5 -75t13.5 -49.5t20 -29t21.5 -15t22.5 -5.5h-234q-19 15 -23.5 50.5t-4.5 132.5q0 12 3.5 143.5t3.5 199.5q0 45 -16 66t-74 48q-59 26 -113 26q-11 0 -25.5 -7.5t-25.5 -15.5t-33 -26l-33 -27q21 19 58.5 53t65 58t47.5 38q55 37 94 37q24 0 69 -15.5 t79 -34.5q46 -27 66 -52.5t20 -61.5q0 -69 -3.5 -231.5t-3.5 -206.5zM179 813l-104 115l147 122l104 -110l142 119l105 -112l-138 -119l-109 110zM8 136l120 113q109 -92 164 -122l-132 -142q-23 11 -73 48.5t-95 80.5l-24 4q21 0 40 18z" />
<glyph horiz-adv-x="583" d="M600 0h-234q-19 15 -23.5 50.5t-4.5 132.5q0 11 4.5 148t4.5 205q0 82 -93 113q-49 17 -90 17q-11 0 -25.5 -7.5t-25.5 -15.5t-33 -26l-33 -27q21 19 58.5 53t65 58t47.5 38q55 37 94 37q59 0 128 -40q46 -27 66 -52.5t20 -61.5q0 -69 -4.5 -236.5t-4.5 -211.5 q0 -43 5.5 -75t13.5 -49.5t20 -29t21.5 -15t22.5 -5.5zM179 813l-104 115l147 122l104 -110l142 119l105 -112l-138 -119l-109 110zM122 244q104 -88 166 -118l-141 -145q-43 15 -169 126q-100 -105 -138 -124l84 101l-73 75q19 -17 55.5 -35t58.5 -18q10 0 24.5 12t76.5 72 q34 33 56 54z" />
<glyph horiz-adv-x="583" d="M517 174q0 -43 5.5 -75t13.5 -49.5t20 -29t21.5 -15t22.5 -5.5h-234q-19 15 -23.5 50.5t-4.5 132.5q0 11 4.5 148t4.5 205q0 82 -93 113q-60 21 -86 21q-29 0 -62 -30l-3 17q16 0 34.5 13t44.5 37t36 32q48 37 94 37q59 0 128 -40q46 -27 66 -52.5t20 -61.5 q0 -69 -4.5 -236.5t-4.5 -211.5zM179 813l-104 115l147 122l104 -110l142 119l105 -112l-138 -119l-109 110zM-12 95l146 138q106 -84 156 -106l-132 -142q-26 10 -76 40.5t-94 69.5z" />
<glyph d="M519 174q0 -43 5.5 -75t13.5 -49.5t20 -29t21.5 -15t22.5 -5.5h-234q-19 15 -23.5 50.5t-4.5 132.5q0 11 3.5 148t3.5 205q0 82 -93 113q-49 17 -90 17q-11 0 -25.5 -7.5t-25.5 -15.5t-33 -26l-33 -27q21 19 58.5 53t65 58t47.5 38q55 37 94 37q59 0 128 -40 q46 -27 66 -52.5t20 -61.5q0 -69 -3.5 -236.5t-3.5 -211.5zM179 813l-104 115l147 122l104 -110l142 119l105 -112l-138 -119l-109 110zM42 133l102 100q113 -86 151 -103l-129 -140q-67 27 -160 106l-11 10q20 0 47 27z" />
<glyph d="M602 0h-234q-19 15 -23.5 50.5t-4.5 132.5q0 11 4.5 148t4.5 205q0 82 -93 113q-49 17 -88 17q-19 0 -47.5 -20.5t-85.5 -70.5q149 139 184 164q55 37 95 37q59 0 128 -40q46 -27 66 -52.5t20 -61.5q0 -69 -4.5 -236.5t-4.5 -211.5q0 -43 5.5 -75t13.5 -49.5t20 -29 t21.5 -15t22.5 -5.5zM179 813l-104 115l147 122l104 -110l142 119l105 -112l-138 -119l-109 110zM-44 115l142 136q52 -41 111 -79.5t82 -47.5l-128 -140q-27 10 -94.5 50.5t-112.5 80.5z" />
<glyph horiz-adv-x="583" d="M98 633q107 94 124 106q51 38 90 38q57 0 128 -41q46 -27 66 -52.5t20 -61.5q0 -69 -4.5 -236.5t-4.5 -211.5q0 -43 5.5 -75t13.5 -49.5t20 -29t21.5 -15t22.5 -5.5h-234q-19 15 -23.5 50.5t-4.5 132.5q0 11 4.5 148t4.5 205q0 36 -23.5 60t-76.5 45q-54 20 -89 20 q-24 0 -60 -28zM179 813l-104 115l147 122l104 -110l142 119l105 -112l-138 -119l-109 110zM-5 132l6 5q17 10 61 46t76 68l163 -128l-140 -131z" />
<glyph horiz-adv-x="584" d="M601 0h-234q-19 15 -23.5 50.5t-4.5 132.5q0 11 4.5 148t4.5 205q0 82 -93 113q-49 17 -90 17q-27 0 -54 -20q81 74 108 93q55 37 94 37q59 0 128 -40q46 -27 66 -52.5t20 -61.5q0 -69 -4.5 -236.5t-4.5 -211.5q0 -43 5.5 -75t13.5 -49.5t20 -29t21.5 -15t22.5 -5.5z M179 813l-104 115l147 122l104 -110l142 119l105 -112l-138 -119l-109 110zM-4 132l6 5q17 10 61 46t76 68l163 -128l-140 -131z" />
<glyph d="M519 174q0 -43 5.5 -75t13.5 -49.5t20 -29t21.5 -15t22.5 -5.5h-234q-19 15 -23.5 50.5t-4.5 132.5q0 11 3.5 148t3.5 205q0 82 -93 113q-49 17 -90 17q-11 0 -25.5 -7.5t-25.5 -15.5t-33 -26l-33 -27q21 19 58.5 53t65 58t47.5 38q55 37 94 37q59 0 128 -40 q46 -27 66 -52.5t20 -61.5q0 -69 -3.5 -236.5t-3.5 -211.5zM46 153l97 91q94 -88 149 -117l-132 -142q-22 11 -67 48t-88 82zM149 825h-4q-5 0 -7.5 6t1.5 13l207 238q5 5 14 6.5t12 -2.5l171 -165q2 -8 -37 -52t-47 -44h-11l-168 171z" />
<glyph d="M519 174q0 -43 5.5 -75t13.5 -49.5t20 -29t21.5 -15t22.5 -5.5h-234q-19 15 -23.5 50.5t-4.5 132.5q0 12 3.5 143.5t3.5 199.5q0 45 -16 66t-74 48q-59 26 -113 26q-11 0 -25.5 -7.5t-25.5 -15.5t-33 -26l-33 -27q21 19 58.5 53t65 58t47.5 38q55 37 94 37q24 0 69 -15.5 t79 -34.5q46 -27 66 -52.5t20 -61.5q0 -69 -3.5 -231.5t-3.5 -206.5zM8 136l120 113q109 -92 164 -122l-132 -142q-23 11 -73 48.5t-95 80.5l-24 4q21 0 40 18zM149 825h-4q-5 0 -7.5 6t1.5 13l207 238q5 5 14 6.5t12 -2.5l171 -165q2 -8 -37 -52t-47 -44h-11l-168 171z" />
<glyph horiz-adv-x="583" d="M600 0h-234q-19 15 -23.5 50.5t-4.5 132.5q0 11 4.5 148t4.5 205q0 82 -93 113q-49 17 -90 17q-11 0 -25.5 -7.5t-25.5 -15.5t-33 -26l-33 -27q21 19 58.5 53t65 58t47.5 38q55 37 94 37q59 0 128 -40q46 -27 66 -52.5t20 -61.5q0 -69 -4.5 -236.5t-4.5 -211.5 q0 -43 5.5 -75t13.5 -49.5t20 -29t21.5 -15t22.5 -5.5zM122 244q104 -88 166 -118l-141 -145q-43 15 -169 126q-100 -105 -138 -124l84 101l-73 75q19 -17 55.5 -35t58.5 -18q10 0 24.5 12t76.5 72q34 33 56 54zM149 825h-4q-5 0 -7.5 6t1.5 13l207 238q5 5 14 6.5t12 -2.5 l171 -165q2 -8 -37 -52t-47 -44h-11l-168 171z" />
<glyph horiz-adv-x="583" d="M517 174q0 -43 5.5 -75t13.5 -49.5t20 -29t21.5 -15t22.5 -5.5h-234q-19 15 -23.5 50.5t-4.5 132.5q0 11 4.5 148t4.5 205q0 82 -93 113q-60 21 -86 21q-29 0 -62 -30l-3 17q16 0 34.5 13t44.5 37t36 32q48 37 94 37q59 0 128 -40q46 -27 66 -52.5t20 -61.5 q0 -69 -4.5 -236.5t-4.5 -211.5zM-12 95l146 138q106 -84 156 -106l-132 -142q-26 10 -76 40.5t-94 69.5zM149 825h-4q-5 0 -7.5 6t1.5 13l207 238q5 5 14 6.5t12 -2.5l171 -165q2 -8 -37 -52t-47 -44h-11l-168 171z" />
<glyph d="M519 174q0 -43 5.5 -75t13.5 -49.5t20 -29t21.5 -15t22.5 -5.5h-234q-19 15 -23.5 50.5t-4.5 132.5q0 11 3.5 148t3.5 205q0 82 -93 113q-49 17 -90 17q-11 0 -25.5 -7.5t-25.5 -15.5t-33 -26l-33 -27q21 19 58.5 53t65 58t47.5 38q55 37 94 37q59 0 128 -40 q46 -27 66 -52.5t20 -61.5q0 -69 -3.5 -236.5t-3.5 -211.5zM149 825h-4q-5 0 -7.5 6t1.5 13l207 238q5 5 14 6.5t12 -2.5l171 -165q2 -8 -37 -52t-47 -44h-11l-168 171zM42 133l102 100q113 -86 151 -103l-129 -140q-67 27 -160 106l-11 10q20 0 47 27z" />
<glyph d="M602 0h-234q-19 15 -23.5 50.5t-4.5 132.5q0 11 4.5 148t4.5 205q0 82 -93 113q-49 17 -88 17q-19 0 -47.5 -20.5t-85.5 -70.5q149 139 184 164q55 37 95 37q59 0 128 -40q46 -27 66 -52.5t20 -61.5q0 -69 -4.5 -236.5t-4.5 -211.5q0 -43 5.5 -75t13.5 -49.5t20 -29 t21.5 -15t22.5 -5.5zM-44 115l142 136q52 -41 111 -79.5t82 -47.5l-128 -140q-27 10 -94.5 50.5t-112.5 80.5zM149 825h-4q-5 0 -7.5 6t1.5 13l207 238q5 5 14 6.5t12 -2.5l171 -165q2 -8 -37 -52t-47 -44h-11l-168 171z" />
<glyph horiz-adv-x="583" d="M98 633q107 94 124 106q51 38 90 38q57 0 128 -41q46 -27 66 -52.5t20 -61.5q0 -69 -4.5 -236.5t-4.5 -211.5q0 -43 5.5 -75t13.5 -49.5t20 -29t21.5 -15t22.5 -5.5h-234q-19 15 -23.5 50.5t-4.5 132.5q0 11 4.5 148t4.5 205q0 36 -23.5 60t-76.5 45q-54 20 -89 20 q-24 0 -60 -28zM-5 132l6 5q17 10 61 46t76 68l163 -128l-140 -131zM149 825h-4q-5 0 -7.5 6t1.5 13l207 238q5 5 14 6.5t12 -2.5l171 -165q2 -8 -37 -52t-47 -44h-11l-168 171z" />
<glyph horiz-adv-x="584" d="M601 0h-234q-19 15 -23.5 50.5t-4.5 132.5q0 11 4.5 148t4.5 205q0 82 -93 113q-49 17 -90 17q-27 0 -54 -20q81 74 108 93q55 37 94 37q59 0 128 -40q46 -27 66 -52.5t20 -61.5q0 -69 -4.5 -236.5t-4.5 -211.5q0 -43 5.5 -75t13.5 -49.5t20 -29t21.5 -15t22.5 -5.5z M-4 132l6 5q17 10 61 46t76 68l163 -128l-140 -131zM149 825h-4q-5 0 -7.5 6t1.5 13l207 238q5 5 14 6.5t12 -2.5l171 -165q2 -8 -37 -52t-47 -44h-11l-168 171z" />
<glyph horiz-adv-x="718" d="M360 499q38 -86 168.5 -370.5t148.5 -316.5q-5 -19 -16 -12q-9 26 -75 177t-143.5 325.5t-86.5 194.5q-30 67 -157.5 346t-147.5 319q2 18 16 12q22 -56 143.5 -337.5t149.5 -337.5z" />
<glyph horiz-adv-x="418" d="M209 636l171 -138l-171 -160l-170 145z" />
<glyph horiz-adv-x="518" d="M259 641l171 -138l-171 -160l-170 145z" />
<glyph horiz-adv-x="438" d="M219 712l-171 138l171 160l170 -145zM85 -84l-5 8q120 449 138 778q8 -164 40 -298.5t86 -273.5z" />
<glyph horiz-adv-x="571" d="M294 779l-149 133l156 149l150 -142zM224 407l-23 219l90 74q5 4 28.5 23t33.5 28q20 16 29 23q1 -58 3 -113q2 -51 3 -112q-68 -58 -99.5 -86.5t-59.5 -63.5t-36 -63.5t-8 -68.5q0 -86 72.5 -127.5t183.5 -41.5q70 0 127 28l-182 -149q-36 -9 -82 -9q-116 0 -189 49 t-73 144q0 53 46 112t136 134z" />
<glyph horiz-adv-x="718" d="M358 499q11 26 84 192.5t136.5 313t72.5 169.5q14 6 16 -12q-20 -40 -147.5 -319t-157.5 -346q-9 -20 -86.5 -194.5t-143.5 -325.5t-75 -177q-11 -7 -16 12q18 33 151 322t166 365z" />
<glyph d="M519 174q0 -43 5.5 -75t13.5 -49.5t20 -29t21.5 -15t22.5 -5.5h-234q-19 15 -23.5 50.5t-4.5 132.5q0 11 3.5 148t3.5 205q0 82 -93 113q-49 17 -90 17q-11 0 -25.5 -7.5t-25.5 -15.5t-33 -26l-33 -27q21 19 58.5 53t65 58t47.5 38q55 37 94 37q59 0 128 -40 q46 -27 66 -52.5t20 -61.5q0 -69 -3.5 -236.5t-3.5 -211.5zM46 153l97 91q94 -88 149 -117l-132 -142q-22 11 -67 48t-88 82zM490 969q-26 -30 -82.5 -78.5t-127.5 -95.5q104 86 144 274q16 14 39 14q25 0 38 -15t13 -37q0 -32 -24 -62z" />
<glyph d="M8 136l120 113q109 -92 164 -122l-132 -142q-23 11 -73 48.5t-95 80.5l-24 4q21 0 40 18zM519 174q0 -43 5.5 -75t13.5 -49.5t20 -29t21.5 -15t22.5 -5.5h-234q-19 15 -23.5 50.5t-4.5 132.5q0 12 3.5 143.5t3.5 199.5q0 45 -16 66t-74 48q-59 26 -113 26 q-11 0 -25.5 -7.5t-25.5 -15.5t-33 -26l-33 -27q21 19 58.5 53t65 58t47.5 38q55 37 94 37q24 0 69 -15.5t79 -34.5q46 -27 66 -52.5t20 -61.5q0 -69 -3.5 -231.5t-3.5 -206.5zM490 969q-26 -30 -82.5 -78.5t-127.5 -95.5q104 86 144 274q16 14 39 14q25 0 38 -15t13 -37 q0 -32 -24 -62z" />
<glyph horiz-adv-x="583" d="M600 0h-234q-19 15 -23.5 50.5t-4.5 132.5q0 11 4.5 148t4.5 205q0 82 -93 113q-49 17 -90 17q-11 0 -25.5 -7.5t-25.5 -15.5t-33 -26l-33 -27q21 19 58.5 53t65 58t47.5 38q55 37 94 37q59 0 128 -40q46 -27 66 -52.5t20 -61.5q0 -69 -4.5 -236.5t-4.5 -211.5 q0 -43 5.5 -75t13.5 -49.5t20 -29t21.5 -15t22.5 -5.5zM122 244q104 -88 166 -118l-141 -145q-43 15 -169 126q-100 -105 -138 -124l84 101l-73 75q19 -17 55.5 -35t58.5 -18q10 0 24.5 12t76.5 72q34 33 56 54zM490 969q-26 -30 -82.5 -78.5t-127.5 -95.5q104 86 144 274 q16 14 39 14q25 0 38 -15t13 -37q0 -32 -24 -62z" />
<glyph horiz-adv-x="583" d="M517 174q0 -43 5.5 -75t13.5 -49.5t20 -29t21.5 -15t22.5 -5.5h-234q-19 15 -23.5 50.5t-4.5 132.5q0 11 4.5 148t4.5 205q0 82 -93 113q-60 21 -86 21q-29 0 -62 -30l-3 17q16 0 34.5 13t44.5 37t36 32q48 37 94 37q59 0 128 -40q46 -27 66 -52.5t20 -61.5 q0 -69 -4.5 -236.5t-4.5 -211.5zM-12 95l146 138q106 -84 156 -106l-132 -142q-26 10 -76 40.5t-94 69.5zM490 969q-26 -30 -82.5 -78.5t-127.5 -95.5q104 86 144 274q16 14 39 14q25 0 38 -15t13 -37q0 -32 -24 -62z" />
<glyph horiz-adv-x="529" d="M144 667q0 66 -13 168t-13 135q0 90 76 90h271q16 0 16 -3.5t-16 -3.5h-119q-29 0 -41 -18t-12 -61q0 -38 9.5 -142t9.5 -174q0 -92 -46.5 -132t-164.5 -46q120 -6 167 -45.5t47 -136.5q0 -70 -9 -179.5t-9 -147.5q0 -43 12.5 -60t40.5 -17h118q15 0 15 -3.5t-15 -3.5 h-283q-68 0 -68 87q0 33 16.5 141t16.5 173q0 111 -27.5 150t-121.5 39h-36q-6 0 -6 3t6 3h36q40 0 66 7t41.5 19t23 37t10 50.5t2.5 70.5z" />
<glyph horiz-adv-x="529" d="M386 667q0 -45 2.5 -70.5t10 -50.5t23 -37t41.5 -19t66 -7h36q6 0 6 -3t-6 -3h-36q-94 0 -121.5 -39t-27.5 -150q0 -65 16.5 -173t16.5 -141q0 -87 -68 -87h-283q-15 0 -15 3.5t15 3.5h118q28 0 40.5 17t12.5 60q0 38 -9 147.5t-9 179.5q0 97 46.5 136.5t166.5 45.5 q-117 6 -163.5 46t-46.5 132q0 70 9.5 174t9.5 142q0 43 -12 61t-41 18h-119q-16 0 -16 3.5t16 3.5h271q76 0 76 -90q0 -33 -13 -135t-13 -168z" />
<glyph horiz-adv-x="493" d="M96 -78v1110q0 19 5 23.5t31 4.5h318q3 0 4.5 -2t0 -4.5t-4.5 -2.5h-177v-1153h177q3 0 4.5 -2t0 -4t-4.5 -2h-311q-31 0 -37 5t-6 27z" />
<glyph horiz-adv-x="493" d="M397 1032v-1110q0 -22 -6 -27t-37 -5h-311q-3 0 -4.5 2t0 4t4.5 2h177v1153h-177q-3 0 -4.5 2.5t0 4.5t4.5 2h318q26 0 31 -4.5t5 -23.5z" />
<glyph horiz-adv-x="492" d="M288 493q0 -89 3 -158t15.5 -154.5t33.5 -147.5t60 -117t93 -84q-215 86 -310.5 239t-95.5 422q0 100 22.5 185.5t57.5 145t87.5 111t102.5 84t112 62.5q-181 -108 -181 -588z" />
<glyph horiz-adv-x="492" d="M204 493q0 480 -181 588q62 -30 112 -62.5t102.5 -84t87.5 -111t57.5 -145t22.5 -185.5q0 -269 -95 -421.5t-311 -239.5q54 29 93 84t60 117t33.5 147.5t15.5 154.5t3 158z" />
<glyph d="M519 174q0 -43 5.5 -75t13.5 -49.5t20 -29t21.5 -15t22.5 -5.5h-234q-19 15 -23.5 50.5t-4.5 132.5q0 11 3.5 148t3.5 205q0 82 -93 113q-49 17 -90 17q-11 0 -25.5 -7.5t-25.5 -15.5t-33 -26l-33 -27q21 19 58.5 53t65 58t47.5 38q55 37 94 37q59 0 128 -40 q46 -27 66 -52.5t20 -61.5q0 -69 -3.5 -236.5t-3.5 -211.5zM42 133l102 100q113 -86 151 -103l-129 -140q-67 27 -160 106l-11 10q20 0 47 27zM490 969q-26 -30 -82.5 -78.5t-127.5 -95.5q104 86 144 274q16 14 39 14q25 0 38 -15t13 -37q0 -32 -24 -62z" />
<glyph d="M602 0h-234q-19 15 -23.5 50.5t-4.5 132.5q0 11 4.5 148t4.5 205q0 82 -93 113q-49 17 -88 17q-19 0 -47.5 -20.5t-85.5 -70.5q149 139 184 164q55 37 95 37q59 0 128 -40q46 -27 66 -52.5t20 -61.5q0 -69 -4.5 -236.5t-4.5 -211.5q0 -43 5.5 -75t13.5 -49.5t20 -29 t21.5 -15t22.5 -5.5zM-44 115l142 136q52 -41 111 -79.5t82 -47.5l-128 -140q-27 10 -94.5 50.5t-112.5 80.5zM490 969q-26 -30 -82.5 -78.5t-127.5 -95.5q104 86 144 274q16 14 39 14q25 0 38 -15t13 -37q0 -32 -24 -62z" />
<glyph horiz-adv-x="583" d="M98 633q107 94 124 106q51 38 90 38q57 0 128 -41q46 -27 66 -52.5t20 -61.5q0 -69 -4.5 -236.5t-4.5 -211.5q0 -43 5.5 -75t13.5 -49.5t20 -29t21.5 -15t22.5 -5.5h-234q-19 15 -23.5 50.5t-4.5 132.5q0 11 4.5 148t4.5 205q0 36 -23.5 60t-76.5 45q-54 20 -89 20 q-24 0 -60 -28zM-5 132l6 5q17 10 61 46t76 68l163 -128l-140 -131zM490 969q-26 -30 -82.5 -78.5t-127.5 -95.5q104 86 144 274q16 14 39 14q25 0 38 -15t13 -37q0 -32 -24 -62z" />
<glyph horiz-adv-x="584" d="M601 0h-234q-19 15 -23.5 50.5t-4.5 132.5q0 11 4.5 148t4.5 205q0 82 -93 113q-49 17 -90 17q-27 0 -54 -20q81 74 108 93q55 37 94 37q59 0 128 -40q46 -27 66 -52.5t20 -61.5q0 -69 -4.5 -236.5t-4.5 -211.5q0 -43 5.5 -75t13.5 -49.5t20 -29t21.5 -15t22.5 -5.5z M-4 132l6 5q17 10 61 46t76 68l163 -128l-140 -131zM490 969q-26 -30 -82.5 -78.5t-127.5 -95.5q104 86 144 274q16 14 39 14q25 0 38 -15t13 -37q0 -32 -24 -62z" />
<glyph d="M519 174q0 -43 5.5 -75t13.5 -49.5t20 -29t21.5 -15t22.5 -5.5h-234q-19 15 -23.5 50.5t-4.5 132.5q0 11 3.5 148t3.5 205q0 82 -93 113q-49 17 -90 17q-11 0 -25.5 -7.5t-25.5 -15.5t-33 -26l-33 -27q21 19 58.5 53t65 58t47.5 38q55 37 94 37q59 0 128 -40 q46 -27 66 -52.5t20 -61.5q0 -69 -3.5 -236.5t-3.5 -211.5zM46 153l97 91q94 -88 149 -117l-132 -142q-22 11 -67 48t-88 82z" />
<glyph d="M8 136l120 113q109 -92 164 -122l-132 -142q-23 11 -73 48.5t-95 80.5l-24 4q21 0 40 18zM519 174q0 -43 5.5 -75t13.5 -49.5t20 -29t21.5 -15t22.5 -5.5h-234q-19 15 -23.5 50.5t-4.5 132.5q0 12 3.5 143.5t3.5 199.5q0 45 -16 66t-74 48q-59 26 -113 26 q-11 0 -25.5 -7.5t-25.5 -15.5t-33 -26l-33 -27q21 19 58.5 53t65 58t47.5 38q55 37 94 37q24 0 69 -15.5t79 -34.5q46 -27 66 -52.5t20 -61.5q0 -69 -3.5 -231.5t-3.5 -206.5z" />
<glyph horiz-adv-x="909" d="M12 402l191 172q114 -4 347 -1t350 14l-190 -180q-120 6 -344.5 5t-353.5 -10z" />
<glyph horiz-adv-x="798" d="M12 402l191 172q290 -9 577 13l-190 -180q-241 16 -578 -5z" />
<glyph horiz-adv-x="731" d="M12 402l191 172q270 -8 514 13l-190 -180q-222 15 -515 -5z" />
<glyph horiz-adv-x="583" d="M600 0h-234q-19 15 -23.5 50.5t-4.5 132.5q0 11 4.5 148t4.5 205q0 82 -93 113q-49 17 -90 17q-11 0 -25.5 -7.5t-25.5 -15.5t-33 -26l-33 -27q21 19 58.5 53t65 58t47.5 38q55 37 94 37q59 0 128 -40q46 -27 66 -52.5t20 -61.5q0 -69 -4.5 -236.5t-4.5 -211.5 q0 -43 5.5 -75t13.5 -49.5t20 -29t21.5 -15t22.5 -5.5zM122 244q104 -88 166 -118l-141 -145q-43 15 -169 126q-100 -105 -138 -124l84 101l-73 75q19 -17 55.5 -35t58.5 -18q10 0 24.5 12t76.5 72q34 33 56 54z" />
<glyph horiz-adv-x="583" d="M517 174q0 -43 5.5 -75t13.5 -49.5t20 -29t21.5 -15t22.5 -5.5h-234q-19 15 -23.5 50.5t-4.5 132.5q0 11 4.5 148t4.5 205q0 82 -93 113q-60 21 -86 21q-29 0 -62 -30l-3 17q16 0 34.5 13t44.5 37t36 32q48 37 94 37q59 0 128 -40q46 -27 66 -52.5t20 -61.5 q0 -69 -4.5 -236.5t-4.5 -211.5zM-12 95l146 138q106 -84 156 -106l-132 -142q-26 10 -76 40.5t-94 69.5z" />
<glyph d="M519 174q0 -43 5.5 -75t13.5 -49.5t20 -29t21.5 -15t22.5 -5.5h-234q-19 15 -23.5 50.5t-4.5 132.5q0 11 3.5 148t3.5 205q0 82 -93 113q-49 17 -90 17q-11 0 -25.5 -7.5t-25.5 -15.5t-33 -26l-33 -27q21 19 58.5 53t65 58t47.5 38q55 37 94 37q59 0 128 -40 q46 -27 66 -52.5t20 -61.5q0 -69 -3.5 -236.5t-3.5 -211.5zM42 133l102 100q113 -86 151 -103l-129 -140q-67 27 -160 106l-11 10q20 0 47 27z" />
<glyph d="M602 0h-234q-19 15 -23.5 50.5t-4.5 132.5q0 11 4.5 148t4.5 205q0 82 -93 113q-49 17 -88 17q-19 0 -47.5 -20.5t-85.5 -70.5q149 139 184 164q55 37 95 37q59 0 128 -40q46 -27 66 -52.5t20 -61.5q0 -69 -4.5 -236.5t-4.5 -211.5q0 -43 5.5 -75t13.5 -49.5t20 -29 t21.5 -15t22.5 -5.5zM-44 115l142 136q52 -41 111 -79.5t82 -47.5l-128 -140q-27 10 -94.5 50.5t-112.5 80.5z" />
<glyph horiz-adv-x="583" d="M98 633q107 94 124 106q51 38 90 38q57 0 128 -41q46 -27 66 -52.5t20 -61.5q0 -69 -4.5 -236.5t-4.5 -211.5q0 -43 5.5 -75t13.5 -49.5t20 -29t21.5 -15t22.5 -5.5h-234q-19 15 -23.5 50.5t-4.5 132.5q0 11 4.5 148t4.5 205q0 36 -23.5 60t-76.5 45q-54 20 -89 20 q-24 0 -60 -28zM-5 132l6 5q17 10 61 46t76 68l163 -128l-140 -131z" />
<glyph horiz-adv-x="584" d="M601 0h-234q-19 15 -23.5 50.5t-4.5 132.5q0 11 4.5 148t4.5 205q0 82 -93 113q-49 17 -90 17q-27 0 -54 -20q81 74 108 93q55 37 94 37q59 0 128 -40q46 -27 66 -52.5t20 -61.5q0 -69 -4.5 -236.5t-4.5 -211.5q0 -43 5.5 -75t13.5 -49.5t20 -29t21.5 -15t22.5 -5.5z M-4 132l6 5q17 10 61 46t76 68l163 -128l-140 -131z" />
<glyph horiz-adv-x="1072" d="M690 645q9 8 33.5 32t36.5 35t30.5 26.5t32.5 22t25 6.5q57 0 121 -43t92 -103l-360 -310q12 -69 40.5 -106.5t83.5 -62.5q50 -23 96 -23q30 0 55 12.5t79 62t150 153.5q-151 -168 -214 -234t-96 -89q-55 -36 -112 -36q-83 0 -155 45q-65 39 -92 111.5t-27 219.5v207 q-72 91 -178 91q-52 0 -94 -14q-30 -90 -30 -212q0 -148 52 -235q52 -85 161 -85q56 0 117 22q-13 -14 -34.5 -40.5t-33.5 -38.5q-37 -38 -73.5 -54.5t-91.5 -16.5q-136 0 -206 97q-59 78 -59 201q0 87 11 141t48 103q20 26 89 89q28 25 84 83q36 37 78.5 54t105.5 17 q147 0 235 -128zM690 643v-146q0 -117 10 -184l202 181q-46 73 -101 115t-111 34z" />
<glyph horiz-adv-x="659" d="M622 724l-228 -163l245 -200v-20q0 -8 -47.5 -46t-55.5 -36l-237 209q-17 13 4 30l300 233q7 5 13 3t6 -6v-4zM347 724l-228 -163l245 -200v-20q0 -8 -47.5 -46t-55.5 -36l-237 209q-17 13 4 30l300 233q7 5 13 3t6 -6v-4z" />
<glyph horiz-adv-x="659" d="M37 272l227 162l-244 201v20q0 8 47.5 46t55.5 36l237 -209q17 -13 -4 -30l-300 -233q-7 -5 -13 -3t-6 6v4zM312 272l227 162l-244 201v20q0 8 47.5 46t55.5 36l237 -209q17 -13 -4 -30l-300 -233q-7 -5 -13 -3t-6 6v4z" />
<glyph horiz-adv-x="397" d="M338 739l-220 -166l247 -200v-20q0 -8 -47.5 -46t-55.5 -36l-237 207q-17 13 4 30l290 238q7 5 13 3t6 -6v-4z" />
<glyph horiz-adv-x="397" d="M61 273l219 165l-246 201v20q0 8 47.5 46t55.5 36l237 -207q17 -13 -4 -30l-290 -238q-7 -5 -13 -3t-6 6v4z" />
<glyph horiz-adv-x="699" d="M295 331l135 113q15 -23 48.5 -74.5t54.5 -83t45.5 -67t38.5 -52.5q42 -53 76 -53q22 0 51 22q-108 -108 -154 -139q-14 -10 -28 -10q-38 0 -92 74q-74 99 -175 270zM384 632l144 136q111 -107 161 -142l-145 -126q-87 59 -160 132zM281 0h-229q14 8 15 56q5 243 5 721 q-2 51 -6.5 75t-21.5 40.5t-43 21t-80 6.5q180 -1 324 22q1 -106 2 -414t4 -462q0 -37 6.5 -49.5t23.5 -16.5z" />
<glyph horiz-adv-x="597" d="M35 337q0 76 10.5 109t46.5 79q40 50 113 123q119 119 168 119q57 0 121 -43t92 -103l-372 -320q13 -66 44.5 -98t97.5 -61q50 -23 105 -23q30 0 55 12.5t79 62t150 153.5q-151 -168 -214 -234t-96 -89q-55 -36 -112 -36q-89 0 -161 45q-66 39 -96.5 110t-30.5 194z M202 479q0 -119 12 -176l213 191q-42 64 -88.5 102t-105.5 38q-20 0 -23 -1q-8 -41 -8 -154zM224 958q-26 28 -26 60q0 22 16.5 38t42.5 16q25 0 41 -14q-9 -28 16 -118t74 -136q-107 93 -164 154z" />
<glyph horiz-adv-x="597" d="M35 337q0 76 10.5 109t46.5 79q40 50 113 123q119 119 168 119q57 0 121 -43t92 -103l-372 -320q13 -66 44.5 -98t97.5 -61q50 -23 105 -23q30 0 55 12.5t79 62t150 153.5q-151 -168 -214 -234t-96 -89q-55 -36 -112 -36q-89 0 -161 45q-66 39 -96.5 110t-30.5 194z M202 799l-104 115l147 122l104 -110l142 119l105 -112l-138 -119l-109 110zM202 479q0 -119 12 -176l213 191q-42 64 -88.5 102t-105.5 38q-20 0 -23 -1q-8 -41 -8 -154z" />
<glyph horiz-adv-x="597" d="M35 337q0 76 10.5 109t46.5 79q40 50 113 123q119 119 168 119q57 0 121 -43t92 -103l-372 -320q13 -66 44.5 -98t97.5 -61q50 -23 105 -23q30 0 55 12.5t79 62t150 153.5q-151 -168 -214 -234t-96 -89q-55 -36 -112 -36q-89 0 -161 45q-66 39 -96.5 110t-30.5 194z M202 479q0 -119 12 -176l213 191q-42 64 -88.5 102t-105.5 38q-20 0 -23 -1q-8 -41 -8 -154zM174 825h-4q-5 0 -7.5 6t1.5 13l207 238q5 5 14 6.5t12 -2.5l171 -165q2 -8 -37 -52t-47 -44h-11l-168 171z" />
<glyph horiz-adv-x="597" d="M35 337q0 76 10.5 109t46.5 79q40 50 113 123q119 119 168 119q57 0 121 -43t92 -103l-372 -320q13 -66 44.5 -98t97.5 -61q50 -23 105 -23q30 0 55 12.5t79 62t150 153.5q-151 -168 -214 -234t-96 -89q-55 -36 -112 -36q-89 0 -161 45q-66 39 -96.5 110t-30.5 194z M202 479q0 -119 12 -176l213 191q-42 64 -88.5 102t-105.5 38q-20 0 -23 -1q-8 -41 -8 -154zM551 979q-26 -30 -82.5 -78.5t-127.5 -95.5q104 86 144 274q16 14 39 14q25 0 38 -15t13 -37q0 -32 -24 -62z" />
<glyph horiz-adv-x="597" d="M35 337q0 76 10.5 109t46.5 79q40 50 113 123q119 119 168 119q57 0 121 -43t92 -103l-372 -320q13 -66 44.5 -98t97.5 -61q50 -23 105 -23q30 0 55 12.5t79 62t150 153.5q-151 -168 -214 -234t-96 -89q-55 -36 -112 -36q-89 0 -161 45q-66 39 -96.5 110t-30.5 194z M202 479q0 -119 12 -176l213 191q-42 64 -88.5 102t-105.5 38q-20 0 -23 -1q-8 -41 -8 -154z" />
<glyph horiz-adv-x="588" d="M403 -290q15 23 15 43q0 36 -55.5 59.5t-161.5 28.5q-11 0 -2 10l167 146q-27 -9 -57 -9q-85 0 -149 45q-69 49 -96 111t-27 179q0 60 7.5 95.5t19 55t39.5 54.5q41 49 102 110q3 3 19 19.5t21 20.5t19.5 18.5t21.5 19.5t20 16t21.5 15t20 10t21.5 8t20 2q44 0 100 -35 t96 -109l-147 -133q-100 144 -207 144q-15 0 -23 -3q-8 -47 -6 -193q0 -96 13 -151.5t36.5 -83t69.5 -53.5q55 -31 126 -31q30 0 55 12.5t79 62t150 153.5q-151 -168 -214 -234t-96 -89q-24 -16 -48 -24l-61 -59q-3 -3 5 -3q92 -4 143 -30.5t51 -63.5t-108 -134zM228 -398 q-34 0 -117 52l105 93q75 -53 123 -53h14h12.5t9.5 0.5t10.5 2.5t10.5 6q-74 -69 -104 -85t-64 -16z" />
<glyph horiz-adv-x="590" d="M309 -12q-85 0 -149 45q-69 49 -96 111t-27 179q0 60 7.5 95.5t19 55t39.5 54.5q41 49 102 110q3 3 19 19.5t21 20.5t19.5 18.5t21.5 19.5t20 16t21.5 15t20 10t21.5 8t20 2q44 0 100 -35t96 -109l-147 -133q-100 144 -207 144q-15 0 -23 -3q-8 -47 -6 -193 q0 -96 13 -151.5t36.5 -83t69.5 -53.5q55 -31 126 -31q30 0 55 12.5t79 62t150 153.5q-151 -168 -214 -234t-96 -89q-55 -36 -112 -36z" />
<glyph horiz-adv-x="908" d="M342 231q-3 46 2 169t5 136q0 82 -93 113q-49 17 -90 17q-11 0 -25.5 -7.5t-25.5 -15.5t-33 -26l-33 -27q21 19 58.5 53t65 58t47.5 38q55 37 94 37q59 0 128 -40q70 -40 82 -85q40 38 61 56.5t51 39t48 20.5q57 0 121 -43t92 -103l-371 -319q21 -107 141 -160 q50 -23 105 -23q30 0 55 12.5t79 62t150 153.5q-162 -180 -220.5 -241.5t-89.5 -81.5q-55 -36 -112 -36q-81 0 -150 32q-66 32 -102 90t-40 121zM523 337q0 -17 3 -33l212 190q-43 71 -100.5 115.5t-112.5 38.5q3 -12 3 -26q0 -27 -2.5 -130t-2.5 -155zM-10 95l342 326 q0 -1 -94 -97l-95 -96q36 -36 149 -101l-132 -142q-26 10 -76 40.5t-94 69.5z" />
<glyph horiz-adv-x="690" d="M281 0h-229q14 8 15 56q5 243 5 721q-2 51 -6.5 75t-21.5 40.5t-43 21t-80 6.5q180 -1 324 22q1 -106 2 -414t4 -462q0 -37 6.5 -49.5t23.5 -16.5zM289 340l137 110q146 -223 194 -280q42 -53 76 -53q22 0 51 22q-111 -111 -157 -142q-14 -10 -28 -10q-38 0 -92 74 q-39 52 -181 279zM369 635l158 127q89 -73 157 -115l-256 -196l98 81q-79 45 -157 103z" />
<glyph horiz-adv-x="313" d="M67 994q0 22 25 22q34 0 84 -14q6 33 57 216q-2 -9 -14.5 -63t-16.5 -73t-14 -68.5t-14.5 -81.5t-10.5 -78.5t-9 -91.5q58 5 94 11q0 -377 6 -707q0 -37 6.5 -49.5t23.5 -16.5h-235q14 8 15 56q5 243 5 609q-4 54 -12 70.5t-34 21.5q36 -1 130 5q-3 56 -25 105 t-41.5 80.5t-19.5 46.5z" />
<glyph horiz-adv-x="908" d="M441 736q70 -40 82 -87q5 5 19 19.5t20.5 20.5t19.5 18.5t20.5 19t19 16t20 14.5t18 10.5t18.5 7.5t17 2q50 0 110.5 -30t107.5 -75l-389 -369q6 -57 36 -93t99 -68q50 -23 96 -23q30 0 55 12.5t79 62t150 153.5q-151 -168 -214 -234t-96 -89q-55 -36 -112 -36 q-83 0 -155 45q-125 77 -119 228q0 41 2.5 144t2.5 131q0 82 -93 113q-49 17 -90 17q-27 0 -54 -20q81 74 108 93q55 37 94 37q59 0 128 -40zM527 622q0 -27 -2 -130t-2 -155q0 -23 1 -34l240 238q-123 113 -240 107q3 -12 3 -26zM-4 132l6 5q17 10 61 46t76 68l193 178 l-185 -184l155 -122l-140 -131z" />
<glyph horiz-adv-x="908" d="M440 736q73 -42 84 -86l24.5 24.5t27 26.5t23.5 22.5t26 22.5t23 15t25 12.5t22 3.5q50 0 110.5 -30t107.5 -75l-389 -369q6 -57 36 -93t99 -68q50 -23 96 -23q30 0 55 12.5t79 62t150 153.5q-151 -168 -214 -234t-96 -89q-55 -36 -112 -36q-83 0 -155 45 q-125 77 -119 228q0 41 3 144t3 131q0 81 -95 113q-49 17 -90 17q-11 0 -25.5 -7.5t-25.5 -15.5t-33 -26l-33 -27q21 19 58.5 53t65 58t47.5 38q55 37 94 37q59 0 128 -40zM528 622q0 -27 -2.5 -130t-2.5 -155q0 -23 1 -34l240 238q-124 113 -239 107q3 -12 3 -26zM46 153 l97 91l185 177l-179 -184q100 -89 143 -110l-132 -142q-22 11 -67 48t-88 82z" />
<glyph horiz-adv-x="908" d="M913 672l-389 -369q6 -57 36 -93t99 -68q50 -23 96 -23q30 0 55 12.5t79 62t150 153.5q-151 -168 -214 -234t-96 -89q-55 -36 -112 -36q-83 0 -155 45q-125 77 -119 228q0 41 2 144t2 131q0 82 -93 113q-49 17 -90 17q-11 0 -25.5 -7.5t-25.5 -15.5t-33 -26l-33 -27 q21 19 58.5 53t65 58t47.5 38q55 37 94 37q59 0 128 -40q72 -43 83 -87q37 39 59.5 61t56 44.5t56.5 22.5q50 0 110.5 -30t107.5 -75zM526 622q0 -27 -1.5 -130t-1.5 -155q0 -23 1 -34l240 238q-117 114 -241 107q3 -12 3 -26zM122 244q104 -88 166 -118l-141 -145 q-43 15 -169 126q-100 -105 -138 -124l84 101l-73 75q19 -17 55.5 -35t58.5 -18q10 0 24.5 12t76.5 72q34 33 56 54z" />
<glyph horiz-adv-x="908" d="M522 648l24.5 24.5l27 27t24 23t27 23t23.5 15.5t25 12.5t22 3.5q50 0 110.5 -30t107.5 -75l-389 -369q6 -57 36 -93t99 -68q50 -23 96 -23q30 0 55 12.5t79 62t150 153.5q-151 -168 -214 -234t-96 -89q-55 -36 -112 -36q-83 0 -155 45q-125 77 -119 228q0 42 2 142.5 t2 122.5q0 45 -16 66t-74 48q-59 26 -113 26q-11 0 -25.5 -7.5t-25.5 -15.5t-33 -26l-33 -27q21 19 58.5 53t65 58t47.5 38q55 37 94 37q24 0 69 -15.5t79 -34.5q46 -27 66 -52.5t20 -61.5q0 -26 -1.5 -125t-1.5 -150q0 -23 1 -34l240 238q-117 114 -242 107zM8 136 q111 104 320 305l-193 -198q110 -93 157 -116l-132 -142q-23 11 -73 48.5t-95 80.5l-24 4q21 0 40 18z" />
<glyph horiz-adv-x="908" d="M440 736q73 -42 84 -86l24.5 24.5t27 26.5t23.5 22.5t26 22.5t23 15t25 12.5t22 3.5q50 0 110.5 -30t107.5 -75l-389 -369q6 -57 36 -93t99 -68q50 -23 96 -23q30 0 55 12.5t79 62t150 153.5q-151 -168 -214 -234t-96 -89q-55 -36 -112 -36q-83 0 -155 45 q-125 77 -119 228q0 41 3 144t3 131q0 81 -95 113q-60 21 -86 21q-29 0 -62 -30l-3 17q16 0 34.5 13t44.5 37t36 32q48 37 94 37q59 0 128 -40zM528 622q0 -27 -2.5 -130t-2.5 -155q0 -23 1 -34l240 238q-124 113 -239 107q3 -12 3 -26zM330 421l-189 -193q58 -49 149 -101 l-132 -142q-26 10 -76 40.5t-94 69.5z" />
<glyph horiz-adv-x="908" d="M913 672l-389 -369q6 -57 36 -93t99 -68q50 -23 96 -23q30 0 55 12.5t79 62t150 153.5q-151 -168 -214 -234t-96 -89q-55 -36 -112 -36q-83 0 -155 45q-125 77 -119 228q0 41 3 144t3 131q0 82 -93 113q-49 17 -88 17q-19 0 -47.5 -20.5t-85.5 -70.5q149 139 184 164 q55 37 95 37q59 0 128 -40q70 -40 82 -86l24.5 24.5t27 26.5t23.5 22.5t26 22.5t23 15t25 12.5t22 3.5q50 0 110.5 -30t107.5 -75zM297 442l-191 -197q54 -41 108.5 -76t76.5 -45l-128 -140q-27 10 -94.5 50.5t-112.5 80.5zM528 622q0 -27 -2.5 -130t-2.5 -155q0 -23 1 -34 l240 238q-124 113 -239 107q3 -12 3 -26z" />
</font>
</defs>
</svg>
