<?xml version="1.0" standalone="no"?>
<!DOCTYPE svg PUBLIC "-//W3C//DTD SVG 1.1//EN" "http://www.w3.org/Graphics/SVG/1.1/DTD/svg11.dtd" >
<svg xmlns="http://www.w3.org/2000/svg" xmlns:xlink="http://www.w3.org/1999/xlink" version="1.1">
<metadata></metadata>
<defs>
<font id="roslindale_text_regularRg" horiz-adv-x="1490" >
<font-face units-per-em="2048" ascent="1608" descent="-440" />
<missing-glyph horiz-adv-x="454" />
<glyph horiz-adv-x="0" />
<glyph horiz-adv-x="682" />
<glyph unicode=" "  horiz-adv-x="454" />
<glyph unicode="&#x09;" horiz-adv-x="454" />
<glyph unicode="&#xa0;" horiz-adv-x="454" />
<glyph unicode="!" horiz-adv-x="821" d="M272 121q0 63 40.5 105t103.5 42t106 -42t43 -105q0 -59 -43.5 -103.5t-105.5 -44.5t-103 44t-41 104zM272 1411q0 81 37.5 139t102.5 58t101 -57.5t36 -139.5q0 -87 -17 -206t-37.5 -223t-37.5 -247.5t-17 -273.5h-59q0 165 -27.5 346.5t-54.5 339t-27 264.5z" />
<glyph unicode="&#x22;" horiz-adv-x="722" d="M119 1526q0 44 26.5 75t73.5 31t72.5 -30.5t25.5 -75.5q0 -66 -31 -187t-44 -247h-45q-14 126 -46 247t-32 187zM426 1526q0 44 26.5 75t73.5 31t73 -30.5t26 -75.5q0 -66 -31.5 -187t-44.5 -247h-45q-14 126 -46 247t-32 187z" />
<glyph unicode="#" horiz-adv-x="1517" d="M82 406v204h369l98 316h-344v204h407l125 406h111l-125 -406h297l125 406h110l-125 -406h310v-204h-373l-98 -316h346v-204h-410l-125 -406h-110l125 406h-295l-125 -406h-113l125 406h-305zM563 610h295l98 316h-297z" />
<glyph unicode="$" horiz-adv-x="1402" d="M104 279q0 50 36.5 86t97.5 36q35 0 60.5 -12.5t42.5 -37.5t29 -50.5t29.5 -63.5t34.5 -65q47 -76 187 -94v653q-56 18 -96 32.5t-90 36t-84.5 43.5t-70 53t-56.5 65t-34.5 79t-13.5 97q0 168 121.5 279.5t323.5 133.5v170h98v-164q198 -1 310 -74t112 -165 q0 -50 -36.5 -86.5t-96.5 -36.5q-16 0 -31.5 4t-26 7t-24.5 14.5t-19.5 15.5t-19 22t-16 21.5t-17.5 26t-16 24.5q-18 28 -31.5 46t-37 38.5t-50.5 32.5v-528q203 -64 286 -105q191 -94 235 -246q15 -51 15 -108q0 -198 -149 -330t-387 -149v-164h-98v161 q-100 3 -185.5 22.5t-145.5 49.5t-102.5 68.5t-63 79.5t-20.5 82zM334 1212q0 -50 21.5 -91t63 -72t89 -53.5t113.5 -45.5v514q-122 0 -204.5 -69t-82.5 -183zM719 70h26q149 -3 251 88t102 227q0 53 -21.5 97t-53 74t-85.5 58.5t-101 46t-118 39.5v-630z" />
<glyph unicode="%" horiz-adv-x="1538" d="M80 1219q0 142 93.5 245t229.5 103q135 0 227.5 -102.5t92.5 -245.5q0 -142 -93.5 -245.5t-226.5 -103.5q-131 0 -227 105t-96 244zM252 1219q0 -129 38.5 -199t112.5 -70q150 0 150 269q0 127 -37.5 196.5t-112.5 69.5q-151 0 -151 -266zM264 0l897 1536h111l-895 -1536 h-113zM813 317q0 142 94.5 245.5t227.5 103.5q131 0 226 -105t95 -244q0 -142 -92.5 -245t-228.5 -103q-135 0 -228.5 102.5t-93.5 245.5zM985 317q0 -127 37.5 -196.5t112.5 -69.5q151 0 151 266q0 129 -38.5 199t-112.5 70q-150 0 -150 -269z" />
<glyph unicode="&#x26;" horiz-adv-x="1691" d="M86 391q0 120 62.5 232.5t160.5 190.5t215 118q-94 129 -94 272q0 149 102.5 254t260.5 105q83 0 158.5 -24.5t123 -69t47.5 -97.5q0 -46 -30.5 -80.5t-79.5 -34.5q-39 0 -67 21.5t-46 52.5t-37 62.5t-53 53t-82 21.5q-63 0 -112.5 -47t-49.5 -116q0 -107 160 -291 l313 -359q32 182 138 289t245 107q77 0 131 -45.5t54 -112.5q0 -44 -31.5 -77.5t-77.5 -33.5q-32 0 -56.5 11t-39.5 27t-29 31.5t-32.5 26.5t-41.5 11q-62 0 -118.5 -84t-79.5 -217l319 -365q75 -85 121.5 -128.5t89.5 -67.5v-27h-477v27q106 57 -16 196l-123 142 q-79 -194 -205 -295t-295 -101q-115 0 -212.5 52.5t-156.5 150t-59 219.5zM264 438q0 -122 80.5 -210.5t210.5 -88.5q124 0 221 66.5t189 214.5l-394 450q-1 2 -4 5.5t-4 5.5q-148 -64 -223.5 -181t-75.5 -262z" />
<glyph unicode="'" horiz-adv-x="436" d="M119 1526q0 44 26.5 75t73.5 31t72.5 -30.5t25.5 -75.5q0 -66 -31 -187t-44 -247h-45q-14 126 -46 247t-32 187z" />
<glyph unicode="(" horiz-adv-x="737" d="M94 705q0 152 36 297t94 255.5t130.5 200.5t146 144.5t140.5 76.5l12 -26q-163 -149 -256.5 -409.5t-93.5 -538.5q0 -290 92 -543.5t258 -405.5l-12 -26q-67 22 -140 74.5t-146 140.5t-131 197.5t-94 256.5t-36 306z" />
<glyph unicode=")" horiz-adv-x="737" d="M84 -244q166 152 258 405.5t92 543.5q0 278 -93.5 538.5t-256.5 409.5l12 26q67 -22 140.5 -76.5t146 -144.5t130.5 -200.5t94 -255.5t36 -297q0 -159 -36 -306t-94 -256.5t-131 -197.5t-146 -140.5t-140 -74.5z" />
<glyph unicode="*" horiz-adv-x="1155" d="M234 1000.5q11 28.5 42 48.5q28 17 123.5 41t157.5 45q-62 23 -158 51t-125 45q-29 16 -40 45t6 61q18 31 48.5 36t59.5 -15q29 -17 98.5 -89.5t124.5 -117.5q-11 56 -29 122.5t-28 109t-10 71.5q0 33 20.5 58.5t53.5 25.5q34 0 53.5 -25t19.5 -59q0 -36 -24.5 -136 t-34.5 -161q59 45 126 112.5t91 82.5q28 19 61.5 13.5t51.5 -36.5q15 -32 3.5 -60t-42.5 -46q-24 -13 -62.5 -24.5t-100 -27.5t-114.5 -34q63 -25 154 -51t119 -42q31 -18 43 -47t-4 -61q-18 -30 -50.5 -34.5t-62.5 13.5q-26 16 -91.5 84.5t-119.5 114.5q11 -65 35 -161 t24 -128q0 -36 -20 -62t-55 -26q-34 0 -53 25.5t-19 62.5q0 26 9.5 66.5t26 104t27.5 118.5q-58 -44 -126 -111.5t-95 -82.5q-27 -19 -58.5 -14t-49.5 34q-17 32 -6 60.5z" />
<glyph unicode="+" horiz-adv-x="1085" d="M102 692v82h410v410h82v-410h389v-82h-389v-409h-82v409h-410z" />
<glyph unicode="," horiz-adv-x="575" d="M137 154q0 60 44 101.5t108 41.5q63 0 109 -54.5t46 -129.5q0 -96 -68 -195.5t-190 -169.5l-26 27q117 117 157 223q-78 5 -129 48t-51 108z" />
<glyph unicode="-" horiz-adv-x="702" d="M86 528v123l530 82v-123z" />
<glyph unicode="." horiz-adv-x="575" d="M137 137q0 67 44.5 114.5t107.5 47.5t107 -47t44 -115q0 -65 -44 -112.5t-107 -47.5t-107.5 47.5t-44.5 112.5z" />
<glyph unicode="/" horiz-adv-x="890" d="M119 -215l543 1751h110l-543 -1751h-110z" />
<glyph unicode="0" horiz-adv-x="1400" d="M127 768q0 222 75.5 405.5t207.5 288.5t292 105t291 -104.5t206 -288t75 -406.5q0 -222 -76.5 -406t-207.5 -288.5t-288 -104.5q-116 0 -222 62t-183.5 168t-123.5 254.5t-46 314.5zM369 768q0 -203 37 -360.5t113.5 -252t182.5 -94.5t182 94.5t112 252t36 360.5 q0 152 -20 279t-59.5 223.5t-103.5 150.5t-147 54q-109 0 -185.5 -95.5t-112 -252t-35.5 -359.5z" />
<glyph unicode="1" horiz-adv-x="745" d="M123 0v37q156 21 156 211v932q0 77 -40.5 131t-115.5 63v37q215 56 354 158h10v-1321q0 -99 42.5 -150t111.5 -61v-37h-518z" />
<glyph unicode="2" horiz-adv-x="1161" d="M35 0v8l115 111q64 62 96.5 94.5t98 99t103.5 108.5t95.5 109t91.5 115t74.5 111.5t63 115t37.5 107.5t15 106q0 127 -95 215.5t-236 88.5q-131 0 -231 -83.5t-181 -252.5l-39 10q16 125 67 223t126 158.5t164 91.5t186 31q131 0 238 -55.5t170 -159.5t63 -238 q0 -57 -13 -115.5t-33.5 -110t-56 -107.5t-68.5 -101t-84 -99t-90 -92.5t-98 -91t-97.5 -84.5t-98.5 -82q-53 -44 -78 -65h215q347 0 520 194l15 -4l-142 -434h-10q-81 78 -242 78h-661z" />
<glyph unicode="3" horiz-adv-x="1167" d="M23 190q0 49 32.5 86t85.5 37q15 0 28.5 -1.5t26 -7t21 -8.5t19.5 -13.5t15.5 -14t15.5 -18t13 -17.5t14 -20.5t13 -19.5q19 -28 34.5 -45t41 -37t61 -29.5t80.5 -9.5q151 0 241.5 73t90.5 207q0 60 -24.5 118t-74.5 113.5t-137 101t-200 69.5v30q165 90 240 175.5 t75 187.5q0 113 -79 177.5t-193 64.5q-104 0 -186 -59.5t-130 -182.5l-43 12q15 102 57 181.5t102 128t131.5 73.5t150.5 25q156 0 268.5 -87.5t112.5 -234.5q0 -99 -65 -200.5t-173 -170.5q114 -29 202 -103t130.5 -159.5t42.5 -167.5q0 -91 -45 -178t-119.5 -152 t-178 -105t-214.5 -40q-225 0 -354 67t-129 154z" />
<glyph unicode="4" horiz-adv-x="1282" d="M70 451v38l850 1061h71v-932h180v-167h-180v-203q0 -99 43.5 -150t114.5 -61v-37h-520v37q153 21 153 211v203h-712zM305 618h477v599z" />
<glyph unicode="5" horiz-adv-x="1167" d="M43 211q0 56 40.5 99.5t100.5 43.5q35 0 60.5 -10t44 -31.5t28.5 -39.5t25 -51l1.5 -3t1 -3t1.5 -3q15 -33 27.5 -53t35 -43t55 -34t75.5 -11q131 0 217 91t86 251q0 98 -31.5 174.5t-89 125t-137 77.5t-175 32t-204.5 -12l-41 6l61 719h774l-26 -164h-658l-28 -352 q169 21 318 -15t249.5 -111t158.5 -179.5t58 -218.5q0 -140 -78.5 -262.5t-208.5 -193.5t-276 -71q-117 0 -209 21.5t-146 57t-82 77t-28 86.5z" />
<glyph unicode="6" horiz-adv-x="1320" d="M127 590q-2 136 33.5 267t110.5 249t181.5 213.5t254 164t319.5 97.5l14 -47q-192 -64 -356 -220.5t-256 -373.5q118 94 264 94q142 0 261.5 -72.5t187 -194.5t67.5 -265q0 -144 -68 -265.5t-191 -194.5t-275 -73q-111 0 -208.5 39.5t-174 114.5t-120.5 195.5t-44 271.5z M360 502q0 -209 79.5 -325t228.5 -116q150 0 227.5 115.5t77.5 325.5q0 211 -75.5 325.5t-229.5 114.5q-151 0 -229.5 -115.5t-78.5 -324.5z" />
<glyph unicode="7" horiz-adv-x="1036" d="M-2 1182l141 432h11q81 -78 243 -78h645v-8l-118 -178q-119 -177 -196.5 -423t-106 -476.5t-23.5 -450.5h-227q19 229 81.5 493t165 509.5t215.5 369.5h-337q-307 0 -480 -194z" />
<glyph unicode="8" horiz-adv-x="1286" d="M127 354q0 74 22 138t56 109t82 83t92 61.5t94 42.5q-120 73 -188 161.5t-68 211.5q0 178 117 292t317 114q98 0 192.5 -41.5t159 -122t64.5 -178.5q0 -71 -29 -135.5t-75 -110t-93.5 -76t-93.5 -47.5q52 -28 82 -45t76 -46t73.5 -52t60 -56.5t50 -66t29.5 -74.5t12 -88 q0 -128 -71.5 -234.5t-188.5 -165.5t-250 -59q-132 0 -252 50t-195 140t-75 195zM307 412q0 -67 22 -128.5t63.5 -112t108 -80.5t148.5 -30q150 0 240 81t90 194q0 40 -11.5 76t-30 65t-49 57.5t-59.5 50t-72 47t-76.5 43t-82 43.5t-80.5 44q-99 -60 -155 -152.5t-56 -197.5 zM397 1253q0 -53 19.5 -101t47.5 -82.5t77.5 -71.5t89.5 -61t104 -58q148 139 148 313q0 118 -70.5 199.5t-198.5 81.5q-99 0 -158 -60.5t-59 -159.5z" />
<glyph unicode="9" horiz-adv-x="1320" d="M100 1034q0 144 68 265.5t191.5 194.5t275.5 73q111 0 208.5 -39.5t174 -114.5t120.5 -195.5t44 -271.5q2 -136 -33.5 -267t-110.5 -249t-181.5 -213.5t-254 -164t-319.5 -97.5l-15 47q192 65 356.5 221t256.5 373q-118 -94 -265 -94q-142 0 -261.5 72.5t-187 194.5 t-67.5 265zM336 1034q0 -211 75.5 -325.5t229.5 -114.5q151 0 229 115.5t78 324.5t-79 325t-228 116q-150 0 -227.5 -115.5t-77.5 -325.5z" />
<glyph unicode=":" horiz-adv-x="606" d="M164 137q0 68 44 115t107 47t107.5 -47.5t44.5 -114.5q0 -65 -44.5 -112.5t-107.5 -47.5t-107 47.5t-44 112.5zM164 915q0 68 44 115t107 47t107.5 -47.5t44.5 -114.5q0 -65 -44.5 -112t-107.5 -47t-107 47t-44 112z" />
<glyph unicode=";" horiz-adv-x="606" d="M164 154q0 60 43.5 101.5t107.5 41.5q63 0 109.5 -54.5t46.5 -129.5q0 -96 -68 -195.5t-190 -169.5l-27 27q118 118 158 223q-78 5 -129 48t-51 108zM164 915q0 68 44 115t107 47t107.5 -47.5t44.5 -114.5q0 -65 -44.5 -112t-107.5 -47t-107 47t-44 112z" />
<glyph unicode="&#x3c;" horiz-adv-x="1085" d="M102 698v70l881 358v-86l-762 -307l762 -307v-86z" />
<glyph unicode="=" horiz-adv-x="1085" d="M102 487v82h881v-82h-881zM102 897v82h881v-82h-881z" />
<glyph unicode="&#x3e;" horiz-adv-x="1085" d="M102 340v86l762 307l-762 307v86l881 -358v-70z" />
<glyph unicode="?" horiz-adv-x="1175" d="M72 1327q0 93 113.5 166.5t312.5 73.5q154 0 283 -60.5t203.5 -166.5t74.5 -234q0 -89 -38.5 -173t-106 -150.5t-169 -111t-219.5 -53.5q-38 -3 -57 -18.5t-16 -46.5l4 -92h-103l-24 246q-4 49 29 75t94 31q195 13 312.5 120.5t117.5 270.5q0 126 -82 198.5t-207 72.5 q-58 0 -102.5 -22t-66.5 -46.5t-50 -67.5q-1 -1 -12.5 -19.5t-13 -21t-12.5 -18t-14.5 -19t-14 -15.5t-16.5 -15t-17.5 -10.5t-21 -9.5t-22 -4.5t-26.5 -2.5q-60 0 -96.5 36.5t-36.5 86.5zM272 121q0 63 40.5 105t103.5 42t106 -42t43 -105q0 -59 -43.5 -103.5t-105.5 -44.5 t-103 44t-41 104z" />
<glyph unicode="@" horiz-adv-x="1996" d="M98 473q0 238 72.5 445.5t198.5 355t304 231.5t382 84q177 0 331.5 -56.5t268.5 -159t180 -255t66 -334.5q0 -164 -47.5 -304t-144 -230t-224.5 -90q-81 0 -148.5 43t-99.5 110q-69 -69 -153 -114t-169 -45q-142 0 -252 123t-110 303q0 115 41 220.5t108.5 180t157 118.5 t184.5 44q72 0 134 -24.5t100 -61.5l113 86h26v-735q0 -54 42 -90.5t100 -36.5q42 0 83.5 39t74 104.5t53 159.5t20.5 198q0 217 -96 381t-262 249t-377 85q-164 0 -299.5 -54t-225.5 -142.5t-151.5 -206t-89 -242t-27.5 -252.5q0 -371 214 -592t566 -221q325 0 600 231 l19 -20q-38 -67 -105.5 -131t-157.5 -117.5t-209 -86t-245 -32.5q-175 0 -329.5 59.5t-269 166.5t-181 266.5t-66.5 349.5zM741 649q2 -157 71 -253.5t192 -96.5q125 0 227 111v436q0 95 -48 154.5t-128 58.5q-142 1 -228 -118t-86 -292z" />
<glyph unicode="A" d="M0 0v37q55 20 113.5 85.5t95.5 156.5l502 1267h71l512 -1263q47 -115 92 -169t103 -77v-37h-508v37q113 44 113 146q0 45 -23 102l-98 245h-551l-94 -249q-13 -29 -13 -57q-1 -9 1 -17q6 -35 18.5 -61t37.5 -48t48.5 -36t50.5 -25v-37h-471zM461 633h473l-244 612z" />
<glyph unicode="B" horiz-adv-x="1462" d="M96 20v35q72 25 114 82t42 129v1004q0 72 -42 128t-114 81v37q323 40 563 40q277 0 431.5 -88t154.5 -235q0 -73 -32.5 -136.5t-88.5 -109t-125 -77t-149 -48.5q101 -18 190 -53t162.5 -88t116.5 -129t43 -166q0 -202 -176 -324t-490 -122q-254 0 -600 40zM461 264 q0 -196 270 -196q171 0 280 98t109 266q0 183 -121 282t-335 99h-203v-549zM461 909h203q167 0 266.5 77.5t99.5 215.5q0 122 -93 192t-237 70q-239 0 -239 -194v-361z" />
<glyph unicode="C" horiz-adv-x="1433" d="M106 741q0 171 61.5 324t167 263t253 174.5t313.5 64.5q199 0 436 -90l-155 -398h-35q-35 175 -134.5 266t-246.5 91q-203 0 -326 -157.5t-123 -414.5q0 -200 67 -358t194.5 -249t295.5 -91q151 0 266 80t191 227l37 -16q-54 -220 -213.5 -354t-368.5 -134 q-135 0 -259 57.5t-217 157.5t-148.5 245.5t-55.5 311.5z" />
<glyph unicode="D" horiz-adv-x="1605" d="M96 20v37q72 23 114 86.5t42 145.5v979q0 72 -42 129t-114 82v37q261 40 516 40q208 0 375.5 -59t279.5 -164.5t172 -253t60 -323.5q0 -164 -46.5 -296.5t-126 -220.5t-190.5 -147.5t-235 -85.5t-264 -26q-228 0 -541 40zM461 285q0 -102 54.5 -155.5t158.5 -53.5 q148 0 254.5 35t182 112t112.5 203t37 305q0 346 -155.5 535.5t-445.5 189.5q-103 0 -150.5 -44.5t-47.5 -141.5v-985z" />
<glyph unicode="E" horiz-adv-x="1449" d="M96 0v37q72 12 114 74.5t42 156.5v1000q0 96 -42 159t-114 72v37h975q78 0 125 37h29l80 -424l-33 -4q-85 168 -220 233.5t-360 65.5q-106 0 -168.5 -47t-62.5 -125v-385h381q117 0 187.5 33t100.5 120h29v-417h-29q-78 161 -286 161h-383v-510q0 -83 62.5 -132.5 t168.5 -49.5q235 0 387 73.5t256 254.5l29 -2l-117 -455h-35q-25 22 -50 29.5t-66 7.5h-1000z" />
<glyph unicode="F" horiz-adv-x="1355" d="M96 0v37q72 12 114 74.5t42 156.5v1000q0 96 -42 159t-114 72v37h955q78 0 125 37h26l82 -424l-33 -4q-43 85 -97 144t-119 92.5t-135 48t-155 14.5q-284 0 -284 -176v-383h360q116 0 187.5 34t101.5 121h29v-417h-29q-80 159 -287 159h-362v-514q0 -94 42.5 -156.5 t114.5 -74.5v-37h-522z" />
<glyph unicode="G" horiz-adv-x="1591" d="M106 756q0 239 92 421.5t269.5 286t417.5 103.5q91 0 189.5 -17t150.5 -31.5t135 -41.5l-133 -336h-27q-30 154 -134.5 236.5t-262.5 82.5q-457 0 -457 -690q0 -350 132 -522t368 -172q135 0 212 52t77 140v365q0 94 -43 157.5t-115 73.5v37h522v-37q-72 -10 -114 -73.5 t-42 -157.5v-365q0 -90 30.5 -147t82.5 -64v-37q-259 -40 -571 -40q-160 0 -297.5 46t-246.5 137.5t-172 243.5t-63 349z" />
<glyph unicode="H" horiz-adv-x="1648" d="M96 0v37q72 10 114 73t42 158v1000q0 95 -42 158t-114 73v37h520v-37q-70 -10 -112.5 -73.5t-42.5 -157.5v-307h725v307q0 94 -42 157.5t-112 73.5v37h520v-37q-72 -10 -114.5 -73t-42.5 -158v-1000q0 -96 42.5 -159t114.5 -72v-37h-520v37q70 11 112 73.5t42 157.5v590 h-725v-590q0 -95 42.5 -158.5t112.5 -72.5v-37h-520z" />
<glyph unicode="I" horiz-adv-x="714" d="M96 0v37q72 10 114 73t42 158v1000q0 95 -42 158t-114 73v37h522v-37q-72 -10 -114.5 -73t-42.5 -158v-1000q0 -96 42.5 -159t114.5 -72v-37h-522z" />
<glyph unicode="J" horiz-adv-x="1034" d="M-2 168q0 50 36.5 87.5t96.5 37.5q31 0 55 -9.5t42.5 -29t29 -36t25.5 -44.5q37 -67 57 -86q33 -33 80 -33q80 0 137 86.5t57 249.5v877q0 95 -42.5 158.5t-112.5 72.5v37h499v-37q-62 -6 -98.5 -69t-36.5 -162v-877q0 -137 -64 -234t-168 -142.5t-235 -45.5 q-173 0 -265.5 60t-92.5 139z" />
<glyph unicode="K" horiz-adv-x="1576" d="M96 0v37q72 10 114 73t42 158v1000q0 95 -42 158t-114 73v37h520v-37q-70 -10 -112.5 -73.5t-42.5 -157.5v-504l540 530q55 51 55 102q0 9 -2 19q-12 60 -102 84v37h506v-37q-96 -30 -181.5 -95t-197.5 -173l-252 -246l510 -758q49 -75 95.5 -121t111.5 -67v-39h-483v39 q84 27 84 84q0 35 -31 80l-440 631l-213 -207v-359q0 -95 42.5 -158.5t112.5 -72.5v-37h-520z" />
<glyph unicode="L" horiz-adv-x="1271" d="M96 0v37q72 12 114 74.5t42 156.5v1000q0 96 -42 159t-114 72v37h520v-37q-70 -10 -112.5 -73.5t-42.5 -157.5v-1000q0 -80 51 -128t137 -48q202 0 330.5 74t230.5 254l29 -2l-117 -455h-37q-24 22 -48.5 29.5t-65.5 7.5h-875z" />
<glyph unicode="M" horiz-adv-x="2091" d="M66 0v37q62 25 106.5 84.5t56.5 132.5l179 1046q2 13 2 26q0 51 -32 94q-40 54 -114 79v37h383l391 -1151l426 1151h371v-37q-75 -25 -113 -80q-30 -43 -30 -92q0 -14 2 -29l178 -1091q7 -52 49 -98.5t104 -71.5v-37h-497v37q69 28 105 74q29 38 29 78q0 9 -1 18 l-172 1065l-477 -1292h-56l-446 1304l-170 -1030q-3 -19 -3 -36q0 -52 26 -96q35 -59 104 -85v-37h-401z" />
<glyph unicode="N" horiz-adv-x="1562" d="M90 0v37q74 14 118 82.5t44 169.5v999q0 80 -42 138t-112 73v37h334l811 -1122v833q0 102 -44 171t-116 81v37h412v-37q-66 -10 -104.5 -78.5t-38.5 -173.5v-1288h-35l-959 1323v-993q0 -101 45.5 -169.5t120.5 -82.5v-37h-434z" />
<glyph unicode="O" horiz-adv-x="1609" d="M106 768q0 166 54.5 314.5t147.5 254.5t223 168t276 62q194 0 353.5 -104.5t251 -288t91.5 -406.5t-93 -406.5t-252.5 -288t-350.5 -104.5q-142 0 -271.5 62t-224 168t-150 254.5t-55.5 314.5zM348 768q0 -200 51 -355t156.5 -248t251.5 -93q145 0 249.5 93t155 248 t50.5 355q0 150 -28 275t-82.5 220t-142.5 148t-202 53t-202.5 -53.5t-144 -148.5t-84 -220t-28.5 -274z" />
<glyph unicode="P" horiz-adv-x="1431" d="M96 0v37q72 9 114 72t42 159v989q0 91 -42 151.5t-114 70.5v37q331 40 643 40q275 0 449 -137.5t174 -355.5q0 -133 -54.5 -237.5t-148 -168.5t-212 -97.5t-253.5 -33.5q-97 0 -233 31v-289q0 -92 42.5 -155.5t112.5 -75.5v-37h-520zM461 651q126 -22 217 -22 q222 0 335 100t113 287q0 198 -122.5 323t-301.5 125q-114 0 -177.5 -51t-63.5 -145v-617z" />
<glyph unicode="Q" horiz-adv-x="1589" d="M106 768q0 166 54.5 314.5t147.5 254.5t223 168t276 62q194 0 353.5 -104.5t251 -288t91.5 -406.5q0 -222 -93 -405.5t-251 -286.5q120 -193 244 -328l-19 -18q-197 108 -362 276q-101 -37 -215 -37q-142 0 -271.5 62t-224 168t-150 254.5t-55.5 314.5zM348 768 q0 -200 51 -355t156.5 -248t251.5 -93q73 0 135 24q-97 114 -184 269h241q61 -121 91 -170q84 93 128 241.5t44 331.5q0 150 -28 275t-82.5 220t-142.5 148t-202 53t-202.5 -53.5t-144 -148.5t-84 -220t-28.5 -274z" />
<glyph unicode="R" horiz-adv-x="1425" d="M96 0v37q72 9 114 72t42 159v989q0 91 -42 151.5t-114 70.5v37q261 40 570 40q282 0 448 -127t166 -339q0 -188 -121.5 -307.5t-310.5 -157.5q99 -202 282.5 -408t362.5 -336l-14 -28q-279 85 -503 281t-360 476q-69 5 -155 23v-365q0 -92 42.5 -155.5t112.5 -75.5v-37 h-520zM461 719q92 -14 178 -14q200 0 302.5 91.5t102.5 260.5q0 180 -103.5 293.5t-252.5 113.5q-99 0 -163 -52t-64 -144v-549z" />
<glyph unicode="S" horiz-adv-x="1366" d="M63 98l160 357h35q34 -171 157.5 -271t307.5 -100q172 0 273.5 82t101.5 211q0 41 -12.5 76.5t-30.5 62.5t-51 52.5t-62.5 42.5t-77 36.5t-81.5 31.5t-89 30q-197 64 -271 99q-181 86 -228 221q-19 54 -19 118q0 187 149.5 303.5t389.5 116.5q239 0 475 -82l-107 -320 h-34q-37 136 -146.5 211.5t-265.5 75.5q-128 0 -215.5 -63t-87.5 -166q0 -51 22 -92.5t58 -71t89.5 -56t108 -46t121.5 -41.5q35 -11 53 -17q58 -19 100 -34.5t94 -39t89 -47.5t74.5 -58.5t60 -72.5t37 -88t14.5 -108q0 -140 -77 -250.5t-214.5 -171t-310.5 -60.5 q-139 0 -302 38.5t-288 90.5z" />
<glyph unicode="T" horiz-adv-x="1368" d="M33 1149l82 424h26q51 -37 127 -37h836q74 0 125 37h26l82 -424l-34 -4q-98 169 -178 234t-183 65q-151 0 -151 -113v-1063q0 -94 41.5 -156.5t113.5 -74.5v-37h-522v37q72 12 115 74.5t43 156.5v1063q0 113 -150 113q-104 0 -184.5 -65.5t-179.5 -233.5z" />
<glyph unicode="U" horiz-adv-x="1579" d="M76 1499v37h497v-37q-70 -10 -111.5 -73t-41.5 -158v-795q0 -182 108 -283t299 -106h7q175 0 287 98q114 100 114 291v754q0 109 -48 183t-128 89v37h444v-37q-70 -10 -111.5 -84.5t-41.5 -187.5v-754q0 -124 -43.5 -221.5t-120 -158.5t-176.5 -92.5t-217 -31.5 q-168 0 -298 56t-207 171.5t-77 276.5v795q0 98 -36.5 160.5t-98.5 70.5z" />
<glyph unicode="V" d="M0 1499v37h508v-37q-76 -29 -100 -99q-10 -30 -10 -63q0 -45 20 -96l377 -942l360 946q12 33 12 65q1 42 -21 82q-38 70 -134 107v37h477v-37q-58 -20 -114 -88.5t-95 -163.5l-502 -1257h-71l-512 1253q-42 99 -94 168t-101 88z" />
<glyph unicode="W" horiz-adv-x="2109" d="M0 1499v37h508v-37q-45 -18 -72 -49.5t-36 -84.5q-2 -13 -2 -28q0 -43 20 -96l309 -889l266 848l-14 43q-39 116 -86.5 174t-108.5 82v37h508v-37q-44 -18 -70.5 -49.5t-35.5 -84.5q-2 -14 -2 -29q0 -42 18 -95l295 -901l299 905q11 40 11 73q0 11 -1 21q-5 41 -30 73.5 t-53 53t-60 33.5v37h436v-37q-48 -18 -102 -89.5t-86 -162.5l-434 -1257h-74l-352 1040l-338 -1040h-74l-444 1253q-42 117 -89 174.5t-106 81.5z" />
<glyph unicode="X" d="M-6 0v37q52 7 128.5 77t151.5 179l351 504l-320 463q-72 103 -142 168t-114 71v37h549v-37q-57 -7 -82 -39q-18 -23 -18 -56q0 -13 2 -27q10 -52 55 -117l236 -340l221 342q50 76 50 132q0 15 -4 29q-17 64 -108 76v37h451v-37q-54 -7 -126 -73t-140 -169l-281 -430 l369 -532q77 -113 148.5 -183t113.5 -75v-37h-543v37q58 9 82 43q16 22 16 53q0 17 -5 37q-13 56 -62 125l-285 412l-289 -414q-63 -89 -63 -154q0 -11 2 -20q12 -70 106 -82v-37h-450z" />
<glyph unicode="Y" horiz-adv-x="1400" d="M-35 1499v37h578v-37q-91 -35 -116 -105q-8 -24 -8 -48q0 -50 34 -105l307 -496l297 500q23 38 23 75q0 34 -19 68q-39 70 -143 111v37h495v-37q-52 -20 -115.5 -88.5t-119.5 -163.5l-373 -631v-348q0 -96 41.5 -159t111.5 -72v-37h-520v37q72 11 115 73.5t43 157.5v342 l-387 631q-61 98 -126.5 168t-117.5 90z" />
<glyph unicode="Z" horiz-adv-x="1363" d="M80 0v39l895 1395h-350q-148 0 -261.5 -61t-230.5 -189l-24 6l79 383h29q32 -37 141 -37h902v-37l-895 -1397h366q176 0 305 70.5t240 208.5l33 -4l-119 -434h-33q-54 57 -156 57h-921z" />
<glyph unicode="[" horiz-adv-x="786" d="M188 -225v1863h496v-92h-303v-1679h303v-92h-496z" />
<glyph unicode="\" horiz-adv-x="890" d="M119 1536h110l543 -1751h-110z" />
<glyph unicode="]" horiz-adv-x="786" d="M102 -133h306v1681h-306v90h496v-1863h-496v92z" />
<glyph unicode="^" horiz-adv-x="1112" d="M231 1169l230 355q32 46 97.5 44.5t94.5 -44.5l236 -355l-19 -12l-307 221h-12l-301 -221z" />
<glyph unicode="_" horiz-adv-x="1110" d="M86 -127h938v-123h-938v123z" />
<glyph unicode="`" horiz-adv-x="1409" d="M452 1546.5q-1 38.5 31 65.5q21 19 46.5 20t46.5 -10.5t40 -32.5q34 -37 93 -148.5t120 -203.5l-22 -20q-79 66 -185.5 143.5t-138.5 112.5q-30 35 -31 73.5z" />
<glyph unicode="a" horiz-adv-x="1169" d="M96 221q0 160 170.5 274t483.5 136v235q0 60 -38.5 97.5t-117.5 37.5q-63 0 -104 -26t-61 -62.5t-37 -73.5t-47 -63t-77 -26q-43 0 -70.5 26.5t-27.5 69.5q0 91 131.5 164t329.5 73q146 0 231.5 -54t85.5 -161v-688q0 -38 22 -60t56 -22q59 0 107 45l20 -24 q-30 -64 -91.5 -103t-127.5 -39q-74 0 -129 45t-55 132q-168 -183 -363 -183q-126 0 -208.5 70.5t-82.5 179.5zM305 291q0 -79 46 -126.5t120 -47.5q77 0 152 31t127 79v330q-236 -31 -340.5 -96.5t-104.5 -169.5z" />
<glyph unicode="b" horiz-adv-x="1255" d="M76 1436v37q167 41 289 157h30v-649q0 -57 -2 -84l4 -2q57 75 155 132.5t198 57.5q76 0 149.5 -36t130 -97.5t91 -151.5t34.5 -190q0 -173 -72.5 -317.5t-199 -227.5t-277.5 -83q-67 0 -140.5 24t-121.5 72l-113 -98h-30v1241q0 102 -28.5 151t-96.5 64zM397 311 q-1 -106 59 -172q59 -65 157 -65h3h2q148 0 238 130q90 132 90 328q-2 174 -80 283t-215 109q-140 0 -254 -123v-490z" />
<glyph unicode="c" horiz-adv-x="1038" d="M96 494q0 162 70.5 297t197.5 214.5t285 79.5q156 0 305 -49l-118 -307h-37q-13 119 -79.5 182.5t-162.5 63.5q-127 0 -205 -100.5t-78 -262.5q0 -224 100 -355.5t263 -131.5q95 0 177 59.5t126 155.5l33 -16q-31 -169 -152 -262t-276 -93q-81 0 -161 37.5t-144 103.5 t-104 167t-40 217z" />
<glyph unicode="d" horiz-adv-x="1265" d="M100 446q0 173 75.5 318t206.5 228t288 83q90 0 186 -35v181q0 98 -40 148.5t-116 66.5v37q203 48 326 157h29v-1292q0 -102 29.5 -151t97.5 -64v-27q-182 -47 -295 -137h-29v117q0 57 2 84l-4 2q-59 -76 -155.5 -133.5t-194.5 -57.5q-76 0 -149.5 36t-130.5 97.5 t-91.5 151.5t-34.5 190zM311 524q2 -174 79 -282.5t214 -108.5q141 0 252 123v487q0 107 -53 173q-52 66 -141 65h-2.5h-2.5q-156 1 -251 -131t-95 -326z" />
<glyph unicode="e" horiz-adv-x="1103" d="M96 496q0 160 65.5 295t182 214.5t258.5 79.5q177 0 292.5 -120t115.5 -312v-55h-738v-6q0 -114 30.5 -205.5t83.5 -148t120.5 -86t144.5 -29.5q96 0 176.5 46t133.5 130l32 -18q-40 -139 -161.5 -225.5t-260.5 -86.5q-72 0 -140 21t-129 64.5t-107 105t-72.5 148.5 t-26.5 188zM279 690h530q0 124 -71 208.5t-183 84.5q-99 0 -176.5 -74.5t-99.5 -218.5z" />
<glyph unicode="f" horiz-adv-x="770" d="M82 963v92h180v202q0 111 50 196.5t126.5 128t163.5 42.5q90 0 157.5 -44t67.5 -114q0 -41 -26 -68.5t-70 -27.5q-39 0 -67 22.5t-42.5 49t-41 49t-62.5 22.5q-52 0 -87.5 -48t-35.5 -160q0 -100 27 -175t74 -75h200v-92h-235v-727q0 -77 42 -133.5t99 -65.5v-37h-481v37 q62 12 101.5 68t39.5 133v725h-180z" />
<glyph unicode="g" horiz-adv-x="1155" d="M49 -160q0 91 108 162.5t265 93.5q-155 50 -197 137v27q145 76 215 146q-142 23 -235.5 116.5t-93.5 216.5q0 90 54.5 168t148.5 125t204 47q178 0 301 -110q45 62 109 100.5t125 38.5q51 0 82.5 -28.5t31.5 -75.5q0 -40 -28 -69.5t-66 -29.5t-77 32t-60 32 q-32 0 -74 -45q68 -84 68 -185q0 -140 -120.5 -240t-287.5 -100q-59 -48 -59 -86q0 -25 35 -44.5t90.5 -35.5t122.5 -33.5t134.5 -42.5t123 -57t90.5 -84t35 -118q0 -101 -76.5 -179.5t-199 -118.5t-265.5 -40q-84 0 -168.5 16t-162 47.5t-125.5 88t-48 128.5zM223 -145 q0 -91 103 -148q95 -53 241 -53h21q145 0 241.5 54.5t96.5 127.5q0 21 -6.5 39.5t-15 33t-26.5 29t-32.5 24.5t-42 21t-45.5 18t-51.5 16.5t-52.5 14.5t-57 14.5t-56 14.5q-318 -38 -318 -206zM303 739q0 -117 56.5 -184.5t158.5 -67.5q106 0 162.5 67.5t56.5 184.5 q0 121 -54 186.5t-165 65.5q-106 0 -160.5 -66.5t-54.5 -185.5z" />
<glyph unicode="h" horiz-adv-x="1312" d="M84 1436v37q186 47 305 157h29v-649q0 -96 -4 -166l4 -2q100 107 235.5 189.5t247.5 82.5q101 0 157 -69.5t56 -186.5v-581q0 -88 30 -143t85 -68v-37h-447v37q68 29 99.5 77t31.5 132v489q0 167 -131 170h-9q-137 0 -355 -166v-493q0 -82 33.5 -130.5t97.5 -78.5v-37 h-457v37q61 15 94 69.5t33 141.5v973q0 103 -30.5 151.5t-104.5 63.5z" />
<glyph unicode="i" horiz-adv-x="641" d="M96 903v37q185 47 305 158h29v-852q0 -86 33.5 -141t91.5 -70v-35h-457v35q62 15 97.5 69.5t35.5 141.5v442q0 90 -28.5 145.5t-106.5 69.5zM184 1425q0 59 37 99.5t92 40.5q57 0 95 -40.5t38 -99.5q0 -58 -38.5 -98.5t-94.5 -40.5q-55 0 -92 40.5t-37 98.5z" />
<glyph unicode="j" horiz-adv-x="620" d="M-113 -272q0 45 26.5 74.5t68.5 29.5q35 0 64 -21.5t45.5 -47t42 -47t56.5 -21.5q43 0 69 37.5t26 101.5q0 116 -64 215v639q0 90 -28.5 145.5t-106.5 69.5v37q185 47 305 158h29v-1172q0 -158 -94.5 -262t-216.5 -104q-87 0 -154.5 47t-67.5 121zM174 1425q0 59 37 99.5 t92 40.5q57 0 95 -40.5t38 -99.5q0 -58 -38.5 -98.5t-94.5 -40.5q-55 0 -92 40.5t-37 98.5z" />
<glyph unicode="k" horiz-adv-x="1198" d="M84 1436v37q186 47 305 157h29v-1079l299 293q39 38 43 73q1 6 1 11q0 28 -19 48q-23 24 -66 42v37h420v-37q-58 -19 -121 -66.5t-154 -134.5l-153 -149l315 -441q133 -181 186 -190v-37h-436v37q69 10 69 69q0 52 -52 121l-224 308l-108 -107v-182q0 -85 33.5 -139.5 t91.5 -69.5v-37h-437v37q54 14 83.5 68.5t29.5 142.5v973q0 103 -30.5 151.5t-104.5 63.5z" />
<glyph unicode="l" horiz-adv-x="628" d="M84 1436v37q186 47 305 157h29v-1382q0 -86 33.5 -141t91.5 -70v-37h-437v37q54 14 83.5 68.5t29.5 142.5v973q0 89 -29 144t-106 71z" />
<glyph unicode="m" horiz-adv-x="1947" d="M96 0v37q64 18 99.5 71.5t35.5 139.5v440q0 103 -30.5 151.5t-104.5 63.5v37q185 47 305 158h29v-117q0 -96 -4 -166l4 -2q102 109 221.5 190.5t218.5 81.5q104 0 160.5 -69t56.5 -187v-16q99 108 222.5 190t224.5 82t157 -69.5t56 -186.5v-581q0 -88 30 -143t85 -68v-37 h-443v37q67 29 98 77t31 132v489q0 167 -131 170h-8q-55 1 -127 -37q-78 -40 -195 -129v-491q0 -87 30.5 -142t84.5 -69v-37h-442v37q67 29 98 77t31 132v489q0 167 -135 170h-8q-53 1 -123 -37q-76 -40 -193 -129v-493q0 -82 33.5 -130.5t97.5 -78.5v-37h-465z" />
<glyph unicode="n" horiz-adv-x="1327" d="M96 0v37q64 18 99.5 71.5t35.5 139.5v440q0 103 -30.5 151.5t-104.5 63.5v37q185 47 305 158h29v-117q0 -96 -4 -166l4 -2q100 108 234 190t249 82q101 0 157 -69.5t56 -186.5v-581q0 -88 30 -143t85 -68v-37h-442v37q67 29 98 77t31 132v489q0 84 -31.5 126.5 t-99.5 43.5h-9q-135 0 -358 -166v-493q0 -82 33.5 -130.5t97.5 -78.5v-37h-465z" />
<glyph unicode="o" horiz-adv-x="1214" d="M96 530q0 238 147 396.5t363 158.5q218 0 365 -157.5t147 -397.5q0 -158 -69.5 -287.5t-187 -201.5t-255.5 -72q-139 0 -256 72.5t-185.5 201.5t-68.5 287zM313 530q0 -209 77.5 -339t215.5 -130q139 0 218 130t79 339q0 210 -76 336.5t-221 126.5q-142 0 -217.5 -126.5 t-75.5 -336.5z" />
<glyph unicode="p" horiz-adv-x="1265" d="M86 903v37q185 47 305 158h17v-117q0 -57 -2 -84l4 -2q59 76 155.5 133t194.5 57q76 0 149.5 -36t130 -97.5t91 -151.5t34.5 -190q0 -173 -75 -317.5t-206 -227.5t-288 -83q-92 0 -186 34v-180q0 -96 34 -144.5t97 -64.5v-37h-449v37q119 30 119 209v852q0 102 -29 151 t-96 64zM410 313q0 -106 52 -172q52 -65 141 -65h3h2q157 0 251 130q95 131 95 326q-2 174 -78.5 283t-213.5 109q-141 0 -252 -123v-488z" />
<glyph unicode="q" horiz-adv-x="1265" d="M100 446q0 171 77 317t203.5 229t268.5 83q81 0 149 -27t111 -69l125 96h31v-1241q0 -179 121 -209v-37h-459v37q63 16 97 64.5t34 144.5v242q0 57 2 84l-4 2q-59 -76 -155.5 -133.5t-194.5 -57.5q-76 0 -149.5 36t-130.5 97.5t-91.5 151.5t-34.5 190zM311 524 q2 -174 79 -282.5t214 -108.5q141 0 252 123v487q0 106 -53 173q-52 65 -141 65h-3h-2q-157 0 -251 -131q-95 -133 -95 -326z" />
<glyph unicode="r" horiz-adv-x="890" d="M96 0v37q135 44 135 211v440q0 102 -31 151t-104 64v37q185 47 305 158h29v-117q0 -61 -6 -88l6 -2q154 194 291 194q58 0 97.5 -38.5t39.5 -96.5q0 -56 -34 -92.5t-76 -36.5q-29 0 -54.5 13.5t-41 29.5t-39 29.5t-50.5 13.5q-31 0 -57.5 -17t-75.5 -61v-581 q0 -78 36 -132t101 -79v-37h-471z" />
<glyph unicode="s" horiz-adv-x="1040" d="M76 53l117 283h24q14 -87 71 -148.5t130.5 -87.5t154.5 -26q97 0 163.5 51t66.5 121q0 35 -15.5 63t-41 48t-62.5 37t-76.5 29.5t-86.5 26.5q-17 5 -25 7q-62 19 -102 33.5t-91 41.5t-81 57.5t-51 78t-21 106.5q0 133 111 222t298 89q71 0 161.5 -17t153.5 -44l-77 -256 h-29q-28 101 -111.5 161t-179.5 60q-85 0 -138.5 -41.5t-53.5 -103.5q0 -20 5 -37t17.5 -32t24.5 -27t35 -23.5l39 -19.5t47 -18.5t48.5 -16.5t53.5 -17t53 -16q57 -18 98 -35t87.5 -44.5t75 -59.5t48 -79t19.5 -104q0 -147 -129 -245.5t-328 -98.5q-190 0 -403 82z" />
<glyph unicode="t" horiz-adv-x="815" d="M33 963v41q100 65 173 143.5t171 206.5h31v-299h331v-92h-331v-709q0 -62 36 -97.5t97 -35.5q93 0 202 76l29 -37q-62 -87 -150.5 -139t-187.5 -52q-90 0 -157.5 54t-67.5 143v797h-176z" />
<glyph unicode="u" horiz-adv-x="1284" d="M86 903v37q166 40 293 158h20v-776q0 -90 31 -135t100 -46h9q61 1 136 39q81 42 199 137v351q0 47 -5 83.5t-18 70t-38 54.5t-63 27v37q176 47 301 158h22v-750q0 -102 28.5 -151t96.5 -64v-37q-183 -48 -293 -137h-31v117q0 78 5 166l-5 2q-101 -110 -226.5 -191.5 t-233.5 -81.5q-101 0 -157 69.5t-56 186.5v461q0 87 -24.5 141t-90.5 74z" />
<glyph unicode="v" horiz-adv-x="1124" d="M-10 1028v27h479v-27q-79 -22 -101 -80q-7 -20 -7 -44q0 -47 28 -109l236 -506l219 506q22 57 22 102q0 32 -10 58q-26 63 -94 73v27h373v-27q-74 -19 -172 -229l-377 -819h-39l-383 817q-61 128 -93 174t-81 57z" />
<glyph unicode="w" horiz-adv-x="1634" d="M-6 1028v27h446v-27q-66 -18 -82 -76q-5 -17 -5 -37q0 -49 28 -120l207 -492l178 459l-14 35q-74 187 -152 231v27h426v-27q-61 -18 -78 -78q-6 -20 -6 -43q0 -48 23 -112l192 -500l193 500q20 57 20 102q0 33 -11 59q-25 62 -91 72v27h372v-27q-46 -20 -91.5 -82 t-80.5 -147l-346 -819h-39l-258 634l-268 -634h-37l-352 817q-50 115 -86 163t-88 68z" />
<glyph unicode="x" horiz-adv-x="1196" d="M47 0v27q47 16 107.5 69.5t101.5 106.5l236 315l-256 344q-99 137 -175 166v27h445v-27q-66 -20 -66 -69q0 -39 43 -97l146 -196l137 198q33 49 33 85q0 55 -78 79v27h364v-27q-53 -17 -105.5 -64.5t-90.5 -101.5l-199 -280l279 -377q70 -93 104.5 -128.5t75.5 -49.5v-27 h-438v27q49 18 55 63q1 5 1 10q0 43 -44 105l-172 231l-170 -233q-30 -42 -30 -83q0 -12 2 -23q11 -52 61 -70v-27h-367z" />
<glyph unicode="y" horiz-adv-x="1126" d="M-10 1028v27h477v-27q-105 -50 -105 -138q0 -43 25 -95l238 -502l219 502q18 48 18 89q0 30 -10 56q-24 62 -90 88v27h373v-27q-86 -46 -172 -229l-412 -908q-79 -177 -162.5 -255t-191.5 -78q-66 0 -119 41t-53 102q0 53 35 86t83 33q32 0 58 -17t39.5 -37.5t31 -37.5 t35.5 -17q12 0 23 4.5t22 14t19.5 18.5t19 26.5t17 29t17 33.5t15.5 33.5t16 36.5t15 34l45 104l-352 752q-50 105 -86.5 155.5t-87.5 75.5z" />
<glyph unicode="z" horiz-adv-x="1075" d="M82 0v37l612 926h-198q-111 0 -184 -48t-165 -174l-30 7l73 376h29q41 -36 80.5 -52.5t97.5 -16.5h566v-37l-613 -926h314q105 0 178.5 49t146.5 168l29 -2l-74 -377h-35q-41 37 -77 53.5t-95 16.5h-655z" />
<glyph unicode="{" horiz-adv-x="759" d="M137 676v90q130 13 205.5 61t75.5 105q0 33 -28 72t-68 78.5t-79.5 82t-67.5 96.5t-28 109q0 117 100 192.5t253 75.5h157v-92h-155q-77 0 -127.5 -34.5t-50.5 -86.5q0 -30 25 -72t60 -86.5t70.5 -91.5t60.5 -100t25 -98q0 -82 -57.5 -143t-163.5 -95v-6 q130 -39 175.5 -100.5t45.5 -167.5q0 -47 -25 -103t-60.5 -106.5t-70.5 -98t-60 -93t-25 -76.5q0 -52 50.5 -86.5t127.5 -34.5h155v-92h-157q-153 0 -253 75.5t-100 192.5q0 58 28 120t67.5 113.5t79.5 99.5t68 93.5t28 79.5q0 51 -67.5 87t-213.5 40z" />
<glyph unicode="|" horiz-adv-x="890" d="M391 -215v1751h109v-1751h-109z" />
<glyph unicode="}" horiz-adv-x="759" d="M102 -133h156q77 0 127.5 34.5t50.5 86.5q0 31 -25 76.5t-60 93t-70.5 98t-60.5 106.5t-25 103q0 106 45.5 167.5t175.5 100.5v6q-106 34 -163.5 95t-57.5 143q0 45 25 98t60.5 100t70.5 91.5t60 86.5t25 72q0 52 -50.5 86.5t-127.5 34.5h-156v92h158q153 0 252.5 -75.5 t99.5 -192.5q0 -55 -28 -109t-67.5 -96.5t-79 -82t-67.5 -78.5t-28 -72q0 -57 75.5 -105t205.5 -61v-90q-146 -4 -213.5 -40t-67.5 -87q0 -34 28 -79.5t67.5 -93.5t79 -99.5t67.5 -113.5t28 -120q0 -117 -99.5 -192.5t-252.5 -75.5h-158v92z" />
<glyph unicode="~" horiz-adv-x="1112" d="M262 662q10 133 59 202.5t128 69.5q39 0 78 -21.5t65 -47t57.5 -47t57.5 -21.5q41 0 73.5 33t44.5 94l25 -6q-10 -133 -59.5 -204t-128.5 -71q-39 0 -78.5 21t-65 46.5t-56.5 46.5t-56 21q-72 0 -119 -123z" />
<glyph unicode="&#xa1;" horiz-adv-x="821" d="M231 1016q0 59 44 103t106 44t102.5 -43.5t40.5 -103.5q0 -64 -40 -106t-103 -42t-106.5 42.5t-43.5 105.5zM248 -274q0 107 27 265t54 339.5t27 345.5h60q0 -165 27 -346.5t54 -339t27 -264.5q0 -81 -37.5 -139t-101.5 -58q-65 0 -101 57.5t-36 139.5z" />
<glyph unicode="&#xa2;" horiz-adv-x="1122" d="M117 729q0 212 116.5 375.5t303.5 214.5v217h94v-201q16 2 51 2q161 0 253.5 -73.5t92.5 -165.5q0 -50 -36.5 -86.5t-96.5 -36.5q-14 0 -26 3.5t-21 7.5t-19.5 14.5t-15.5 16t-14.5 21.5t-12.5 21.5t-13.5 26t-12.5 24.5q-18 35 -32 56t-40 43.5t-57 29.5v-868 q36 -4 57 -4q97 0 180.5 65t132.5 170l35 -18q-31 -172 -143.5 -272t-261.5 -113v-199h-94v201q-80 10 -155 52t-134 108t-95 162t-36 206zM311 858q0 -176 59.5 -294.5t166.5 -166.5v840q-104 -25 -165 -126.5t-61 -252.5z" />
<glyph unicode="&#xa3;" horiz-adv-x="1306" d="M41 236q0 118 77 189t199 71q117 0 230 -70q-13 56 -43 110.5t-89.5 137t-78.5 112.5h-199v103h139q-57 114 -57 231q0 109 41.5 195.5t111.5 140.5t159.5 82.5t189.5 28.5q112 0 204 -27t147.5 -71.5t85.5 -96.5t30 -106q0 -50 -36.5 -86.5t-96.5 -36.5q-15 0 -28 3 t-23 6t-20.5 12t-17 13.5t-14.5 18t-12 19t-11 23t-9.5 22.5t-9.5 25t-9 24q-13 38 -25 62.5t-33.5 51t-55.5 39.5t-80 13q-121 0 -199 -81.5t-78 -219.5q0 -104 78 -285h379v-103h-336q56 -122 85.5 -207.5t29.5 -156.5q0 -30 -4 -84q16 -15 65.5 -62t72 -65t63.5 -47 t78 -40t77 -11q60 0 107.5 49t76.5 131l33 -17q-22 -152 -99.5 -234.5t-197.5 -82.5q-103 0 -185 48t-157 130q-49 -77 -119.5 -117t-144.5 -40q-124 0 -207.5 69.5t-83.5 186.5zM160 236q0 -69 49.5 -114.5t122.5 -45.5q148 0 198 135q-85 100 -118 128q-64 56 -123 56 q-56 0 -92.5 -40.5t-36.5 -118.5z" />
<glyph unicode="&#xa5;" horiz-adv-x="1501" d="M-35 1499v37h578v-37q-91 -35 -116 -105.5t26 -152.5l307 -496l297 500q43 72 4 142.5t-143 111.5v37h495v-37q-52 -20 -115.5 -88.5t-119.5 -163.5l-369 -624h436v-72h-440v-133h440v-72h-440v-78q0 -96 41.5 -159t111.5 -72v-37h-520v37q72 11 115 73.5t43 157.5v78 h-340v72h340v133h-340v72h332l-379 618q-61 98 -126.5 168t-117.5 90z" />
<glyph unicode="&#xa6;" horiz-adv-x="890" d="M391 -215v737h109v-737h-109zM391 799v737h109v-737h-109z" />
<glyph unicode="&#xa7;" horiz-adv-x="1187" d="M68 618q0 180 174 312q-78 81 -78 211q0 82 29.5 156.5t83.5 132.5t136.5 92t182.5 34q97 0 174 -20.5t122.5 -54.5t69 -73.5t23.5 -80.5q0 -62 -33.5 -109t-87.5 -47q-67 0 -107 59.5t-46 155.5q-5 43 -30 61.5t-89 18.5q-109 0 -200 -63.5t-91 -147.5q-1 -76 42 -125 t113 -72.5t155 -38.5t170.5 -32t156 -44.5t114.5 -84.5t44 -143q0 -180 -174 -312q77 -80 77 -210q0 -82 -31.5 -156.5t-89 -132.5t-146 -92.5t-195.5 -34.5q-205 0 -314.5 69.5t-109.5 159.5q0 62 33 109t87 47q67 0 107.5 -59.5t48.5 -155.5q3 -43 35.5 -61.5t114.5 -18.5 q122 0 222.5 63.5t100.5 147.5q1 76 -42 125t-113 72.5t-155 38.5t-170 32t-155.5 44.5t-114.5 84.5t-44 143zM223 731q0 -61 43.5 -99t117 -56t153 -30.5t171 -36t150.5 -58.5q82 73 82 151q0 61 -43.5 99t-117 56.5t-153 31t-171 36t-150.5 58.5q-82 -73 -82 -152z" />
<glyph unicode="&#xa8;" horiz-adv-x="1409" d="M399 1425q0 59 37 99.5t92 40.5q57 0 95.5 -40.5t38.5 -99.5q0 -57 -38.5 -98t-95.5 -41q-55 0 -92 40.5t-37 98.5zM752 1425q0 59 37 99.5t92 40.5q57 0 95 -40.5t38 -99.5q0 -58 -38.5 -98.5t-94.5 -40.5q-55 0 -92 40.5t-37 98.5z" />
<glyph unicode="&#xa9;" horiz-adv-x="1804" d="M76 766q0 171 62 319.5t170 254.5t262.5 166.5t332.5 60.5t332 -60.5t263 -166.5t171 -254.5t62 -319.5q0 -227 -106 -409t-295.5 -285t-426.5 -103q-178 0 -332.5 60.5t-262.5 165.5t-170 253t-62 318zM156 766q0 -206 92.5 -373t264.5 -264.5t390 -97.5q163 0 302.5 57 t236.5 155t152 233.5t55 289.5q0 207 -93.5 375t-264.5 266t-388 98q-164 0 -304.5 -57t-237 -156t-151 -235t-54.5 -291zM397 735q0 171 78 312.5t214.5 223t301.5 81.5q153 0 326 -68l-117 -295h-26q-26 128 -101 196t-184 68q-152 0 -243 -116.5t-91 -309.5 q0 -228 113.5 -375t302.5 -147q223 0 340 232l28 -13q-40 -164 -159.5 -264t-274.5 -100q-101 0 -193.5 43t-162 117.5t-111 182.5t-41.5 232z" />
<glyph unicode="&#xab;" horiz-adv-x="1183" d="M190 446q-142 118 0 238l383 326l27 -23l-266 -418v-8l266 -416l-27 -20zM651 446q-142 118 0 238l383 326l27 -23l-264 -418v-8l264 -416l-27 -20z" />
<glyph unicode="&#xad;" horiz-adv-x="702" d="M86 528v123l530 82v-123z" />
<glyph unicode="&#xae;" horiz-adv-x="778" d="M53 1241q0 140 95.5 233t242.5 93q146 0 241 -93t95 -233t-95 -233t-241 -93q-147 0 -242.5 93t-95.5 233zM109 1241q0 -120 78 -202.5t204 -82.5q105 0 180 62q-134 50 -196 182q-37 5 -39 6v-90q0 -51 39 -57v-8h-129v8q39 6 39 57v242q0 22 -10.5 37t-28.5 16v10 q82 11 139 11q69 0 110.5 -32t41.5 -83q0 -45 -30 -75t-77 -38q24 -49 68.5 -99t83.5 -79q90 84 90 215q0 120 -78 202.5t-203 82.5q-126 0 -204 -82.5t-78 -202.5zM336 1227q32 -4 43 -4q100 0 100 86q0 43 -26 71.5t-62 28.5q-24 0 -39.5 -13t-15.5 -36v-133z" />
<glyph unicode="&#xaf;" horiz-adv-x="1409" d="M379 1290v103h655v-103h-655z" />
<glyph unicode="&#xb0;" horiz-adv-x="778" d="M94 1241q0 140 84 233t213 93q127 0 211 -93t84 -233t-84 -233t-211 -93q-129 0 -213 93t-84 233zM176 1241q0 -106 58.5 -180t156.5 -74q95 0 154 74.5t59 179.5t-59 179.5t-154 74.5q-98 0 -156.5 -74t-58.5 -180z" />
<glyph unicode="&#xb4;" horiz-adv-x="1409" d="M584 1237q61 92 120 203.5t93 148.5q19 21 40 32.5t46.5 10.5t46.5 -20q32 -27 31 -65.5t-31 -73.5q-32 -35 -138.5 -112.5t-185.5 -143.5z" />
<glyph unicode="&#xb6;" horiz-adv-x="1439" d="M78 1063q0 218 173.5 355.5t448.5 137.5q312 0 643 -40v-37q-72 -10 -113.5 -70.5t-41.5 -151.5v-1060q0 -137 -64 -234t-168 -142.5t-235 -45.5q-173 0 -266 59.5t-93 138.5q0 50 37 87.5t97 37.5q57 0 88.5 -29t60.5 -85q2 -3 10.5 -19t11.5 -20.5t11 -18t13 -18.5 t13.5 -15t16 -13.5t18 -9t21.5 -7.5t24 -2q80 0 137.5 86.5t57.5 249.5v360q-136 -31 -234 -31q-135 0 -253.5 33.5t-211.5 97.5t-147.5 168.5t-54.5 237.5z" />
<glyph unicode="&#xb7;" horiz-adv-x="673" d="M137 567q0 67 44.5 114.5t107.5 47.5t107 -47t44 -115q0 -65 -44 -112t-107 -47t-107.5 47t-44.5 112z" />
<glyph unicode="&#xb8;" horiz-adv-x="1409" d="M471 -348q0 33 20 57.5t56 24.5q34 0 59 -19.5t31 -50.5q4 -36 15 -47.5t34 -11.5q44 0 72 23t28 71q0 95 -139 106h-24l49 236l69 -6l-20 -119q93 -9 147 -53.5t54 -114.5q0 -86 -75 -147.5t-173 -61.5q-88 0 -145.5 32t-57.5 81z" />
<glyph unicode="&#xbb;" horiz-adv-x="1183" d="M123 145l264 416v8l-264 418l27 23l382 -326q142 -120 0 -238l-382 -321zM584 145l266 416v8l-266 418l26 23l383 -326q142 -120 0 -238l-383 -321z" />
<glyph unicode="&#xbf;" horiz-adv-x="1239" d="M127 31q0 89 38 173t106 150.5t169 110.5t219 53q38 3 57.5 19t16.5 47l-4 92h102l25 -246q4 -49 -29 -75t-94 -31q-195 -13 -312.5 -121t-117.5 -271q0 -125 81.5 -197.5t207.5 -72.5q44 0 79 10.5t61 32.5t42 41.5t37 50.5q46 73 70 96q43 39 100 39q60 0 96.5 -36 t36.5 -86q0 -93 -113.5 -166.5t-312.5 -73.5q-154 0 -283 60.5t-203.5 166.5t-74.5 234zM621 1016q0 59 43.5 103t105.5 44t102.5 -43.5t40.5 -103.5q0 -64 -40 -106t-103 -42t-106 42.5t-43 105.5z" />
<glyph unicode="&#xc0;" d="M0 0v37q55 20 113.5 85.5t95.5 156.5l502 1267h71l512 -1263q47 -115 92 -169t103 -77v-37h-508v37q163 64 90 248l-98 245h-551l-94 -249q-17 -39 -11.5 -74t18 -61t37.5 -48t48.5 -36t50.5 -25v-37h-471zM461 633h473l-244 612zM491 1976.5q-1 38.5 31 65.5 q21 19 46.5 20t46.5 -10.5t40 -32.5q34 -37 93 -148.5t120 -203.5l-22 -20q-79 66 -185.5 143.5t-138.5 112.5q-30 35 -31 73.5z" />
<glyph unicode="&#xc1;" d="M0 0v37q55 20 113.5 85.5t95.5 156.5l502 1267h71l512 -1263q47 -115 92 -169t103 -77v-37h-508v37q163 64 90 248l-98 245h-551l-94 -249q-17 -39 -11.5 -74t18 -61t37.5 -48t48.5 -36t50.5 -25v-37h-471zM461 633h473l-244 612zM623 1667q61 92 120 203.5t93 148.5 q19 21 40 32.5t46.5 10.5t46.5 -20q32 -27 31 -65.5t-31 -73.5q-32 -35 -138.5 -112.5t-185.5 -143.5z" />
<glyph unicode="&#xc2;" d="M0 0v37q55 20 113.5 85.5t95.5 156.5l502 1267h71l512 -1263q47 -115 92 -169t103 -77v-37h-508v37q163 64 90 248l-98 245h-551l-94 -249q-17 -39 -11.5 -74t18 -61t37.5 -48t48.5 -36t50.5 -25v-37h-471zM420 1657l229 354q32 46 98 44.5t95 -44.5l235 -354l-18 -12 l-307 221h-13l-301 -221zM461 633h473l-244 612z" />
<glyph unicode="&#xc3;" d="M0 0v37q55 20 113.5 85.5t95.5 156.5l502 1267h71l512 -1263q47 -115 92 -169t103 -77v-37h-508v37q163 64 90 248l-98 245h-551l-94 -249q-17 -39 -11.5 -74t18 -61t37.5 -48t48.5 -36t50.5 -25v-37h-471zM451 1706q10 133 58.5 202.5t127.5 69.5q39 0 78 -21.5t65 -47 t57.5 -47t57.5 -21.5q42 0 74.5 33t44.5 94l24 -6q-10 -133 -59.5 -203.5t-128.5 -70.5q-39 0 -78.5 21t-65 46.5t-56.5 46.5t-56 21q-72 0 -119 -123zM461 633h473l-244 612z" />
<glyph unicode="&#xc4;" d="M0 0v37q55 20 113.5 85.5t95.5 156.5l502 1267h71l512 -1263q47 -115 92 -169t103 -77v-37h-508v37q163 64 90 248l-98 245h-551l-94 -249q-17 -39 -11.5 -74t18 -61t37.5 -48t48.5 -36t50.5 -25v-37h-471zM438 1855q0 59 37 99.5t92 40.5q57 0 95 -40.5t38 -99.5 q0 -58 -38.5 -98.5t-94.5 -40.5q-55 0 -92 40.5t-37 98.5zM461 633h473l-244 612zM791 1855q0 59 37 99.5t92 40.5q57 0 95 -40.5t38 -99.5q0 -58 -38.5 -98.5t-94.5 -40.5q-55 0 -92 40.5t-37 98.5z" />
<glyph unicode="&#xc5;" d="M0 0v37q55 20 113.5 85.5t95.5 156.5l502 1267h71l512 -1263q47 -115 92 -169t103 -77v-37h-508v37q163 64 90 248l-98 245h-551l-94 -249q-17 -39 -11.5 -74t18 -61t37.5 -48t48.5 -36t50.5 -25v-37h-471zM461 633h473l-244 612zM485 1894q0 100 74.5 173t185.5 73 q109 0 184 -72.5t75 -173.5q0 -100 -76 -172.5t-183 -72.5t-183.5 73t-76.5 172zM635 1894q0 -182 110 -182q109 0 109 182q0 181 -109 181q-110 0 -110 -181z" />
<glyph unicode="&#xc6;" horiz-adv-x="2099" d="M-104 0v37q64 23 132.5 83t110.5 138l649 1190q-55 43 -124 51v37h1056q78 0 125 37h29l80 -424l-33 -4q-85 168 -220 233.5t-360 65.5q-106 0 -168.5 -47t-62.5 -125v-385h381q117 0 188 33t101 120h28v-417h-28q-78 161 -287 161h-383v-510q0 -83 62.5 -132.5 t168.5 -49.5q235 0 387.5 74t256.5 254l28 -2l-117 -455h-34q-25 22 -50.5 29.5t-66.5 7.5h-1000v37q72 12 114 74.5t42 156.5v181h-530l-101 -189q-14 -27 -15.5 -52.5t9 -47t26.5 -41t38.5 -35t44 -27t43.5 -20.5v-37h-520zM426 551h475v635q0 102 -41 176z" />
<glyph unicode="&#xc7;" horiz-adv-x="1433" d="M106 741q0 171 61.5 324t167 263t253 174.5t313.5 64.5q199 0 436 -90l-155 -398h-35q-35 175 -134.5 266t-246.5 91q-203 0 -326 -157.5t-123 -414.5q0 -200 67 -358t194.5 -249t295.5 -91q151 0 266 80t191 227l37 -16q-54 -220 -213.5 -354t-366.5 -134l-8 -53 q93 -9 147 -53.5t54 -114.5q0 -86 -75 -147.5t-173 -61.5q-88 0 -145.5 32t-57.5 81q0 33 20 57.5t56 24.5q34 0 59 -19.5t31 -50.5q4 -36 15 -47.5t34 -11.5q44 0 72.5 23t28.5 71q0 95 -139 106h-25l35 168q-124 14 -235.5 76.5t-194.5 161t-132 236.5t-49 294z" />
<glyph unicode="&#xc8;" horiz-adv-x="1449" d="M96 0v37q72 12 114 74.5t42 156.5v1000q0 96 -42 159t-114 72v37h975q78 0 125 37h29l80 -424l-33 -4q-85 168 -220 233.5t-360 65.5q-106 0 -168.5 -47t-62.5 -125v-385h381q117 0 187.5 33t100.5 120h29v-417h-29q-78 161 -286 161h-383v-510q0 -83 62.5 -132.5 t168.5 -49.5q235 0 387 73.5t256 254.5l29 -2l-117 -455h-35q-25 22 -50 29.5t-66 7.5h-1000zM471 1976.5q-1 38.5 31 65.5q21 19 46.5 20t46.5 -10.5t40 -32.5q34 -37 93 -148.5t120 -203.5l-23 -20q-78 65 -184.5 143t-138.5 113q-30 35 -31 73.5z" />
<glyph unicode="&#xc9;" horiz-adv-x="1449" d="M96 0v37q72 12 114 74.5t42 156.5v1000q0 96 -42 159t-114 72v37h975q78 0 125 37h29l80 -424l-33 -4q-85 168 -220 233.5t-360 65.5q-106 0 -168.5 -47t-62.5 -125v-385h381q117 0 187.5 33t100.5 120h29v-417h-29q-78 161 -286 161h-383v-510q0 -83 62.5 -132.5 t168.5 -49.5q235 0 387 73.5t256 254.5l29 -2l-117 -455h-35q-25 22 -50 29.5t-66 7.5h-1000zM602 1667q61 92 120 203.5t93 148.5q19 21 40 32.5t46.5 10.5t46.5 -20q32 -27 31 -65.5t-31 -73.5q-32 -35 -138.5 -113t-184.5 -143z" />
<glyph unicode="&#xca;" horiz-adv-x="1449" d="M96 0v37q72 12 114 74.5t42 156.5v1000q0 96 -42 159t-114 72v37h975q78 0 125 37h29l80 -424l-33 -4q-85 168 -220 233.5t-360 65.5q-106 0 -168.5 -47t-62.5 -125v-385h381q117 0 187.5 33t100.5 120h29v-417h-29q-78 161 -286 161h-383v-510q0 -83 62.5 -132.5 t168.5 -49.5q235 0 387 73.5t256 254.5l29 -2l-117 -455h-35q-25 22 -50 29.5t-66 7.5h-1000zM399 1657l230 354q32 46 97.5 44.5t94.5 -44.5l236 -354l-19 -12l-307 221h-12l-301 -221z" />
<glyph unicode="&#xcb;" horiz-adv-x="1449" d="M96 0v37q72 12 114 74.5t42 156.5v1000q0 96 -42 159t-114 72v37h975q78 0 125 37h29l80 -424l-33 -4q-85 168 -220 233.5t-360 65.5q-106 0 -168.5 -47t-62.5 -125v-385h381q117 0 187.5 33t100.5 120h29v-417h-29q-78 161 -286 161h-383v-510q0 -83 62.5 -132.5 t168.5 -49.5q235 0 387 73.5t256 254.5l29 -2l-117 -455h-35q-25 22 -50 29.5t-66 7.5h-1000zM418 1855q0 59 37 99.5t92 40.5q57 0 95 -40.5t38 -99.5q0 -58 -38.5 -98.5t-94.5 -40.5q-55 0 -92 40.5t-37 98.5zM770 1855q0 59 37 99.5t92 40.5q57 0 95 -40.5t38 -99.5 q0 -58 -38.5 -98.5t-94.5 -40.5q-55 0 -92 40.5t-37 98.5z" />
<glyph unicode="&#xcc;" horiz-adv-x="714" d="M96 0v37q72 10 114 73t42 158v1000q0 95 -42 158t-114 73v37h522v-37q-72 -10 -114.5 -73t-42.5 -158v-1000q0 -96 42.5 -159t114.5 -72v-37h-522zM104 1976.5q-1 38.5 31 65.5q21 19 46.5 20t46.5 -10.5t40 -32.5q32 -36 91.5 -147t121.5 -205l-22 -20 q-79 66 -185.5 143.5t-138.5 112.5q-30 35 -31 73.5z" />
<glyph unicode="&#xcd;" horiz-adv-x="714" d="M96 0v37q72 10 114 73t42 158v1000q0 95 -42 158t-114 73v37h522v-37q-72 -10 -114.5 -73t-42.5 -158v-1000q0 -96 42.5 -159t114.5 -72v-37h-522zM236 1667q50 77 92 153.5t67.5 122t53.5 76.5q19 21 40 32.5t46.5 10.5t46.5 -20q32 -27 31 -65.5t-31 -73.5 q-32 -34 -137 -110.5t-187 -145.5z" />
<glyph unicode="&#xce;" horiz-adv-x="714" d="M33 1657l229 354q32 46 98 44.5t95 -44.5l235 -354l-18 -12l-307 221h-13l-301 -221zM96 0v37q72 10 114 73t42 158v1000q0 95 -42 158t-114 73v37h522v-37q-72 -10 -114.5 -73t-42.5 -158v-1000q0 -96 42.5 -159t114.5 -72v-37h-522z" />
<glyph unicode="&#xcf;" horiz-adv-x="714" d="M51 1855q0 59 37 99.5t92 40.5q57 0 95 -40.5t38 -99.5q0 -58 -38.5 -98.5t-94.5 -40.5q-55 0 -92 40.5t-37 98.5zM96 0v37q72 10 114 73t42 158v1000q0 95 -42 158t-114 73v37h522v-37q-72 -10 -114.5 -73t-42.5 -158v-1000q0 -96 42.5 -159t114.5 -72v-37h-522z M403 1855q0 59 37 99.5t92 40.5q57 0 95.5 -40.5t38.5 -99.5q0 -57 -38.5 -98t-95.5 -41q-55 0 -92 40.5t-37 98.5z" />
<glyph unicode="&#xd0;" horiz-adv-x="1605" d="M47 858v103h205v307q0 72 -42 129t-114 82v37q261 40 516 40q208 0 375.5 -59t279.5 -164.5t172 -253t60 -323.5q0 -164 -46.5 -296.5t-126 -220.5t-190.5 -147.5t-235 -85.5t-264 -26q-228 0 -541 40v37q72 23 114 86.5t42 145.5v569h-205zM461 285q0 -102 54.5 -155.5 t158.5 -53.5q148 0 254.5 35t182 112t112.5 203t37 305q0 346 -155.5 535.5t-445.5 189.5q-103 0 -150.5 -44.5t-47.5 -141.5v-309h422v-103h-422v-573z" />
<glyph unicode="&#xd1;" horiz-adv-x="1562" d="M90 0v37q74 14 118 82.5t44 169.5v999q0 80 -42 138t-112 73v37h334l811 -1122v833q0 102 -44 171t-116 81v37h412v-37q-66 -10 -104.5 -78.5t-38.5 -173.5v-1288h-35l-959 1323v-993q0 -101 45.5 -169.5t120.5 -82.5v-37h-434zM487 1706q10 133 59 202.5t128 69.5 q39 0 78 -21.5t65 -47t57.5 -47t57.5 -21.5q42 0 74.5 33t44.5 94l24 -6q-10 -133 -59.5 -203.5t-128.5 -70.5q-39 0 -78.5 21t-65 46.5t-56.5 46.5t-56 21q-72 0 -119 -123z" />
<glyph unicode="&#xd2;" horiz-adv-x="1609" d="M106 768q0 166 54.5 314.5t147.5 254.5t223 168t276 62q194 0 353.5 -104.5t251 -288t91.5 -406.5t-93 -406.5t-252.5 -288t-350.5 -104.5q-142 0 -271.5 62t-224 168t-150 254.5t-55.5 314.5zM348 768q0 -200 51 -355t156.5 -248t251.5 -93q145 0 249.5 93t155 248 t50.5 355q0 150 -28 275t-82.5 220t-142.5 148t-202 53t-202.5 -53.5t-144 -148.5t-84 -220t-28.5 -274zM551 1976.5q-1 38.5 31 65.5q21 19 46.5 20t46.5 -10.5t40 -32.5q34 -37 93 -148.5t120 -203.5l-23 -20q-78 65 -184.5 143t-138.5 113q-30 35 -31 73.5z" />
<glyph unicode="&#xd3;" horiz-adv-x="1609" d="M106 768q0 166 54.5 314.5t147.5 254.5t223 168t276 62q194 0 353.5 -104.5t251 -288t91.5 -406.5t-93 -406.5t-252.5 -288t-350.5 -104.5q-142 0 -271.5 62t-224 168t-150 254.5t-55.5 314.5zM348 768q0 -200 51 -355t156.5 -248t251.5 -93q145 0 249.5 93t155 248 t50.5 355q0 150 -28 275t-82.5 220t-142.5 148t-202 53t-202.5 -53.5t-144 -148.5t-84 -220t-28.5 -274zM682 1667q61 92 120 203.5t93 148.5q19 21 40 32.5t46.5 10.5t46.5 -20q32 -27 31 -65.5t-31 -73.5q-32 -35 -138.5 -113t-184.5 -143z" />
<glyph unicode="&#xd4;" horiz-adv-x="1609" d="M106 768q0 166 54.5 314.5t147.5 254.5t223 168t276 62q194 0 353.5 -104.5t251 -288t91.5 -406.5t-93 -406.5t-252.5 -288t-350.5 -104.5q-142 0 -271.5 62t-224 168t-150 254.5t-55.5 314.5zM348 768q0 -200 51 -355t156.5 -248t251.5 -93q145 0 249.5 93t155 248 t50.5 355q0 150 -28 275t-82.5 220t-142.5 148t-202 53t-202.5 -53.5t-144 -148.5t-84 -220t-28.5 -274zM479 1657l230 354q32 46 97.5 44.5t94.5 -44.5l236 -354l-19 -12l-307 221h-12l-301 -221z" />
<glyph unicode="&#xd5;" horiz-adv-x="1609" d="M106 768q0 166 54.5 314.5t147.5 254.5t223 168t276 62q194 0 353.5 -104.5t251 -288t91.5 -406.5t-93 -406.5t-252.5 -288t-350.5 -104.5q-142 0 -271.5 62t-224 168t-150 254.5t-55.5 314.5zM348 768q0 -200 51 -355t156.5 -248t251.5 -93q145 0 249.5 93t155 248 t50.5 355q0 150 -28 275t-82.5 220t-142.5 148t-202 53t-202.5 -53.5t-144 -148.5t-84 -220t-28.5 -274zM510 1706q10 133 58.5 202.5t127.5 69.5q39 0 78 -21.5t65 -47t57.5 -47t57.5 -21.5q42 0 74.5 33t44.5 94l25 -6q-10 -133 -60 -203.5t-129 -70.5q-39 0 -78.5 21 t-65 46.5t-56.5 46.5t-56 21q-71 0 -118 -123z" />
<glyph unicode="&#xd6;" horiz-adv-x="1609" d="M106 768q0 166 54.5 314.5t147.5 254.5t223 168t276 62q194 0 353.5 -104.5t251 -288t91.5 -406.5t-93 -406.5t-252.5 -288t-350.5 -104.5q-142 0 -271.5 62t-224 168t-150 254.5t-55.5 314.5zM348 768q0 -200 51 -355t156.5 -248t251.5 -93q145 0 249.5 93t155 248 t50.5 355q0 150 -28 275t-82.5 220t-142.5 148t-202 53t-202.5 -53.5t-144 -148.5t-84 -220t-28.5 -274zM498 1855q0 59 37 99.5t92 40.5q57 0 95 -40.5t38 -99.5q0 -58 -38.5 -98.5t-94.5 -40.5q-55 0 -92 40.5t-37 98.5zM850 1855q0 59 37 99.5t92 40.5q57 0 95 -40.5 t38 -99.5q0 -58 -38.5 -98.5t-94.5 -40.5q-55 0 -92 40.5t-37 98.5z" />
<glyph unicode="&#xd7;" horiz-adv-x="1085" d="M205 436l291 291l-291 289l57 57l291 -289l289 289l57 -57l-289 -289l275 -276l-58 -58l-274 277l-291 -291z" />
<glyph unicode="&#xd8;" horiz-adv-x="1609" d="M106 768q0 166 54.5 314.5t147.5 254.5t223 168t276 62q73 0 166 -21l39 133h110l-49 -170q195 -87 312.5 -286.5t117.5 -454.5q0 -223 -93 -406.5t-252.5 -288t-350.5 -104.5q-95 0 -180 27l-47 -160h-111l59 199q-190 92 -306 289.5t-116 443.5zM348 768 q0 -204 55.5 -363.5t159.5 -246.5l379 1284q-64 22 -135 22q-114 0 -202.5 -53.5t-144 -148.5t-84 -220t-28.5 -274zM657 100q70 -28 150 -28q145 0 249.5 93t155 248t50.5 355q0 215 -56.5 378.5t-167.5 246.5z" />
<glyph unicode="&#xd9;" horiz-adv-x="1579" d="M76 1499v37h497v-37q-70 -10 -111.5 -73t-41.5 -158v-795q0 -182 108 -283t299 -106q180 -2 294 98.5t114 290.5v754q0 109 -48 183t-128 89v37h444v-37q-70 -10 -111.5 -84.5t-41.5 -187.5v-754q0 -124 -43.5 -221.5t-120 -158.5t-176.5 -92.5t-217 -31.5 q-168 0 -298 56t-207 171.5t-77 276.5v795q0 98 -36.5 160.5t-98.5 70.5zM577 1976.5q-1 38.5 31 65.5q21 19 46.5 20t46.5 -10.5t40 -32.5q34 -37 93 -148.5t120 -203.5l-22 -20q-79 66 -185.5 143.5t-138.5 112.5q-30 35 -31 73.5z" />
<glyph unicode="&#xda;" horiz-adv-x="1579" d="M76 1499v37h497v-37q-70 -10 -111.5 -73t-41.5 -158v-795q0 -182 108 -283t299 -106q180 -2 294 98.5t114 290.5v754q0 109 -48 183t-128 89v37h444v-37q-70 -10 -111.5 -84.5t-41.5 -187.5v-754q0 -124 -43.5 -221.5t-120 -158.5t-176.5 -92.5t-217 -31.5 q-168 0 -298 56t-207 171.5t-77 276.5v795q0 98 -36.5 160.5t-98.5 70.5zM709 1667q61 92 120 203.5t93 148.5q19 21 40 32.5t46.5 10.5t46.5 -20q32 -27 31 -65.5t-31 -73.5q-32 -35 -138.5 -112.5t-185.5 -143.5z" />
<glyph unicode="&#xdb;" horiz-adv-x="1579" d="M76 1499v37h497v-37q-70 -10 -111.5 -73t-41.5 -158v-795q0 -182 108 -283t299 -106q180 -2 294 98.5t114 290.5v754q0 109 -48 183t-128 89v37h444v-37q-70 -10 -111.5 -84.5t-41.5 -187.5v-754q0 -124 -43.5 -221.5t-120 -158.5t-176.5 -92.5t-217 -31.5 q-168 0 -298 56t-207 171.5t-77 276.5v795q0 98 -36.5 160.5t-98.5 70.5zM506 1657l229 354q32 46 98 44.5t95 -44.5l235 -354l-18 -12l-307 221h-13l-301 -221z" />
<glyph unicode="&#xdc;" horiz-adv-x="1579" d="M76 1499v37h497v-37q-70 -10 -111.5 -73t-41.5 -158v-795q0 -182 108 -283t299 -106q180 -2 294 98.5t114 290.5v754q0 109 -48 183t-128 89v37h444v-37q-70 -10 -111.5 -84.5t-41.5 -187.5v-754q0 -124 -43.5 -221.5t-120 -158.5t-176.5 -92.5t-217 -31.5 q-168 0 -298 56t-207 171.5t-77 276.5v795q0 98 -36.5 160.5t-98.5 70.5zM524 1855q0 59 37 99.5t92 40.5q57 0 95 -40.5t38 -99.5q0 -58 -38.5 -98.5t-94.5 -40.5q-55 0 -92 40.5t-37 98.5zM877 1855q0 59 37 99.5t92 40.5q57 0 95 -40.5t38 -99.5q0 -58 -38.5 -98.5 t-94.5 -40.5q-55 0 -92 40.5t-37 98.5z" />
<glyph unicode="&#xdd;" horiz-adv-x="1400" d="M-35 1499v37h578v-37q-91 -35 -116 -105.5t26 -152.5l307 -496l297 500q43 72 4 142.5t-143 111.5v37h495v-37q-52 -20 -115.5 -88.5t-119.5 -163.5l-373 -631v-348q0 -96 41.5 -159t111.5 -72v-37h-520v37q72 11 115 73.5t43 157.5v342l-387 631q-61 98 -126.5 168 t-117.5 90zM618 1667q61 92 120 203.5t93 148.5q18 21 40 32.5t47.5 10.5t46.5 -20q32 -27 31 -65.5t-31 -73.5q-32 -35 -138.5 -112.5t-185.5 -143.5z" />
<glyph unicode="&#xde;" horiz-adv-x="1439" d="M96 0v37q72 9 114 72t42 159v1000q0 96 -42 159t-114 72v37h520v-37q-64 -11 -108.5 -64t-44.5 -126v-6q180 8 276 8q275 0 449 -138t174 -356q0 -107 -35.5 -196t-98 -151t-147.5 -105t-182.5 -63.5t-204.5 -20.5q-101 0 -233 30v-43q0 -92 42.5 -155.5t112.5 -75.5v-37 h-520zM461 406q131 -23 217 -23q222 0 335 100t113 287q0 198 -122.5 323.5t-301.5 125.5q-113 0 -177 -51.5t-64 -145.5v-616z" />
<glyph unicode="&#xdf;" horiz-adv-x="1402" d="M121 0v27q62 12 101.5 70.5t39.5 140.5v876q0 93 33.5 184t91.5 163t145.5 116.5t186.5 44.5q144 0 241 -84.5t97 -196.5q-12 -7 -31.5 -19.5t-69 -53t-88 -82.5t-69.5 -102t-31 -117q0 -59 31 -103.5t80 -74.5t109 -57t119.5 -60t108.5 -74t80 -108t31 -154 q0 -152 -110.5 -258.5t-258.5 -106.5q-130 0 -228.5 56t-98.5 147q0 45 26.5 71.5t69.5 26.5q37 0 67 -20.5t51.5 -49.5t43.5 -58t55 -49.5t74 -20.5q79 0 133.5 56.5t54.5 135.5q0 64 -30 112t-77.5 78t-105 56.5t-115 57.5t-105 70.5t-77.5 105t-30 151.5q0 71 19 133.5 t55.5 115t70.5 89t84 80.5q0 87 -55.5 142.5t-145.5 55.5q-129 0 -180 -99t-51 -329v-849q0 -79 28 -132t72 -77v-27h-442z" />
<glyph unicode="&#xe0;" horiz-adv-x="1169" d="M96 221q0 160 170.5 274t483.5 136v235q0 60 -38.5 97.5t-117.5 37.5q-63 0 -104 -26t-61 -62.5t-37 -73.5t-47 -63t-77 -26q-43 0 -70.5 26.5t-27.5 69.5q0 91 131.5 164t329.5 73q146 0 231.5 -54t85.5 -161v-688q0 -38 22 -60t56 -22q59 0 107 45l20 -24 q-30 -64 -91.5 -103t-127.5 -39q-74 0 -129 45t-55 132q-168 -183 -363 -183q-126 0 -208.5 70.5t-82.5 179.5zM305 291q0 -79 46 -126.5t120 -47.5q77 0 152 31t127 79v330q-236 -31 -340.5 -96.5t-104.5 -169.5zM321 1546.5q-1 38.5 31 65.5q21 19 46.5 20t46.5 -10.5 t40 -32.5q34 -37 93 -148.5t120 -203.5l-22 -20q-79 66 -185.5 143.5t-138.5 112.5q-30 35 -31 73.5z" />
<glyph unicode="&#xe1;" horiz-adv-x="1169" d="M96 221q0 160 170.5 274t483.5 136v235q0 60 -38.5 97.5t-117.5 37.5q-63 0 -104 -26t-61 -62.5t-37 -73.5t-47 -63t-77 -26q-43 0 -70.5 26.5t-27.5 69.5q0 91 131.5 164t329.5 73q146 0 231.5 -54t85.5 -161v-688q0 -38 22 -60t56 -22q59 0 107 45l20 -24 q-30 -64 -91.5 -103t-127.5 -39q-74 0 -129 45t-55 132q-168 -183 -363 -183q-126 0 -208.5 70.5t-82.5 179.5zM305 291q0 -79 46 -126.5t120 -47.5q77 0 152 31t127 79v330q-236 -31 -340.5 -96.5t-104.5 -169.5zM453 1237q61 92 120 203.5t93 148.5q19 21 40 32.5 t46.5 10.5t46.5 -20q32 -27 31 -65.5t-31 -73.5q-32 -35 -138.5 -112.5t-185.5 -143.5z" />
<glyph unicode="&#xe2;" horiz-adv-x="1169" d="M96 221q0 160 170.5 274t483.5 136v235q0 60 -38.5 97.5t-117.5 37.5q-63 0 -104 -26t-61 -62.5t-37 -73.5t-47 -63t-77 -26q-43 0 -70.5 26.5t-27.5 69.5q0 91 131.5 164t329.5 73q146 0 231.5 -54t85.5 -161v-688q0 -38 22 -60t56 -22q59 0 107 45l20 -24 q-30 -64 -91.5 -103t-127.5 -39q-74 0 -129 45t-55 132q-168 -183 -363 -183q-126 0 -208.5 70.5t-82.5 179.5zM250 1227l229 354q32 46 98 44.5t95 -44.5l235 -354l-18 -13l-307 222h-13l-301 -222zM305 291q0 -79 46 -126.5t120 -47.5q77 0 152 31t127 79v330 q-236 -31 -340.5 -96.5t-104.5 -169.5z" />
<glyph unicode="&#xe3;" horiz-adv-x="1169" d="M96 221q0 160 170.5 274t483.5 136v235q0 60 -38.5 97.5t-117.5 37.5q-63 0 -104 -26t-61 -62.5t-37 -73.5t-47 -63t-77 -26q-43 0 -70.5 26.5t-27.5 69.5q0 91 131.5 164t329.5 73q146 0 231.5 -54t85.5 -161v-688q0 -38 22 -60t56 -22q59 0 107 45l20 -24 q-30 -64 -91.5 -103t-127.5 -39q-74 0 -129 45t-55 132q-168 -183 -363 -183q-126 0 -208.5 70.5t-82.5 179.5zM281 1276q10 133 58.5 202.5t127.5 69.5q39 0 78 -21.5t65 -47t57.5 -47t57.5 -21.5q42 0 74.5 33t44.5 94l24 -6q-10 -133 -59.5 -204t-128.5 -71 q-39 0 -78.5 21.5t-65 46.5t-56.5 46.5t-56 21.5q-72 0 -119 -123zM305 291q0 -79 46 -126.5t120 -47.5q77 0 152 31t127 79v330q-236 -31 -340.5 -96.5t-104.5 -169.5z" />
<glyph unicode="&#xe4;" horiz-adv-x="1169" d="M96 221q0 160 170.5 274t483.5 136v235q0 60 -38.5 97.5t-117.5 37.5q-63 0 -104 -26t-61 -62.5t-37 -73.5t-47 -63t-77 -26q-43 0 -70.5 26.5t-27.5 69.5q0 91 131.5 164t329.5 73q146 0 231.5 -54t85.5 -161v-688q0 -38 22 -60t56 -22q59 0 107 45l20 -24 q-30 -64 -91.5 -103t-127.5 -39q-74 0 -129 45t-55 132q-168 -183 -363 -183q-126 0 -208.5 70.5t-82.5 179.5zM268 1425q0 59 37 99.5t92 40.5q57 0 95 -40.5t38 -99.5q0 -58 -38.5 -98.5t-94.5 -40.5q-55 0 -92 40.5t-37 98.5zM305 291q0 -79 46 -126.5t120 -47.5 q77 0 152 31t127 79v330q-236 -31 -340.5 -96.5t-104.5 -169.5zM621 1425q0 59 37 99.5t92 40.5q57 0 95 -40.5t38 -99.5q0 -58 -38.5 -98.5t-94.5 -40.5q-55 0 -92 40.5t-37 98.5z" />
<glyph unicode="&#xe5;" horiz-adv-x="1169" d="M96 221q0 160 170.5 274t483.5 136v235q0 60 -38.5 97.5t-117.5 37.5q-63 0 -104 -26t-61 -62.5t-37 -73.5t-47 -63t-77 -26q-43 0 -70.5 26.5t-27.5 69.5q0 91 131.5 164t329.5 73q146 0 231.5 -54t85.5 -161v-688q0 -38 22 -60t56 -22q59 0 107 45l20 -24 q-30 -64 -91.5 -103t-127.5 -39q-74 0 -129 45t-55 132q-168 -183 -363 -183q-126 0 -208.5 70.5t-82.5 179.5zM305 291q0 -79 46 -126.5t120 -47.5q77 0 152 31t127 79v330q-236 -31 -340.5 -96.5t-104.5 -169.5zM315 1464q0 100 74.5 173t185.5 73q109 0 184 -72.5 t75 -173.5q0 -100 -76 -172.5t-183 -72.5t-183.5 73t-76.5 172zM465 1464q0 -182 110 -182q109 0 109 182q0 181 -109 181q-110 0 -110 -181z" />
<glyph unicode="&#xe6;" horiz-adv-x="1779" d="M117 221q0 160 171 274t484 136l-2 235q0 60 -38.5 97.5t-117.5 37.5q-63 0 -104 -26t-60.5 -62.5t-36.5 -73.5t-47 -63t-77 -26q-43 0 -71 27t-28 69q0 91 131.5 164t329.5 73q113 0 188 -37t99 -110q143 149 340 149q177 0 292.5 -120t115.5 -312v-55h-738v-6 q0 -114 30.5 -205.5t83.5 -148t120.5 -86t144.5 -29.5q96 0 176 46t133 130l33 -18q-40 -139 -161.5 -225.5t-260.5 -86.5q-118 0 -223.5 57t-171.5 164q-99 -116 -201 -167.5t-223 -51.5q-135 0 -223 70.5t-88 179.5zM326 291q0 -79 51 -126.5t135 -47.5q174 0 313 123 q-53 116 -53 256v61q-236 -31 -341 -96.5t-105 -169.5zM954 690h531q0 124 -71 208.5t-183 84.5q-100 0 -177.5 -74.5t-99.5 -218.5z" />
<glyph unicode="&#xe7;" horiz-adv-x="1038" d="M96 494q0 162 70.5 297t197.5 214.5t285 79.5q156 0 305 -49l-118 -307h-37q-13 119 -79.5 182.5t-162.5 63.5q-127 0 -205 -100.5t-78 -262.5q0 -224 100 -355.5t263 -131.5q95 0 177 59.5t126 155.5l33 -16q-28 -156 -135 -248t-248 -105l-10 -55q93 -9 146.5 -53.5 t53.5 -114.5q0 -86 -75 -147.5t-173 -61.5q-88 0 -145 32t-57 81q0 33 20 57.5t56 24.5q34 0 59 -19.5t31 -50.5q4 -36 15 -47.5t34 -11.5q44 0 72 23t28 71q0 95 -139 106h-25l35 166q-78 6 -153 46t-134.5 106t-96 163t-36.5 208z" />
<glyph unicode="&#xe8;" horiz-adv-x="1103" d="M96 496q0 160 65.5 295t182 214.5t258.5 79.5q177 0 292.5 -120t115.5 -312v-55h-738v-6q0 -114 30.5 -205.5t83.5 -148t120.5 -86t144.5 -29.5q96 0 176.5 46t133.5 130l32 -18q-40 -139 -161.5 -225.5t-260.5 -86.5q-72 0 -140 21t-129 64.5t-107 105t-72.5 148.5 t-26.5 188zM279 690h530q0 124 -71 208.5t-183 84.5q-99 0 -176.5 -74.5t-99.5 -218.5zM309 1546.5q-1 38.5 31 65.5q21 19 46.5 20t46.5 -10.5t40 -32.5q34 -37 93 -148.5t120 -203.5l-22 -20q-79 66 -185.5 143.5t-138.5 112.5q-30 35 -31 73.5z" />
<glyph unicode="&#xe9;" horiz-adv-x="1103" d="M96 496q0 160 65.5 295t182 214.5t258.5 79.5q177 0 292.5 -120t115.5 -312v-55h-738v-6q0 -114 30.5 -205.5t83.5 -148t120.5 -86t144.5 -29.5q96 0 176.5 46t133.5 130l32 -18q-40 -139 -161.5 -225.5t-260.5 -86.5q-72 0 -140 21t-129 64.5t-107 105t-72.5 148.5 t-26.5 188zM279 690h530q0 124 -71 208.5t-183 84.5q-99 0 -176.5 -74.5t-99.5 -218.5zM440 1237q61 92 120 203.5t93 148.5q19 21 40 32.5t46.5 10.5t46.5 -20q32 -27 31 -65.5t-31 -73.5q-32 -35 -138.5 -113t-184.5 -143z" />
<glyph unicode="&#xea;" horiz-adv-x="1103" d="M96 496q0 160 65.5 295t182 214.5t258.5 79.5q177 0 292.5 -120t115.5 -312v-55h-738v-6q0 -114 30.5 -205.5t83.5 -148t120.5 -86t144.5 -29.5q96 0 176.5 46t133.5 130l32 -18q-40 -139 -161.5 -225.5t-260.5 -86.5q-72 0 -140 21t-129 64.5t-107 105t-72.5 148.5 t-26.5 188zM238 1227l229 354q32 46 97.5 44.5t94.5 -44.5l236 -354l-18 -13l-308 222h-12l-301 -222zM279 690h530q0 124 -71 208.5t-183 84.5q-99 0 -176.5 -74.5t-99.5 -218.5z" />
<glyph unicode="&#xeb;" horiz-adv-x="1103" d="M96 496q0 160 65.5 295t182 214.5t258.5 79.5q177 0 292.5 -120t115.5 -312v-55h-738v-6q0 -114 30.5 -205.5t83.5 -148t120.5 -86t144.5 -29.5q96 0 176.5 46t133.5 130l32 -18q-40 -139 -161.5 -225.5t-260.5 -86.5q-72 0 -140 21t-129 64.5t-107 105t-72.5 148.5 t-26.5 188zM256 1425q0 59 37 99.5t92 40.5q57 0 95 -40.5t38 -99.5q0 -58 -38.5 -98.5t-94.5 -40.5q-55 0 -92 40.5t-37 98.5zM279 690h530q0 124 -71 208.5t-183 84.5q-99 0 -176.5 -74.5t-99.5 -218.5zM608 1425q0 59 37 99.5t92 40.5q57 0 95 -40.5t38 -99.5 q0 -58 -38.5 -98.5t-94.5 -40.5q-55 0 -92 40.5t-37 98.5z" />
<glyph unicode="&#xec;" horiz-adv-x="641" d="M59 1546.5q-1 38.5 31 65.5q21 19 46.5 20t46.5 -10.5t40 -32.5q34 -37 93 -148.5t120 -203.5l-22 -20q-79 66 -185.5 143.5t-138.5 112.5q-30 35 -31 73.5zM96 903v37q185 47 305 158h29v-852q0 -86 33.5 -141t91.5 -70v-35h-457v35q62 15 97.5 69.5t35.5 141.5v442 q0 90 -28.5 145.5t-106.5 69.5z" />
<glyph unicode="&#xed;" horiz-adv-x="641" d="M96 903v37q185 47 305 158h29v-852q0 -86 33.5 -141t91.5 -70v-35h-457v35q62 15 97.5 69.5t35.5 141.5v442q0 90 -28.5 145.5t-106.5 69.5zM190 1237q61 92 120 203.5t93 148.5q18 21 40 32.5t47.5 10.5t46.5 -20q32 -27 31 -65.5t-31 -73.5q-32 -35 -138.5 -112.5 t-185.5 -143.5z" />
<glyph unicode="&#xee;" horiz-adv-x="641" d="M-12 1227l229 354q32 46 98 44.5t95 -44.5l235 -354l-18 -13l-308 222h-12l-301 -222zM96 903v37q185 47 305 158h29v-852q0 -86 33.5 -141t91.5 -70v-35h-457v35q62 15 97.5 69.5t35.5 141.5v442q0 90 -28.5 145.5t-106.5 69.5z" />
<glyph unicode="&#xef;" horiz-adv-x="641" d="M6 1425q0 59 37 99.5t92 40.5q57 0 95 -40.5t38 -99.5q0 -58 -38.5 -98.5t-94.5 -40.5q-55 0 -92 40.5t-37 98.5zM96 903v37q185 47 305 158h29v-852q0 -86 33.5 -141t91.5 -70v-35h-457v35q62 15 97.5 69.5t35.5 141.5v442q0 90 -28.5 145.5t-106.5 69.5zM358 1425 q0 59 37 99.5t92 40.5q57 0 95.5 -40.5t38.5 -99.5q0 -57 -38.5 -98t-95.5 -41q-55 0 -92 40.5t-37 98.5z" />
<glyph unicode="&#xf0;" horiz-adv-x="1214" d="M96 487q0 143 60.5 265.5t168 195t236.5 72.5q182 0 318 -146q-64 227 -197 377l-289 -102v117l201 71q-144 123 -352 189l12 41q265 -45 471 -185l303 109v-117l-203 -71q146 -132 221 -310t72 -377q0 -152 -43.5 -278t-118 -209t-172 -128.5t-206.5 -45.5 q-137 0 -248.5 72.5t-172.5 194t-61 265.5zM313 487q0 -204 75 -316t218 -112q140 0 217.5 113t77.5 315q0 204 -74 315t-221 111q-293 0 -293 -426z" />
<glyph unicode="&#xf1;" horiz-adv-x="1327" d="M96 0v37q64 18 99.5 71.5t35.5 139.5v440q0 103 -30.5 151.5t-104.5 63.5v37q185 47 305 158h29v-117q0 -96 -4 -166l4 -2q100 108 234 190t249 82q101 0 157 -69.5t56 -186.5v-581q0 -88 30 -143t85 -68v-37h-442v37q67 29 98 77t31 132v489q0 84 -31.5 126.5 t-99.5 43.5q-136 6 -367 -166v-493q0 -82 33.5 -130.5t97.5 -78.5v-37h-465zM410 1276q10 133 58.5 202.5t127.5 69.5q39 0 78 -21.5t65 -47t57.5 -47t57.5 -21.5q42 0 74.5 33t44.5 94l24 -6q-10 -133 -59.5 -204t-128.5 -71q-39 0 -78.5 21.5t-65 46.5t-56.5 46.5 t-56 21.5q-72 0 -119 -123z" />
<glyph unicode="&#xf2;" horiz-adv-x="1214" d="M96 530q0 238 147 396.5t363 158.5q218 0 365 -157.5t147 -397.5q0 -158 -69.5 -287.5t-187 -201.5t-255.5 -72q-139 0 -256 72.5t-185.5 201.5t-68.5 287zM313 530q0 -209 77.5 -339t215.5 -130q139 0 218 130t79 339q0 210 -76 336.5t-221 126.5q-142 0 -217.5 -126.5 t-75.5 -336.5zM354 1546.5q-1 38.5 31 65.5q21 19 46.5 20t46.5 -10.5t40 -32.5q32 -36 91.5 -147t121.5 -205l-22 -20q-79 66 -185.5 143.5t-138.5 112.5q-30 35 -31 73.5z" />
<glyph unicode="&#xf3;" horiz-adv-x="1214" d="M96 530q0 238 147 396.5t363 158.5q218 0 365 -157.5t147 -397.5q0 -158 -69.5 -287.5t-187 -201.5t-255.5 -72q-139 0 -256 72.5t-185.5 201.5t-68.5 287zM313 530q0 -209 77.5 -339t215.5 -130q139 0 218 130t79 339q0 210 -76 336.5t-221 126.5q-142 0 -217.5 -126.5 t-75.5 -336.5zM485 1237q50 77 92 153.5t67.5 122t53.5 76.5q19 21 40 32.5t46.5 10.5t46.5 -20q32 -27 31 -65.5t-31 -73.5q-32 -34 -137 -111t-186 -145z" />
<glyph unicode="&#xf4;" horiz-adv-x="1214" d="M96 530q0 238 147 396.5t363 158.5q218 0 365 -157.5t147 -397.5q0 -158 -69.5 -287.5t-187 -201.5t-255.5 -72q-139 0 -256 72.5t-185.5 201.5t-68.5 287zM283 1227l229 354q32 46 98 44.5t95 -44.5l235 -354l-18 -13l-308 222h-12l-301 -222zM313 530q0 -209 77.5 -339 t215.5 -130q139 0 218 130t79 339q0 210 -76 336.5t-221 126.5q-142 0 -217.5 -126.5t-75.5 -336.5z" />
<glyph unicode="&#xf5;" horiz-adv-x="1214" d="M96 530q0 238 147 396.5t363 158.5q218 0 365 -157.5t147 -397.5q0 -158 -69.5 -287.5t-187 -201.5t-255.5 -72q-139 0 -256 72.5t-185.5 201.5t-68.5 287zM313 530q0 -209 77.5 -339t215.5 -130q139 0 218 130t79 339q0 210 -76 336.5t-221 126.5q-142 0 -217.5 -126.5 t-75.5 -336.5zM313 1276q10 133 59 202.5t128 69.5q39 0 78 -21.5t65 -47t57.5 -47t57.5 -21.5q42 0 74.5 33t44.5 94l24 -6q-10 -133 -59.5 -204t-128.5 -71q-39 0 -78.5 21.5t-65 46.5t-56.5 46.5t-56 21.5q-72 0 -119 -123z" />
<glyph unicode="&#xf6;" horiz-adv-x="1214" d="M96 530q0 238 147 396.5t363 158.5q218 0 365 -157.5t147 -397.5q0 -158 -69.5 -287.5t-187 -201.5t-255.5 -72q-139 0 -256 72.5t-185.5 201.5t-68.5 287zM301 1425q0 59 37 99.5t92 40.5q57 0 95 -40.5t38 -99.5q0 -58 -38.5 -98.5t-94.5 -40.5q-55 0 -92 40.5 t-37 98.5zM313 530q0 -209 77.5 -339t215.5 -130q139 0 218 130t79 339q0 210 -76 336.5t-221 126.5q-142 0 -217.5 -126.5t-75.5 -336.5zM653 1425q0 59 37 99.5t92 40.5q57 0 95 -40.5t38 -99.5q0 -58 -38.5 -98.5t-94.5 -40.5q-55 0 -92 40.5t-37 98.5z" />
<glyph unicode="&#xf7;" horiz-adv-x="1085" d="M102 692v82h881v-82h-881zM449 418q0 47 30 79.5t74 32.5q46 0 77.5 -32.5t31.5 -79.5q0 -46 -32 -79.5t-77 -33.5q-44 0 -74 33.5t-30 79.5zM449 1049q0 47 30 79.5t74 32.5q46 0 77.5 -32.5t31.5 -79.5q0 -46 -32 -79.5t-77 -33.5q-44 0 -74 33.5t-30 79.5z" />
<glyph unicode="&#xf8;" horiz-adv-x="1214" d="M96 530q0 238 147 396.5t363 158.5q80 0 166 -26l49 119h99l-66 -158q122 -69 193 -198t71 -292q0 -158 -69.5 -287.5t-187 -201.5t-255.5 -72q-94 0 -178 35l-53 -127h-99l70 168q-115 72 -182.5 200t-67.5 285zM313 530q0 -226 88 -356l330 789q-55 30 -125 30 q-142 0 -217.5 -126.5t-75.5 -336.5zM469 104q58 -43 137 -43q139 0 218 130t79 339q0 247 -100 371z" />
<glyph unicode="&#xf9;" horiz-adv-x="1284" d="M86 903v37q166 40 293 158h20v-776q0 -90 31 -135t100 -46q64 -3 145 38.5t199 137.5v351q0 47 -5 83.5t-18 70t-38 54.5t-63 27v37q176 47 301 158h22v-750q0 -102 28.5 -151t96.5 -64v-37q-183 -48 -293 -137h-31v117q0 78 5 166l-5 2q-101 -110 -226.5 -191.5 t-233.5 -81.5q-101 0 -157 69.5t-56 186.5v461q0 87 -24.5 141t-90.5 74zM375 1546.5q-1 38.5 31 65.5q21 19 46.5 20t46.5 -10.5t40 -32.5q34 -37 93 -148.5t120 -203.5l-23 -20q-78 65 -184.5 143t-138.5 113q-30 35 -31 73.5z" />
<glyph unicode="&#xfa;" horiz-adv-x="1284" d="M86 903v37q166 40 293 158h20v-776q0 -90 31 -135t100 -46q64 -3 145 38.5t199 137.5v351q0 47 -5 83.5t-18 70t-38 54.5t-63 27v37q176 47 301 158h22v-750q0 -102 28.5 -151t96.5 -64v-37q-183 -48 -293 -137h-31v117q0 78 5 166l-5 2q-101 -110 -226.5 -191.5 t-233.5 -81.5q-101 0 -157 69.5t-56 186.5v461q0 87 -24.5 141t-90.5 74zM506 1237q61 92 120 203.5t93 148.5q19 21 40 32.5t46.5 10.5t46.5 -20q32 -27 31 -65.5t-31 -73.5q-32 -35 -138.5 -112.5t-185.5 -143.5z" />
<glyph unicode="&#xfb;" horiz-adv-x="1284" d="M86 903v37q166 40 293 158h20v-776q0 -90 31 -135t100 -46q64 -3 145 38.5t199 137.5v351q0 47 -5 83.5t-18 70t-38 54.5t-63 27v37q176 47 301 158h22v-750q0 -102 28.5 -151t96.5 -64v-37q-183 -48 -293 -137h-31v117q0 78 5 166l-5 2q-101 -110 -226.5 -191.5 t-233.5 -81.5q-101 0 -157 69.5t-56 186.5v461q0 87 -24.5 141t-90.5 74zM303 1227l229 354q32 46 98 44.5t95 -44.5l236 -354l-19 -13l-307 222h-12l-301 -222z" />
<glyph unicode="&#xfc;" horiz-adv-x="1284" d="M86 903v37q166 40 293 158h20v-776q0 -90 31 -135t100 -46q64 -3 145 38.5t199 137.5v351q0 47 -5 83.5t-18 70t-38 54.5t-63 27v37q176 47 301 158h22v-750q0 -102 28.5 -151t96.5 -64v-37q-183 -48 -293 -137h-31v117q0 78 5 166l-5 2q-101 -110 -226.5 -191.5 t-233.5 -81.5q-101 0 -157 69.5t-56 186.5v461q0 87 -24.5 141t-90.5 74zM322 1425q0 59 37 99.5t92 40.5q57 0 95 -40.5t38 -99.5q0 -58 -38.5 -98.5t-94.5 -40.5q-55 0 -92 40.5t-37 98.5zM674 1425q0 59 37 99.5t92 40.5q57 0 95 -40.5t38 -99.5q0 -58 -38.5 -98.5 t-94.5 -40.5q-55 0 -92 40.5t-37 98.5z" />
<glyph unicode="&#xfd;" horiz-adv-x="1126" d="M-10 1028v27h477v-27q-157 -74 -80 -233l238 -502l219 502q32 84 8 145.5t-90 87.5v27h373v-27q-86 -46 -172 -229l-412 -908q-79 -177 -162.5 -255t-191.5 -78q-66 0 -119 41t-53 102q0 53 35 86t83 33q32 0 58 -17t39.5 -37.5t31 -37.5t35.5 -17q12 0 23 4.5t22 14 t19.5 18.5t19 26.5t17 29t17 33.5t15.5 33.5t16 36.5t15 34l45 104l-352 752q-50 105 -86.5 155.5t-87.5 75.5zM481 1237q61 92 120 203.5t93 148.5q19 21 40 32.5t46.5 10.5t46.5 -20q32 -27 31 -65.5t-31 -73.5q-32 -35 -138.5 -113t-184.5 -143z" />
<glyph unicode="&#xfe;" horiz-adv-x="1265" d="M74 1436v37q170 42 291 157h30v-649q0 -57 -2 -84l4 -2q59 76 156 133t195 57q76 0 149.5 -36t130 -97.5t91 -151.5t34.5 -190q0 -173 -75 -317.5t-206 -227.5t-288 -83q-94 0 -187 34v-180q0 -96 34 -144.5t97 -64.5v-37h-448v37q119 30 119 209v1385q0 102 -28.5 151 t-96.5 64zM397 313q0 -106 53 -172t144 -65q158 -1 253 130t95 326q-2 174 -79 283t-214 109q-141 0 -252 -123v-488z" />
<glyph unicode="&#xff;" horiz-adv-x="1126" d="M-10 1028v27h477v-27q-157 -74 -80 -233l238 -502l219 502q32 84 8 145.5t-90 87.5v27h373v-27q-86 -46 -172 -229l-412 -908q-79 -177 -162.5 -255t-191.5 -78q-66 0 -119 41t-53 102q0 53 35 86t83 33q32 0 58 -17t39.5 -37.5t31 -37.5t35.5 -17q12 0 23 4.5t22 14 t19.5 18.5t19 26.5t17 29t17 33.5t15.5 33.5t16 36.5t15 34l45 104l-352 752q-50 105 -86.5 155.5t-87.5 75.5zM297 1425q0 59 37 99.5t92 40.5q57 0 95 -40.5t38 -99.5q0 -58 -38.5 -98.5t-94.5 -40.5q-55 0 -92 40.5t-37 98.5zM649 1425q0 59 37 99.5t92 40.5 q57 0 95 -40.5t38 -99.5q0 -58 -38.5 -98.5t-94.5 -40.5q-55 0 -92 40.5t-37 98.5z" />
<glyph unicode="&#x152;" horiz-adv-x="2373" d="M137 780q0 164 46.5 296.5t126 220.5t190.5 147.5t235 85.5t264 26q164 0 359 -20h637q78 0 125 37h28l80 -424l-33 -4q-85 169 -219.5 234t-359.5 65q-106 0 -169 -47t-63 -125v-385h381q117 0 188 33t101 120h29v-417h-29q-78 161 -287 161h-383v-510q0 -83 63 -132.5 t169 -49.5q235 0 387 73.5t256 254.5l29 -2l-117 -455h-35q-25 22 -50.5 29.5t-66.5 7.5h-630q-177 -20 -365 -20q-208 0 -375.5 59t-279.5 164.5t-172 253t-60 323.5zM377 805q0 -346 155 -535.5t445 -189.5q103 0 151 44.5t48 141.5v985q0 102 -54.5 155.5t-158.5 53.5 q-148 0 -254.5 -35t-182 -112t-112.5 -203t-37 -305z" />
<glyph unicode="&#x153;" horiz-adv-x="1949" d="M96 530q0 238 147 396.5t363 158.5q135 0 248.5 -64.5t181.5 -178.5q69 113 176.5 178t235.5 65q177 0 292 -120t115 -312v-55h-737v-6q0 -114 30.5 -205.5t83.5 -148t120.5 -86t144.5 -29.5q96 0 176 46t133 130l33 -18q-40 -139 -161.5 -225.5t-260.5 -86.5 q-120 0 -226.5 58.5t-170.5 167.5q-71 -105 -180 -165.5t-234 -60.5q-139 0 -256 72.5t-185.5 201.5t-68.5 287zM313 530q0 -209 77.5 -339t215.5 -130q139 0 218 130t79 339q0 210 -76 336.5t-221 126.5q-142 0 -217.5 -126.5t-75.5 -336.5zM1124 690h531q0 124 -71 208.5 t-183 84.5q-100 0 -177.5 -74.5t-99.5 -218.5z" />
<glyph unicode="&#x178;" horiz-adv-x="1400" d="M-35 1499v37h578v-37q-91 -35 -116 -105.5t26 -152.5l307 -496l297 500q43 72 4 142.5t-143 111.5v37h495v-37q-52 -20 -115.5 -88.5t-119.5 -163.5l-373 -631v-348q0 -96 41.5 -159t111.5 -72v-37h-520v37q72 11 115 73.5t43 157.5v342l-387 631q-61 98 -126.5 168 t-117.5 90zM434 1855q0 59 37 99.5t92 40.5q57 0 95 -40.5t38 -99.5q0 -58 -38.5 -98.5t-94.5 -40.5q-55 0 -92 40.5t-37 98.5zM786 1855q0 59 37 99.5t92 40.5q57 0 95.5 -40.5t38.5 -99.5q0 -57 -38.5 -98t-95.5 -41q-55 0 -92 40.5t-37 98.5z" />
<glyph unicode="&#x2c6;" horiz-adv-x="1409" d="M381 1227l229 354q32 46 98 44.5t95 -44.5l235 -354l-18 -13l-307 222h-13l-301 -222z" />
<glyph unicode="&#x2dc;" horiz-adv-x="1409" d="M412 1276q10 133 58.5 202.5t127.5 69.5q39 0 78 -21.5t65 -47t57.5 -47t57.5 -21.5q42 0 74.5 33t44.5 94l24 -6q-10 -133 -59.5 -204t-128.5 -71q-39 0 -78.5 21.5t-65 46.5t-56.5 46.5t-56 21.5q-72 0 -119 -123z" />
<glyph unicode="&#x2000;" horiz-adv-x="1070" />
<glyph unicode="&#x2001;" horiz-adv-x="2140" />
<glyph unicode="&#x2002;" horiz-adv-x="1070" />
<glyph unicode="&#x2003;" horiz-adv-x="2140" />
<glyph unicode="&#x2004;" horiz-adv-x="713" />
<glyph unicode="&#x2005;" horiz-adv-x="535" />
<glyph unicode="&#x2006;" horiz-adv-x="356" />
<glyph unicode="&#x2007;" horiz-adv-x="356" />
<glyph unicode="&#x2008;" horiz-adv-x="267" />
<glyph unicode="&#x2009;" horiz-adv-x="428" />
<glyph unicode="&#x200a;" horiz-adv-x="118" />
<glyph unicode="&#x2010;" horiz-adv-x="702" d="M86 528v123l530 82v-123z" />
<glyph unicode="&#x2011;" horiz-adv-x="702" d="M86 528v123l530 82v-123z" />
<glyph unicode="&#x2012;" horiz-adv-x="702" d="M86 528v123l530 82v-123z" />
<glyph unicode="&#x2013;" horiz-adv-x="1110" d="M86 575v113h938v-113h-938z" />
<glyph unicode="&#x2014;" horiz-adv-x="1925" d="M86 575v113h1755v-113h-1755z" />
<glyph unicode="&#x2018;" horiz-adv-x="575" d="M131 1311q0 96 68 195t192 169l27 -26q-116 -116 -160 -224q78 -5 129 -46.5t51 -106.5q0 -62 -42 -104t-105 -42q-65 0 -112.5 55t-47.5 130z" />
<glyph unicode="&#x2019;" horiz-adv-x="575" d="M137 1489q0 60 44 101.5t108 41.5q63 0 109 -54.5t46 -129.5q0 -96 -68 -195.5t-190 -169.5l-26 27q122 122 157 223q-78 5 -129 48t-51 108z" />
<glyph unicode="&#x201a;" horiz-adv-x="575" d="M137 154q0 60 44 101.5t108 41.5q63 0 109 -54.5t46 -129.5q0 -96 -68 -195.5t-190 -169.5l-26 27q117 117 157 223q-78 5 -129 48t-51 108z" />
<glyph unicode="&#x201c;" horiz-adv-x="987" d="M131 1311q0 96 68 195t192 169l27 -26q-116 -116 -160 -224q78 -5 129 -46.5t51 -106.5q0 -62 -42 -104t-105 -42q-65 0 -112.5 55t-47.5 130zM569 1311q0 96 68 195t192 169l27 -26q-116 -116 -160 -224q78 -5 129.5 -46.5t51.5 -106.5q0 -62 -42.5 -104t-105.5 -42 q-65 0 -112.5 55t-47.5 130z" />
<glyph unicode="&#x201d;" horiz-adv-x="987" d="M137 1489q0 60 44 101.5t108 41.5q63 0 109 -54.5t46 -129.5q0 -96 -68 -195.5t-190 -169.5l-26 27q122 122 157 223q-78 5 -129 48t-51 108zM575 1489q0 60 44 101.5t108 41.5q63 0 109.5 -54.5t46.5 -129.5q0 -96 -68 -195.5t-190 -169.5l-27 27q123 123 158 223 q-78 5 -129.5 48t-51.5 108z" />
<glyph unicode="&#x201e;" horiz-adv-x="1013" d="M137 154q0 60 44 101.5t108 41.5q63 0 109 -54.5t46 -129.5q0 -96 -68 -195.5t-190 -169.5l-26 27q122 122 157 223q-78 5 -129 48t-51 108zM575 154q0 60 44 101.5t108 41.5q63 0 109.5 -54.5t46.5 -129.5q0 -96 -68 -195.5t-190 -169.5l-27 27q123 123 158 223 q-78 5 -129.5 48t-51.5 108z" />
<glyph unicode="&#x2022;" horiz-adv-x="837" d="M86 629q0 120 95 201t237 81q143 0 240.5 -81t97.5 -201q0 -114 -98.5 -197.5t-239.5 -83.5q-140 0 -236 83.5t-96 197.5z" />
<glyph unicode="&#x2026;" horiz-adv-x="1873" d="M137 137q0 67 44.5 114.5t107.5 47.5t107 -47t44 -115q0 -65 -44 -112.5t-107 -47.5t-107.5 47.5t-44.5 112.5zM735 137q0 67 44.5 114.5t107.5 47.5t107 -47t44 -115q0 -65 -44 -112.5t-107 -47.5t-107.5 47.5t-44.5 112.5zM1331 137q0 67 44.5 114.5t107.5 47.5 t107 -47t44 -115q0 -65 -44 -112.5t-107 -47.5t-107.5 47.5t-44.5 112.5z" />
<glyph unicode="&#x202f;" horiz-adv-x="428" />
<glyph unicode="&#x2039;" horiz-adv-x="720" d="M211 446q-137 120 0 238l373 326l26 -23l-276 -418v-8l276 -416l-26 -20z" />
<glyph unicode="&#x203a;" horiz-adv-x="720" d="M111 145l276 416v8l-276 418l26 23l395 -326q70 -58 70.5 -118.5t-70.5 -119.5l-395 -321z" />
<glyph unicode="&#x205f;" horiz-adv-x="535" />
<glyph unicode="&#x20ac;" horiz-adv-x="1337" d="M53 623v102h88q0 65 15 164h-103v102h125q69 255 248.5 413.5t417.5 158.5q201 0 314.5 -74.5t113.5 -175.5q0 -53 -37 -93t-94 -40q-19 0 -35.5 3.5t-28.5 6.5t-25.5 14t-20 15t-19 21t-15 20t-16 24t-14.5 23q-19 28 -35.5 47t-44.5 39.5t-69 30.5t-95 10 q-149 0 -247 -122t-120 -321h605v-102h-609q0 -79 10 -164h599v-102h-582q46 -220 168.5 -338.5t302.5 -118.5q125 0 233 64.5t152 170.5l27 -12q-22 -134 -105.5 -231t-195 -142t-236.5 -45q-98 0 -195 46t-177.5 128t-137 207t-70.5 271h-92z" />
<glyph unicode="&#x2122;" horiz-adv-x="1218" d="M35 1407l26 141h19q24 -12 45 -12h272q13 0 43 12h19l26 -141l-22 -6q-28 53 -53.5 73.5t-57.5 20.5q-51 0 -51 -37v-336q0 -32 14 -53.5t37 -26.5v-22h-186v22q25 4 39 26t14 54v336q0 37 -51 37q-32 0 -57.5 -20.5t-53.5 -73.5zM483 1020v22q50 22 56 64l59 352 q6 40 -47 58v20h139l123 -356l135 356h146v-20q-56 -19 -50 -60l62 -366q7 -30 51 -48v-22h-180v22q50 21 47 48l-59 360l-162 -436h-19l-143 416l-53 -324q-6 -46 41 -64v-22h-146z" />
<glyph unicode="&#x25fc;" horiz-adv-x="1054" d="M0 0v1055h1055v-1055h-1055z" />
<glyph horiz-adv-x="1331" d="M27 0v37q46 14 96.5 67t81.5 125l434 1008h55l443 -1004q40 -92 78.5 -134.5t87.5 -61.5v-37h-469v37q138 52 75 199l-75 176h-453l-76 -181q-52 -125 121 -194v-37h-399zM418 500h377l-189 440z" />
<glyph horiz-adv-x="1329" d="M27 0v37q46 14 96.5 67t81.5 125l434 1008h55l443 -1004q40 -92 78.5 -134.5t87.5 -61.5v-37h-469v37q138 52 75 199l-75 176h-453l-76 -181q-52 -125 121 -194v-37h-399zM409 1726.5q-1 38.5 31 65.5q21 19 46.5 20t46.5 -10.5t40 -32.5q34 -37 93 -148.5t120 -203.5 l-22 -20q-79 66 -185.5 143.5t-138.5 112.5q-30 35 -31 73.5zM418 500h377l-189 440z" />
<glyph horiz-adv-x="1329" d="M27 0v37q46 14 96.5 67t81.5 125l434 1008h55l443 -1004q40 -92 78.5 -134.5t87.5 -61.5v-37h-469v37q138 52 75 199l-75 176h-453l-76 -181q-52 -125 121 -194v-37h-399zM418 500h377l-189 440zM541 1417q61 92 120 203.5t93 148.5q19 21 40 32.5t46.5 10.5t46.5 -20 q32 -27 31 -65.5t-31 -73.5q-32 -35 -138.5 -112.5t-185.5 -143.5z" />
<glyph horiz-adv-x="1329" d="M27 0v37q46 14 96.5 67t81.5 125l434 1008h55l443 -1004q40 -92 78.5 -134.5t87.5 -61.5v-37h-469v37q138 52 75 199l-75 176h-453l-76 -181q-52 -125 121 -194v-37h-399zM338 1407l229 354q32 46 98 44.5t95 -44.5l235 -354l-18 -12l-307 221h-13l-301 -221zM418 500 h377l-189 440z" />
<glyph horiz-adv-x="1329" d="M27 0v37q46 14 96.5 67t81.5 125l434 1008h55l443 -1004q40 -92 78.5 -134.5t87.5 -61.5v-37h-469v37q138 52 75 199l-75 176h-453l-76 -181q-52 -125 121 -194v-37h-399zM369 1456q10 134 58.5 203.5t127.5 69.5q39 0 78 -21.5t65 -47.5t57.5 -47.5t57.5 -21.5 q42 0 74.5 33t44.5 94l24 -6q-10 -133 -59.5 -203.5t-128.5 -70.5q-39 0 -78.5 21t-65 46.5t-56.5 46.5t-56 21q-72 0 -119 -123zM418 500h377l-189 440z" />
<glyph horiz-adv-x="1329" d="M27 0v37q46 14 96.5 67t81.5 125l434 1008h55l443 -1004q40 -92 78.5 -134.5t87.5 -61.5v-37h-469v37q138 52 75 199l-75 176h-453l-76 -181q-52 -125 121 -194v-37h-399zM356 1606q0 59 37 99t92 40q57 0 95 -40t38 -99q0 -58 -38.5 -99t-94.5 -41q-55 0 -92 41t-37 99z M418 500h377l-189 440zM709 1606q0 59 37 99t92 40q57 0 95 -40t38 -99q0 -58 -38.5 -99t-94.5 -41q-55 0 -92 41t-37 99z" />
<glyph horiz-adv-x="1329" d="M27 0v37q46 14 96.5 67t81.5 125l434 1008h55l443 -1004q40 -92 78.5 -134.5t87.5 -61.5v-37h-469v37q138 52 75 199l-75 176h-453l-76 -181q-52 -125 121 -194v-37h-399zM403 1645q0 100 75 172.5t186 72.5q109 0 183.5 -72t74.5 -173q0 -100 -75.5 -173t-182.5 -73 t-184 73.5t-77 172.5zM418 500h377l-189 440zM553 1645q0 -88 28 -135.5t83 -47.5q108 0 108 183q0 180 -108 180q-111 0 -111 -180z" />
<glyph horiz-adv-x="1320" d="M111 16v37q61 20 96 66t35 104v783q0 57 -35 102.5t-96 65.5v38q334 33 487 33q242 0 376 -70t134 -188q0 -59 -26 -110t-70.5 -87.5t-99.5 -61t-119 -38.5q82 -14 154 -41t131 -68.5t93.5 -101.5t34.5 -131q0 -165 -152 -264.5t-425 -99.5q-174 0 -518 32zM444 242 q0 -174 213 -174q141 0 229.5 72t88.5 198q0 148 -89 227.5t-247 79.5h-195v-403zM444 733h195q119 0 189.5 60.5t70.5 169.5q0 92 -74 143t-192 51q-189 0 -189 -172v-252z" />
<glyph horiz-adv-x="1277" d="M121 594q0 136 52.5 258.5t141 210t211.5 139t258 51.5q162 0 365 -79l-102 -304h-27q-34 129 -128.5 197t-213.5 68q-164 0 -262.5 -126.5t-98.5 -336.5q0 -145 55 -270t160 -203t238 -78q125 0 215.5 62t163.5 179l37 -16q-55 -160 -188 -265.5t-304 -105.5 q-113 0 -218 47t-183 128t-125 197t-47 247z" />
<glyph horiz-adv-x="1277" d="M121 594q0 136 52.5 258.5t141 210t211.5 139t258 51.5q162 0 365 -79l-102 -304h-27q-34 129 -128.5 197t-213.5 68q-164 0 -262.5 -126.5t-98.5 -336.5q0 -145 55 -270t160 -203t238 -78q125 0 215.5 62t163.5 179l37 -16q-53 -156 -183 -261.5t-296 -109.5l-11 -59 q93 -9 147 -53.5t54 -114.5q0 -86 -75 -147.5t-173 -61.5q-88 0 -145.5 32t-57.5 81q0 33 20 57.5t56 24.5q34 0 59 -19.5t31 -50.5q4 -36 15 -47.5t35 -11.5q44 0 72 23t28 71q0 95 -139 106h-25l37 175q-140 15 -257 97t-187 218t-70 299z" />
<glyph horiz-adv-x="1439" d="M111 16v39q61 18 96 71t35 122v756q0 61 -34.5 105.5t-96.5 64.5v38q274 33 454 33q176 0 319 -48t238 -134t146 -205t51 -260q0 -115 -39 -215t-108 -172.5t-161 -124t-200 -77t-223 -25.5q-191 0 -477 32zM444 244q0 -166 174 -166q228 0 348.5 134t120.5 374 q0 270 -124 416.5t-357 146.5q-84 0 -123 -35t-39 -113v-757z" />
<glyph horiz-adv-x="1302" d="M111 0v39q61 19 96 68.5t35 123.5v766q0 161 -131 193v39h827q81 0 121 37h20l70 -375l-29 -8q-80 130 -183 192t-263 62q-105 0 -167.5 -42.5t-62.5 -113.5v-274h304q98 0 155 27.5t94 103.5h27v-355h-27q-37 76 -94 103.5t-155 27.5h-304v-354q0 -77 62 -122.5 t168 -45.5q171 0 279 61.5t218 208.5h29l-102 -399h-27q-34 23 -55 30t-58 7h-847z" />
<glyph horiz-adv-x="1302" d="M111 0v39q61 19 96 68.5t35 123.5v766q0 161 -131 193v39h827q81 0 121 37h20l70 -375l-29 -8q-80 130 -183 192t-263 62q-105 0 -167.5 -42.5t-62.5 -113.5v-274h304q98 0 155 27.5t94 103.5h27v-355h-27q-37 76 -94 103.5t-155 27.5h-304v-354q0 -77 62 -122.5 t168 -45.5q171 0 279 61.5t218 208.5h29l-102 -399h-27q-34 23 -55 30t-58 7h-847zM399 1720.5q-1 38.5 31 65.5q21 19 46.5 20t46.5 -10.5t40 -32.5q34 -37 93 -148.5t120 -203.5l-22 -20q-79 66 -185.5 143.5t-138.5 112.5q-30 35 -31 73.5z" />
<glyph horiz-adv-x="1302" d="M111 0v39q61 19 96 68.5t35 123.5v766q0 161 -131 193v39h827q81 0 121 37h20l70 -375l-29 -8q-80 130 -183 192t-263 62q-105 0 -167.5 -42.5t-62.5 -113.5v-274h304q98 0 155 27.5t94 103.5h27v-355h-27q-37 76 -94 103.5t-155 27.5h-304v-354q0 -77 62 -122.5 t168 -45.5q171 0 279 61.5t218 208.5h29l-102 -399h-27q-34 23 -55 30t-58 7h-847zM530 1411q61 92 120 203.5t93 148.5q18 21 40 32.5t47.5 10.5t46.5 -20q32 -27 31 -65.5t-31 -73.5q-32 -35 -138.5 -112.5t-185.5 -143.5z" />
<glyph horiz-adv-x="1302" d="M111 0v39q61 19 96 68.5t35 123.5v766q0 161 -131 193v39h827q81 0 121 37h20l70 -375l-29 -8q-80 130 -183 192t-263 62q-105 0 -167.5 -42.5t-62.5 -113.5v-274h304q98 0 155 27.5t94 103.5h27v-355h-27q-37 76 -94 103.5t-155 27.5h-304v-354q0 -77 62 -122.5 t168 -45.5q171 0 279 61.5t218 208.5h29l-102 -399h-27q-34 23 -55 30t-58 7h-847zM328 1401l229 354q32 46 98 44.5t95 -44.5l235 -354l-18 -12l-308 221h-12l-301 -221z" />
<glyph horiz-adv-x="1302" d="M111 0v39q61 19 96 68.5t35 123.5v766q0 161 -131 193v39h827q81 0 121 37h20l70 -375l-29 -8q-80 130 -183 192t-263 62q-105 0 -167.5 -42.5t-62.5 -113.5v-274h304q98 0 155 27.5t94 103.5h27v-355h-27q-37 76 -94 103.5t-155 27.5h-304v-354q0 -77 62 -122.5 t168 -45.5q171 0 279 61.5t218 208.5h29l-102 -399h-27q-34 23 -55 30t-58 7h-847zM346 1599q0 59 37 99.5t92 40.5q57 0 95 -40.5t38 -99.5q0 -58 -38.5 -98.5t-94.5 -40.5q-55 0 -92 40.5t-37 98.5zM698 1599q0 59 37 99.5t92 40.5q57 0 95.5 -40.5t38.5 -99.5 q0 -57 -38.5 -98t-95.5 -41q-55 0 -92 40.5t-37 98.5z" />
<glyph horiz-adv-x="1222" d="M111 0v39q61 19 96 68.5t35 123.5v766q0 84 -35 137t-96 56v39h809q19 0 39 2t32.5 4.5t28 5.5t20.5 4h21l72 -340l-27 -8q-82 138 -183 189t-255 51q-224 0 -224 -146v-305h285q101 0 163 29t97 104h19v-366h-19q-45 69 -106.5 102t-151.5 33h-287v-357q0 -73 36 -123 t98 -69v-39h-467z" />
<glyph horiz-adv-x="1429" d="M121 604q0 182 78 328.5t228.5 233.5t348.5 87q243 0 426 -88l-96 -274h-21q-39 128 -131 196t-231 68q-127 0 -211.5 -70.5t-122 -190.5t-37.5 -286q0 -260 107.5 -398t296.5 -138q109 0 170 41.5t61 111.5v244q0 83 -35 136t-96 57v38h465v-38q-61 -4 -96 -57t-35 -136 v-244q0 -77 26 -123t72 -47v-39q-191 -32 -500 -32q-133 0 -251.5 39.5t-212 114.5t-148.5 195.5t-55 270.5z" />
<glyph horiz-adv-x="1472" d="M111 0v39q131 38 131 192v766q0 84 -33 129.5t-98 63.5v39h464v-39q-131 -38 -131 -193v-239h582v239q0 156 -129 193v39h463v-39q-65 -18 -98 -63.5t-33 -129.5v-766q0 -159 131 -192v-39h-463v39q129 38 129 192v428h-582v-428q0 -158 131 -192v-39h-464z" />
<glyph horiz-adv-x="688" d="M111 0v39q61 18 96 67.5t35 124.5v766q0 156 -131 193v39h467v-39q-134 -38 -134 -193v-766q0 -75 36.5 -126t97.5 -66v-39h-467z" />
<glyph horiz-adv-x="688" d="M90 1720.5q-1 38.5 31 65.5q21 19 46.5 20t46.5 -10.5t40 -32.5q34 -37 93 -148.5t120 -203.5l-23 -20q-78 65 -184.5 143t-138.5 113q-30 35 -31 73.5zM111 0v39q61 18 96 67.5t35 124.5v766q0 156 -131 193v39h467v-39q-134 -38 -134 -193v-766q0 -75 36.5 -126 t97.5 -66v-39h-467z" />
<glyph horiz-adv-x="688" d="M111 0v39q61 18 96 67.5t35 124.5v766q0 156 -131 193v39h467v-39q-134 -38 -134 -193v-766q0 -75 36.5 -126t97.5 -66v-39h-467zM221 1411q61 92 120 203.5t93 148.5q19 21 40 32.5t46.5 10.5t46.5 -20q32 -27 31 -65.5t-31 -73.5q-32 -35 -138.5 -113t-184.5 -143z" />
<glyph horiz-adv-x="688" d="M18 1401l230 354q32 46 97.5 44.5t94.5 -44.5l236 -354l-19 -12l-307 221h-12l-301 -221zM111 0v39q61 18 96 67.5t35 124.5v766q0 156 -131 193v39h467v-39q-134 -38 -134 -193v-766q0 -75 36.5 -126t97.5 -66v-39h-467z" />
<glyph horiz-adv-x="688" d="M37 1599q0 59 37 99.5t92 40.5q57 0 95 -40.5t38 -99.5q0 -58 -38.5 -98.5t-94.5 -40.5q-55 0 -92 40.5t-37 98.5zM111 0v39q61 18 96 67.5t35 124.5v766q0 156 -131 193v39h467v-39q-134 -38 -134 -193v-766q0 -75 36.5 -126t97.5 -66v-39h-467zM389 1599q0 59 37 99.5 t92 40.5q57 0 95 -40.5t38 -99.5q0 -58 -38.5 -98.5t-94.5 -40.5q-55 0 -92 40.5t-37 98.5z" />
<glyph horiz-adv-x="970" d="M31 154q0 45 30 75.5t86 30.5q41 0 71 -19.5t48.5 -47.5t35.5 -56t41.5 -47.5t57.5 -19.5q65 0 110.5 63t45.5 184v680q0 161 -131 193v39h448v-39q-114 -25 -114 -193v-680q0 -164 -115 -254t-289 -90q-159 0 -242 52.5t-83 128.5z" />
<glyph horiz-adv-x="1411" d="M111 0v39q61 18 96 67.5t35 124.5v766q0 156 -131 193v39h464v-39q-131 -38 -131 -193v-458l445 462q32 34 41 73.5t-10.5 72t-67.5 43.5v39h426v-39q-53 -16 -117 -61.5t-103 -82.5t-104 -104l-180 -184l404 -565q42 -59 81 -96.5t91 -55.5v-41h-432v41q107 18 38 117 l-311 467l-201 -205v-189q0 -76 35 -126.5t96 -65.5v-39h-464z" />
<glyph horiz-adv-x="1153" d="M111 0v39q61 19 96 68.5t35 123.5v766q0 161 -131 193v39h464v-39q-131 -38 -131 -193v-737q0 -77 62 -122.5t168 -45.5q55 0 101 12.5t80 30.5t73 57t66.5 73t74.5 97h29l-103 -399h-26q-37 23 -58.5 30t-58.5 7h-741z" />
<glyph horiz-adv-x="1843" d="M86 0v39q53 20 90.5 67.5t48.5 106.5l148 817q9 52 -24.5 96t-96.5 64v39h352l314 -881l342 881h339v-39q-63 -20 -95 -64.5t-23 -97.5l147 -852q9 -52 40.5 -83.5t88.5 -53.5v-39h-444v39q63 28 90.5 58t19.5 79l-143 842l-403 -1034h-41l-375 1042l-144 -813 q-9 -58 20.5 -104.5t88.5 -69.5v-39h-340z" />
<glyph horiz-adv-x="1386" d="M106 0v39q136 41 136 194v787q0 67 -32.5 107t-96.5 63v39h290l676 -850v616q0 88 -34 132.5t-101 62.5v39h352v-39q-61 -16 -90.5 -60.5t-29.5 -134.5v-1028h-27l-811 1016v-750q0 -153 139 -194v-39h-371z" />
<glyph horiz-adv-x="1386" d="M106 0v39q136 41 136 194v787q0 67 -32.5 107t-96.5 63v39h290l676 -850v616q0 88 -34 132.5t-101 62.5v39h352v-39q-61 -16 -90.5 -60.5t-29.5 -134.5v-1028h-27l-811 1016v-750q0 -153 139 -194v-39h-371zM399 1456q10 133 59 203t128 70q39 0 78 -21.5t65 -47.5 t57.5 -47.5t57.5 -21.5q42 0 74.5 33t44.5 94l24 -6q-10 -133 -59.5 -203.5t-128.5 -70.5q-39 0 -78.5 21t-65 46.5t-56.5 46.5t-56 21q-72 0 -119 -123z" />
<glyph horiz-adv-x="1441" d="M121 614q0 135 46.5 254t126.5 203.5t191.5 133t237.5 48.5q125 0 235.5 -48.5t190.5 -132.5t126 -203t46 -255q0 -181 -80 -328t-217 -229t-301 -82t-301.5 82.5t-219 229.5t-81.5 327zM352 614q0 -149 41 -269.5t126.5 -195.5t203.5 -75q117 0 201.5 75t125 195.5 t40.5 269.5q0 88 -14 168t-43.5 148.5t-72 118t-103.5 78t-134 28.5q-92 0 -164 -43.5t-116.5 -119t-67.5 -171.5t-23 -207z" />
<glyph horiz-adv-x="1441" d="M121 614q0 135 46.5 254t126.5 203.5t191.5 133t237.5 48.5q125 0 235.5 -48.5t190.5 -132.5t126 -203t46 -255q0 -181 -80 -328t-217 -229t-301 -82t-301.5 82.5t-219 229.5t-81.5 327zM352 614q0 -149 41 -269.5t126.5 -195.5t203.5 -75q117 0 201.5 75t125 195.5 t40.5 269.5q0 88 -14 168t-43.5 148.5t-72 118t-103.5 78t-134 28.5q-92 0 -164 -43.5t-116.5 -119t-67.5 -171.5t-23 -207zM467 1720.5q-1 38.5 31 65.5q21 19 46.5 20t46.5 -10.5t40 -32.5q34 -37 93 -148.5t120 -203.5l-23 -20q-78 65 -184.5 143t-138.5 113 q-30 35 -31 73.5z" />
<glyph horiz-adv-x="1441" d="M121 614q0 135 46.5 254t126.5 203.5t191.5 133t237.5 48.5q125 0 235.5 -48.5t190.5 -132.5t126 -203t46 -255q0 -181 -80 -328t-217 -229t-301 -82t-301.5 82.5t-219 229.5t-81.5 327zM352 614q0 -149 41 -269.5t126.5 -195.5t203.5 -75q117 0 201.5 75t125 195.5 t40.5 269.5q0 88 -14 168t-43.5 148.5t-72 118t-103.5 78t-134 28.5q-92 0 -164 -43.5t-116.5 -119t-67.5 -171.5t-23 -207zM598 1411q61 92 120 203.5t93 148.5q19 21 40 32.5t46.5 10.5t46.5 -20q32 -27 31 -65.5t-31 -73.5q-32 -35 -138.5 -113t-184.5 -143z" />
<glyph horiz-adv-x="1441" d="M121 614q0 135 46.5 254t126.5 203.5t191.5 133t237.5 48.5q125 0 235.5 -48.5t190.5 -132.5t126 -203t46 -255q0 -181 -80 -328t-217 -229t-301 -82t-301.5 82.5t-219 229.5t-81.5 327zM352 614q0 -149 41 -269.5t126.5 -195.5t203.5 -75q117 0 201.5 75t125 195.5 t40.5 269.5q0 88 -14 168t-43.5 148.5t-72 118t-103.5 78t-134 28.5q-92 0 -164 -43.5t-116.5 -119t-67.5 -171.5t-23 -207zM395 1401l230 354q32 46 97.5 44.5t94.5 -44.5l236 -354l-19 -12l-307 221h-12l-301 -221z" />
<glyph horiz-adv-x="1441" d="M121 614q0 135 46.5 254t126.5 203.5t191.5 133t237.5 48.5q125 0 235.5 -48.5t190.5 -132.5t126 -203t46 -255q0 -181 -80 -328t-217 -229t-301 -82t-301.5 82.5t-219 229.5t-81.5 327zM352 614q0 -149 41 -269.5t126.5 -195.5t203.5 -75q117 0 201.5 75t125 195.5 t40.5 269.5q0 88 -14 168t-43.5 148.5t-72 118t-103.5 78t-134 28.5q-92 0 -164 -43.5t-116.5 -119t-67.5 -171.5t-23 -207zM426 1450q10 133 58.5 202.5t127.5 69.5q39 0 78 -21.5t65 -47t57.5 -47t57.5 -21.5q42 0 74.5 33t44.5 94l25 -6q-10 -133 -60 -203.5t-129 -70.5 q-39 0 -78.5 21t-65 46.5t-56.5 46.5t-56 21q-71 0 -118 -123z" />
<glyph horiz-adv-x="1441" d="M121 614q0 135 46.5 254t126.5 203.5t191.5 133t237.5 48.5q125 0 235.5 -48.5t190.5 -132.5t126 -203t46 -255q0 -181 -80 -328t-217 -229t-301 -82t-301.5 82.5t-219 229.5t-81.5 327zM352 614q0 -149 41 -269.5t126.5 -195.5t203.5 -75q117 0 201.5 75t125 195.5 t40.5 269.5q0 88 -14 168t-43.5 148.5t-72 118t-103.5 78t-134 28.5q-92 0 -164 -43.5t-116.5 -119t-67.5 -171.5t-23 -207zM414 1599q0 59 37 99.5t92 40.5q57 0 95 -40.5t38 -99.5q0 -58 -38.5 -98.5t-94.5 -40.5q-55 0 -92 40.5t-37 98.5zM766 1599q0 59 37 99.5t92 40.5 q57 0 95 -40.5t38 -99.5q0 -58 -38.5 -98.5t-94.5 -40.5q-55 0 -92 40.5t-37 98.5z" />
<glyph horiz-adv-x="1275" d="M111 0v39q131 32 131 192v762q0 77 -35 127t-96 54v38q290 33 544 33q239 0 391 -110t152 -285q0 -104 -47.5 -186t-128 -132t-181.5 -76t-214 -26q-89 0 -183 25v-224q0 -151 131 -192v-39h-464zM444 547q90 -19 160 -19q181 0 274 74t93 211q0 151 -97 246.5t-241 95.5 q-89 0 -139 -45t-50 -127v-436z" />
<glyph horiz-adv-x="1427" d="M121 614q0 135 46.5 254t126.5 203.5t191.5 133t237.5 48.5q125 0 235.5 -48.5t190.5 -132.5t126 -203t46 -255q0 -176 -76 -319t-207 -227q93 -145 199 -248l-20 -29q-172 104 -299 217q-101 -33 -195 -33q-164 0 -301.5 82.5t-219 229.5t-81.5 327zM352 614 q0 -149 41 -269.5t126.5 -195.5t203.5 -75q56 0 106 18q-108 111 -174 219h246q35 -72 64 -121q61 74 93 184.5t32 239.5q0 88 -14 168t-43.5 148.5t-72 118t-103.5 78t-134 28.5q-92 0 -164 -43.5t-116.5 -119t-67.5 -171.5t-23 -207z" />
<glyph horiz-adv-x="1290" d="M111 0v39q131 32 131 192v762q0 77 -35 127t-96 54v38q257 33 493 33q245 0 391 -103.5t146 -275.5q0 -140 -100.5 -231.5t-258.5 -124.5q88 -179 235.5 -346t287.5 -252l-11 -31q-234 66 -424.5 226.5t-306.5 388.5q-82 8 -119 16v-281q0 -151 131 -192v-39h-464z M444 596q61 -10 136 -10q165 0 249 67t84 193q0 137 -82.5 223t-203.5 86q-81 0 -132 -42t-51 -116v-401z" />
<glyph horiz-adv-x="1226" d="M78 92l121 293h26q41 -142 150.5 -222.5t273.5 -80.5q137 0 218 67t81 173q0 49 -26.5 84.5t-71 57t-102 38t-121.5 30.5t-128 30t-121.5 42t-102 62t-71 94t-26.5 133q0 160 136 260t352 100q174 0 378 -79l-73 -269h-27q-82 242 -352 242q-108 0 -183 -55.5t-75 -147.5 q0 -48 26.5 -83.5t70.5 -56.5t102 -37t121.5 -29.5t127 -29.5t121.5 -42t102 -62t70.5 -94t26.5 -133q0 -177 -144.5 -289.5t-373.5 -112.5q-119 0 -258 35t-248 82z" />
<glyph horiz-adv-x="1239" d="M59 901l72 344h23q4 -1 27 -5.5t45 -7.5t46 -3h699q24 0 46 3t45.5 7.5t27.5 5.5h20l72 -344l-33 -2q-74 124 -149.5 179t-159.5 55q-55 0 -86 -30.5t-31 -92.5v-764q0 -175 127 -207v-39h-459v39q129 31 129 207v764q0 62 -36.5 92.5t-100.5 30.5q-78 0 -148.5 -55.5 t-142.5 -178.5z" />
<glyph horiz-adv-x="1402" d="M96 1190v39h445v-39q-129 -40 -129 -193v-600q0 -150 88.5 -233t244.5 -88q150 0 244 82.5t94 238.5v574q0 93 -37 144.5t-110 74.5v39h373v-39q-64 -20 -96.5 -71.5t-32.5 -147.5v-574q0 -138 -65 -235.5t-170 -143t-238 -45.5q-143 0 -254 47.5t-176.5 145t-65.5 231.5 v600q0 155 -115 193z" />
<glyph horiz-adv-x="1402" d="M96 1190v39h445v-39q-129 -40 -129 -193v-600q0 -150 88.5 -233t244.5 -88q150 0 244 82.5t94 238.5v574q0 93 -37 144.5t-110 74.5v39h373v-39q-64 -20 -96.5 -71.5t-32.5 -147.5v-574q0 -138 -65 -235.5t-170 -143t-238 -45.5q-143 0 -254 47.5t-176.5 145t-65.5 231.5 v600q0 155 -115 193zM489 1720.5q-1 38.5 31 65.5q21 19 46.5 20t46.5 -10.5t40 -32.5q34 -37 93 -148.5t120 -203.5l-22 -20q-79 66 -185.5 143.5t-138.5 112.5q-30 35 -31 73.5z" />
<glyph horiz-adv-x="1402" d="M96 1190v39h445v-39q-129 -40 -129 -193v-600q0 -150 88.5 -233t244.5 -88q150 0 244 82.5t94 238.5v574q0 93 -37 144.5t-110 74.5v39h373v-39q-64 -20 -96.5 -71.5t-32.5 -147.5v-574q0 -138 -65 -235.5t-170 -143t-238 -45.5q-143 0 -254 47.5t-176.5 145t-65.5 231.5 v600q0 155 -115 193zM621 1411q61 92 120 203.5t93 148.5q19 21 40 32.5t46.5 10.5t46.5 -20q32 -27 31 -65.5t-31 -73.5q-32 -35 -138.5 -112.5t-185.5 -143.5z" />
<glyph horiz-adv-x="1402" d="M96 1190v39h445v-39q-129 -40 -129 -193v-600q0 -150 88.5 -233t244.5 -88q150 0 244 82.5t94 238.5v574q0 93 -37 144.5t-110 74.5v39h373v-39q-64 -20 -96.5 -71.5t-32.5 -147.5v-574q0 -138 -65 -235.5t-170 -143t-238 -45.5q-143 0 -254 47.5t-176.5 145t-65.5 231.5 v600q0 155 -115 193zM418 1401l229 354q32 46 98 44.5t95 -44.5l235 -354l-18 -12l-307 221h-13l-301 -221z" />
<glyph horiz-adv-x="1402" d="M96 1190v39h445v-39q-129 -40 -129 -193v-600q0 -150 88.5 -233t244.5 -88q150 0 244 82.5t94 238.5v574q0 93 -37 144.5t-110 74.5v39h373v-39q-64 -20 -96.5 -71.5t-32.5 -147.5v-574q0 -138 -65 -235.5t-170 -143t-238 -45.5q-143 0 -254 47.5t-176.5 145t-65.5 231.5 v600q0 155 -115 193zM436 1599q0 59 37 99.5t92 40.5q57 0 95 -40.5t38 -99.5q0 -58 -38.5 -98.5t-94.5 -40.5q-55 0 -92 40.5t-37 98.5zM788 1599q0 59 37.5 99.5t92.5 40.5q57 0 95 -40.5t38 -99.5q0 -58 -38.5 -98.5t-94.5 -40.5q-55 0 -92.5 40.5t-37.5 98.5z" />
<glyph horiz-adv-x="1323" d="M23 1192v37h466v-37q-138 -52 -75 -199l305 -708l301 712q52 126 -121 195v37h399v-37q-46 -14 -96.5 -67t-81.5 -126l-434 -1007h-55l-443 1003q-40 92 -78.5 135t-86.5 62z" />
<glyph horiz-adv-x="1865" d="M27 1190v39h460v-39q-38 -15 -60.5 -39.5t-30.5 -67t16 -100.5l256 -664l229 584l-31 80q-34 93 -76 140.5t-94 66.5v39h469v-39q-142 -56 -86 -207l244 -651l244 653q15 35 12 65t-13 51.5t-30.5 39.5t-40 29.5t-41.5 19.5v39h379v-39q-40 -11 -87.5 -72t-76.5 -131 l-377 -995h-57l-291 782l-307 -782h-57l-385 991q-36 95 -76.5 141.5t-91.5 65.5z" />
<glyph horiz-adv-x="1343" d="M51 0v39q115 34 236 205l272 383l-268 370q-58 81 -114.5 130.5t-98.5 62.5v39h504v-39q-151 -36 -39 -193l170 -237l164 239q105 152 -54 191v39h389v-39q-111 -27 -225 -195l-215 -315l311 -434q60 -85 120.5 -140.5t99.5 -66.5v-39h-498v39q72 19 80.5 70.5 t-51.5 136.5l-218 301l-213 -303q-61 -90 -50 -138t89 -67v-39h-391z" />
<glyph horiz-adv-x="1261" d="M-2 1190v39h524v-39q-74 -34 -94.5 -89.5t18.5 -117.5l244 -371l240 373q33 54 1 109.5t-118 95.5v39h432v-39q-80 -26 -198 -203l-314 -485v-256q0 -182 125 -207v-39h-457v39q129 29 129 207v250l-325 487q-53 79 -108.5 136t-98.5 71z" />
<glyph horiz-adv-x="1261" d="M-2 1190v39h524v-39q-74 -34 -94.5 -89.5t18.5 -117.5l244 -371l240 373q33 54 1 109.5t-118 95.5v39h432v-39q-80 -26 -198 -203l-314 -485v-256q0 -182 125 -207v-39h-457v39q129 29 129 207v250l-325 487q-53 79 -108.5 136t-98.5 71zM551 1411q61 92 120 203.5 t93 148.5q19 21 40 32.5t46.5 10.5t46.5 -20q32 -27 31 -65.5t-31 -73.5q-32 -35 -138.5 -112.5t-185.5 -143.5z" />
<glyph horiz-adv-x="1261" d="M-2 1190v39h524v-39q-74 -34 -94.5 -89.5t18.5 -117.5l244 -371l240 373q33 54 1 109.5t-118 95.5v39h432v-39q-80 -26 -198 -203l-314 -485v-256q0 -182 125 -207v-39h-457v39q129 29 129 207v250l-325 487q-53 79 -108.5 136t-98.5 71zM367 1599q0 59 37 99.5t92 40.5 q57 0 95 -40.5t38 -99.5q0 -58 -38.5 -98.5t-94.5 -40.5q-55 0 -92 40.5t-37 98.5zM719 1599q0 59 37 99.5t92 40.5q57 0 95 -40.5t38 -99.5q0 -58 -38.5 -98.5t-94.5 -40.5q-55 0 -92 40.5t-37 98.5z" />
<glyph horiz-adv-x="1228" d="M94 0v41l748 1092h-275q-131 0 -229 -38.5t-199 -121.5l-20 6l69 266h23q4 -3 9 -5.5t11.5 -4t11.5 -2.5t14.5 -2t14.5 -1.5t16.5 -0.5h16.5h18.5h18.5h770v-39l-747 -1094h288q155 0 267 43.5t206 136.5l27 -2l-104 -313h-25q-48 39 -141 39h-789z" />
<glyph horiz-adv-x="1851" d="M-51 0v39q55 21 112 65t93 103l544 946q-46 34 -108 37v39h899q18 0 38 2t32.5 4.5t28 5.5t20.5 4h22l70 -313l-25 -2q-31 58 -70 97.5t-79.5 62.5t-99 35t-110.5 15t-134 3q-85 0 -137 -40t-52 -102v-286h303q103 0 164.5 23t91.5 87h23v-319h-23q-39 61 -100.5 89 t-153.5 28h-305v-383q0 -68 52 -111t137 -43q83 0 142 4.5t121 19t109 40t92 68.5t83 104h20l-100 -338h-27q-6 3 -12.5 5.5t-11.5 4.5t-13.5 3t-12.5 1.5t-15 1t-14 0.5h-17h-17h-847v39q59 6 95 60.5t36 131.5v127h-449l-84 -149q-17 -25 -12.5 -48.5t15 -41t33.5 -34 t43 -27t44 -19.5v-39h-434zM395 449h398v483q0 91 -37 155z" />
<glyph horiz-adv-x="1439" d="M76 666v92h166v246q0 61 -34.5 105.5t-96.5 64.5v38q274 33 454 33q176 0 319 -48t238 -134t146 -205t51 -260q0 -115 -39 -215t-108 -172.5t-161 -124t-200 -77t-223 -25.5q-191 0 -477 32v39q61 18 96 71t35 122v418h-166zM444 244q0 -166 174 -166q228 0 348.5 134 t120.5 374q0 270 -124 416.5t-357 146.5q-84 0 -123 -35t-39 -113v-243h334v-92h-334v-422z" />
<glyph horiz-adv-x="1441" d="M121 614q0 135 46.5 254t126.5 203.5t191.5 133t237.5 48.5q69 0 141 -16l33 106h92l-41 -133q168 -69 270.5 -228.5t102.5 -367.5q0 -181 -80 -328t-217 -229t-301 -82q-79 0 -152 21l-39 -127h-92l47 156q-164 72 -265 230t-101 359zM352 614q0 -153 44.5 -277.5 t129.5 -193.5l308 994q-53 18 -111 18q-92 0 -164 -43.5t-116.5 -119t-67.5 -171.5t-23 -207zM602 96q58 -22 121 -22q117 0 201.5 75t125 195.5t40.5 269.5q0 159 -45.5 286t-133.5 194z" />
<glyph horiz-adv-x="1275" d="M111 0v39q131 32 131 192v766q0 84 -33 129.5t-98 63.5v39h464v-39q-123 -32 -131 -174q140 4 211 4q239 0 391 -104.5t152 -270.5q0 -99 -47.5 -176.5t-128 -125.5t-181.5 -72.5t-214 -24.5q-92 0 -183 24v-39q0 -151 131 -192v-39h-464zM444 362q86 -18 160 -18 q181 0 274 68.5t93 195.5q0 142 -97 232t-241 90q-89 0 -139 -45t-50 -127v-396z" />
<glyph horiz-adv-x="2078" d="M143 625q0 131 39.5 237t107 176.5t162 117.5t199.5 68t223 21q156 0 326 -16h516q81 0 121 37h21l69 -375l-29 -8q-80 130 -183 192t-263 62q-105 0 -167 -42.5t-62 -113.5v-274h303q98 0 156 27.5t94 103.5h26v-355h-26q-36 76 -94 103.5t-156 27.5h-303v-354 q0 -77 62 -122.5t167 -45.5q171 0 279.5 61.5t218.5 208.5h28l-102 -399h-27q-34 23 -54.5 30t-57.5 7h-527q-147 -16 -313 -16q-353 0 -553.5 176.5t-200.5 464.5zM373 643q0 -267 125 -413t358 -146q70 0 109 23t51 73q4 32 4 51v760q0 78 -45 118t-131 40 q-240 0 -355.5 -116.5t-115.5 -389.5z" />
<glyph horiz-adv-x="761" d="M248 1116q0 70 36 120t99 50t97 -49.5t34 -120.5q0 -76 -25.5 -200.5t-51 -271t-25.5 -275.5h-62q0 130 -25.5 276.5t-51 270.5t-25.5 200zM256 113q0 57 36.5 96t90.5 39q53 0 90 -39t37 -96q0 -56 -37.5 -96t-89.5 -40q-54 0 -90.5 40t-36.5 96z" />
<glyph horiz-adv-x="1069" d="M86 1047q0 84 103 145t290 61q127 0 233.5 -46.5t169 -129.5t62.5 -184q0 -147 -130 -262.5t-335 -128.5q-30 -3 -46.5 -24.5t-14.5 -51.5l2 -57h-92l-17 129q-6 51 23.5 83t81.5 35q163 9 261.5 98.5t98.5 225.5q0 97 -68 153t-171 56q-57 0 -101 -21t-70.5 -50.5 t-50.5 -59.5t-55.5 -51t-71.5 -21q-46 0 -74 30t-28 71zM256 113q0 57 36.5 96t90.5 39q53 0 90 -39t37 -96q0 -56 -37.5 -96t-89.5 -40q-54 0 -90.5 40t-36.5 96z" />
<glyph horiz-adv-x="1511" d="M104 305q0 143 115 269.5t268 170.5q-48 68 -69 122t-21 110q0 116 90 194t232 78q111 0 196.5 -38t85.5 -93q0 -32 -27.5 -55t-72.5 -23q-35 0 -60 14.5t-40.5 35.5t-32 42t-45 35.5t-68.5 14.5q-51 0 -90 -45.5t-39 -112.5q0 -40 34 -87t110 -126l252 -268 q30 145 117.5 225t201.5 80q69 0 116.5 -32t47.5 -79q0 -28 -28 -51.5t-66 -23.5q-35 0 -61 8.5t-39 18t-33.5 18t-44.5 8.5q-45 0 -91 -65t-67 -167l278 -297q114 -123 179 -157v-29h-435v29q33 18 40 45t-6.5 54t-41.5 58l-98 109q-70 -154 -177.5 -237t-242.5 -83 q-152 0 -259.5 93t-107.5 237zM276 319q0 -91 69.5 -163t178.5 -72q96 0 174.5 61.5t151.5 194.5l-326 358q-124 -51 -186 -150.5t-62 -228.5z" />
</font>
</defs>
</svg>
