<?xml version="1.0" encoding="UTF-8"?>
<svg width="150px" height="151px" viewBox="0 0 150 151" version="1.1" xmlns="http://www.w3.org/2000/svg" xmlns:xlink="http://www.w3.org/1999/xlink">
    <!-- Generator: Sketch 61 (89581) - https://sketch.com -->
    <title>Star</title>
    <desc>Created with Sketch.</desc>
    <g id="Page-1" stroke="none" stroke-width="1" fill="none" fill-rule="evenodd">
        <g id="Pangram-—-Black-Copy-3" transform="translate(-853.000000, -677.000000)" fill="#59EB50">
            <g id="Group" transform="translate(825.000000, 650.000000)">
                <polygon id="Star" transform="translate(102.000000, 102.000000) rotate(-29.000000) translate(-102.000000, -102.000000) " points="102 159.965332 86.3533108 176.844156 78.8869766 155.025446 57.7653871 164.045882 59.770405 141.059939 36.8260299 140.662272 47.955714 120.483575 27.1558442 110.736564 45.485771 96.8541926 30.4268929 79.4431858 52.7876516 74.2575279 46.0735821 52.1930461 68.5987943 56.6007492 71.390457 33.6979417 90.185309 46.936874 102 27.1558442 113.814691 46.936874 132.609543 33.6979417 135.401206 56.6007492 157.926418 52.1930461 151.212348 74.2575279 173.573107 79.4431858 158.514229 96.8541926 176.844156 110.736564 156.044286 120.483575 167.17397 140.662272 144.229595 141.059939 146.234613 164.045882 125.113023 155.025446 117.646689 176.844156"></polygon>
            </g>
        </g>
    </g>
</svg>