<?xml version="1.0" encoding="UTF-8"?>
<svg width="23px" height="22px" viewBox="0 0 23 22" version="1.1" xmlns="http://www.w3.org/2000/svg" xmlns:xlink="http://www.w3.org/1999/xlink">
    <!-- Generator: Sketch 64 (93537) - https://sketch.com -->
    <title>closedhand</title>
    <desc>Created with Sketch.</desc>
    <defs>
        <path d="M6.24119375,10.907452 C6.00113125,10.1067645 5.9951514,10.110225 5.8111514,9.5726 C5.5883389,8.9185375 5.5537527,8.79353373 5.4200652,8.23003373 C5.2490027,7.49834623 5.56997504,6.57277046 6.37847751,6.154225 C7.18697997,5.73567954 8.09425269,6.19211556 8.46338131,6.67761608 C8.83250994,7.1631166 9.09536533,7.54657448 9.20229606,7.8519125 C9.30922679,8.15725052 9.37925625,8.4226 9.44681875,8.8725375 L9.56900625,9.5222875 C9.56756875,9.4647875 9.56900625,8.28754652 9.56900625,8.23003373 C9.56900625,7.60326956 9.65485558,6.85914343 9.70093682,6.67761608 C9.85778949,6.0597281 10.0397942,5.638254 10.5503648,5.35958348 C11.0609354,5.08091296 12.0477506,5.1155962 12.4684437,5.23758984 C12.8891369,5.35958348 13.2647128,5.7280566 13.4171945,6.27239662 C13.4601661,6.42579978 13.6316711,6.96734981 13.6446086,7.73353731 C13.6503586,8.06559981 13.7003813,9.6890375 13.7205063,9.4647875 C13.8081938,8.5217875 13.9001289,7.56740297 14.2580664,6.81874283 C14.545043,6.21850413 14.7356084,5.94830696 15.2947959,5.68524446 C15.9143584,5.39343196 16.9592471,5.58305456 17.3775596,6.03299206 C17.7872471,6.47142956 17.8721663,6.88275915 17.9298865,7.42053971 C17.9842374,7.92692876 17.9855688,8.61008337 17.9855688,9.3081 C17.9855688,9.36273799 17.9640063,9.736475 18.0186313,9.569725 C18.1537563,9.167225 18.420963,8.49014833 18.714213,8.03158583 C19.001713,7.58164833 19.2881783,7.34482241 19.674463,7.22514833 C20.4646575,6.98033975 21.1845416,7.50486583 21.5717761,8.15564811 C21.9125722,8.72838643 21.6587099,9.84216052 21.5717761,10.3445375 C21.4175564,11.2357499 21.2144998,12.140693 21.1396005,12.5560432 C21.0361005,13.1224182 20.8576162,14.6930964 20.6779287,15.3227214 C20.5543037,15.7554089 20.2596938,16.5991 19.8557563,17.182725 C19.8557563,17.182725 18.3118813,18.9796 18.1422563,19.787475 C17.9740688,20.5967875 18.0301313,20.6025375 17.9970688,21.1746625 C17.9625688,21.748225 18.1710063,22.501475 18.1710063,22.501475 C18.1710063,22.501475 17.0181313,22.650975 16.3971313,22.55035 C15.8350688,22.461225 15.1393188,21.3414125 14.9596313,21.000725 C14.7123813,20.529225 14.1848188,20.6197875 13.9792563,20.9676625 C13.6558188,21.518225 12.9600687,22.5057875 12.4684437,22.5676 C11.5081937,22.68835 9.51581875,22.610725 7.95613125,22.59635 C7.95613125,22.59635 8.22206875,21.1430375 7.62981875,20.644225 C7.19138125,20.270475 6.43669375,19.517225 5.98531875,19.120475 L4.78931875,17.7965375 C4.38106875,17.2790375 3.45547334,14.8992757 3.21582492,14.1845678 C2.9761765,13.4698599 2.80316734,12.6836289 2.99544017,12.151475 C3.19659994,11.5947247 4.05452032,11.0602881 4.54650344,10.907452 C5.14066586,10.7228736 5.60054477,11.102122 5.8111514,11.5 C5.99106875,11.8165375 5.99106875,11.8165375 6.24119375,12.151475 C6.57181875,12.5927875 6.67531875,12.8112875 6.54881875,12.3254125 C6.40794375,11.78635 6.54306875,11.9208895 6.24119375,10.907452 Z" id="path-1"></path>
        <filter x="-13.2%" y="-8.6%" width="126.4%" height="128.6%" filterUnits="objectBoundingBox" id="filter-2">
            <feMorphology radius="0.5" operator="dilate" in="SourceAlpha" result="shadowSpreadOuter1"></feMorphology>
            <feOffset dx="0" dy="1" in="shadowSpreadOuter1" result="shadowOffsetOuter1"></feOffset>
            <feGaussianBlur stdDeviation="0.5" in="shadowOffsetOuter1" result="shadowBlurOuter1"></feGaussianBlur>
            <feComposite in="shadowBlurOuter1" in2="SourceAlpha" operator="out" result="shadowBlurOuter1"></feComposite>
            <feColorMatrix values="0 0 0 0 0   0 0 0 0 0   0 0 0 0 0  0 0 0 0.5 0" type="matrix" in="shadowBlurOuter1"></feColorMatrix>
        </filter>
    </defs>
    <g id="Page-1" stroke="none" stroke-width="1" fill="none" fill-rule="evenodd" stroke-linecap="round">
        <g id="closedhand" transform="translate(-1.000000, -4.000000)">
            <g id="cursor" stroke-linejoin="round">
                <g id="Path">
                    <use fill="black" fill-opacity="1" filter="url(#filter-2)" xlink:href="#path-1"></use>
                    <use stroke="#000000" stroke-width="1" fill="#FFFFFF" fill-rule="evenodd" xlink:href="#path-1"></use>
                </g>
            </g>
            <line x1="16.5" y1="18" x2="16.5" y2="13" id="cursor" stroke="#000000"></line>
            <line x1="13.508" y1="18" x2="13.492" y2="13" id="cursor" stroke="#000000"></line>
            <line x1="10.4895" y1="13" x2="10.5105" y2="18" id="cursor" stroke="#000000"></line>
        </g>
    </g>
</svg>