<?xml version="1.0" encoding="UTF-8"?>
<svg width="25px" height="26px" viewBox="0 0 25 26" version="1.1" xmlns="http://www.w3.org/2000/svg" xmlns:xlink="http://www.w3.org/1999/xlink">
    <!-- Generator: Sketch 64 (93537) - https://sketch.com -->
    <title>openhand</title>
    <desc>Created with Sketch.</desc>
    <defs>
        <path d="M6.54881875,12.3254125 C6.40794375,11.78635 6.26706875,11.10785 5.96519375,10.0944125 C5.72513125,9.293725 5.47356875,8.8596 5.28956875,8.321975 C5.06675625,7.6679125 4.85400625,7.2855375 4.57656875,6.6242875 C4.37675625,6.15135 4.05331875,5.1177875 3.91963125,4.5542875 C3.74856875,3.8226 3.96706875,3.2260375 4.27038125,2.8206625 C4.63406875,2.33335 5.65325625,2.1162875 6.22106875,2.3161 C6.75438125,2.502975 7.29056875,3.0521 7.53781875,3.44885 C7.95181875,4.1101 8.05100625,4.35735 8.56850625,5.665475 C9.13344375,7.091475 9.37925625,8.4226 9.44681875,8.8725375 L9.56900625,9.5222875 C9.56756875,9.4647875 9.50719375,7.9094125 9.50575625,7.8519125 C9.45544375,6.372725 9.41950625,5.23135 9.45113125,3.6271 C9.45400625,3.445975 9.54313125,2.7832875 9.57188125,2.5992875 C9.68400625,1.8805375 10.0103187,1.4492875 10.5393187,1.191975 C11.1315687,0.9030375 11.8704437,0.8829125 12.5532562,1.1675375 C13.1613187,1.416225 13.4531312,1.9581625 13.5408187,2.6366625 C13.5609437,2.79335 13.6759437,4.055475 13.6745062,4.227975 C13.6558187,5.7014125 13.6831312,6.5869125 13.6960687,7.3531 C13.7018187,7.6851625 13.7003812,9.6890375 13.7205062,9.4647875 C13.8081937,8.5217875 13.8556312,4.8806 14.2150062,3.7981625 C14.4220062,3.175725 14.7971937,2.7257875 15.3563812,2.462725 C15.9759437,2.1709125 16.9563187,2.3621 17.3746312,2.8120375 C17.7843187,3.250475 18.0157562,3.8067875 18.0675062,4.469475 C18.1135062,5.0516625 18.0401937,5.7589125 18.0387562,6.2591625 C18.0387562,7.505475 18.0085687,8.1624125 17.9855687,9.3081 C17.9841312,9.362725 17.9640062,9.736475 18.0186312,9.569725 C18.1537562,9.167225 18.2888812,8.7906 18.4010062,8.4987875 C18.4714437,8.3191 18.7474437,7.6161625 18.9170687,7.263975 C19.0809437,6.9276 19.2203812,6.7335375 19.5136312,6.274975 C19.8011312,5.8250375 20.1101937,5.630975 20.4738812,5.4685375 C21.2501312,5.130725 22.0680687,5.6295375 22.3440687,6.3181 C22.4676937,6.6271625 22.3570062,7.3430375 22.3038187,7.9065375 C22.2161312,8.8366 21.9386937,9.7839125 21.7978187,10.2755375 C21.6138187,10.9181 21.4039437,12.05085 21.3090687,12.576975 C21.2055687,13.14335 20.9726937,14.5636 20.7930062,15.193225 C20.6693812,15.6259125 20.2596937,16.5991 19.8557562,17.182725 C19.8557562,17.182725 18.3118812,18.9796 18.1422562,19.787475 C17.9740687,20.5967875 18.0301312,20.6025375 17.9970687,21.1746625 C17.9625687,21.748225 18.1710062,22.501475 18.1710062,22.501475 C18.1710062,22.501475 17.0181312,22.650975 16.3971312,22.55035 C15.8350687,22.461225 15.1393187,21.3414125 14.9596312,21.000725 C14.7123812,20.529225 14.1848187,20.6197875 13.9792562,20.9676625 C13.6558187,21.518225 12.9600687,22.5057875 12.4684437,22.5676 C11.5081937,22.68835 9.51581875,22.610725 7.95613125,22.59635 C7.95613125,22.59635 8.22206875,21.1430375 7.62981875,20.644225 C7.19138125,20.270475 6.43669375,19.517225 5.98531875,19.120475 L4.78931875,17.7965375 C4.38106875,17.2790375 3.88513125,16.22535 3.00250625,14.9431 C2.50225625,14.2186 1.52619375,13.3834125 1.15675625,12.6732875 C0.83619375,12.06235 0.68094375,11.3019125 0.88363125,10.7686 C1.20706875,9.914725 1.85394375,9.4791625 2.84150625,9.5726 C3.58756875,9.644475 4.06050625,9.868725 4.62113125,10.3445375 C4.94456875,10.6176625 5.44481875,11.1121625 5.69925625,11.4197875 C5.93356875,11.7001 5.99106875,11.8165375 6.24119375,12.151475 C6.57181875,12.5927875 6.67531875,12.8112875 6.54881875,12.3254125" id="path-1"></path>
        <filter x="-11.5%" y="-6.9%" width="123.1%" height="123.1%" filterUnits="objectBoundingBox" id="filter-2">
            <feMorphology radius="0.5" operator="dilate" in="SourceAlpha" result="shadowSpreadOuter1"></feMorphology>
            <feOffset dx="0" dy="1" in="shadowSpreadOuter1" result="shadowOffsetOuter1"></feOffset>
            <feGaussianBlur stdDeviation="0.5" in="shadowOffsetOuter1" result="shadowBlurOuter1"></feGaussianBlur>
            <feComposite in="shadowBlurOuter1" in2="SourceAlpha" operator="out" result="shadowBlurOuter1"></feComposite>
            <feColorMatrix values="0 0 0 0 0   0 0 0 0 0   0 0 0 0 0  0 0 0 0.5 0" type="matrix" in="shadowBlurOuter1"></feColorMatrix>
        </filter>
    </defs>
    <g id="Page-1" stroke="none" stroke-width="1" fill="none" fill-rule="evenodd" stroke-linecap="round">
        <g id="openhand" transform="translate(1.000000, 0.000000)">
            <g id="cursor" stroke-linejoin="round">
                <g id="Path">
                    <use fill="black" fill-opacity="1" filter="url(#filter-2)" xlink:href="#path-1"></use>
                    <use stroke="#000000" stroke-width="1" fill="#FFFFFF" fill-rule="evenodd" xlink:href="#path-1"></use>
                </g>
            </g>
            <line x1="16.5" y1="18" x2="16.5" y2="13" id="cursor" stroke="#000000"></line>
            <line x1="13.508" y1="18" x2="13.492" y2="13" id="cursor" stroke="#000000"></line>
            <line x1="10.4895" y1="13" x2="10.5105" y2="18" id="cursor" stroke="#000000"></line>
        </g>
    </g>
</svg>